<?xml version="1.0" encoding="UTF-8" standalone="no"?><!DOCTYPE svg PUBLIC "-//W3C//DTD SVG 1.1//EN" "http://www.w3.org/Graphics/SVG/1.1/DTD/svg11.dtd"><svg width="100%" height="100%" viewBox="0 0 769 998" version="1.1" xmlns="http://www.w3.org/2000/svg" xmlns:xlink="http://www.w3.org/1999/xlink" xml:space="preserve" xmlns:serif="http://www.serif.com/" style="fill-rule:evenodd;clip-rule:evenodd;stroke-linejoin:round;stroke-miterlimit:2;"><path d="M454.48,0c7.996,-0 15.665,3.176 21.319,8.831c5.654,5.654 8.831,13.322 8.831,21.319l-0,124.953c-0,4.243 -1.686,8.313 -4.686,11.313c-3.001,3.001 -7.071,4.687 -11.314,4.687c-0,-0 -0,-0 -0,-0c-8.837,-0 -16,7.163 -16,16l-0,6c-0,5.834 2.318,11.43 6.444,15.556c4.125,4.126 9.721,6.444 15.556,6.444l80.85,-0c7.997,-0 15.665,-3.177 21.319,-8.831c5.654,-5.654 8.831,-13.323 8.831,-21.319c-0,-37.513 -0,-101.188 -0,-138.701c-0,-7.996 3.176,-15.665 8.831,-21.319c5.654,-5.654 13.322,-8.83 21.319,-8.83c31.164,-0 79.536,-0 110.7,-0c16.651,-0 30.15,13.498 30.15,30.149l-0,91.701c-0,16.651 -13.499,30.15 -30.15,30.15l-54.35,-0c-10.77,-0 -19.5,8.73 -19.5,19.5c-0,-0 -0,-0 -0,-0c-0,10.769 8.73,19.5 19.5,19.5c2.597,-0 5.298,-0 8,-0c7.293,-0 14.288,2.897 19.445,8.054c5.158,5.157 8.055,12.152 8.055,19.446l-0,90.35c-0,16.651 -13.499,30.15 -30.15,30.15c-33.617,-0 -86.002,-0 -106.85,-0c-2.387,-0 -4.676,-0.949 -6.364,-2.636c-1.688,-1.688 -2.636,-3.977 -2.636,-6.364c-0,-0.001 -0,-0.002 -0,-0.002c-0,-2.387 -0.948,-4.675 -2.636,-6.363c-1.687,-1.687 -3.976,-2.635 -6.362,-2.635c-2.1,-0 -4.446,-0 -6.902,-0c-7.453,-0 -14.6,2.96 -19.87,8.23c-5.27,5.27 -8.23,12.417 -8.23,19.87l-0,103.335c-0,7.996 3.176,15.665 8.831,21.319c5.654,5.654 13.322,8.831 21.319,8.83l42.058,0c6.045,0.001 11.842,-2.401 16.116,-6.675c4.275,-4.274 6.676,-10.072 6.676,-16.116l-0,-0.001c-0,-6.045 2.401,-11.842 6.676,-16.117c4.274,-4.274 10.071,-6.675 16.116,-6.675c27.241,-0 72.917,-0 103.058,-0c7.996,-0 15.665,3.176 21.319,8.83c5.654,5.654 8.831,13.323 8.831,21.319c-0,27.813 -0,68.888 -0,96.701c-0,7.996 -3.177,15.665 -8.831,21.319c-5.654,5.654 -13.323,8.831 -21.319,8.831c-29.905,-0 -74.847,-0 -100.35,-0c-10.77,-0 -19.5,-8.731 -19.5,-19.5c-0,-0 -0,-0 -0,-0c-0,-5.172 -2.055,-10.132 -5.712,-13.789c-3.656,-3.657 -8.616,-5.711 -13.788,-5.711c-15.048,-0 -36.133,-0 -53.35,-0c-16.652,-0 -30.15,13.498 -30.15,30.149l-0,78.701c-0,7.996 3.176,15.665 8.831,21.319c5.654,5.654 13.322,8.831 21.319,8.831c15.091,-0 33.125,-0 47.35,-0c6.498,-0 12.729,-2.582 17.324,-7.176c4.595,-4.595 7.176,-10.827 7.176,-17.324l-0,-0c-0,-6.498 2.581,-12.73 7.176,-17.324c4.594,-4.595 10.826,-7.176 17.324,-7.176l96.35,-0c16.651,-0 30.15,13.498 30.15,30.149c-0,27.323 -0,67.378 -0,94.701c-0,16.651 -13.499,30.15 -30.15,30.15c-26.552,-0 -64.994,-0 -91.35,-0c-16.292,-0 -29.5,-13.208 -29.5,-29.5l-0,-0c-0,-16.293 -13.208,-29.5 -29.5,-29.5l-138.35,-0c-16.652,-0 -30.15,13.498 -30.15,30.149c-0,14.503 -0,31.667 -0,45.351c-0,13.531 10.969,24.5 24.5,24.5l-0,-0c13.531,-0 24.5,10.969 24.5,24.5l-0,28.5c-0,6.075 -4.925,11 -11,11c-0,-0 -0,-0 -0,-0c-2.917,-0 -5.715,1.159 -7.778,3.221c-2.063,2.063 -3.222,4.861 -3.222,7.779c-0,9.19 -0,22.744 -0,35.122c-0,7.997 -3.177,15.665 -8.831,21.319c-5.654,5.655 -13.323,8.831 -21.319,8.831c-19.511,0 -44.819,0 -64.33,0c-7.997,0 -15.665,-3.176 -21.319,-8.831c-5.655,-5.654 -8.831,-13.322 -8.831,-21.319c0,-12.378 0,-25.932 0,-35.122c0,-2.918 -1.159,-5.716 -3.222,-7.779c-2.063,-2.062 -4.861,-3.221 -7.778,-3.221c-0,-0 -0,-0 -0,-0c-6.075,-0 -11,-4.925 -11,-11c0,-7.831 0,-18.666 0,-28.5c0,-13.531 10.969,-24.5 24.5,-24.5l0,-0c13.531,-0 24.5,-10.969 24.5,-24.5l0,-45.351c-0,-16.651 -13.498,-30.149 -30.15,-30.149c-37.51,-0 -101.144,-0 -138.35,-0c-16.292,-0 -29.5,13.207 -29.5,29.5c0,-0 0,-0 0,-0c-0,16.292 -13.208,29.5 -29.5,29.5c-26.356,-0 -64.798,-0 -91.35,-0c-16.652,-0 -30.15,-13.499 -30.15,-30.15c0,-27.323 0,-67.378 -0,-94.701c0,-16.651 13.498,-30.149 30.15,-30.149c28.285,-0 70.063,-0 96.35,-0c6.498,-0 12.729,2.581 17.324,7.176c4.595,4.594 7.176,10.826 7.176,17.324c0,-0 0,-0 0,-0c0,13.531 10.969,24.5 24.5,24.5l47.35,-0c7.997,-0 15.665,-3.177 21.319,-8.831c5.655,-5.654 8.831,-13.323 8.831,-21.319c0,-23.3 0,-55.401 0,-78.701c-0,-16.651 -13.498,-30.149 -30.15,-30.149l-53.35,-0c-5.172,-0 -10.132,2.054 -13.789,5.711c-3.657,3.657 -5.711,8.617 -5.711,13.789c0,-0 0,-0 0,-0c-0,10.769 -8.73,19.5 -19.5,19.5l-100.35,-0c-7.997,-0 -15.665,-3.177 -21.319,-8.831c-5.655,-5.654 -8.831,-13.323 -8.831,-21.319c0,-27.813 0,-68.888 0,-96.701c-0,-7.996 3.176,-15.665 8.831,-21.319c5.654,-5.654 13.322,-8.83 21.319,-8.83c30.141,-0 75.817,-0 103.058,-0c6.045,-0 11.842,2.401 16.116,6.675c4.275,4.275 6.676,10.072 6.676,16.117c0,-0 0,0 0,0.001c0,6.044 2.401,11.842 6.676,16.116c4.274,4.274 10.071,6.676 16.116,6.676l42.058,-0c7.997,-0 15.665,-3.177 21.319,-8.831c5.655,-5.654 8.831,-13.323 8.831,-21.319c0,-29.616 0,-74.447 0,-103.335c-0,-7.453 -2.961,-14.6 -8.23,-19.87c-5.27,-5.27 -12.417,-8.23 -19.87,-8.23l-6.902,-0c-2.386,-0 -4.675,0.948 -6.363,2.635c-1.687,1.688 -2.635,3.976 -2.635,6.363c0,0 0,0.001 0,0.002c0,2.387 -0.948,4.676 -2.636,6.364c-1.688,1.687 -3.977,2.636 -6.364,2.636c-20.848,-0 -73.233,-0 -106.85,-0c-16.652,-0 -30.15,-13.499 -30.15,-30.15c0,-26.484 0,-64.688 0,-90.35c-0,-7.294 2.897,-14.289 8.055,-19.446c5.157,-5.157 12.152,-8.054 19.445,-8.054l8,-0c10.77,-0 19.5,-8.731 19.5,-19.5c0,-0 0,-0 0,-0c-0,-10.77 -8.73,-19.5 -19.5,-19.5c-15.291,-0 -36.841,-0 -54.35,-0c-16.652,-0 -30.15,-13.499 -30.15,-30.15l0,-91.701c0,-16.651 13.498,-30.149 30.15,-30.149l110.7,-0c7.997,-0 15.665,3.176 21.319,8.83c5.655,5.654 8.831,13.323 8.831,21.319c0,37.513 0,101.188 0,138.701c-0,7.996 3.176,15.665 8.831,21.319c5.654,5.654 13.322,8.831 21.319,8.831c24.596,-0 58.771,-0 80.85,-0c5.835,-0 11.431,-2.318 15.556,-6.444c4.126,-4.126 6.444,-9.722 6.444,-15.556l0,-6c-0,-8.837 -7.163,-16 -16,-16l-0,-0c-4.243,-0 -8.313,-1.686 -11.314,-4.687c-3,-3 -4.686,-7.07 -4.686,-11.313c0,-28.506 0,-88.502 0,-124.953c-0,-7.997 3.176,-15.665 8.831,-21.319c5.654,-5.655 13.322,-8.831 21.319,-8.831l140.33,0Z" style="fill:#1a1a1a;"/></svg>