<?xml version="1.0" encoding="UTF-8"?>
<svg id="Livello_2" data-name="Livello 2" xmlns="http://www.w3.org/2000/svg" viewBox="0 0 43.8 46.14">
  <defs>
    <style>
      .cls-1 {
        stroke-width: 0px;
      }
    </style>
  </defs>
  <g id="Livello_1-2" data-name="Livello 1">
    <path class="cls-1" d="M8.62,5.27c.64.12,1.68.3,2.92.52.38-1.66.72-3.13,1.33-5.79,3.24,6.6,9.49,4.8,14.02,7.11,2.76,1.41,5.49,3.19,7.7,5.34,9.01,8.8,10.57,19.74,8.27,31.54-.17.89-.83,2.14-2.74,2.14-15.29.01-15.25-.03-25.07-.04-1.53-.04-3.96-.58-4.3-2.34s.88-3.32,1.99-4.5c1.84-1.95,4.22-3.37,6.21-5.19,1.1-1.01,3.59-2.22,1.55-3.88-1.15-.94-3.66-.65-5.42-.29-1.29.27-2.27,1.81-3.57,2.33-2.29.93-4.67,1.84-7.1,2.16-3.29.44-5.25-2.39-4.07-5.53.35-.93,1.05-1.72,1.55-2.6,2.61-4.58,5.59-9,7.6-13.83.81-1.95-.53-4.79-.88-7.17Z"/>
  </g>
</svg>