<?xml version="1.0" encoding="UTF-8"?>
<svg id="Livello_2" data-name="Livello 2" xmlns="http://www.w3.org/2000/svg" viewBox="0 0 139.59 297.6">
  <defs>
    <style>
      .cls-1 {
        stroke-width: 0px;
      }
    </style>
  </defs>
  <g id="Livello_1-2" data-name="Livello 1">
    <path class="cls-1" d="M138.88,112.88c-1.32-2.3-1.48-4.7-.51-7.18.25-.64.38-1.32.67-1.94.46-.97.37-1.88.11-2.89-.41-1.62-.6-3.28-.93-4.93-.19-.96-.33-1.98-.76-2.85-1.37-2.73-2.78-5.43-4.97-7.63-.97-.98-1.36-2.3-.83-3.63.74-1.84,1.56-3.67,2.49-5.42,1.05-1.93,1.57-3.91,1.22-6.09-.2-1.23-.44-2.44-.64-3.67-.79-4.72-2.91-8.63-6.85-11.48-.41-.3-.83-.87-.87-1.35-.19-2-1.31-3.33-2.85-4.38-.98-.67-1.3-1.64-1.46-2.7-.11-.73-.07-1.5-.22-2.22-.15-.71-.41-1.41-.73-2.04-.58-1.16-1.71-1.54-2.86-1.93-2.47-.84-4.94-1.68-7.35-2.66-1.85-.74-2.3-1.76-1.94-3.71.13-.67.39-1.32.5-2,.39-2.6.67-5.18-.76-7.62-1.12-1.9-2.67-3.09-4.95-3.12-.87-.01-1.74.11-2.61.14-1.49.06-2-.39-2.23-1.84-.11-.67-.2-1.36-.41-2.01-.41-1.23-1.26-1.81-2.54-1.74-.73.05-1.46.27-2.2.4-.67.12-1.33.26-2.02.33-1,.09-1.63-.35-1.91-1.36-.28-.96-.73-1.85-1-2.81-.27-.96-.94-1.35-1.81-1.68-1.7-.67-3.45-.57-5.17-.46-2.15.13-3.93-.52-5.39-2.04-1.3-1.35-2.89-1.62-4.62-1.45-2.22.21-4.43.58-6.66.02-.64-.15-1.37-.01-2.04.08-2.52.38-5.03.78-7.55,1.19-.73.12-1.32-.01-1.9-.5-1.03-.81-2.14-1.49-3.46-1.25-.41-.84-.56-1.59-1-1.95-2.47-1.95-5.36-3.11-8.26-4.23-1.44-.57-2.83-.3-4.17.3-1,.44-1.17.97-.7,1.94.59,1.23,1.22,2.44,1.87,3.64,1.25,2.34,1.06,3.13-.99,4.76-2.01,1.57-3.93,3.24-5.91,4.84-1.62,1.31-2.57,2.96-3.01,5.01-.24,1.06-.63,2.26-1.35,3.01-1.57,1.62-2.47,3.38-2.27,5.66.01.24-.06.48-.09.73-.24,2.09.11,3.98,1.76,5.44.77.68.97,1.55,1.02,2.52.08,1.46-.46,2.67-1.33,3.78-1.26,1.62-2.53,3.22-3.7,4.9-1.58,2.29-3.21,4.57-4.56,7s-2.41,5.02-3.53,7.57c-.9,2.06-1.89,4.1-2.5,6.24-2.02,6.99-3.98,14.01-5.79,21.06-.73,2.81-1.09,5.73-1.48,8.62-.68,4.94-1.2,9.89-3.64,14.39-.87,1.64-1.16,3.47-1.23,5.4-.09,3.05.5,5.93,1.23,8.83.5,1.98,1.06,3.98,1.25,6.01.2,2.21-.18,4.48,0,6.7.21,2.54.7,5.04,1.15,7.55.31,1.72,3.43,2.92,4.88,1.29.57-.64,1.11-1.32,1.58-2.06.54-.83,1.06-1.69,1.46-2.6.85-1.94,2.81-2.01,4.05-.08.6.92,1.02,1.98,1.45,3.01.28.68.57,1.29,1.43,1.19,2.63-.26,5.11-.86,7.15-2.8,2.65-2.5,4.26-5.65,5.8-8.85,1.37-2.85,2.13-5.79,1.84-9.02-.22-2.47-.12-4.97.06-7.44.18-2.44.7-4.87,2.41-6.74,3.11-3.39,6.12-6.9,10.33-9.04,1.55-.79,2.98-1.8,4.5-2.66,2.4-1.36,5.06-2.06,7.72-2.69,1.31-.31,2.28-.02,3.08,1.33,1.36,2.27,2.39,4.62,2.99,7.19,1.06,4.45.9,8.88-.19,13.3-.43,1.75-1.18,3.43-1.51,5.19-1.06,5.68-3.31,10.95-5.7,16.13-1.45,3.15-3.37,6.08-4.94,9.18-2.54,4.97-6.06,9.26-9.31,13.74-1.8,2.48-3.43,5.03-4.46,7.94-.77,2.16-.24,4.97,2.04,5.67.9.28,1.2,1,1.24,1.89.02,1.03-.17,1.95-.81,2.8-.47.64-.85,1.37-1.18,2.11-.71,1.64-.38,2.94.85,4.23,1.1,1.16,2.37,2,3.91,2.4,1.94.52,3,1.94,3.72,3.66.68,1.67,1.23,3.38,1.87,5.07.93,2.47.98,4.89-.58,7.13-.77,1.11-1.65,2.17-2.55,3.19-4.07,4.55-5.13,8.61-2.37,14.92.67,1.55,1.96,2.82,2.98,4.23.58.8,1.25,1.56,1.7,2.43.47.93.19,1.46-.79,1.91-.73.33-1.52.56-2.26.9-1.28.6-2.06,1.58-2.09,3.05-.07,2.55-.48,3-3.05,3.52-2.2.44-4.39.87-6.54,1.48-2.8.8-5.56,1.76-8.34,2.67-.47.15-.93.35-1.38.58-2.44,1.2-4.95,2.31-7.32,3.66-3.78,2.14-7.09,4.81-8.99,8.88-.45.96-1.02,1.87-1.64,2.72-1.91,2.56-2.26,5.41-1.64,8.44-1.46,1.17-1.57,1.32-1.54,3.13.05,1.87.32,3.74.19,5.6-.25,3.72,1.61,6.24,4.5,8.02,4.13,2.55,8.53,4.59,13.31,5.72,4.87,1.16,9.68,2.56,14.69,3.11,2.96.33,5.89.94,8.86,1.26,3.77.4,7.56.66,11.34.91,2.47.17,4.96.11,7.43.31,4.23.35,8.44.41,12.67.09,4.83-.38,9.66-.64,14.49-1.12,3.67-.35,7.26-1.04,10.87-1.63,3.85-.61,7.62-1.75,11.43-2.62,5.02-1.13,9.73-3.17,14.04-5.85,4.9-3.06,6.56-6.06,5.5-12.09-.45-2.5-.8-5.02-1.25-7.52-.45-2.46-.94-4.91-2.57-6.92-1.22-1.48-2.53-2.89-2.59-4.97,0-.17-.18-.32-.25-.5-1.18-2.44-3.22-4.1-5.35-5.62-3.58-2.55-7.82-3.76-11.87-5.3-2.17-.83-4.54-1.23-6.83-1.71-2.98-.63-5.96-1.2-8.96-1.67-1.28-.2-2-.69-2.31-1.97-.48-1.96-1.68-3.44-3.47-4.43-.57-.32-1.04-.8-1.63-1.28.44-.8.72-1.51,1.16-2.09,2.14-2.78,3.02-6.01,3.25-9.4.26-3.73-.39-7.22-3.85-9.51-.11-.07-.2-.14-.3-.24-2.6-2.56-4.32-5.46-3.59-9.31.12-.61.2-1.24.17-1.85-.21-3.57,1.37-6.11,4.42-7.81,1.63-.91,3.27-1.8,4.93-2.67,1.26-.67,1.65-1.62,1.06-2.91-.22-.51-.6-.94-.96-1.37-.59-.72-1.23-1.41-1.82-2.13-1.26-1.52-1.22-2.33.47-3.27,1.56-.86,3.24-1.56,4.94-2.14,1.67-.58,2.91-1.46,3.84-3.02.92-1.54,2.08-2.94,3.27-4.29,3.93-4.48,8.74-7.71,14.26-9.92,4.19-1.68,7.16-4.64,9.21-8.59,2.5-4.83,3.32-9.99,2.88-15.37-.17-2.15-.08-2.29,1.98-2.87,3-.84,4.84-2.87,6-5.67,1.49-3.61,1.74-7.5,2.44-11.28.24-1.22.05-2.47-.61-3.61ZM67.06,8.04c.04-.06.08-.13.13-.2.01.01.02.04.04.05l-.17.15Z"/>
  </g>
</svg>