<?xml version="1.0" encoding="UTF-8"?>
<svg id="Livello_2" data-name="Livello 2" xmlns="http://www.w3.org/2000/svg" viewBox="0 0 139.6 297.62">
  <defs>
    <style>
      .cls-1 {
        fill: #010101;
        stroke-width: 0px;
      }
    </style>
  </defs>
  <g id="Livello_2-2" data-name="Livello 2">
    <g id="Livello_1-2" data-name="Livello 1-2">
      <path class="cls-1" d="M139.5,116.5c-.7,3.78-.95,7.67-2.44,11.28-1.16,2.8-3,4.83-6,5.67-2.06.58-2.15.72-1.98,2.86.44,5.38-.38,10.54-2.88,15.37-2.05,3.95-5.02,6.91-9.21,8.59-5.52,2.21-10.33,5.44-14.26,9.92-1.19,1.35-2.35,2.75-3.27,4.29-.93,1.56-2.17,2.44-3.84,3.02-1.7.58-3.38,1.28-4.94,2.14-1.69.94-1.73,1.75-.47,3.27.59.72,1.23,1.41,1.82,2.13.36.43.74.86.96,1.37.59,1.29-.12,7.36-1.37,8.05-2.6,6.81-2.54,9.03-2.54,9.03l.11.71c18.64,18.64-5.38,28.9,1.66,28.9s5.47,6.8,5.47,6.8c42.63,0,39.44,22.71,39.44,40.47s-65.96,17.24-65.96,17.24c0,0-65.96.51-65.96-17.24s-3.19-40.47,39.44-40.47c0,0-1.58-6.8,5.47-6.8s-16.98-10.26,1.66-28.9l.11-.71s.06-2.33-2.74-9.56c-.71-1.47-1.74-2.66-3.47-3.12-1.54-.4-2.81-1.24-3.91-2.4-1.23-1.29-1.56-2.59-.85-4.23.33-.74.71-1.47,1.18-2.11.64-.85.83-1.77.81-2.8-.04-.89-.34-1.61-1.24-1.89-2.28-.7-2.81-3.51-2.04-5.67,1.03-2.91,2.66-5.46,4.46-7.94,3.25-4.48,6.77-8.77,9.31-13.74,1.57-3.1,3.49-6.03,4.94-9.18,2.39-5.18,4.64-10.45,5.7-16.13.33-1.76,1.08-3.44,1.51-5.19,1.09-4.42,1.25-8.85.19-13.3-.6-2.57-1.63-4.92-2.99-7.19-.8-1.35-1.77-1.64-3.08-1.33-2.66.63-5.32,1.33-7.72,2.69-1.52.86-2.95,1.87-4.5,2.66-4.21,2.14-7.22,5.65-10.33,9.04-2.74,3-2.43,7.42-2.55,11.03-.04,1.03-.02,2.06.07,3.09.31,3.25-.45,6.22-1.83,9.08-1.54,3.21-3.15,6.35-5.8,8.85-2.04,1.94-4.52,2.55-7.15,2.8-.86.1-1.15-.51-1.43-1.19-.43-1.03-.85-2.09-1.45-3-1.24-1.93-3.2-1.87-4.05.08-.4.91-.92,1.77-1.46,2.6-.47.73-1.01,1.42-1.58,2.06-1.45,1.63-4.57.43-4.88-1.29-.45-2.51-.94-5.01-1.15-7.55-.18-2.22.2-4.49,0-6.7-.19-2.03-.75-4.03-1.25-6.01-.73-2.9-1.32-5.78-1.23-8.83.07-1.93.36-3.76,1.23-5.4,2.44-4.5,2.96-9.45,3.64-14.39.39-2.89.75-5.81,1.48-8.62,1.81-7.05,3.77-14.07,5.79-21.06.61-2.14,1.6-4.18,2.5-6.24,1.12-2.55,2.18-5.14,3.53-7.57,1.35-2.43,2.98-4.71,4.56-7,1.17-1.68,2.44-3.28,3.7-4.9.87-1.11,1.41-2.32,1.33-3.78-.05-.97-.25-1.84-1.02-2.52-1.65-1.46-2-3.35-1.76-5.44.03-.25.1-.49.09-.73-.2-2.28.7-4.04,2.27-5.66.72-.75,1.11-1.95,1.35-3.01.44-2.05,1.39-3.7,3.01-5.01,1.98-1.6,3.9-3.27,5.91-4.84,2.05-1.63,2.24-2.42.99-4.76-.65-1.2-1.28-2.41-1.87-3.64-.47-.97-.3-1.5.7-1.94,1.34-.6,2.73-.87,4.17-.3,2.9,1.12,5.79,2.28,8.26,4.23.44.36,1.01.97,1.28,1.45,2.68.27,2.15.94,3.18,1.75.58.49,1.17.62,1.9.5,2.52-.41,5.03-.81,7.55-1.19.46-.07.75-.1,1.22-.1.48-.01.96.06,1.44.16,2.6.54,3.98.03,6.04-.16,1.73-.17,3.32.1,4.62,1.45,1.46,1.52,3.24,2.17,5.39,2.04,1.72-.11,3.47-.21,5.17.46.87.33,1.54.72,1.81,1.68.27.96.72,1.85,1,2.81.28,1.01.91,1.45,1.91,1.36.69-.07,1.35-.21,2.02-.33.74-.13,1.47-.35,2.2-.4,1.28-.07,2.13.51,2.54,1.74.21.65.3,1.34.41,2.01.23,1.45.74,1.9,2.23,1.84.87-.03,1.74-.15,2.61-.14,2.28.03,3.83,1.22,4.95,3.12,1.43,2.44,1.15,5.02.76,7.62-.11.68-.37,1.33-.5,2-.36,1.95.09,2.97,1.94,3.71,2.41.98,4.88,1.82,7.35,2.66,1.15.39,2.28.77,2.86,1.93.32.63.58,1.33.73,2.04.15.72.11,1.49.22,2.22.16,1.06.48,2.03,1.46,2.7,1.54,1.05,2.66,2.38,2.85,4.38.04.48.46,1.05.87,1.35,3.94,2.85,6.06,6.76,6.85,11.48.2,1.23.44,2.44.64,3.67.35,2.18-.17,4.16-1.22,6.09-.93,1.75-1.75,3.58-2.49,5.42-.53,1.33-.14,2.65.83,3.63,2.19,2.2,3.6,4.89,4.97,7.63.43.86.57,1.89.76,2.84.33,1.66.52,3.31.93,4.93.26,1.02.35,1.92-.11,2.89-.29.63-.42,1.31-.67,1.95-.97,2.48-.81,4.87.51,7.18v-.02c.67,1.14.86,2.39.62,3.61Z"/>
    </g>
  </g>
</svg>