<?xml version="1.0" encoding="UTF-8"?>
<svg id="Livello_2" data-name="Livello 2" xmlns="http://www.w3.org/2000/svg" viewBox="0 0 30.82 41.21">
  <defs>
    <style>
      .cls-1 {
        stroke-width: 0px;
      }
    </style>
  </defs>
  <g id="Livello_1-2" data-name="Livello 1">
    <path class="cls-1" d="M14.55,0c2.33-.06,4.06,1.25,4.06,3.61,0,2.17,1.01,2.83,2.76,3.51,3.56,1.39,6.28,3.74,7.65,8.22l-9.22.17c-.52,6.17,5.97,11.38.32,17.23,4.67,1.6,8.12,3.85,10.69,8.18-5.33.1-10.5.19-15.6.28h.37c-5.09,0-10.26,0-15.6,0,2.5-4.38,5.9-6.69,10.54-8.37-5.75-5.75.65-11.08.01-17.24H1.34c1.29-4.51,3.96-6.91,7.5-8.36,1.74-.71,2.74-1.39,2.7-3.56C11.49,1.33,13.2-.02,15.53,0"/>
  </g>
</svg>