<?xml version="1.0" encoding="UTF-8"?>
<svg id="Livello_2" data-name="Livello 2" xmlns="http://www.w3.org/2000/svg" viewBox="0 0 17.36 16.2">
  <defs>
    <style>
      .cls-1 {
        fill: #1d1d1b;
        stroke-width: 0px;
      }
    </style>
  </defs>
  <g id="Livello_1-2" data-name="Livello 1">
    <path class="cls-1" d="M16.28,4.73c-.59,0-1.08.48-1.08,1.08,0,.18.05.35.13.5-.23.21-1.54,1.36-2.33,1.31-.57-.03-.96-2.67-1.09-3.87-.03-.28.13-.53.38-.64.56-.25.95-.81.95-1.48,0-.9-.72-1.63-1.62-1.63s-1.63.73-1.63,1.63c0,.45.18.86.48,1.14.2.19.26.47.15.72-.33.71-.94,1.93-1.56,2.45-.21.18-.54.18-.76,0-.61-.52-1.23-1.74-1.56-2.45-.11-.25-.05-.53.15-.72.3-.29.48-.69.48-1.14,0-.9-.73-1.63-1.63-1.63s-1.62.73-1.62,1.63c0,.66.39,1.22.95,1.48.25.11.41.36.38.64-.13,1.2-.52,3.84-1.09,3.87-.79.05-2.1-1.1-2.33-1.31.08-.15.13-.32.13-.5,0-.6-.49-1.08-1.08-1.08s-1.08.48-1.08,1.08.48,1.08,1.08,1.08c.14,0,.28-.03.41-.09,1.28,1.99,1.88,6.34,1.88,7.9s5.31,1.5,5.31,1.5c0,0,5.31.06,5.31-1.5s.6-5.91,1.88-7.9c.13.06.27.09.41.09.6,0,1.08-.49,1.08-1.08s-.48-1.08-1.08-1.08ZM12.93,14.42c-1.1-1.05-4.25-1-4.25-1,0,0-3.15-.04-4.25,1.01v-.59c0-.16.06-.33.19-.43,1.18-.95,4.06-.95,4.06-.95.09,0,2.89.01,4.06.94.13.1.19.27.19.43v.59ZM13.79,10.99c-1.32-1.26-5.11-1.21-5.11-1.21,0,0-3.79-.04-5.11,1.22v-.71c0-.2.07-.4.23-.52,1.42-1.14,4.88-1.14,4.88-1.14.1,0,3.48.01,4.88,1.13.16.12.23.32.23.52v.71Z"/>
  </g>
</svg>