<?xml version="1.0" encoding="UTF-8"?>
<svg id="Livello_2" data-name="Livello 2" xmlns="http://www.w3.org/2000/svg" viewBox="0 0 52.9 33.65">
  <defs>
    <style>
      .cls-1 {
        stroke-width: 0px;
      }
    </style>
  </defs>
  <g id="Livello_1-2" data-name="Livello 1">
    <path class="cls-1" d="M42.01,9.18c-7,2.17-10.15,7.71-12.57,14.04-.45,1.2-1.84,2.51-3.06,2.8-1.2-.29-2.6-1.6-3.05-2.8-2.39-6.33-5.53-11.87-12.51-14.04C4.07,7.07-1.08,11.21.19,18.13c.56,3.05,2.2,6.03,3.89,8.71,1.5,2.38,3.75,4.29,6.02,6.81,5.3-2.12,10.78-3.19,16.23-3.16h.11c5.47-.03,10.97,1.04,16.29,3.16,2.29-2.52,4.54-4.43,6.06-6.81,1.7-2.68,3.35-5.66,3.91-8.71,1.27-6.92-3.9-11.06-10.69-8.95ZM6.18,18.26c-.2-3.22,1.68-3.87,4.26-3.23,3.65.9,8.25,7.26,8.45,11.4-6.37,2.33-12.31-1.49-12.71-8.17ZM46.68,18.26c-.41,6.68-6.38,10.5-12.77,8.17.2-4.14,4.83-10.5,8.49-11.4,2.58-.64,4.48.01,4.28,3.23Z"/>
    <path class="cls-1" d="M25.56,13.69c.43-.43,1.12-.43,1.55,0,.28.28.67.68,1.2,1.31,1.35,1.58-.29,3.26-1.29,4.07-.4.32-.96.32-1.35,0-1.01-.81-2.64-2.48-1.29-4.07.53-.63.92-1.03,1.2-1.31Z"/>
    <path class="cls-1" d="M27.1.56l.81,2.49c.11.33.42.56.77.56h2.61c.78,0,1.11,1,.47,1.46l-2.11,1.54c-.28.21-.4.57-.29.9l.81,2.49c.24.74-.61,1.36-1.24.9l-2.11-1.54c-.28-.21-.67-.21-.95,0l-2.11,1.54c-.63.46-1.48-.16-1.24-.9l.81-2.49c.11-.33-.01-.7-.29-.9l-2.11-1.54c-.63-.46-.31-1.46.47-1.46h2.61c.35,0,.66-.23.77-.56l.81-2.49c.24-.74,1.29-.74,1.53,0Z"/>
  </g>
</svg>