<?xml version="1.0" encoding="UTF-8"?>
<svg id="Livello_2" data-name="Livello 2" xmlns="http://www.w3.org/2000/svg" viewBox="0 0 30.99 96.64">
  <defs>
    <style>
      .cls-1 {
        fill: #1a1a1a;
        stroke-width: 0px;
      }
    </style>
  </defs>
  <g id="Livello_2-2" data-name="Livello 2">
    <g id="Livello_1-2" data-name="Livello 1-2">
      <path class="cls-1" d="M20.6,45.26c.18-1.73.65-3.94.7-4.37.12-.96-.3-1.86-.72-3.54s1.82-3.45,2.27-4.08,1.53-.72,2.16-.5c.63.23,1.84-.04,2.25-.62.4-.59.09-3.11-.14-3.52-.22-.4-1.32-4.39-.75-4.69.57-.3.24-1.08.36-2.22s-.6-1.08-1.02-1.41-.15-8.34.09-8.4,1.59-1.05,2.01-2.19-.22-4.48-.51-6.6c-.28-2.11-.81-1.63-.81-1.63,0,0-.34,4.53-.34,5.16s-.57.33-.84.43c-.27.11-.21-6.84-.41-6.97-.19-.14-.67-.15-.73,0s-.15,6.61-.36,7.03c-.21.42-.53.23-.74,0-.21-.24.19-4.2-.1-4.3-.29-.1-.5-.1-.62,0s-1.38,5.15-.36,6.83c1.02,1.68,1.82,1.43,2.16,1.77s.18,8.01,0,8.55-.66-.48-.93,1.04c-.27,1.53.84,1.69,1.11,2.98.27,1.29-.18,4.89-.27,5.43s-.33.51-1.86.03-3.12.36-3.09-.36c.03-.72-.03-2.01-1.2-5.07s-2.82-3.12-3.01-2.95c-.2.16-.68.6-.9.3-.23-.31-.48-.23-1.05-.17s-.9.89-1.32,1.38c-.42.5-.27,5.77-.27,6.22s.46,1.55-2.09,1.43-4.8,2.46-4.38,3.78-1.73,4.15-1.84,4.99c-.12.83-1.01,1.94-1.13,2.42s.24,3.24-.18,4.32c-.42,1.08-.96.6-.72,4.08.06.84.23,1.35.45,1.63-1.43,1.27-2.13,3.21-.63,7.37,2.41,6.66,7.7,8.45,11.16,8.88-.07.7-1.02,1.63-1.02,1.63,6.6,4.2.89,13.81,1.56,14.31.68.51.96,4.45-1.8,4.69-2.76.25-8.4,6.34-7.08,7.32,1.32.97,11.84.97,11.84.97,0,0,10.51,0,11.83-.97,1.32-.98-4.32-7.07-7.08-7.32-2.76-.24-2.47-4.18-1.8-4.69.68-.5-5.04-10.11,1.56-14.31,0,0-.87-.85-1.01-1.54,2.63,0,5.9-.08,7.2-.55,2.25-.81,4.79-3.47,4.79-7.7s-1.89-5.27-2.43-6.44-.79-3.97-.64-5.98c.22-2.96.24-4.05-.88-3.73,0,0-1.97.82-2.36,2.02-1.18,3.64-.51-1.47-1.95-1.68,0,0-1.98.4-2.13,1.52M4.26,46.53c-.18-1.08,2.1-5.1,2.28-7.08.18-1.98,1.08-2.76,1.74,1.02.13.76.22,1.63.27,2.53-.29.07-.57.68-.75,2.09-.34,2.7-2.1,3.79-3.87,4.78.27-.93.47-2.48.33-3.34ZM8.04,59.13c-3.66.72-8.28-3.54-2.1-6.42,1.37-.64,2.27-1.71,2.83-2.91.06.75.17,1.28.35,1.47.74.76,2.58,7.14-1.08,7.86ZM20.94,53.58c-.69-.9.18-2.55-.24-3.75-.07-.19-.1-.54-.1-.98,1.12.61,3.79,1.46,4.77,2.87,1.26,1.8,2.74,5.27.54,6.12-2.21.85-4.28-3.36-4.97-4.26Z"/>
    </g>
  </g>
</svg>