<?xml version="1.0" encoding="UTF-8"?>
<svg id="Livello_2" data-name="Livello 2" xmlns="http://www.w3.org/2000/svg" viewBox="0 0 168.43 367.04">
  <defs>
    <style>
      .cls-1 {
        stroke-width: 0px;
      }
    </style>
  </defs>
  <g id="Livello_1-2" data-name="Livello 1">
    <path class="cls-1" d="M78.01,277v-2.95c-4.68-1.26-8.57-4.4-13.41-5.41-2.81-.59-5.53-1.75-8.16-2.94-2.92-1.32-5.3-3.41-7.08-6.11-2.12-3.22-2.34-6.54-.95-10.19,2.72-7.15,8.37-10.89,15.05-13.56.44-.18.89-.36,1.35-.47,2.01-.49,3.73-1.37,5.44-2.67,1.96-1.49,4.5-2.27,6.85-3.19.76-.3,1-.59.96-1.33-.05-.87-.01-1.75-.01-2.75-.96-.05-1.83-.07-2.69-.16-2.93-.3-5.87-.5-8.76-1.01-1.32-.23-2.63-.94-3.76-1.7-2.67-1.8-2.52-4.46.26-6.1,2.71-1.6,5.67-2.47,8.77-2.91,1.5-.21,3-.37,4.51-.49,1.59-.12,1.75-.27,1.59-1.87-2.17-.66-4.35-1.26-6.49-1.99-2.37-.81-4.47-2.06-6.23-3.91-.58-.61-1.41-1.04-2.21-1.36-9.05-3.67-15.42-10-19.1-19.06-.74-1.81-.89-3.59-.37-5.49.86-3.13.14-4.89-2.53-6.63-2.12-1.38-2.72-3.82-1.29-5.93.71-1.06.71-2.03.33-3.16-.83-2.47-2.22-4.58-4.02-6.45-.27-.28-.53-.58-.85-.94,1.01-1.05,1.03-2.28.91-3.6-.19-2.24,1.08-4.31,3.39-5.26,5-2.04,9.79-2,14.05,1.85.32.29.69.55,1.05.79.63.41,1.27.8,2.03,1.27.09-2.41.9-4.37,2.51-6.07.37-.39.05-1.44.05-2.21-6.69-.25-12.14-2.79-16.7-7.29-4.06-4.01-6.61-8.96-8.55-14.25-1.98-5.41-3.05-11.02-3.59-16.74-.03-.36-.03-.72-.04-1.08-.01-1.88,1.04-2.87,2.92-2.77,2.77.15,2.82.17,3.81-2.44,2.2-5.78,4.61-11.5,6.44-17.4,1.98-6.4,3.21-13,2.86-19.77-.11-2.18-.34-4.37-.77-6.51-.7-3.45-3.63-4.61-6.88-3.37-3.14,1.2-6.45,2.01-9.74,2.74-2.79.61-4.76,2.03-6.03,4.57-1.55,3.13-3.39,6.06-6.32,8.12-.52.36-1.08.68-1.66.94-2.72,1.21-4.03.81-5.59-1.72-.42-.68-.9-.96-1.68-.71-.49.16-1,.26-1.49.41-2.27.7-3.24.35-4.5-1.64-2.08-3.29-2.09-6.85-.9-10.34,2.67-7.85,5.53-15.62,8.3-23.44,1.13-3.18,2.2-6.39,3.35-9.57.43-1.2.33-2.31-.04-3.5-.64-2.04-1.19-4.12-1.77-6.18-.06-.22-.09-.47-.07-.7.15-2.06.16-2.06,3.07-2.41.29-1.66.58-3.34.87-5.01.02-.12.02-.24.06-.35.33-.95.28-2.23,1.48-2.54,1.23-.31,2.09.64,2.87,1.42.64.64,1.11,1.46,1.65,2.19,2.66,3.58,6.09,5.48,10.67,5.05,4.1-.38,8.21-.58,12.27.42.42.1.87.12,1.31.09,9.85-.53,17.05,3.78,21.97,12.14,1.18,2.01,2.57,3.44,5.03,3.71,1.79.19,3.31,1.12,4.52,2.46,1.85,2.03,3.21,4.35,4.1,6.97.31.91,1,1.69,1.38,2.58.29.66.54,1.42.49,2.12-.09,1.24.45,2.18,1.17,3.03.28.34.97.69,1.29.56.46-.19.9-.75,1.07-1.24.18-.49-.1-1.13.03-1.65.26-1.01.62-2,1.03-2.96.31-.72.9-1.33,1.14-2.06.79-2.47,2-4.69,3.64-6.7,1.39-1.71,3.14-2.86,5.33-3.13,2.16-.27,3.55-1.46,4.53-3.3,1.64-3.07,3.78-5.73,6.58-7.83,4.47-3.35,9.47-5.07,15.11-4.66.55.04,1.14.08,1.67-.05,4.15-1.01,8.33-.8,12.51-.43,4.42.39,7.77-1.49,10.45-4.87.93-1.18,1.86-2.41,3-3.36,1.32-1.09,2.3-.72,2.73.95.53,2.12.89,4.29,1.35,6.6.28,0,.67,0,1.06,0,1.64,0,1.84.05,1.8,1.74-.03,1.48-.19,3.09-.79,4.42-1.57,3.43-1.1,6.59.2,10.01,3.43,9.01,6.6,18.12,9.84,27.2.85,2.37,1.49,4.78,1.38,7.36-.09,2.15-.76,4.07-1.99,5.79-.96,1.33-2.09,1.67-3.68,1.2-.38-.11-.76-.25-1.14-.35q-1.81-.46-2.84,1.15c-.96,1.49-2.17,1.97-3.89,1.51-3.35-.9-5.48-3.29-7.3-6.04-.79-1.19-1.48-2.46-2.13-3.74-1.18-2.28-2.98-3.67-5.5-4.2-2.34-.49-4.68-1.04-7-1.64-1.07-.28-2.13-.68-3.14-1.15-3.2-1.5-6.18-.08-6.94,3.41-.88,4.05-.98,8.17-.61,12.28.9,10.18,4.13,19.72,8.16,29.02.59,1.36,1.15,2.72,1.68,4.11.31.81.79,1.17,1.65.93.04-.01.08-.02.12-.03,3.64-.53,4.54.42,4.18,4.08-.75,7.7-2.51,15.11-6.05,22.03-3.18,6.23-7.58,11.3-14.24,13.91-2.31.9-4.86,1.16-7.29,1.76-.43.11-1.02.34-1.15.67-.24.6-.59,1.27.15,1.95,1.66,1.51,2.28,3.51,2.38,5.94,1.19-.84,2.34-1.49,3.3-2.34,4.27-3.81,9.7-3.69,14.33-1.43,2.19,1.07,3.03,3.06,2.88,5.44-.06,1.04.34,2.12.58,3.46-.56.64-1.47,1.51-2.15,2.53-.83,1.26-1.5,2.63-2.17,3.98-.65,1.33-.68,2.57.23,3.93,1.3,1.96.62,4.34-1.35,5.64-2.72,1.79-3.47,3.49-2.6,6.61.58,2.09.3,3.98-.51,5.93-3.7,8.93-10.09,15.08-19.01,18.7-.89.36-1.75.97-2.44,1.66-2.72,2.71-6.22,3.78-9.76,4.79-.54.15-1.08.3-1.63.39-.68.12-1.19.25-1.12,1.17.07.96.69,1,1.39,1.11,3.03.47,6.09.81,9.06,1.51,1.71.4,3.36,1.27,4.88,2.18,2.36,1.43,2.37,3.9.17,5.61-1.96,1.52-4.26,2.17-6.67,2.39-2.62.25-5.26.33-7.88.56-.7.06-1.73-.3-1.88.93-.24,1.99.1,2.73,1.42,3.1,2.58.74,5.27,1.4,7.25,3.24,1.67,1.55,3.58,2.17,5.63,2.86,4.9,1.64,9.48,3.98,12.82,8.04,2.63,3.2,4.65,6.82,4.31,11.21-.26,3.36-2.18,5.84-4.56,8.02-2.96,2.71-6.52,4.38-10.33,5.36-4.24,1.09-8.3,2.49-12.09,4.69-.79.46-1.66.79-2.53,1.08-.72.23-1.03.58-.98,1.37.11,1.98-.35,1.53,1.79,2.16,3.92,1.15,7.77,2.55,11.64,3.88.98.34,1.44,1.13,1.61,2.19.42,2.6.46,2.56,3.11,2.59,1.44.02,2.32-.51,3.25-1.72,1.72-2.23,3.67-4.34,5.81-6.16,2.43-2.08,5.52-2.12,8.54-1.69,1.36.19,2.06,1.27,2.16,2.55.21,2.74.3,5.49.4,8.24.02.63-.09,1.27-.12,1.91-.05,1.01.44,1.4,1.4,1.02.59-.23,1.08-.7,1.66-.92.57-.22,1.23-.45,1.8-.36,1.23.19,1.54.82,1.15,2.01-.55,1.71-1.21,3.39-1.62,5.13-.2.88-.17,1.95.13,2.79,1.19,3.26,1.03,6.26-1.28,9-.53.63-.44.97.3,1.48,1.19.81,2.47,1.7,3.27,2.86,3.09,4.51,6.04,9.12,8.95,13.75.61.98.89,2.2,1.19,3.34.34,1.29.93,2.32,2.04,3.12,1.62,1.17,3.2,2.39,4.72,3.69,4.33,3.7,4.88,8.42,3.68,13.65-.55,2.41-1.99,4.11-3.82,5.62-3.59,2.94-7.82,4.55-12.21,5.61-5.93,1.42-11.92,2.66-17.93,3.62-9.07,1.45-18.24,2.02-27.42,2.26-3.55.09-7.1.25-10.65.2-6.29-.09-12.58-.14-18.86-.51-11.81-.7-23.54-2.13-35.04-5.03-4.21-1.07-8.33-2.44-12.06-4.79-5.82-3.66-6.81-8.33-5.79-14.58.42-2.58,2.1-4.63,4.14-6.28,1.59-1.28,3.28-2.43,4.79-3.78.7-.63,1.4-1.55,1.55-2.43.41-2.37,1.63-4.28,2.9-6.21,2.31-3.53,4.6-7.08,6.91-10.63,1.01-1.56,2.11-3.02,3.98-3.64.17-.06.3-.24.55-.46-.26-.4-.48-.81-.76-1.17-1.84-2.37-2.23-5.01-1.24-7.78.59-1.66.76-3.19.01-4.85-.53-1.19-.81-2.49-1.17-3.75-.17-.59-.78-1.19.08-1.78.85-.59,1.7-.88,2.66-.29.51.31.99.69,1.52.94,1.29.61,1.67.25,1.65-1.15-.04-2.87-.15-5.76.11-8.61.31-3.44,1.93-4.36,5.38-4.06,3.79.33,6.58,2.16,8.86,5.02,1.04,1.3,2.06,2.63,3.14,3.91.29.34.76.55,1.17.77.16.09.39.1.58.1,3.79-.02,3.33.52,4.04-2.89.14-.66.8-1.44,1.43-1.74,3.87-1.86,7.89-3.33,12.16-4.02.42-.07.84-.2,1.32-.32Z"/>
  </g>
</svg>