<?xml version="1.0" encoding="UTF-8"?>
<svg id="Livello_2" data-name="Livello 2" xmlns="http://www.w3.org/2000/svg" viewBox="0 0 26.09 53.6">
  <defs>
    <style>
      .cls-1 {
        fill: #010101;
        stroke-width: 0px;
      }
    </style>
  </defs>
  <g id="Livello_2-2" data-name="Livello 2">
    <path class="cls-1" d="M24.52,20.11c2.18-1.11,1.77-4.92.65-5.67.02.23.01.45-.03.66-.01.03-.01.06-.03.09,0,.02,0,.04,0,.06-.22.82-.89,1.45-1.56,1.79-.3.15-.6.44-.9.76-.44.46-.9,1-1.36,1.25-.48-.24-.94-.78-1.38-1.25-.3-.32-.6-.61-.9-.76-.67-.34-1.34-.97-1.56-1.79-.01-.02-.01-.04-.01-.06-.02-.03-.02-.06-.03-.09-.04-.21-.05-.43-.03-.66-.37.25-.66.83-.8,1.55-.11.49-.14,1.04-.08,1.58.12,1.04.58,1.9,1.53,2.54l1,.67c2.64,1.68,1.35,4.91.58,5.99-.96,1.35-3,.44-3.93-.96-.9-1.35-1.15-1.9-1.29-3.75-.17-2.15-.96-4.95.75-7.76,1.51-2.48-.78-3.16-.81-4.63-.03-1.47,1.11-1.32,2.1-2.79.99-1.47,1.32-2.22.78-2.76-.54-.54-3.78-2.22-4.77-2.94C11.44.46,10.36-.15,8.91.04c-.69.09-.97.13-1.07.15h-.01c-.19.05-1.22-.25-2.24.6C4.51,1.69-.68,4.99.07,7.06s4.11,2.13,4.74,3.21c.63,1.08.01,4,.92,4.65,1.81,1.29,2.32,2.23,1.03,4.8-.85,1.71-1.66,5-1.71,5.65-.04.58-.36,3.42,1.26,5.31.99,1.16,1.8,1.44,2.37,1.51-.28.44-.86.86-.86.86,6.8,3.16.92,10.39,1.61,10.77.7.39.98,3.35-1.86,3.54-2.85.18-8.66,4.77-7.3,5.51,1.37.73,12.2.73,12.2.73,0,0,8.98,0,11.6-.55.26-.06.46-.11.58-.18.44-.24.13-.88-.58-1.63-1.49-1.61-4.78-3.76-6.7-3.88-2.85-.19-2.55-3.15-1.86-3.54.69-.38-5.19-7.61,1.61-10.77,0,0-.67-.48-.95-.95.18-.01.37-.02.58-.02,2.41-.06,5.71-1.26,5.89-3.53.18-2.28-.22-4.86-.17-5.34.13-1.57-.77-1.66,2.05-3.1ZM6.46,7.03c-.35.43-2.04.21-2.37,0-.33-.21-1.32-.3-1.35-.72-.03-.42,2.07-2.97,2.07-2.97,0,0,.99-.75.84-.15-.15.6,1.3,1.7,1.23,2.12-.21,1.2,0,1.2-.42,1.72ZM13.33,6.13c-.72,0-1.13.48-1.5.24-.42-.27-.51-.68-.66-1.11-.09-.26.17-.35.15-.92-.01-.32-.15-1.72-.15-1.72.9-.18,3.27,1.65,3.36,2.37.09.72-.48,1.14-1.2,1.14Z"/>
  </g>
</svg>