<?xml version="1.0" encoding="UTF-8"?>
<svg id="Livello_2" data-name="Livello 2" xmlns="http://www.w3.org/2000/svg" viewBox="0 0 185.01 279.86">
  <defs>
    <style>
      .cls-1 {
        fill: #010101;
        stroke-width: 0px;
      }
    </style>
  </defs>
  <g id="Livello_2-2" data-name="Livello 2">
    <path class="cls-1" d="M92.88,279.86s92.59-2.54,92.13-16.05-22.29-5.47-8.74-16.69-19.69-26.87-22.22-34.87-4.79-15.48-8.99-16.31-14.79-137.76-14.24-141.54,6.13-.36,8.11-10.95,12.2,1.95,12.2-37.2c0,0-22.68-2.97-27.79,0s.64,16.5-5.11,16.5-5.46-5.06-5.46-14.62S95.48.15,92.5.03c-2.97.12-20.28-1.48-20.28,8.09s.3,14.62-5.46,14.62,0-13.53-5.11-16.5-27.79,0-27.79,0c0,39.15,10.22,26.61,12.2,37.2s7.56,7.17,8.11,10.95-10.04,140.7-14.24,141.54-6.46,8.31-8.99,16.31-35.77,23.65-22.22,34.87S.46,250.29,0,263.81s92.13,16.05,92.13,16.05"/>
  </g>
</svg>