<?xml version="1.0" encoding="UTF-8"?>
<svg id="Livello_2" data-name="Livello 2" xmlns="http://www.w3.org/2000/svg" viewBox="0 0 185.05 277.92">
  <defs>
    <style>
      .cls-1 {
        stroke-width: 0px;
      }
    </style>
  </defs>
  <g id="Livello_1-2" data-name="Livello 1">
    <path class="cls-1" d="M14.65,250.68c-1.15-2-2.62-3.19-4.11-4.3-3.2-2.39-4.42-5.53-3.81-9.43.07-.46.15-.96.37-1.37,2.2-4.17,4.8-8.05,8.55-11,2.1-1.66,4.36-3.11,6.43-4.8,5.76-4.72,10.56-10.1,11.4-17.95.25-2.37,1.52-4.06,3.27-5.52,1.08-.91,2.08-1.92,3.19-2.79.76-.59.91-1.24.64-2.09-.15-.45-.25-.93-.44-1.36-.87-1.89-.36-3.45,1.21-4.66.99-.76,1.19-1.68,1.29-2.88.6-6.83,1.33-13.65,2-20.48.51-5.23.99-10.47,1.49-15.7.07-.71.24-1.42.31-2.13.69-7.13,1.36-14.26,2.07-21.39.22-2.21.64-4.41.87-6.62.36-3.4.63-6.8.94-10.21.31-3.33.66-6.65.94-9.98.41-4.85.78-9.7,1.18-14.55.39-4.76.88-9.52,1.18-14.29.3-4.78.44-9.56.64-14.35.04-.85-.19-1.52-1.07-1.94-2.29-1.09-3.7-2.78-3.95-5.46-.17-1.84-1.33-3.21-2.89-4.21-1.54-.99-3.01-2.11-4.62-2.96-.93-.49-1.29-1.08-1.28-2.04,0-.72-.04-1.44-.05-2.16-.03-1.76-.04-1.74-1.87-2.04-1.55-.26-3.18-.16-4.52-1.31-.99-.85-1.55-1.75-1.5-3.07.16-4.39.29-8.79.41-13.18.06-2.24.07-4.48.13-6.71.02-.8.12-1.59.19-2.39.12-1.27.8-2.01,2.08-2.24,1.65-.3,3.26-.82,4.92-.98,3.25-.32,6.52-.47,9.78-.68,2.47-.16,4.93-.34,7.4-.43,3.12-.12,3.8.4,4.23,3.55.42,3.09.62,6.2.93,9.3.14,1.35.26,2.71.51,4.04.35,1.85,1.11,2.43,2.94,2.44,3.39,0,4.83-1.19,5.18-4.57.21-2.06.15-4.15.26-6.22.14-2.71.32-5.42.5-8.14.03-.39.14-.77.27-1.44,14.84.02,29.64.28,44.54.48,0,2.03-.03,3.85,0,5.67.03,1.86.24,2.16,2.09,2,1.82-.16,3.21.81,4.73,1.4.97.38.93,1.39.93,2.28,0,1.99,0,3.98,0,5.91,2.02.82,2.29.77,2.52-1,.38-2.93.57-5.88.88-8.82.22-2.05.5-4.1.78-6.27.57-.11,1.11-.34,1.62-.3,7.39.53,14.79,1.03,22.18,1.68,2.73.24,5.27,1.19,7.3,3.19.79.78,1.23,1.66,1.19,2.77-.14,4.22-.32,8.44-.43,12.67-.06,2.08-.06,4.15,0,6.23.08,2.63-.07,2.87-2.63,3.78-.97.35-1.89.86-2.87,1.18-2.08.67-3.24,1.73-3.35,4.23-.1,2.27-2.17,3.5-4.22,4.08-2.54.72-3.86,2.29-4.41,4.79-.56,2.51-1.76,4.63-4.38,5.57-.83.3-.99.97-1,1.73-.03,3.12-.1,6.23-.08,9.35.01,1.75.17,3.5.29,5.25.27,3.98.61,7.96.81,11.94.17,3.49.13,7,.29,10.49.16,3.51.47,7,.66,10.51.17,3.02.22,6.04.4,9.06.25,4.06.6,8.12.87,12.18.29,4.37.53,8.75.83,13.13.47,6.85.98,13.69,1.44,20.54.34,5.09.61,10.19.93,15.29.24,3.82.39,7.64.82,11.44.13,1.17.93,2.35,1.66,3.35,1.42,1.94,1.55,3.43.19,5.43-1.14,1.68-1.16,1.86.17,3.26,1.69,1.78,3.34,3.63,5.2,5.22.93.79,1.26,1.58,1.19,2.66-.31,4.77,1.89,8.69,4.57,12.25,1.59,2.11,3.9,3.69,5.96,5.43,3.89,3.28,7.63,6.66,10.78,10.72,2.34,3.02,4.21,6.07,4.72,9.95.29,2.22-.52,4.01-1.73,5.54-1.33,1.69-2.81,3.41-5.08,4.06-.43.12-.74.7-1.22,1.18.41.32.62.56.88.67,2.53,1.07,5.13,1.99,7.58,3.21,2.17,1.08,3.88,2.81,4.81,5.11.64,1.6.52,3.28-.84,4.42-1.57,1.32-3.27,2.58-5.1,3.46-5.44,2.59-11.26,4.1-17.15,5.19-6.04,1.11-12.13,1.98-18.21,2.85-2.37.34-4.78.38-7.16.57-10.2.82-20.42,1.06-30.65.94-4.47-.05-8.94-.31-13.41-.44-8.7-.25-17.41-.42-26.11-.73-13.26-.48-26.47-1.58-39.57-3.74-7.08-1.17-14.16-2.46-20.83-5.27-1.24-.52-2.49-1.08-3.65-1.77-1.41-.84-2.3-4.14-1.89-6.11.49-2.36,2.09-3.81,3.9-5.17,2.63-1.98,5.77-2.6,8.83-3.45.45-.12.89-.25,1.83-.51Z"/>
  </g>
</svg>