<?xml version="1.0" encoding="UTF-8"?>
<svg id="Layer_2" data-name="Layer 2" xmlns="http://www.w3.org/2000/svg" viewBox="0 0 90.75 138.31">
  <defs>
    <style>
      .cls-1 {
        stroke-width: .5px;
      }

      .cls-1, .cls-2, .cls-3 {
        fill: none;
      }

      .cls-1, .cls-3 {
        stroke: #020202;
        stroke-miterlimit: 10;
      }

      .cls-3 {
        stroke-width: .75px;
      }
    </style>
  </defs>
  <g id="Layer_2-2" data-name="Layer 2">
    <g>
      <polyline class="cls-3" points=".38 27.94 90.38 27.94 90.38 137.94 .38 137.94 .38 27.94"/>
      <rect class="cls-1" x="5.85" y="32.27" width="78.21" height="101.27"/>
    </g>
    <g>
      <path class="cls-1" d="M44.87,5.66l.04-1.65"/>
      <path class="cls-1" d="M36.12,5.84l.03-1.22s-.24,1.21,8.72,1.04"/>
      <path class="cls-1" d="M45.76,11.37v-3.66s-6.84-1.21-9.69.24l.03-1.14"/>
      <path class="cls-1" d="M25.65,11.58c0-.85,0-1.5.02-1.46.04.12,3.09,2.65,18.44,2.33,0,0,.46-1.25,1.66-1.08"/>
      <path class="cls-1" d="M25.65,13.75c0,.79,0,1.4,0,1.4,5.26-1.89,18.36-1,18.36-1,.44,1.33,1.74,1.12,1.74,1.12v4.22c-4.61.04-5.5-.76-5.5-.76v.88c-.63-.52-1.18-.28-1.18-.28-1.41.64-.88,2.13,0,2.25s1.18-.28,1.18-.28v.56c1.1-1.21,5.5-1,5.5-1v2.71c-1.21,0-2.19.98-2.19,2.19s.98,2.19,2.19,2.19h.91c1.21,0,2.19-.98,2.19-2.19,0-1.21-.98-2.19-2.19-2.19v-2.71s4.4-.2,5.5,1v-.56s.3.4,1.18.28,1.41-1.61,0-2.25c0,0-.56-.24-1.18.28v-.88s-.89.8-5.5.76v-4.22s1.3.2,1.74-1.12c0,0,13.1-.88,18.36,1,0,0,0-.61,0-1.4"/>
      <path class="cls-1" d="M25.7,13.58c-.34.55-.95.92-1.64.92-1.07,0-1.93-.86-1.93-1.93s.86-1.93,1.93-1.93c.64,0,1.2.31,1.55.78"/>
      <path class="cls-1" d="M36.09,6.97c-.2.35-.59.59-1.02.59-.65,0-1.18-.53-1.18-1.18s.53-1.18,1.18-1.18c.45,0,.85.26,1.04.63"/>
      <path class="cls-1" d="M36.13,6.89s-.03.05-.04.08"/>
      <path class="cls-1" d="M45.01,4.05c-.53-.38-.88-1-.88-1.71,0-1.15.94-2.09,2.09-2.09"/>
      <path class="cls-1" d="M47.57,5.66l-.04-1.65"/>
      <path class="cls-1" d="M56.32,5.84l-.03-1.22s.24,1.21-8.72,1.04"/>
      <path class="cls-1" d="M46.67,11.37v-3.66s6.84-1.21,9.69.24l-.03-1.14"/>
      <path class="cls-1" d="M66.79,11.58c0-.85,0-1.5-.02-1.46-.04.12-3.09,2.65-18.44,2.33,0,0-.46-1.25-1.66-1.08"/>
      <path class="cls-1" d="M66.74,13.58c.34.55.95.92,1.64.92,1.07,0,1.93-.86,1.93-1.93s-.86-1.93-1.93-1.93c-.64,0-1.2.31-1.55.78"/>
      <path class="cls-1" d="M56.34,6.97c.2.35.59.59,1.02.59.65,0,1.18-.53,1.18-1.18,0-.65-.53-1.18-1.18-1.18-.45,0-.85.26-1.04.63"/>
      <path class="cls-1" d="M47.42,4.05c.53-.38.88-1,.88-1.71,0-1.15-.94-2.09-2.09-2.09"/>
    </g>
    <path class="cls-2" d="M49.9,128.3c-.17.8,0,1.69,0,1.69"/>
    <path class="cls-2" d="M50.65,128.06s.46.88.52,1.08,0,.68,0,.68"/>
    <g>
      <path class="cls-2" d="M38,96.25l-.11-.68.11.68s.29.2.29.32"/>
      <path class="cls-2" d="M23.84,85.14c.17.2.54.04.58.56s0,.88,0,.88"/>
      <path class="cls-2" d="M25.27,83.01c-.17.8,0,1.69,0,1.69"/>
      <path class="cls-2" d="M26.01,82.77s.46.88.52,1.08,0,.68,0,.68"/>
      <path class="cls-1" d="M24.43,44.06c-1.32,0-2.39-1.44-2.39-3.21s1.07-3.21,2.39-3.21,2.39,1.44,2.39,3.21-1.07,3.21-2.39,3.21"/>
      <path class="cls-1" d="M24.43,72.86s1.08-.02,2.62,0c3.35.05,8.88.34,10.21,1.61,1.93,1.85-2.25,2.17-2.25,2.17h-8.67"/>
      <path class="cls-1" d="M27.06,72.86c-1.13,4.1-.8,7.15-.8,7.15,0,0-.62.32-1.82,0"/>
      <path class="cls-1" d="M24.43,66.26s5.04-.2,7.29.8c2.25,1,1.77,1.19,4.82,1.84"/>
      <path class="cls-1" d="M22.64,78.12l-11.36-.2c-4.34-.88-3.37-2.89-3.37-2.89,0,0-.16-1.45,2.41-3.62,2.57-2.17,2.73-3.21,3.94-8.68,1.21-5.46,2.33-11.65,2.33-11.65,1.67-5.24,4.22-6.58,5.96-6.83,0,0,3.54-.26,4.73.23,1.6.67,3.63,2.24,5.01,6.59,0,0,1.13,6.19,2.33,11.65,1.21,5.46,1.37,6.51,3.94,8.68,2.57,2.17,2.41,3.62,2.41,3.62,0,0,.96,2.01-3.38,2.89l-11.36.2"/>
      <path class="cls-1" d="M24.43,72.86s-1.08-.02-2.62,0c-3.35.05-8.88.34-10.21,1.61-1.93,1.85,2.25,2.17,2.25,2.17h8.67"/>
      <path class="cls-1" d="M21.81,72.86c1.13,4.1.8,7.15.8,7.15,0,0,.62.32,1.82,0"/>
      <path class="cls-1" d="M24.43,66.26s-5.04-.2-7.29.8c-2.25,1-1.77,1.19-4.82,1.84"/>
      <path class="cls-2" d="M70.73,83.73c-.17.8,0,1.69,0,1.69"/>
      <path class="cls-2" d="M71.48,83.49s.46.88.52,1.08,0,.68,0,.68"/>
      <path class="cls-1" d="M65.79,44.06c-1.32,0-2.39-1.44-2.39-3.21s1.07-3.21,2.39-3.21,2.39,1.44,2.39,3.21-1.07,3.21-2.39,3.21"/>
      <path class="cls-1" d="M65.79,72.86s1.08-.02,2.62,0c3.35.05,8.88.34,10.21,1.61,1.93,1.85-2.25,2.17-2.25,2.17h-8.67"/>
      <path class="cls-1" d="M68.41,72.86c-1.13,4.1-.8,7.15-.8,7.15,0,0-.62.32-1.82,0"/>
      <path class="cls-1" d="M65.79,66.26s5.04-.2,7.29.8c2.25,1,1.77,1.19,4.82,1.84"/>
      <path class="cls-1" d="M63.99,78.12l-11.36-.2c-4.34-.88-3.37-2.89-3.37-2.89,0,0-.16-1.45,2.41-3.62,2.57-2.17,2.73-3.21,3.94-8.68,1.21-5.46,2.33-11.65,2.33-11.65,1.67-5.24,4.22-6.58,5.96-6.83,0,0,3.54-.26,4.73.23,1.6.67,3.63,2.24,5.01,6.59,0,0,1.13,6.19,2.33,11.65,1.21,5.46,1.37,6.51,3.94,8.68,2.57,2.17,2.41,3.62,2.41,3.62,0,0,.96,2.01-3.38,2.89l-11.36.2"/>
      <path class="cls-1" d="M65.79,72.86s-1.08-.02-2.62,0c-3.35.05-8.88.34-10.21,1.61-1.93,1.85,2.25,2.17,2.25,2.17h8.67"/>
      <path class="cls-1" d="M63.16,72.86c1.13,4.1.8,7.15.8,7.15,0,0,.62.32,1.82,0"/>
      <path class="cls-1" d="M65.79,66.26s-5.04-.2-7.29.8c-2.25,1-1.77,1.19-4.82,1.84"/>
      <path class="cls-1" d="M45.38,81.43c-1.32,0-2.39-1.44-2.39-3.21s1.07-3.21,2.39-3.21,2.39,1.44,2.39,3.21-1.07,3.21-2.39,3.21"/>
      <path class="cls-1" d="M45.38,110.24s1.08-.02,2.62,0c3.35.05,8.88.34,10.21,1.61,1.93,1.85-2.25,2.17-2.25,2.17h-8.67"/>
      <path class="cls-1" d="M48,110.24c-1.13,4.1-.8,7.15-.8,7.15,0,0-.62.32-1.82,0"/>
      <path class="cls-1" d="M45.38,103.64s5.04-.2,7.29.8c2.25,1,1.77,1.19,4.82,1.84"/>
      <path class="cls-1" d="M43.58,115.5l-11.36-.2c-4.34-.88-3.37-2.89-3.37-2.89,0,0-.16-1.45,2.41-3.62,2.57-2.17,2.73-3.21,3.94-8.68,1.21-5.46,2.33-11.65,2.33-11.65,1.67-5.24,4.22-6.58,5.96-6.83,0,0,3.54-.26,4.73.23,1.6.67,3.63,2.24,5.01,6.59,0,0,1.13,6.19,2.33,11.65,1.21,5.46,1.37,6.51,3.94,8.68,2.57,2.17,2.41,3.62,2.41,3.62,0,0,.96,2.01-3.38,2.89l-11.36.2"/>
      <path class="cls-1" d="M45.37,110.24s-1.08-.02-2.62,0c-3.35.05-8.88.34-10.21,1.61-1.93,1.85,2.25,2.17,2.25,2.17h8.67"/>
      <path class="cls-1" d="M42.75,110.24c1.13,4.1.8,7.15.8,7.15,0,0,.62.32,1.82,0"/>
      <path class="cls-1" d="M45.37,103.64s-5.04-.2-7.29.8c-2.25,1-1.77,1.19-4.82,1.84"/>
    </g>
  </g>
</svg>