<?xml version="1.0" encoding="UTF-8"?>
<svg id="Layer_2" data-name="Layer 2" xmlns="http://www.w3.org/2000/svg" viewBox="0 0 90.1 115.97">
  <defs>
    <style>
      .cls-1 {
        stroke-width: .5px;
      }

      .cls-1, .cls-2 {
        stroke: #070808;
      }

      .cls-1, .cls-2, .cls-3 {
        fill: none;
        stroke-miterlimit: 10;
      }

      .cls-2, .cls-3 {
        stroke-width: .25px;
      }

      .cls-3 {
        stroke: #080909;
      }
    </style>
  </defs>
  <g id="Layer_2-2" data-name="Layer 2">
    <g>
      <ellipse class="cls-1" cx="68.36" cy="21.36" rx="2.03" ry="2.06"/>
      <path class="cls-1" d="M62.75,115.44c-3.75,1.07-7.65-1.14-8.71-4.94-.83-2.96.31-6.01,2.63-7.73"/>
      <path class="cls-1" d="M56.42,102.95c.61-.4,1.34-.63,2.12-.64,2.21-.03,4.02,1.74,4.05,3.96,0,.47-.07.91-.21,1.33,0,0-.16.94-.92,1.65-.32.3-.73.49-1.18.57"/>
      <path class="cls-1" d="M60.28,109.81c-.12.02-.25.03-.38.03-1.35,0-2.44-1.16-2.44-2.59,0-.38.08-.75.22-1.08"/>
      <path class="cls-1" d="M78.92,79.86c-1.18-1.74-2.74-2.8-4.46-2.8-3.65,0-6.61,4.78-6.61,10.67s2.96,10.67,6.61,10.67c.95,0,1.85-.32,2.66-.9"/>
      <path class="cls-1" d="M78.84,79.57c.93-.66,1.02-4.92,1.02-4.92,0,0-9.23-14.72.52-31.31l2.59.52s9.25-1.3,6.3-14.85l-16.16-14.51"/>
      <path class="cls-1" d="M66.58,26.76c-1.53-.52-2.63-1.99-2.63-3.73,0-2.17,1.72-3.93,3.84-3.93,0,0,2.17-.12,2.6,1.74"/>
      <path class="cls-1" d="M35.89,114.63c5.61-5.68.78-11.22.78-11.22,0,0,9.44,2.77,16.76,0,0,0-4.83,5.54.78,11.22"/>
      <path class="cls-1" d="M27.35,115.44c3.75,1.07,7.65-1.14,8.71-4.94.83-2.96-.31-6.01-2.63-7.73"/>
      <path class="cls-1" d="M13.21,97.32s-1.5,15.99,14,18.14c2.46.34,5.27.43,7.65-.39,1.78-.61,3.44-.93,4.89-1.07,0,0,5.69-.6,10.78.02,1.4.17,3,.47,4.71,1.05,2.38.82,5.19.73,7.65.39,15.5-2.15,14-18.14,14-18.14"/>
      <path class="cls-1" d="M33.68,102.95c-.61-.4-1.34-.63-2.12-.64-2.21-.03-4.02,1.74-4.05,3.96,0,.47.07.91.21,1.33,0,0,.16.94.92,1.65.32.3.73.49,1.18.57"/>
      <path class="cls-1" d="M29.82,109.81c.12.02.25.03.38.03,1.35,0,2.44-1.16,2.44-2.59"/>
      <path class="cls-1" d="M11.18,79.86c1.18-1.74,2.74-2.8,4.46-2.8,3.65,0,6.61,4.78,6.61,10.67,0,5.89-2.96,10.67-6.61,10.67-.95,0-1.85-.32-2.66-.9"/>
      <path class="cls-1" d="M11.26,79.57c-.93-.66-1.02-4.92-1.02-4.92,0,0,9.23-14.72-.52-31.31l-2.59.52s-9.25-1.3-6.3-14.85l16.16-14.51"/>
      <path class="cls-1" d="M23.52,26.76c1.53-.52,2.63-1.99,2.63-3.73,0-2.17-1.72-3.93-3.84-3.93,0,0-2.17-.12-2.6,1.74"/>
      <ellipse class="cls-1" cx="21.74" cy="21.36" rx="2.03" ry="2.06"/>
      <path class="cls-1" d="M24.45,26.68c-.34.05-.68.07-1.03.07-4.18,0-7.56-3.59-7.56-8.02,0-4.43,3.54-9.17,7.56-8.02,5.89,1.69,5.55,7.4,4.74,10.64-.8,3.23.57,6.91,2.7,6.97,2.13.06,3.1-1.34,2.99-4.02-.11-2.68.78-5.57.78-5.57,1.39-4.39,5.52-5.56,8.14-5.85,0,0,3.87-.16,5.04.06,2.6.5,6.35,1.65,7.66,5.79,0,0,.89,2.89.78,5.57-.11,2.68.86,4.08,2.99,4.02,2.13-.06,3.51-3.73,2.7-6.97s-1.15-8.95,4.74-10.64c4.02-1.15,7.56,3.59,7.56,8.02s-3.38,8.02-7.56,8.02c-.35,0-.69-.02-1.03-.07"/>
      <path class="cls-1" d="M60.99,109.81s9.62-.07,11.26-10.06"/>
      <path class="cls-1" d="M66.88,28.33s9.62,7.26,12.09,12.9l-.12.1c-10.56,14.92-2.29,32.74-2.29,32.74-.39-.13-.79-.21-1.2-.25-4.65-.44-8.96,5.07-9.63,12.32-.6,6.53,1.95,12.23,5.86,13.62l.63.13"/>
      <path class="cls-1" d="M24.23,26.56v.7c0,3.15,3.1,4.2,3.1,4.2,0,0,8.28,2.62,8.8-6.82.38-7.01,5.1-8.72,7.5-9.14,0,0,1.81-.34,3.3.09,2.46.72,6.67,2.47,7.03,9.04.52,9.44,8.8,6.82,8.8,6.82,0,0,3.1-1.05,3.1-4.2v-.7"/>
      <path class="cls-1" d="M29.11,109.81s-9.62-.07-11.26-10.06"/>
      <path class="cls-1" d="M23.22,28.33s-9.62,7.26-12.09,12.9l.12.1c10.56,14.92,2.29,32.74,2.29,32.74.39-.13.79-.21,1.2-.25,4.65-.44,8.96,5.07,9.63,12.32.6,6.53-1.95,12.23-5.86,13.62l-.63.13"/>
    </g>
    <g>
      <path class="cls-2" d="M48.59,53.77c-.65-1.62,0-3.41,0-3.41h2.03l1.51-1.09-.26-1.94-.91-.9h-5.92"/>
      <path class="cls-2" d="M48.25,53.9c-.04.14,0,13.69,0,13.69v28.3"/>
      <path class="cls-2" d="M45.05,101.4h6.74v-3.24"/>
      <path class="cls-2" d="M49.4,97.17s1.01-.23,1.12-.48"/>
      <line class="cls-2" x1="45.05" y1="47.33" x2="51.88" y2="47.33"/>
      <ellipse class="cls-2" cx="50.11" cy="49.16" rx=".82" ry=".83"/>
      <path class="cls-2" d="M45.05,46.43h-5.92s-.91.9-.91.9l-.26,1.94,1.51,1.09h2.03s.65,1.79,0,3.41c0,0,3.78,1.06,7.15-.05"/>
      <line class="cls-2" x1="41.01" y1="95.89" x2="40.69" y2="97.17"/>
      <line class="cls-2" x1="41.85" y1="95.89" x2="41.01" y2="95.89"/>
      <path class="cls-2" d="M45.05,101.4h-6.74v-3.24"/>
      <path class="cls-2" d="M39.57,96.69l-1.26,1.47c.89.6,6.58,2.42,13.48,0l-1.26-1.47"/>
      <path class="cls-2" d="M39.57,96.69c.11.25,1.12.48,1.12.48.7.32,3.87,1.43,8.71,0l-.32-1.28h-.84c-3.75,1.15-6.34-.01-6.41,0v-28.3s.04-13.55,0-13.69"/>
      <line class="cls-2" x1="45.05" y1="47.33" x2="38.22" y2="47.33"/>
      <ellipse class="cls-2" cx="39.99" cy="49.16" rx=".82" ry=".83"/>
      <path class="cls-3" d="M41.79,46.43s1.1-1.27,1.08-1.6,0-.59,0-.59c0,0,.99-2.08.97-2.4s-.3-.63-.32-.79-.02-.63.19-1.16.26-.52.26-.52c0,0,.42.59.46,1.57.04.98,0,1.09.14,1.66s-.86,1.99-.91,2.58.11,1.25.11,1.25"/>
      <path class="cls-3" d="M45.88,46.43s.09-.33-.13-1.2-.28-1.29-.28-1.29c0,0,.22-1.36.07-2.27s0-1.05,0-1.05l.24.13s.44.47.51,1.15-.11,1.49.6,2.13,1.55.63,1.7,1.52l.15.89"/>
      <path class="cls-2" d="M49.76,46.43c.17-.7-1.02-1.79-1.02-1.79,0,0-.57-.9-.86-1.11s-.02-1.22-.22-1.55-.67-1.36-.67-1.36c0,0-.02-1.2-.11-1.79s-.43-.9-.47-1.22.24-.57.15-1.22-.02-.57,0-.79c0,0,.45,1.14.83,1.4s.85.29.85.29l.14-.1s-.85-.82-.49-1.59h.36s1.21,1.91,2.6,1.87l.16-.16s-2.29-1.98-1.87-3.32l.33-.1s1.42,2.13,2.13,2.29,1.34.73,1.34.73l.78-.14v-.2s-2.41-2.21-1.98-3.1h.13s2.2,2.43,3.28,2.71l.26-.13s-2.43-3.56-1.7-3.56c.09,0,2.33,1.64,2.48,2.4v.42l.24-.02s.6-.28.37-1.07c-.24-.79-1.77-2.8-1.77-2.8l.43-.02,1.55.85c.47.07.3-.43.3-.43-4.79-4.19-6.9-3.46-6.9-3.46,0,0-.65,0-.91.26s-.39.66-.22,1.57-.47,1.15-.47,1.15l-1.85,1.3h-.69s-.4-1.13,0-2.17c0,0,.69-.65,1.23-1.42s-.56-2.38-.56-2.38c0,0-.95-.77-1.7-.77s-.93.24-1.68.39-.69.72-.69.72l.41-.07s.69-.5,1.12-.07-.84.5-.84.5c0,0-.19.35.04.48s1.36.2,1.29,1.53c-.06,1.33-1.47,2.25-1.47,2.25,0,0-.32.46-.73-.13s-.67-1.03-.65-1.44-.37-1.92-1.1-2.3-1.7-.22-1.7-.22c0,0-.82.04-1.72,1.4s-.56,2.19-3.84,3.67c0,0-.82.22-1.21.22l.22.22s2.13.17,4.35-1.62c0,0-.63,2.08-2.72,3.15l-.06.66h.67s1.83-.35,3.6-2.51c0,0-.15,2.12-1.51,3.08l-.04.44.73.17s2.48-1.68,2.8-3.45l.04-.81s.52.77.41,1.55c-.11.79-.8,2.49-1.44,3.15l-.06.72.93-.33s.97-1.11,1.49-2.8c0,0,.06,2.32.06,2.38s-.09.9.28,1.42.47,1.25.47,1.25l.02,2.6s-.54,3.74-1.77,4.33"/>
      <path class="cls-3" d="M43.28,24.11c.1.12.43.53.4.78,0,0,1.12.58,1.06.99"/>
      <path class="cls-3" d="M43.28,24.11s-.02,0-.03,0"/>
      <path class="cls-3" d="M46.94,26.65s1-.44,1.34-.12l.4-.64s-1.78-2.04-5.29-1.78c-.04,0-.08,0-.12,0"/>
      <path class="cls-3" d="M43.68,24.89s2.39-.16,4.6,1.63"/>
      <path class="cls-3" d="M48.28,25.51s.06-1.07,1.22-1.07c0,0-4.43-1.01-6.22-1.99,0,0,1.13.97.73,1.63"/>
    </g>
    <g>
      <path class="cls-1" d="M45.05,6.2h34.95v-.51s-9.48-.43-11.64-1.19-5.84-.09-7.34-.68c-1.49-.6-4.02-3.32-8.05-3.49-4.02-.17-7.92,0-7.92,0"/>
      <path class="cls-1" d="M45.05,6.2h-9.64s-25.3,0-25.3,0v-.51s9.48-.43,11.64-1.19c2.17-.77,5.84-.09,7.34-.68S33.11.5,37.13.33s7.92,0,7.92,0"/>
      <path class="cls-1" d="M27.96,14.7c.55-.12,6.07-3.8,7.45-8.5"/>
      <path class="cls-1" d="M62.24,14.7c-.55-.12-6.07-3.8-7.45-8.5"/>
    </g>
  </g>
</svg>