<?xml version="1.0" encoding="UTF-8"?>
<svg id="Layer_2" data-name="Layer 2" xmlns="http://www.w3.org/2000/svg" viewBox="0 0 96.89 129.8">
  <defs>
    <style>
      .cls-1 {
        stroke-width: .5px;
      }

      .cls-1, .cls-2, .cls-3 {
        fill: none;
        stroke-miterlimit: 10;
      }

      .cls-1, .cls-3 {
        stroke: #020202;
      }

      .cls-2 {
        stroke: #000;
      }

      .cls-2, .cls-3 {
        stroke-width: .35px;
      }
    </style>
  </defs>
  <g id="Layer_2-2" data-name="Layer 2">
    <polyline class="cls-1" points="3.42 19.55 3.42 129.55 93.42 129.55 93.42 19.55 3.42 19.55"/>
    <line class="cls-1" x1="4.09" y1="31.77" x2="4.12" y2="31.94"/>
    <g>
      <path class="cls-2" d="M48.42,22.81c-4.89,0-8.85-5.07-8.85-11.32S43.53.18,48.42.18"/>
      <path class="cls-2" d="M24.17,19.51l-6.35-5.25.28-.5-1.95-1.47-.31.46C7.94,7.75,4.95,3.63,4.95,3.63c-.81,1.72-2.26,2.59-2.26,2.59,0,0,6.83,3.57,11.85,8.02l-.3.49,2,1.44.4-.6,4.88,3.94h2.64Z"/>
      <circle class="cls-2" cx="3.14" cy="4.1" r="1.06"/>
      <polyline class="cls-2" points="11.88 12.11 11.78 13.3 8.13 17.23 .33 12.37 4.49 8.33 4.71 7.31"/>
      <polyline class="cls-2" points=".35 12.26 .18 14.34 8.11 18.94 8.15 17.13"/>
      <polyline class="cls-2" points="8.08 19.05 12.33 14.21 12.01 12.22"/>
      <line class="cls-2" x1="4.29" y1="10.51" x2="8.61" y2="13.77"/>
      <line class="cls-2" x1="4.52" y1="13.44" x2="7.51" y2="10.39"/>
      <path class="cls-2" d="M4.79,3.63l1.68-.45s11.14,8.72,15.48,10.43c0,0,1.87,1.28,3.6-1.16.83-1.18,1.72-2.71,2.41-3.97,0,0,.38-1.05,1.26-2.16.33-.42.73-.84,1.21-1.22,1.75-1.4,5.71-2.67,9.87,1.87"/>
      <path class="cls-2" d="M22.57,19.51h6.02s2.14-.3,3.65-4.24c0,0,1.8-2.67,2.75,1.56,0,0,.11,2.26,2.31,2.68h2.94"/>
      <path class="cls-2" d="M48.42,22.81c4.89,0,8.85-5.07,8.85-11.32,0-6.25-3.96-11.32-8.85-11.32"/>
      <path class="cls-2" d="M71.37,19.4l6.74-5.21-.3-.5,2.06-1.46.33.45c8.38-4.95,11.55-9.05,11.55-9.05.86,1.71,2.39,2.58,2.39,2.58,0,0-7.25,3.54-12.57,7.96l.32.49-2.12,1.43-.43-.6-5.17,3.92h-2.8Z"/>
      <circle class="cls-2" cx="93.7" cy="4.1" r="1.06"/>
      <polyline class="cls-2" points="84.45 12.19 84.52 13.42 88.27 17.54 96.6 12.7 92.32 8.45 92.12 7.4"/>
      <polyline class="cls-2" points="96.58 12.59 96.71 14.74 88.25 19.31 88.25 17.43"/>
      <polyline class="cls-2" points="88.27 19.42 83.93 14.35 84.31 12.3"/>
      <line class="cls-2" x1="92.83" y1="11.41" x2="88.29" y2="14.13"/>
      <line class="cls-2" x1="92.31" y1="14.19" x2="89.7" y2="11"/>
      <path class="cls-2" d="M56.53,6.97c4.16-4.54,8.12-3.27,9.87-1.87.48.38.88.8,1.21,1.22.88,1.11,1.26,2.16,1.26,2.16.69,1.26,1.58,2.79,2.41,3.97,1.72,2.45,3.6,1.16,3.6,1.16,4.35-1.71,15.48-10.43,15.48-10.43l1.68.45"/>
      <path class="cls-2" d="M74.11,19.51h-6.02s-2.14-.3-3.65-4.24c0,0-1.8-2.67-2.75,1.56,0,0-.11,2.26-2.31,2.68h-2.94"/>
      <path class="cls-2" d="M42.04,3.65s5.5-2.32,12.87.16"/>
      <path class="cls-2" d="M39.57,10.11s9.4-4.72,17.53.19"/>
      <path class="cls-2" d="M40.51,16.57s6.63-5.01,15.7,0"/>
    </g>
    <g>
      <rect class="cls-1" x="3.42" y="81.18" width="38.01" height="48.37"/>
      <rect class="cls-1" x="3.42" y="19.55" width="38.01" height="48.37"/>
      <circle class="cls-3" cx="8.57" cy="26.34" r="1.45"/>
      <path class="cls-3" d="M29.56,61.07c.05.08.11.15.17.22,1.93,2.41,5.57-.38,5.57-.38,0,0,3-1.98,1.61-4.71-1.39-2.73-4.45-1.12-4.45-1.12L10.58,26.34c-.96,1.23-2.31,1.81-2.31,1.81l.29.51-4.48,3.11,5.17,7.18,4.77-3.43,16.12,21.11s-2.35,1.63-.59,4.44Z"/>
      <line class="cls-3" x1="7.25" y1="31.28" x2="10.73" y2="35.83"/>
      <line class="cls-3" x1="7.25" y1="34.27" x2="10.14" y2="32.2"/>
      <line class="cls-3" x1="14.03" y1="35.52" x2="8.89" y2="28.88"/>
      <circle class="cls-3" cx="36.28" cy="26.66" r="1.45"/>
      <path class="cls-3" d="M15.12,61.6c-2.03,2.33-5.57-.38-5.57-.38,0,0-3-1.98-1.61-4.71,1.39-2.73,4.45-1.12,4.45-1.12l21.88-28.73c.96,1.23,2.31,1.81,2.31,1.81l-.29.51,4.48,3.11-5.17,7.18-4.77-3.43-16.12,21.11c0,.1,2.54,2.23.43,4.66Z"/>
      <line class="cls-1" x1="40.76" y1="32.08" x2="40.74" y2="32.21"/>
      <line class="cls-3" x1="30.82" y1="35.83" x2="35.96" y2="29.19"/>
      <rect class="cls-1" x="55.41" y="19.55" width="38.01" height="48.37"/>
      <rect class="cls-1" x="55.41" y="81.18" width="38.01" height="48.37"/>
      <line class="cls-3" x1="37.7" y1="31.59" x2="34.22" y2="36.14"/>
      <line class="cls-3" x1="37.7" y1="34.58" x2="34.81" y2="32.5"/>
      <circle class="cls-3" cx="60.56" cy="26.93" r="1.45"/>
      <path class="cls-3" d="M81.55,61.65c.05.08.11.15.17.22,1.93,2.41,5.57-.38,5.57-.38,0,0,3-1.98,1.61-4.71s-4.45-1.12-4.45-1.12l-21.88-28.73c-.96,1.23-2.31,1.81-2.31,1.81l.29.51-4.48,3.11,5.17,7.18,4.77-3.43,16.12,21.11s-2.35,1.63-.59,4.44Z"/>
      <line class="cls-3" x1="59.24" y1="31.87" x2="62.72" y2="36.42"/>
      <line class="cls-3" x1="59.24" y1="34.86" x2="62.12" y2="32.78"/>
      <line class="cls-3" x1="66.02" y1="36.1" x2="60.88" y2="29.46"/>
      <circle class="cls-3" cx="88.26" cy="27.24" r="1.45"/>
      <path class="cls-3" d="M67.11,62.18c-2.03,2.33-5.57-.38-5.57-.38,0,0-3-1.98-1.61-4.71,1.39-2.73,4.45-1.12,4.45-1.12l21.88-28.73c.96,1.23,2.31,1.81,2.31,1.81l-.29.51,4.48,3.11-5.17,7.18-4.77-3.43-16.12,21.11c0,.1,2.54,2.23.43,4.66Z"/>
      <line class="cls-3" x1="82.81" y1="36.42" x2="87.95" y2="29.77"/>
      <line class="cls-3" x1="89.69" y1="32.17" x2="86.21" y2="36.72"/>
      <line class="cls-3" x1="89.69" y1="35.16" x2="86.8" y2="33.09"/>
      <circle class="cls-3" cx="8.57" cy="87.7" r="1.45"/>
      <path class="cls-3" d="M29.56,122.42c.05.08.11.15.17.22,1.93,2.41,5.57-.38,5.57-.38,0,0,3-1.98,1.61-4.71s-4.45-1.12-4.45-1.12l-21.88-28.73c-.96,1.23-2.31,1.81-2.31,1.81l.29.51-4.48,3.11,5.17,7.18,4.77-3.43,16.12,21.11s-2.35,1.63-.59,4.44Z"/>
      <line class="cls-3" x1="7.25" y1="92.63" x2="10.73" y2="97.18"/>
      <line class="cls-3" x1="7.25" y1="95.63" x2="10.14" y2="93.55"/>
      <line class="cls-3" x1="14.03" y1="96.87" x2="8.89" y2="90.23"/>
      <circle class="cls-3" cx="36.28" cy="88.01" r="1.45"/>
      <path class="cls-3" d="M15.12,122.95c-2.03,2.33-5.57-.38-5.57-.38,0,0-3-1.98-1.61-4.71,1.39-2.73,4.45-1.12,4.45-1.12l21.88-28.73c.96,1.23,2.31,1.81,2.31,1.81l-.29.51,4.48,3.11-5.17,7.18-4.77-3.43-16.12,21.11c0,.1,2.54,2.23.43,4.66Z"/>
      <line class="cls-3" x1="30.82" y1="97.18" x2="35.96" y2="90.54"/>
      <line class="cls-3" x1="37.7" y1="92.94" x2="34.22" y2="97.49"/>
      <line class="cls-3" x1="37.7" y1="95.93" x2="34.81" y2="93.85"/>
      <circle class="cls-3" cx="60.56" cy="88.28" r="1.45"/>
      <path class="cls-3" d="M81.55,123c.05.08.11.15.17.22,1.93,2.41,5.57-.38,5.57-.38,0,0,3-1.98,1.61-4.71-1.39-2.73-4.45-1.12-4.45-1.12l-21.88-28.73c-.96,1.23-2.31,1.81-2.31,1.81l.29.51-4.48,3.11,5.17,7.18,4.77-3.43,16.12,21.11s-2.35,1.63-.59,4.44Z"/>
      <line class="cls-3" x1="59.24" y1="93.22" x2="62.72" y2="97.77"/>
      <line class="cls-3" x1="59.24" y1="96.21" x2="62.12" y2="94.13"/>
      <line class="cls-3" x1="66.02" y1="97.46" x2="60.88" y2="90.81"/>
      <circle class="cls-3" cx="88.26" cy="88.59" r="1.45"/>
      <path class="cls-3" d="M67.11,123.54c-2.03,2.33-5.57-.38-5.57-.38,0,0-3-1.98-1.61-4.71,1.39-2.73,4.45-1.12,4.45-1.12l21.88-28.73c.96,1.23,2.31,1.81,2.31,1.81l-.29.51,4.48,3.11-5.17,7.18-4.77-3.43-16.12,21.11c0,.1,2.54,2.23.43,4.66Z"/>
      <line class="cls-3" x1="82.81" y1="97.77" x2="87.95" y2="91.13"/>
      <line class="cls-3" x1="89.69" y1="93.52" x2="86.21" y2="98.07"/>
      <line class="cls-3" x1="89.69" y1="96.52" x2="86.8" y2="94.44"/>
    </g>
  </g>
</svg>