<?xml version="1.0" encoding="UTF-8"?>
<svg id="Layer_2" data-name="Layer 2" xmlns="http://www.w3.org/2000/svg" viewBox="0 0 90.54 128.11">
  <defs>
    <style>
      .cls-1, .cls-2 {
        fill: none;
      }

      .cls-1, .cls-2, .cls-3 {
        stroke: #020202;
        stroke-miterlimit: 10;
      }

      .cls-1, .cls-3 {
        stroke-width: .5px;
      }

      .cls-2 {
        stroke-width: .35px;
      }

      .cls-3 {
        fill: #fff;
      }
    </style>
  </defs>
  <g id="Layer_2-2" data-name="Layer 2">
    <g>
      <path class="cls-1" d="M45.27,127.85H8.04c-6.91.39-8.04-6.98-7.75-7.79V17.35"/>
      <path class="cls-1" d="M.29,17.85h89.96v102.21c.28.8-.84,8.18-7.75,7.79h-37.23"/>
      <path class="cls-1" d="M4.89,118.68c-.12,1.64.19,5.6,6.04,5.72,7.39.16,34.35,0,34.35,0"/>
      <path class="cls-1" d="M85.69,118.68c.12,1.64-.19,5.6-6.04,5.72-7.39.16-34.35,0-34.35,0"/>
      <polyline class="cls-1" points="85.7 119.08 85.7 89.53 85.8 19.97"/>
      <polyline class="cls-1" points="4.87 119.23 4.87 89.53 4.87 62.69 4.87 33.49 4.87 19.86 86.31 19.97"/>
    </g>
    <g>
      <path class="cls-1" d="M45.26.25h-11.82s-.96,1.93-.96,1.93c0,0-2.19-.06-3.74.44s-5.67,0-5.67,0c0,0-3,.07-5.77.78s-10.06,1.11-10.06,1.11v.12h38.27s11.14,0,11.14,0h.27s26.36,0,26.36,0v-.12s-7.29-.4-10.06-1.11c-2.77-.71-5.77-.78-5.77-.78,0,0-4.12.5-5.67,0-1.55-.5-3.74-.44-3.74-.44l-.96-1.93h-11.82"/>
      <path class="cls-1" d="M34.1,4.71c-.82,1.12-13.68,13.14-18.29,13.14H4.87s-6.05-4.02-1.76-7.71c0,0,4.33-4.54,12.8.56,8.48,5.1,8.41,7.42,12.32,7.15"/>
      <path class="cls-1" d="M57.46,4.63c.82,1.13,13.68,13.14,18.29,13.14,4.61,0,10.94,0,10.94,0,0,0,6.05-4.02,1.76-7.71,0,0-4.33-4.54-12.8.56-8.48,5.1-8.41,7.42-12.32,7.15"/>
    </g>
    <g>
      <path class="cls-2" d="M39.54,53.93s6.23-2.09,11.61,0"/>
      <path class="cls-2" d="M39.54,53.93c.64-1.25.32-2.57.32-2.57,0,0,5.38-1.63,10.85,0,0,0-.32,1.33.32,2.57"/>
      <line class="cls-2" x1="40.59" y1="54.37" x2="39.54" y2="53.93"/>
      <path class="cls-2" d="M49.99,54.37l1.04-.44"/>
      <path class="cls-2" d="M44.24,62.69l-.5-1.26c.2-.18.13-1.07.13-1.07-1.18.73-1.82-.3-1.82-.3.26,0,.52-.15.52-.15,1.45-1.39,1.45-4.34,1.45-4.34-.67-.24-1.37.05-1.37.05-1.21,3.43-2.99,5.28-2.99,5.28,0,0-1.95,1.79-3.44,1.04s-.1-1.89-.1-1.89c.14.72.84.7.84.7.16,0,3.21-.76,3.62-6.39"/>
      <path class="cls-2" d="M42.6,50.82s1.6-4.49-1.94-8.53c-3.54-4.04-8.81-2.26-8.81-2.26"/>
      <path class="cls-2" d="M32.38,39.92c-3.09.61-5.1,3.56-4.5,6.61.29,1.48,1.15,2.71,2.32,3.51.05.03.1.07.15.1,1.2.77,2.69,1.09,4.2.79,0,0,4.15-1.38,3.23-4.72-.63-2.27-2.68-2.26-3.86-1.39-.56.41-.92,1.01-.84,1.65,0,0-.56-3.17,3.03-3.33,3.6-.16,5.54,3.59,5.1,7.9"/>
      <path class="cls-2" d="M43.98,50.68s1.4-7.87-3.37-11.35c0,0-1.53-1.96-1.12-4.23.4-2.28,5.36-9.67,5.8-12.21"/>
      <path class="cls-2" d="M49.99,54.37c.4,5.63,3.46,6.39,3.62,6.39,0,0,.7.02.84-.7,0,0,1.39,1.15-.1,1.89-1.49.74-3.44-1.04-3.44-1.04,0,0-1.78-1.85-2.99-5.28,0,0-.7-.29-1.37-.05,0,0,0,2.95,1.45,4.34,0,0,.25.15.52.15,0,0-.64,1.03-1.82.3,0,0-.07.89.13,1.07l-.5,1.26"/>
      <path class="cls-2" d="M47.97,50.82s-1.6-4.49,1.94-8.53c3.54-4.04,8.81-2.26,8.81-2.26"/>
      <path class="cls-2" d="M58.2,39.92c3.09.61,5.1,3.56,4.5,6.61-.29,1.48-1.15,2.71-2.32,3.51-.05.03-.1.07-.15.1-1.2.77-2.69,1.09-4.2.79,0,0-4.15-1.38-3.23-4.72.63-2.27,2.68-2.26,3.86-1.39.56.41.92,1.01.84,1.65,0,0,.56-3.17-3.03-3.33-3.6-.16-5.54,3.59-5.1,7.9"/>
      <path class="cls-2" d="M46.59,50.68s-1.4-7.87,3.37-11.35c0,0,1.53-1.96,1.13-4.23s-5.36-9.67-5.8-12.21"/>
      <polyline class="cls-3" points=".25 86.88 .29 89.53 90.25 89.53 90.25 86.79 .25 86.79 .25 62.69 90.25 62.69 90.25 86.58"/>
    </g>
  </g>
</svg>