<?xml version="1.0" encoding="UTF-8"?>
<svg id="Layer_2" data-name="Layer 2" xmlns="http://www.w3.org/2000/svg" viewBox="0 0 90.67 128.15">
  <defs>
    <style>
      .cls-1 {
        fill: none;
        stroke: #020202;
        stroke-miterlimit: 10;
        stroke-width: .5px;
      }
    </style>
  </defs>
  <g id="Layer_2-2" data-name="Layer 2">
    <g>
      <path class="cls-1" d="M45.34,40.07c-11.45,0-20.74,6.47-20.74,14.46,0,5.68,4.69,10.59,11.52,12.95l-24.25,31.51,32.75-32.12-1.92-2.15"/>
      <path class="cls-1" d="M42.84,64.75c-1.95-.54-3.31-1.76-3.31-3.17,0-1.91,2.48-3.47,5.55-3.47h.52c3.07,0,5.55,1.55,5.55,3.47,0,1.42-1.36,2.64-3.31,3.17"/>
      <path class="cls-1" d="M45.34,40.07c11.45,0,20.74,6.47,20.74,14.46,0,5.68-4.69,10.59-11.52,12.95l24.25,31.51-32.75-32.12,1.92-2.15"/>
    </g>
    <g>
      <path class="cls-1" d="M44.81.25h-11.82s-.96,1.93-.96,1.93c0,0-2.19-.06-3.74.44s-5.67,0-5.67,0c0,0-3,.07-5.77.78-2.77.71-10.06,1.11-10.06,1.11v.12h38.27s11.14,0,11.14,0h.27s26.36,0,26.36,0v-.12s-7.29-.4-10.06-1.11-5.77-.78-5.77-.78c0,0-4.12.5-5.67,0s-3.74-.44-3.74-.44l-.96-1.93h-11.82"/>
      <path class="cls-1" d="M33.66,4.71c-.82,1.12-13.68,13.14-18.29,13.14H4.43s-6.05-4.02-1.76-7.71c0,0,4.33-4.54,12.8.56s8.41,7.42,12.32,7.15"/>
      <path class="cls-1" d="M57.02,4.63c.82,1.13,13.68,13.14,18.29,13.14s10.94,0,10.94,0c0,0,6.05-4.02,1.76-7.71,0,0-4.33-4.54-12.8.56-8.48,5.1-8.41,7.42-12.32,7.15"/>
    </g>
    <g>
      <path class="cls-1" d="M90.42,17.9v104.94s.23,5.06-5.18,5.06H5.43C.03,127.9.25,122.84.25,122.84V17.9h90.17Z"/>
      <path class="cls-1" d="M4.76,20.41h80.63v100.71s-.2,2.87-3.24,2.95c-3.04.08-74.01,0-74.01,0,0,0-3.27-.38-3.38-4.18-.11-3.8,0-99.48,0-99.48Z"/>
    </g>
  </g>
</svg>