<?xml version="1.0" encoding="UTF-8"?>
<svg id="Layer_2" data-name="Layer 2" xmlns="http://www.w3.org/2000/svg" viewBox="0 0 90.67 135.16">
  <defs>
    <style>
      .cls-1 {
        fill: none;
        stroke: #020202;
        stroke-miterlimit: 10;
        stroke-width: .5px;
      }
    </style>
  </defs>
  <g id="Layer_2-2" data-name="Layer 2">
    <g>
      <path class="cls-1" d="M45.34,134.84v.07H9.27s-4.12-.84-6.79-4.11c-1.28-1.57-2.23-3.7-2.23-6.57V25.51h45.09"/>
      <path class="cls-1" d="M45.34,134.91h36.06s4.12-.84,6.79-4.11c1.28-1.57,2.23-3.7,2.23-6.57V25.51s-45.09,0-45.09,0"/>
    </g>
    <line class="cls-1" x1="9.32" y1="122.61" x2="9.32" y2="134.91"/>
    <line class="cls-1" x1="81.35" y1="122.61" x2="81.35" y2="134.91"/>
    <g>
      <line class="cls-1" x1="45.34" y1="25.51" x2="45.34" y2="134.84"/>
      <polyline class="cls-1" points="2.48 130.8 45.34 80.21 .25 25.51"/>
      <line class="cls-1" x1="9.36" y1="25.51" x2="9.36" y2="36.65"/>
      <polyline class="cls-1" points="26.71 25.51 26.71 57.54 26.71 57.63"/>
      <polyline class="cls-1" points="26.71 101.97 26.71 102.06 26.71 134.91"/>
      <polyline class="cls-1" points="88.19 130.8 45.34 80.21 90.42 25.51"/>
      <line class="cls-1" x1="81.31" y1="25.51" x2="81.31" y2="36.65"/>
      <polyline class="cls-1" points="63.96 25.51 63.96 57.54 63.96 57.63"/>
      <polyline class="cls-1" points="63.96 101.97 63.96 102.06 63.96 134.91"/>
    </g>
    <g>
      <path class="cls-1" d="M16.25,20.13c-.06.04-.09.07-.09.07,0,0,5.01-.21,5.52,2.81l2.5,2.5s-3.42-4.1,4.85-4.64c4.56-.3,9.04-.36,12.15-.36h9.8c2.96.02,6.78.11,10.65.36,8.28.54,4.85,4.64,4.85,4.64l2.5-2.5c.51-3.02,5.52-2.81,5.52-2.81,0,0-.03-.02-.09-.07"/>
      <path class="cls-1" d="M19.77,21.84c.77.74.88,1.76.23,2.28s-1.79.34-2.56-.4c-.77-.74-.88-1.76-.23-2.28s1.79-.34,2.56.4Z"/>
      <path class="cls-1" d="M45.34,13.8h-9.48c-14.4.52-19.7,6.4-19.7,6.4,0,0-8.48.13-7.51-7.41s11.99-8.57,11.99-8.57c0,0,3.1-.49,11.24-.79S45.34.45,45.34.45"/>
      <path class="cls-1" d="M45.34,12.58c-16.26-.8-24.07,2.35-27.28,4.3-.58.35-1.01.66-1.31.91"/>
      <path class="cls-1" d="M16.85,17.71s-9.28-5.32-1.97-9.18c0,0,2.04-1.93,14.54-3.39,12.49-1.46,13.62-2.91,15.92-4.05"/>
      <path class="cls-1" d="M45.34,15.98c-.05-.13-2.45-2.24-2.61,0,0,0-2.09.43-.46,1.73,0,0-.41,2.59,3.07,0"/>
      <path class="cls-1" d="M70.95,21.91c-.72.69-.82,1.64-.22,2.13s1.67.32,2.39-.38.82-1.64.22-2.13-1.67-.32-2.39.38Z"/>
      <path class="cls-1" d="M45.34,13.8h9.48c14.4.52,19.7,6.4,19.7,6.4,0,0,8.48.13,7.51-7.41s-11.99-8.57-11.99-8.57c0,0-3.1-.49-11.24-.79-8.14-.3-13.46-2.98-13.46-2.98"/>
      <path class="cls-1" d="M45.34,12.58c16.26-.8,24.07,2.35,27.28,4.3.64.39,1.1.73,1.4.98"/>
      <path class="cls-1" d="M73.82,17.71s9.28-5.32,1.97-9.18c0,0-2.04-1.93-14.54-3.39-12.49-1.46-13.62-2.91-15.92-4.05"/>
      <path class="cls-1" d="M45.34,15.98c.05-.13,2.45-2.24,2.61,0,0,0,2.09.43.46,1.73,0,0,.41,2.59-3.07,0"/>
      <line class="cls-1" x1="45.07" y1=".17" x2="45.6" y2=".73"/>
      <line class="cls-1" x1="45.07" y1=".53" x2="45.6" y2="1.09"/>
      <line class="cls-1" x1="44.87" y1="12.56" x2="45.64" y2="12.57"/>
    </g>
  </g>
</svg>