<?xml version="1.0" encoding="UTF-8"?>
<svg id="Layer_2" data-name="Layer 2" xmlns="http://www.w3.org/2000/svg" viewBox="0 0 86.93 130.29">
  <defs>
    <style>
      .cls-1 {
        stroke-width: .5px;
      }

      .cls-1, .cls-2 {
        fill: none;
        stroke: #000;
        stroke-miterlimit: 10;
      }

      .cls-2 {
        stroke-width: .35px;
      }
    </style>
  </defs>
  <g id="Layer_2-2" data-name="Layer 2">
    <g>
      <path class="cls-1" d="M43.47,27.24c-21.98.4-34.64-2.97-39.86-4.81-1.91-.67-2.82-1.14-2.82-1.14v89.55s-.49,17.86,19.46,19.21h23.22"/>
      <path class="cls-1" d="M.79,21.28s4.86.25,4.18-1.93c-.68-2.18-2.92.1-2.92.1,0,0,2.55-2.18.23-2.94C-.05,15.76.13,19.91.41,20.88l.38.41Z"/>
      <path class="cls-1" d="M43.47,27.24c21.98.4,34.64-2.97,39.86-4.81,1.91-.67,2.82-1.14,2.82-1.14v89.55s.49,17.86-19.46,19.21h-23.22"/>
      <path class="cls-1" d="M86.14,21.28s-4.86.25-4.18-1.93c.68-2.18,2.92.1,2.92.1,0,0-2.55-2.18-.23-2.94s2.14,3.4,1.87,4.36l-.38.41Z"/>
    </g>
    <g>
      <path class="cls-1" d="M43.47,17.02s-24.23-2.23-25.41,4.87c0,0-.13.45-.06,1.06.11,1.05.77,2.59,3.53,3.3"/>
      <path class="cls-1" d="M17.97,22.73c.31-.79-2.25-2.51-2.25-2.51,0,0-3.51-.36-2.42-5.36,1.09-5.01-1.52-2.23-1.52-2.23,0,0-1.09.5-2.13-.77-1.03-1.26,0-2.82,0-2.82,0,0,2.49-3.86,4.99-1.08,2.49,2.77,2.19,4.26,5.96,2.37,3.77-1.89,22.86-2.1,22.86-2.1"/>
      <path class="cls-1" d="M43.47,9.58s-31.01-.68-20.67,8.12"/>
      <path class="cls-1" d="M40.49,8.29S34.4.72,43.47.25"/>
      <path class="cls-1" d="M43.47,17.02s24.23-2.23,25.41,4.87c0,0,.13.45.06,1.06-.11,1.05-.77,2.59-3.53,3.3"/>
      <path class="cls-1" d="M68.96,22.73c-.31-.79,2.25-2.51,2.25-2.51,0,0,3.51-.36,2.42-5.36-1.09-5.01,1.52-2.23,1.52-2.23,0,0,1.09.5,2.13-.77s0-2.82,0-2.82c0,0-2.49-3.86-4.99-1.08-2.49,2.77-2.19,4.26-5.96,2.37-3.77-1.89-22.86-2.1-22.86-2.1"/>
      <path class="cls-1" d="M43.47,9.58s31.01-.68,20.67,8.12"/>
      <path class="cls-1" d="M46.44,8.29S52.53.72,43.47.25"/>
    </g>
    <g>
      <line class="cls-2" x1="28.25" y1="27.05" x2="28.25" y2="129.88"/>
      <line class="cls-2" x1="2.64" y1="119.11" x2="43.47" y2="120.3"/>
      <line class="cls-2" x1="43.47" y1="106.1" x2=".79" y2="106.1"/>
      <line class="cls-2" x1="43.47" y1="91.08" x2=".79" y2="91.08"/>
      <line class="cls-2" x1="43.47" y1="76.47" x2=".79" y2="76.47"/>
      <line class="cls-2" x1="43.47" y1="63.08" x2=".79" y2="62.27"/>
      <line class="cls-2" x1="43.47" y1="48.68" x2=".79" y2="47.66"/>
      <line class="cls-2" x1="43.47" y1="36.5" x2=".79" y2="34.88"/>
      <line class="cls-2" x1="59.45" y1="130.09" x2="58.39" y2="27.36"/>
      <line class="cls-2" x1="43.47" y1="27.05" x2="43.47" y2="129.88"/>
      <line class="cls-2" x1="84.29" y1="119.11" x2="43.47" y2="120.3"/>
      <line class="cls-2" x1="43.47" y1="106.1" x2="86.14" y2="106.1"/>
      <line class="cls-2" x1="43.47" y1="91.08" x2="86.14" y2="91.08"/>
      <line class="cls-2" x1="43.47" y1="76.47" x2="86.14" y2="76.47"/>
      <line class="cls-2" x1="43.47" y1="63.08" x2="86.14" y2="62.27"/>
      <line class="cls-2" x1="43.47" y1="48.68" x2="86.14" y2="47.66"/>
      <line class="cls-2" x1="43.47" y1="36.5" x2="86.14" y2="34.88"/>
      <line class="cls-2" x1="13.04" y1="24.92" x2="13.04" y2="128.61"/>
      <line class="cls-2" x1="72.53" y1="24.92" x2="72.53" y2="129.09"/>
    </g>
  </g>
</svg>