<?xml version="1.0" encoding="UTF-8"?>
<svg id="Layer_2" data-name="Layer 2" xmlns="http://www.w3.org/2000/svg" viewBox="0 0 86.96 135.51">
  <defs>
    <style>
      .cls-1 {
        stroke-width: .5px;
      }

      .cls-1, .cls-2 {
        fill: none;
        stroke: #020202;
        stroke-miterlimit: 10;
      }

      .cls-2 {
        stroke-width: .35px;
      }
    </style>
  </defs>
  <g id="Layer_2-2" data-name="Layer 2">
    <line class="cls-1" x1="43.43" y1="133.37" x2="43.74" y2="133.79"/>
    <path class="cls-1" d="M49.07,130.76c-.19.22-.32.39-.4.49"/>
    <path class="cls-1" d="M43.21,134.98v.03s-.22-.13-.62-.35"/>
    <path class="cls-1" d="M43.26,135.3s-.06-.04,1.28-.73"/>
    <g>
      <path class="cls-1" d="M.35,103.86c-.06-1.02-.1-2.08-.1-3.19V25.46h43.23"/>
      <path class="cls-1" d="M42.79,134.77c-1.77-.93-6.8-3.31-12.8-3.99-7.5-.86-17.46-4.93-17.46-4.93,0,0-11.03-3.56-12.18-21.99"/>
      <polyline class="cls-1" points="44.05 28.09 3.92 28.09 3.92 54.93 3.92 71.39 3.92 84.96 3.92 96.19 3.92 103.06"/>
      <path class="cls-1" d="M44.16,134.77c1.77-.93,6.8-3.31,12.8-3.99,7.5-.86,17.46-4.93,17.46-4.93,0,0,11.03-3.56,12.18-21.99"/>
      <path class="cls-1" d="M86.61,103.86c.06-1.02.1-2.08.1-3.19V25.46s-43.23,0-43.23,0"/>
      <polyline class="cls-1" points="44.05 28.09 84.18 28.09 84.18 54.93 84.18 71.39 84.18 84.96 84.18 96.19 84.18 103.06"/>
      <path class="cls-1" d="M84.18,103.06c-1.09,17.16-11.52,20.48-11.52,20.48,0,0-9.42,3.79-16.51,4.59-5.67.64-10.43,2.86-12.1,3.72"/>
      <path class="cls-1" d="M43.72,131.67l.33.17c-1.68-.86-6.43-3.08-12.1-3.72-7.09-.8-16.51-4.59-16.51-4.59,0,0-10.43-3.32-11.52-20.48"/>
    </g>
    <g>
      <line class="cls-2" x1="3.92" y1="49.39" x2="22.7" y2="28.09"/>
      <line class="cls-2" x1="42.1" y1="28.09" x2="3.92" y2="69.2"/>
      <line class="cls-2" x1="61.34" y1="28.09" x2="3.92" y2="92.84"/>
      <line class="cls-2" x1="80.59" y1="28.09" x2="5.43" y2="111.44"/>
      <line class="cls-2" x1="84.18" y1="47.44" x2="15.9" y2="123.71"/>
      <line class="cls-2" x1="84.18" y1="68.66" x2="30.38" y2="127.9"/>
      <path class="cls-2" d="M84.18,91.33c0,.29-30.65,33.03-34.73,37.84"/>
      <path class="cls-2" d="M19.29,107.19s-1.82-4.25-5.01-1.13c0,0-1.63,1.17-1.28,4.64.35,3.47.78,3.28.35,4.13"/>
      <path class="cls-2" d="M19.09,107.06s4.56.64,2.41,4.55c0,0-.69,1.89-4.11,2.47s-3.35.11-4.06.76"/>
      <path class="cls-2" d="M48.43,117.78s-1.82-4.25-5.01-1.13c0,0-1.63,1.17-1.28,4.64s.78,3.28.35,4.13"/>
      <path class="cls-2" d="M48.24,117.64s4.56.64,2.41,4.55c0,0-.69,1.89-4.11,2.47-3.42.58-3.35.11-4.06.76"/>
      <path class="cls-2" d="M63.62,100.55s-1.82-4.25-5.01-1.13c0,0-1.63,1.17-1.28,4.64.35,3.47.78,3.28.35,4.13"/>
      <path class="cls-2" d="M63.43,100.42s4.56.64,2.41,4.55c0,0-.69,1.89-4.11,2.47-3.42.58-3.35.11-4.06.76"/>
      <path class="cls-2" d="M77.79,85.19s-1.82-4.25-5.01-1.13c0,0-1.63,1.17-1.28,4.64.35,3.47.78,3.28.35,4.13"/>
      <path class="cls-2" d="M77.6,85.06s4.56.64,2.41,4.55c0,0-.69,1.89-4.11,2.47-3.42.58-3.35.11-4.06.76"/>
      <path class="cls-2" d="M37.68,87.21s-1.82-4.25-5.01-1.13c0,0-1.63,1.17-1.28,4.64s.78,3.28.35,4.13"/>
      <path class="cls-2" d="M37.49,87.08s4.56.64,2.41,4.55c0,0-.69,1.89-4.11,2.47-3.42.58-3.35.11-4.06.76"/>
      <path class="cls-2" d="M55.34,67.08s-1.82-4.25-5.01-1.13c0,0-1.63,1.17-1.28,4.64s.78,3.28.35,4.13"/>
      <path class="cls-2" d="M55.15,66.95s4.56.64,2.41,4.55c0,0-.69,1.89-4.11,2.47s-3.35.11-4.06.76"/>
      <path class="cls-2" d="M75.81,44.75s-1.82-4.25-5.01-1.13c0,0-1.63,1.17-1.28,4.64.35,3.47.78,3.28.35,4.13"/>
      <path class="cls-2" d="M75.62,44.62s4.56.64,2.41,4.55c0,0-.69,1.89-4.11,2.47s-3.35.11-4.06.76"/>
      <path class="cls-2" d="M15.1,66.52s-1.82-4.25-5.01-1.13c0,0-1.63,1.17-1.28,4.64.35,3.47.78,3.28.35,4.13"/>
      <path class="cls-2" d="M14.91,66.38s4.56.64,2.41,4.55c0,0-.69,1.89-4.11,2.47-3.42.58-3.35.11-4.06.76"/>
      <path class="cls-2" d="M31.1,49.71s-1.82-4.25-5.01-1.13c0,0-1.63,1.17-1.28,4.64.35,3.47.78,3.28.35,4.13"/>
      <path class="cls-2" d="M30.91,49.58s4.56.64,2.41,4.55c0,0-.69,1.89-4.11,2.47-3.42.58-3.35.11-4.06.76"/>
      <path class="cls-2" d="M45.82,34.16s-1.82-4.25-5.01-1.13c0,0-1.63,1.17-1.28,4.64s.78,3.28.35,4.13"/>
      <path class="cls-2" d="M45.63,34.02s4.56.64,2.41,4.55c0,0-.69,1.89-4.11,2.47s-3.35.11-4.06.76"/>
      <path class="cls-2" d="M11.33,30.85s-1.43-3.33-3.92-.89c0,0-1.28.92-1,3.64s.61,2.57.27,3.24"/>
      <path class="cls-2" d="M11.18,30.74s3.58.5,1.89,3.57c0,0-.54,1.48-3.23,1.94-2.68.45-2.63.09-3.18.59"/>
    </g>
    <g>
      <path class="cls-1" d="M42.4,20.51s-7.05-.22-14.32.31-4.26,4.64-4.26,4.64l-2.2-2.5c-.45-3.02-4.85-2.81-4.85-2.81,0,0,.03-.02.08-.07"/>
      <path class="cls-1" d="M42.4,13.75h-8.33c-12.65.52-17.3,6.4-17.3,6.4,0,0-7.45.13-6.6-7.41s10.53-8.57,10.53-8.57c0,0,2.72-.49,9.88-.79S42.4.4,42.4.4"/>
      <path class="cls-1" d="M42.4,12.53c-14.28-.8-21.14,2.35-23.96,4.3-1.2.83-1.67,1.44-1.67,1.44,0,0-8.32-1.64-4.96-9.61"/>
      <path class="cls-1" d="M42.4,15.93c-.04-.13-2.15-2.24-2.29,0,0,0-1.83.43-.4,1.73,0,0-.36,2.59,2.69,0"/>
      <path class="cls-1" d="M42.4,20.51s7.05-.22,14.32.31c7.27.54,4.26,4.64,4.26,4.64l2.2-2.5c.45-3.02,4.85-2.81,4.85-2.81,0,0-.03-.02-.08-.07"/>
      <ellipse class="cls-1" cx="66.46" cy="22.4" rx="1.93" ry="1.28" transform="translate(-3.66 21.07) rotate(-17.54)"/>
      <path class="cls-1" d="M42.4,13.75h8.33c12.65.52,17.3,6.4,17.3,6.4,0,0,7.45.13,6.6-7.41-.85-7.54-10.53-8.57-10.53-8.57,0,0-2.72-.49-9.88-.79S42.4.4,42.4.4"/>
      <path class="cls-1" d="M42.4,12.53c14.28-.8,21.14,2.35,23.96,4.3,1.2.83,1.67,1.44,1.67,1.44,0,0,8.32-1.64,4.96-9.61"/>
      <path class="cls-1" d="M42.4,15.93c.04-.13,2.15-2.24,2.29,0,0,0,1.83.43.4,1.73,0,0,.36,2.59-2.69,0"/>
      <ellipse class="cls-1" cx="18.44" cy="22.4" rx="1.28" ry="1.93" transform="translate(-8.48 33.23) rotate(-72.46)"/>
      <line class="cls-1" x1="42.21" y1=".52" x2="42.54" y2=".17"/>
      <line class="cls-1" x1="42.37" y1="1.07" x2="42.58" y2=".9"/>
    </g>
  </g>
</svg>