<?xml version="1.0" encoding="UTF-8"?>
<svg id="Layer_2" data-name="Layer 2" xmlns="http://www.w3.org/2000/svg" viewBox="0 0 89.47 125.82">
  <defs>
    <style>
      .cls-1, .cls-2, .cls-3 {
        fill: none;
      }

      .cls-2 {
        stroke-width: .5px;
      }

      .cls-2, .cls-3 {
        stroke: #080909;
        stroke-miterlimit: 10;
      }

      .cls-3 {
        stroke-width: .35px;
      }
    </style>
  </defs>
  <g id="Layer_2-2" data-name="Layer 2">
    <g>
      <ellipse class="cls-1" cx="62.18" cy="108.67" rx=".04" ry=".13"/>
      <ellipse class="cls-1" cx="27.06" cy="108.8" rx=".04" ry=".13"/>
      <path class="cls-2" d="M44.74,108.54h7.45s1.61,2.01,0,4.49h-7.45"/>
      <path class="cls-2" d="M67.02,125.57c-1.79-1.06-1.68-2.84-1.68-2.84-16.37,2.6-17.72-8.63-17.72-8.63,0,0-.07-.3,0-1.06"/>
      <path class="cls-2" d="M51.23,108.37c-.16-.72-.24-1.47-.24-2.24,0-5.46,4.2-9.89,9.38-9.89s9.38,4.43,9.38,9.89c0,.66-.06,1.31-.18,1.94"/>
      <path class="cls-2" d="M69.74,108c16.95-6.15,17.78-24.35,17.8-27.42,0-.29,0-.44,0-.44-9.65,1.42-12.11-1.77-12.34-2.24,0,0-.84-.05-2.19,3.67"/>
      <path class="cls-2" d="M77.9,15.98s-2.32,14.56-11.28,17.66"/>
      <path class="cls-2" d="M61.08,21.02c-.94-.77-2.63-1.6-4.56,0-1.79,1.49-1.6,3.38-1.31,4.67.38,1.68,1.98,2.18,1.98,2.18,1.96.81,5.79,1.39,10.19-2.96,6.4-6.33,4.47-8.88,4.47-8.88.06.06,3.06,1.25,6.29-.05"/>
      <path class="cls-2" d="M56.14,35.68c-4.34-1.03-7.58-5.15-7.57-10.07,0-5.35,3.82-9.74,8.71-10.27,0,0,1.47-.17,2.54-.05,3.49.39,6.35,2.88,6.35,6.43,0,2.77-1.85,5.88-4.23,6.53"/>
      <path class="cls-2" d="M70.8,68.66c-.08-.16-1.37-11.28,6.59-11.81,7.96-.53,7.26,4.95,7.26,4.95,2.79-4.69,4.58-11.99,4.58-20.18,0-13.68-4.99-24.85-11.27-25.6"/>
      <path class="cls-2" d="M44.74,108.54h-7.9s-1.71,2.01,0,4.49h7.9"/>
      <path class="cls-2" d="M22.46,125.57c1.79-1.06,1.68-2.84,1.68-2.84,16.37,2.6,17.72-8.63,17.72-8.63,0,0,.04-.4,0-1.06"/>
      <path class="cls-2" d="M37.6,113.03s-1.01,9.35-15.81,6.8c0,0-.79,3.97-5.05,5.74h56c-4.26-1.77-5.05-5.74-5.05-5.74-14.8,2.54-15.81-6.8-15.81-6.8"/>
      <path class="cls-2" d="M38.25,108.37c.16-.72.24-1.47.24-2.24,0-5.46-4.2-9.89-9.38-9.89-5.18,0-9.38,4.43-9.38,9.89,0,.66.06,1.31.18,1.94"/>
      <path class="cls-2" d="M19.73,108C2.78,101.85,1.95,83.66,1.93,80.59c0-.29,0-.44,0-.44,9.65,1.42,12.11-1.77,12.34-2.24,0,0,.84-.05,2.19,3.67"/>
      <path class="cls-2" d="M11.58,15.98s1.98,13.82,8.92,16.89"/>
      <path class="cls-2" d="M28.62,20.84c.97-.69,2.53-1.24,4.28.21,1.79,1.49,1.59,3.37,1.31,4.66-.37,1.68-1.97,2.17-1.97,2.17-1.96.81-5.78,1.39-10.17-2.95-6.39-6.32-4.46-8.86-4.46-8.86-.06.06-3.06,1.24-6.28-.05"/>
      <path class="cls-2" d="M33.47,35.83c4.59-.96,8.06-5.18,8.07-10.25,0-5.4-3.93-9.84-8.98-10.37,0,0-1.52-.17-2.63-.05-3.6.4-6.57,2.92-6.57,6.52,0,2.87,2,6.1,4.55,6.64"/>
      <path class="cls-2" d="M18.68,68.66c.08-.16,1.37-11.28-6.59-11.81-7.96-.53-7.26,4.95-7.26,4.95C2.04,57.11.25,49.81.25,41.62c0-13.68,4.99-24.85,11.27-25.6"/>
    </g>
    <g>
      <path class="cls-3" d="M44.74,36.27s22.17,1.02,33.61-8.48c0,0-.67,6.65,4.93,8.51,0,0-20.64,7.77-11.22,36.87,0,0,5.61,10.17-5.16,13.01-4.52,1.19-7.84,1.8-10.31,2.51,0,0-9.88,3.29-10.1,19.37"/>
      <path class="cls-3" d="M51.54,38.99s-4.04,2.96-4.37,8.16c-.34,5.2-.22,8.81-.22,8.81,0,0,.34,1.95,2.13,1.71s10.77.02,10.77.02c0,0,3.93-.25,4.82-1.73l.17.2s-1.18,4.52,0,8.01h-.31s-2.72-1.72-4.85-1.54l-11.16-.3s-1.46,0-1.46,1.24-.11,14.7-.11,14.96.76,5.88,4.21,8.04h-6.41"/>
      <path class="cls-3" d="M44.74,36.27s-22.17,1.02-33.61-8.48c0,0,.67,6.65-4.93,8.51,0,0,20.64,7.77,11.22,36.87,0,0-5.61,10.17,5.16,13.01,4.52,1.19,7.84,1.8,10.31,2.51,0,0,9.88,3.29,10.1,19.37"/>
      <path class="cls-3" d="M44.74,86.6h-6.41c3.45-2.16,4.21-7.78,4.21-8.04,0-.27-.11-13.72-.11-14.96s-1.46-1.24-1.46-1.24l-11.16.3c-2.13-.18-4.85,1.54-4.85,1.54h-.31c1.18-3.49,0-8.01,0-8.01l.17-.2c.9,1.48,4.82,1.73,4.82,1.73,0,0,8.97-.26,10.77-.02s2.13-1.71,2.13-1.71c0,0,.11-3.61-.22-8.81-.34-5.2-4.37-8.16-4.37-8.16"/>
      <path class="cls-3" d="M37.83,38.88s7.13,1.13,13.77,0"/>
    </g>
    <g>
      <path class="cls-2" d="M44.74,6.88c.13.03,2.51.04,5.99.05,10.26.02,30.09-.05,30.09-.05v-.5s-8.53-.89-10.14-1.33c-1.61-.44-3.71-1.6-7.08-1.33-3.36.27-2.44.81-4.71-.04-2.27-.85-1.6-2.62-5.13-3.07s-9.37-.35-9.02-.35"/>
      <path class="cls-2" d="M44.74,6.88c-.13.03-2.51.04-5.99.05-10.26.02-30.09-.05-30.09-.05v-.5s8.53-.89,10.14-1.33c1.61-.44,3.71-1.6,7.08-1.33,3.36.27,2.44.81,4.71-.04s1.6-2.62,5.13-3.07,9.37-.35,9.02-.35"/>
      <path class="cls-2" d="M33.86,6.93s-4.06,7.89-6.14,8.76"/>
      <path class="cls-2" d="M55.72,6.84s4.03,7.9,5.94,8.85"/>
    </g>
  </g>
</svg>