<?xml version="1.0" encoding="UTF-8"?>
<svg id="Layer_2" data-name="Layer 2" xmlns="http://www.w3.org/2000/svg" viewBox="0 0 91.43 125.6">
  <defs>
    <style>
      .cls-1 {
        stroke-width: .25px;
      }

      .cls-1, .cls-2 {
        fill: none;
        stroke: #080909;
        stroke-miterlimit: 10;
      }

      .cls-2 {
        stroke-width: .5px;
      }
    </style>
  </defs>
  <g id="Layer_2-2" data-name="Layer 2">
    <g>
      <line class="cls-2" x1="37.38" y1="24.13" x2="45.71" y2="24.13"/>
      <path class="cls-2" d="M37.48,24.07c.67,1.33,1.06,2.86,1.06,4.49,0,5.09-3.74,9.22-8.35,9.22s-8.35-4.13-8.35-9.22c0-2.42.84-4.62,2.23-6.27"/>
      <path class="cls-2" d="M20.85,21.61c-1.22,1.99-1.93,4.4-1.93,6.98,0,6.9,5.07,12.49,11.32,12.49s11.32-5.59,11.32-12.49c0-.48-.02-.96-.07-1.43l4.24.03"/>
      <path class="cls-2" d="M23.95,22.55c-1.76-3.99-7.35-5.91-13.24-4.34C4.23,19.95-.16,25.26.9,30.08c.36,1.63,1.29,3,2.63,4.02,0,0,2.83,1.87,5.47,1.29"/>
      <path class="cls-2" d="M7.71,35.4c.2.05.41.08.63.08,1.59,0,2.89-1.43,2.89-3.19s-1.29-3.19-2.89-3.19c0,0-1.85.61-1.24,2.61,0,0-1.95.27-2.46-1.5-.98-3.44,1.3-7.53,5.48-9.28,0,0,6.09-2.19,10.85.66"/>
      <path class="cls-2" d="M1.17,25.98s-3.68,15.32,3.67,18.11c0,0,.19-5.55,3.57-6.83s10.88,2.46,10.14,13.92c0,0-.06.89-.36,1.47"/>
      <path class="cls-2" d="M18.15,52.38c-5.61-4.64-9.97-.27-10.29,0,0,0-.03-.03-.07-.09"/>
      <path class="cls-2" d="M7.83,52.38s-.25,1.89.48,2.93"/>
      <path class="cls-2" d="M22.21,107.81c.24,1.49,2.58,19.77,17.23,17.3,3.27-.55,5.88-3.11,5.88-6.48,0-1.08-.28-2.08-.73-2.99-1.3-2.65-4.06-2.6-4.06-2.6-.36,0-.71.05-1.05.12-3.85.76-2.58,4.41-2.58,4.41.53,1.29,2,1.92,3.3,1.39.72-.29,1.23-.87,1.46-1.55"/>
      <path class="cls-2" d="M9.2,60.79c.41-1.01,2.35-.97,2.78.1.49,1.21-.2,2.28-.2,2.28-.75.86-1.86,1.4-3.1,1.4-1.42,0-2.67-.71-3.4-1.8-.17-.26-.32-.54-.43-.83-.17-.45-.27-.94-.27-1.45,0,0,0-.47.13-1.14.41-2.02,2.16-5.84,9.47-4.16,9.75,2.24,7.68,21.54,2.86,25.36,0,0,3.9,1.58,2.93,7.52"/>
      <path class="cls-2" d="M8.73,81.47l1.9-.5c3-.92,4.78-3.92,5.77-6.68.64-1.79.96-3.47,1.05-4.42.24-2.43-.61-6.61-4.27-9.1-2.61-1.77-3.57-.77-3.91-.05"/>
      <path class="cls-2" d="M17.51,90.87c0-1.37,1.11-2.48,2.49-2.48,0,0,2.32-.28,3.93,1.67.72.87,1.11,2,1.11,3.21,0,2.88-2.35,5.37-5.23,5.21-3.4-.19-5.43-1.73-6.63-3.37"/>
      <path class="cls-2" d="M8.38,81.59c1.43-.29,3.04,1.75,3.6,4.54.11.56.18,1.11.19,1.64,0,0-.02,1.02-.18,1.97-.05.32-.05.65-.05.98,0,2.49.99,4.64,2.43,5.66"/>
      <path class="cls-2" d="M12.27,93.43c.85,3.28,3.41,6.55,5.26,8.74.88,1.03,1.36,2.23,1.62,3.21.29,1.1.32,1.93.32,1.93,0,0,5.07,2.18,6.99-2.37,0,0-3.09-5.07-2.44-8.57"/>
      <path class="cls-2" d="M25.04,107.13s4.74,12.56,11.61,10.19"/>
      <line class="cls-2" x1="54.05" y1="24.13" x2="45.71" y2="24.13"/>
      <path class="cls-2" d="M53.95,24.07c-.67,1.33-1.06,2.86-1.06,4.49,0,5.09,3.74,9.22,8.35,9.22s8.35-4.13,8.35-9.22c0-2.42-.84-4.62-2.23-6.27"/>
      <path class="cls-2" d="M70.58,21.61c1.22,1.99,1.93,4.4,1.93,6.98,0,6.9-5.07,12.49-11.32,12.49s-11.32-5.59-11.32-12.49c0-.48.02-.96.07-1.43l-4.24.03"/>
      <path class="cls-2" d="M67.48,22.55c1.76-3.99,7.35-5.91,13.24-4.34,6.48,1.73,10.87,7.05,9.82,11.87-.36,1.63-1.29,3-2.63,4.02,0,0-2.83,1.87-5.47,1.29"/>
      <path class="cls-2" d="M83.72,35.4c-.2.05-.41.08-.63.08-1.59,0-2.89-1.43-2.89-3.19,0-1.76,1.29-3.19,2.89-3.19,0,0,1.85.61,1.24,2.61,0,0,1.95.27,2.46-1.5.98-3.44-1.3-7.53-5.48-9.28,0,0-6.09-2.19-10.85.66"/>
      <path class="cls-2" d="M90.26,25.98s3.68,15.32-3.67,18.11c0,0-.19-5.55-3.57-6.83s-10.88,2.46-10.14,13.92c0,0,.06.89.36,1.47"/>
      <path class="cls-2" d="M73.28,52.38c5.61-4.64,9.97-.27,10.29,0,0,0,.03-.03.07-.09"/>
      <path class="cls-2" d="M83.57,52.38s.43,1.89-.81,2.93"/>
      <path class="cls-2" d="M69.09,107.81c-.24,1.49-2.58,19.77-17.23,17.3-3.27-.55-5.88-3.11-5.88-6.48,0-1.08.28-2.08.73-2.99,1.3-2.65,4.06-2.6,4.06-2.6.36,0,.71.05,1.05.12,3.85.76,2.58,4.41,2.58,4.41-.53,1.29-2,1.92-3.3,1.39-.72-.29-1.23-.87-1.46-1.55"/>
      <path class="cls-2" d="M81.81,60.38c-.69-.57-2.11-.4-2.47.5-.49,1.21.2,2.28.2,2.28.75.86,1.86,1.4,3.1,1.4,1.42,0,2.67-.71,3.4-1.8.17-.26.32-.54.43-.83.17-.45.27-.94.27-1.45,0,0,0-.47-.13-1.14-.41-2.02-2.16-5.84-9.47-4.16-9.75,2.24-7.68,21.54-2.86,25.36,0,0-3.9,1.58-2.93,7.52"/>
      <path class="cls-2" d="M82.58,81.47l-1.9-.5c-3-.92-4.78-3.92-5.77-6.68-.64-1.79-.96-3.47-1.05-4.42-.24-2.43.61-6.61,4.27-9.1,2.29-1.55,3.31-.98,3.75-.32"/>
      <path class="cls-2" d="M73.8,90.87c0-1.37-1.11-2.48-2.49-2.48,0,0-2.32-.28-3.93,1.67-.72.87-1.11,2-1.11,3.21,0,2.88,2.35,5.37,5.23,5.21,3.4-.19,5.43-1.73,6.63-3.37"/>
      <path class="cls-2" d="M82.93,81.59c-1.43-.29-3.04,1.75-3.6,4.54-.11.56-.18,1.11-.19,1.64,0,0,.02,1.02.18,1.97.05.32.05.65.05.98,0,2.49-.99,4.64-2.43,5.66"/>
      <path class="cls-2" d="M79.03,93.43c-.85,3.28-3.41,6.55-5.26,8.74-.88,1.03-1.36,2.23-1.62,3.21-.29,1.1-.32,1.93-.32,1.93,0,0-5.07,2.18-6.99-2.37,0,0,3.09-5.07,2.44-8.57"/>
      <path class="cls-2" d="M66.27,107.13s-4.74,12.56-11.61,10.19"/>
    </g>
    <g>
      <path class="cls-1" d="M50.74,58.95c0,8.35-2.22,15.12-4.95,15.12-.35,0-.69-.11-1.02-.32-2.24-1.43-3.93-7.51-3.93-14.8,0-8.35,2.22-15.12,4.95-15.12s4.95,6.77,4.95,15.12Z"/>
      <polyline class="cls-1" points="44.6 73.49 44.6 95.01 46.79 95.01 46.79 73.68"/>
    </g>
    <g>
      <path class="cls-2" d="M45.79,7.22l-36.2.34s-.74-1.19.84-1.7,6.44-1.27,10.03-2.38c3.59-1.1,5.39-.93,7.92-.42s6.55-2.04,6.55-2.04c0,0,.95-.85,2.96-.76s7.9,0,7.9,0"/>
      <path class="cls-2" d="M29.05,7.22s-2.66,7.43-10.14,11.08"/>
      <path class="cls-2" d="M45.79,7.22l36.2.34s.74-1.19-.84-1.7-6.44-1.27-10.03-2.38c-3.59-1.1-5.39-.93-7.92-.42s-6.55-2.04-6.55-2.04c0,0-.95-.85-2.96-.76s-7.9,0-7.9,0"/>
      <path class="cls-2" d="M62.41,7.22s2.66,7.43,10.14,11.08"/>
    </g>
  </g>
</svg>