<?xml version="1.0" encoding="UTF-8"?>
<svg id="Layer_2" data-name="Layer 2" xmlns="http://www.w3.org/2000/svg" viewBox="0 0 89.18 126.68">
  <defs>
    <style>
      .cls-1 {
        fill: none;
        stroke: #080909;
        stroke-miterlimit: 10;
        stroke-width: .5px;
      }
    </style>
  </defs>
  <g id="Layer_2-2" data-name="Layer 2">
    <g>
      <path class="cls-1" d="M64.32,99.79c-2.3-1.21-5.04-1.69-7.82-1.17-6.22,1.16-10.26,6.88-9.03,12.76h-2.88"/>
      <path class="cls-1" d="M53.43,35c-.78,1.42-2.35,2.39-4.16,2.39-2.59,0-4.68-1.98-4.68-4.43"/>
      <path class="cls-1" d="M24.86,99.79c2.3-1.21,5.04-1.69,7.82-1.17,6.22,1.16,10.26,6.88,9.03,12.76h2.88"/>
      <path class="cls-1" d="M35.75,35c.78,1.42,2.35,2.39,4.16,2.39,2.59,0,4.68-1.98,4.68-4.43"/>
      <path class="cls-1" d="M41.72,111.38s4.67-17.37-14.97-15.37c0,0-17.05-25.61-6.43-54.96,0,0,1.82-5.85,8.67-9.41,2.08-1.08,5.18-1.85,7.63-1.59,4.34.46,3.9,3.65,3.9,3.65,0-1.36-1.16-2.46-2.6-2.46s-2.6,1.1-2.6,2.46c0,.65.27,1.25.71,1.69"/>
      <path class="cls-1" d="M44.59,30.76s-1.6-4.3-7.45-4.3c-5.37,0-20.1,1.76-22.54,24.12,0,0-1.22,9.15-.55,18.48.04.54.09,1.09.14,1.63,1.19,12.08,5.41,22.55,11,28.99"/>
      <path class="cls-1" d="M47.46,111.38s-4.67-17.37,14.97-15.37c0,0,17.05-25.61,6.43-54.96,0,0-1.82-5.85-8.67-9.41-2.08-1.08-5.18-1.85-7.63-1.59-4.34.46-3.9,3.65-3.9,3.65,0-1.36,1.16-2.46,2.6-2.46s2.6,1.1,2.6,2.46c0,.65-.27,1.25-.71,1.69"/>
      <path class="cls-1" d="M44.59,30.76s1.6-4.3,7.45-4.3c5.37,0,20.1,1.76,22.54,24.12,0,0,1.22,9.15.55,18.48-.04.54-.09,1.09-.14,1.63-1.19,12.08-5.41,22.55-11,28.99"/>
    </g>
    <path class="cls-1" d="M70.26,20.73c.66.59,1.31,1.2,1.94,1.85"/>
    <path class="cls-1" d="M18.92,20.73c-.66.59-1.31,1.2-1.94,1.85"/>
    <g>
      <line class="cls-1" x1="44.59" y1="30.43" x2="44.61" y2="33.32"/>
      <ellipse class="cls-1" cx="49.99" cy="121.32" rx="5.4" ry="5.11"/>
      <path class="cls-1" d="M72.21,22.57c10.1,10.25,16.73,27.46,16.73,46.98,0,31.42-17.18,56.88-38.37,56.88"/>
      <ellipse class="cls-1" cx="64.53" cy="22.45" rx="6.06" ry="5.73"/>
      <path class="cls-1" d="M55.26,122.47c15.5-2,28.53-23.46,29.78-50.17.97-20.62-5.35-38.71-15.29-47.4"/>
      <path class="cls-1" d="M44.59,120.75c0-4.01,3.44-7.26,7.68-7.26,3.53,0,6.51,2.26,7.4,5.34,0,0,21.39-7.9,24.38-64.18"/>
      <path class="cls-1" d="M66.29,31.63s4.22-.03,7-3.07"/>
      <ellipse class="cls-1" cx="39.19" cy="121.32" rx="5.4" ry="5.11"/>
      <path class="cls-1" d="M16.98,22.57C6.88,32.82.25,50.04.25,69.55c0,31.42,17.18,56.88,38.37,56.88"/>
      <ellipse class="cls-1" cx="24.66" cy="22.45" rx="6.06" ry="5.73"/>
      <path class="cls-1" d="M33.92,122.47c-15.5-2-28.53-23.46-29.78-50.17-.97-20.62,5.35-38.71,15.29-47.4"/>
      <path class="cls-1" d="M44.59,120.75c0-4.01-3.44-7.26-7.68-7.26-3.53,0-6.51,2.26-7.4,5.34,0,0-21.39-7.9-24.38-64.18"/>
      <path class="cls-1" d="M22.89,31.63s-4.22-.03-7-3.07"/>
    </g>
    <g>
      <path class="cls-1" d="M44.59,7.19h29.57s.18-.74,0-.74-5.93-.56-8.59-1.9c-2.66-1.34-5.4-1.62-5.67-1.62s-2.57,2.22-4.43,0c-1.86-2.22-4.43-2.69-4.87-2.69h-6.02"/>
      <path class="cls-1" d="M44.59,7.19H15.02s-.18-.74,0-.74,5.93-.56,8.59-1.9c2.66-1.34,5.4-1.62,5.67-1.62s2.57,2.22,4.43,0S38.13.25,38.57.25s6.02,0,6.02,0"/>
      <path class="cls-1" d="M55.58,7.19s1.23,7.38,7.67,9.64"/>
      <path class="cls-1" d="M33.12,7.19s-1.32,7.28-8.27,9.51"/>
    </g>
  </g>
</svg>