<?xml version="1.0" encoding="UTF-8"?>
<svg id="Layer_2" data-name="Layer 2" xmlns="http://www.w3.org/2000/svg" viewBox="0 0 90.75 127.36">
  <defs>
    <style>
      .cls-1 {
        stroke: #000;
      }

      .cls-1, .cls-2 {
        stroke-width: .5px;
      }

      .cls-1, .cls-2, .cls-3 {
        fill: none;
        stroke-miterlimit: 10;
      }

      .cls-2, .cls-3 {
        stroke: #020202;
      }

      .cls-3 {
        stroke-width: .75px;
      }
    </style>
  </defs>
  <g id="Layer_2-2" data-name="Layer 2">
    <g>
      <path class="cls-2" d="M44.84.25h-12.05s-.98,1.93-.98,1.93c0,0-2.23-.06-3.81.44s-5.77,0-5.77,0c0,0-3.06.07-5.88.78-2.83.71-10.25,1.11-10.25,1.11v.12h39s11.36,0,11.36,0h27.13s0-.12,0-.12c0,0-7.42-.4-10.25-1.11-2.83-.71-5.88-.78-5.88-.78,0,0-4.2.5-5.77,0-1.58-.5-3.81-.44-3.81-.44l-.98-1.93h-12.05"/>
      <path class="cls-2" d="M33.47,4.71c-.84,1.12-13.94,13.14-18.64,13.14H3.69s-6.16-4.02-1.79-7.71c0,0,4.41-4.54,13.05.56,8.64,5.1,8.57,7.42,12.56,7.15"/>
      <path class="cls-2" d="M57.28,4.63c.84,1.13,13.94,13.14,18.64,13.14s11.14,0,11.14,0c0,0,6.16-4.02,1.79-7.71,0,0-4.41-4.54-13.05.56s-8.57,7.42-12.56,7.15"/>
    </g>
    <g>
      <path class="cls-1" d="M7.09,34.16s.75-.73,2.54-.73c0,0,.2-.89.64-1.08,0,0,.79-1.31,3.37-.65,0,0,2.14.12,3.33.27,1.19.15.12.27,2.9.69s4.76-.04,4.96-.04,2.62.46,3.37.89c.75.42,2.78,1.19,4.21,3.35s1.35,4.66,1.35,4.66c0,0,.08,1.85-1.07,4.39s-4.8,3.85-4.8,3.85c0,0-4.72.46-6.43.5-1.71.04-4.13.23-4.96.46-.83.23-1.91,1.89-1.87,2.7s.6,2.31,2.26,2.81,6.75.31,6.75.31c0,0,3.26.19,4.65,1.46,0,0,1.47.81,2.46,2.58.99,1.77,1.03,3.39,1.03,3.39,0,0,0,2.31-1.11,3.43-1.11,1.12-1.91,1.85-2.86,2.04-.95.19-5.2.23-5.2.23,0,0-2.42-.31-4.92,1.5,0,0-1.31,2,.4,3.08,0,0,2.38,2,4.92,1.43,2.54-.58,4.45,1.39,4.45,1.39,0,0,1.35,1.04,1.47,2.93.12,1.89-1.51,3.31-1.51,3.31,0,0-.91,1.27-3.65,1.93-2.74.65-2.5.54-2.5.54,0,0-.87.08-.83,1.19.04,1.12,2.26,1,2.26,1,0,0,2.18-.35,2.66.81s.67,1.5.67,1.5l.08.85-.08.54s.32.69.28.81-.75,1.16-.75,1.16l-1.07,1.04s-.71,1.69-.08,2.5c.64.81,1.15,1.73,1.15,1.73,0,0,.4.5.08,1.69-.32,1.19-.95,2.12-.95,2.12,0,0-.44.92-.12,1.43s1.35,1.62,1.35,1.62l.28.65s.04.69-.32,1.19-.67,1.08-.67,1.08l.2,1,.28.89-.04.92-.36.92-.91,1.39-.36-.19s.99-1.04.83-1.54-.4-1.58-.4-1.58c0,0-.52-.89-.52-1.12s-.32-.46.12-1.23.41-.99.41-.99c0,0,.25-.74-1.01-1.67s-.04-4.51-.04-4.51l.32-.89s.28-.39-1.23-1.27c-1.51-.89-1.43-2.2-1.43-2.2,0,0-.08-1,1.15-2.23,0,0,1.87-1.12,2.06-1.58s.52-.92-.16-2.39-3.41-.58-3.69-.62-2.54-1.62-2.26-2.97c.28-1.35.95-2.2.95-2.2l1.67-1.08s2.1-.23,2.34-.23,1.51-.23,1.51-.23c0,0,1.87-1.17,1.91-2.43s-.45-2.27-2.08-3.13c-1.63-.86-6.28.86-8.11-.66-1.83-1.52-1.93-2.27-1.93-2.37s-.56-2.21.46-4.06c1.01-1.85,3.14-2.58,3.14-2.58,0,0,.44-.52,4.01-.37s3.22.4,4.78-.48c1.57-.89.87-3.6.87-3.6,0,0-.48-2.29-3.92-4.08,0,0-.77-.65-7.04-.12,0,0-5.56-.69-6.15-3.77s2.02-5.93,2.02-5.93c0,0,1.67-1.66,3.65-1.77s8.38-.04,8.81-.27,3.77-.42,4.61-2.7c.83-2.27,1.79-4.35.95-6.32-.83-1.96-3.41-3.2-3.69-3.35s-1.35-.96-4.92-.65l-6.31,1.08-.75.12-1.47.23-2.02.04.4-.39,1.47-.65s-3.3.12-3.69-.04-2.54-.69-2.54-.69Z"/>
      <path class="cls-1" d="M64.7,82.71c-.54,1.29-2.12.36-2.12.36,0,0-1.56-.66-1.2.32,0,0,3.15,2.24,2.21,4.39-.94,2.15-5.04,7.74-4.26,9.58,0,0-1.53-.5-3.77,2.95,0,0-.45-3.26-3.48-.61,0,0,1.1-3.29-3.01-1.4,0,0,1.78-1.07,1.21-1.99,0,0,4.32,1.17,6.6-1.89,0,0,2.71-2.71,2.11-5.77,0,0-.22-.87-1.13-1.12s-5.85-5.52-4.68-10.27"/>
      <path class="cls-1" d="M58.17,80.97c-6.53-1.73-8.23-12.16-8.19-12.36,0,0-.82-3.83,1.86-7.15,0,0,6.07-5.16,6.8-6.74.74-1.58,1.52-3.22,1.13-6.44-.39-3.22-1.82-5.06-2.82-5.41-1-.36-3.25.77-4.98,0,0,0-3.6.46-4.33.31l.22-.92-1.55.4v-.4l-2.22.97s2.73-2.76,7.02-3.06c0,0,.78-1.99,4.42-2.15,3.64-.15,7.06.46,9.44,5.21,2.39,4.75-.47,13.68-2.59,16.2-2.11,2.53-1.2,3.83-1.2,3.83,0,0,1.59,1.57,3.15,2.03,1.56.46,6.92,3.68,6.92,3.68,0,0,5,2.87,7.38,7.01s3.41,7.32,3.41,7.32c0,0,.97,4.67-3.28,5.48h-1.79s.52,3.45-1.07,7.05-2.08,4.64-1.98,5.86c0,0-1.69-2.45-5.49-1.03l-.55.11s.46-2.8-2.91-2.83c0,0,6.51-.69,7.32-1.61s2.44-3.79,1.85-7.16c0,0-6.7-3.27-9.61-6.64-.45-.52-.81-1.05-1.05-1.56"/>
      <path class="cls-1" d="M49.34,41.39s.25-.49,1.54-.43"/>
      <path class="cls-1" d="M48.04,42.24c.85.04,2.56-.08,2.84-.32s1.05-.53,1.05-.53"/>
      <path class="cls-1" d="M54.44,39.96c.35-.26.78-.87,1.86-.66s2.77.31,2.77.31"/>
      <path class="cls-1" d="M55.01,39.96c.26.2,1.21,0,1.43,0"/>
      <path class="cls-1" d="M58.51,64.06s-2.77,5.01,1.56,8.08,10.14,4.9,11.87,6.23c1.73,1.33,3.03,4.19,3.03,4.19"/>
      <path class="cls-1" d="M76.34,78.84c.09.2-.17,1.74,2.21,4.04s1.83,2.59,1.83,2.59"/>
      <path class="cls-1" d="M11.18,33.08c.1-.02.63-.77,1.87-.35s1.92.21,1.92.21"/>
      <path class="cls-1" d="M11.72,33.27c.17.02.4.31,1.02,0"/>
    </g>
    <g>
      <path class="cls-2" d="M10.02,123.02h35.36"/>
      <polyline class="cls-2" points="45.37 22.62 5.31 22.62 5.31 67.2 5.31 95.46 5.31 117.9"/>
      <path class="cls-3" d="M45.38,17.87H.38v105.15"/>
      <line class="cls-2" x1="45.38" y1="123.02" x2="45.38" y2="22.51"/>
      <path class="cls-3" d="M.38,120.99v3.32s0,2.68,3.71,2.68h41.29"/>
      <path class="cls-2" d="M80.73,123.02c-6.7,0-35.36,0-35.36,0"/>
      <path class="cls-2" d="M85.44,117.02v.96s0,2.36,0,2.36c0,0,0,2.68-3.54,2.68h-1.18"/>
      <polyline class="cls-2" points="45.37 22.62 85.44 22.62 85.44 67.2 85.44 95.46 85.44 117.9"/>
      <path class="cls-3" d="M45.38,17.87h45s0,83.67,0,101.51v2.62"/>
      <path class="cls-3" d="M90.37,120.99v.96s0,2.36,0,2.36c0,0,0,2.68-3.71,2.68h-1.24s-2.93,0-2.93,0h-37.12"/>
      <path class="cls-2" d="M5.31,117.02v3.32s0,2.68,3.54,2.68h1.18"/>
    </g>
  </g>
</svg>