<?xml version="1.0" encoding="UTF-8"?>
<svg id="Layer_2" data-name="Layer 2" xmlns="http://www.w3.org/2000/svg" viewBox="0 0 90.5 136.37">
  <defs>
    <style>
      .cls-1 {
        stroke-width: .5px;
      }

      .cls-1, .cls-2 {
        fill: none;
      }

      .cls-1, .cls-2, .cls-3 {
        stroke: #020202;
        stroke-miterlimit: 10;
      }

      .cls-2, .cls-3 {
        stroke-width: .35px;
      }

      .cls-3 {
        fill: #fff;
      }
    </style>
  </defs>
  <g id="Layer_2-2" data-name="Layer 2">
    <polyline class="cls-1" points="9.66 26.12 .25 26.12 .25 25.63"/>
    <g>
      <polyline class="cls-1" points=".25 26.12 .25 136.12 90.25 136.12 90.25 26.12 9.66 26.12"/>
      <rect class="cls-1" x="3.3" y="29.09" width="83.41" height="103.93"/>
    </g>
    <g>
      <polyline class="cls-3" points=".25 47.09 .25 55.66 72.36 136.12 79.86 136.12 .25 47.09 .25 46.95"/>
      <path class="cls-2" d="M31.83,77.38l2.07,2.85-.43.38-8.43-9.62.39-.34s2.06,1.87,2.9,2.59,1.46.24,1.46.24l10.53-8.95-2.12-3.21.74-.65s6.13,6.83,7.51,8.57,2.27,4.01-.98,6.71-6.24-.39-6.24-.39l-1.33-1.39-1.86-2.29-4.39,3.85s-.41.56-.29.81.48.85.48.85Z"/>
      <path class="cls-2" d="M42.02,66.64l-4.51,3.95,1.65,1.88s2.21,2.36,4.15.86,1.51-3.34.65-4.48c-.87-1.15-1.94-2.21-1.94-2.21Z"/>
      <path class="cls-2" d="M53.34,96.27c1.44-.33,2.86-1.04,4.08-2.13,3.52-3.13,4.11-8.21,1.31-11.35-2.79-3.14-7.91-3.14-11.43,0-3.52,3.13-4.11,8.21-1.31,11.35,1.14,1.28,2.67,2.04,4.32,2.28"/>
      <path class="cls-1" d="M48.34,94.1c.73.44,1.58.69,2.47.75"/>
      <path class="cls-1" d="M47.02,92.92c.07.09.15.18.22.27.32.36.69.67,1.1.91"/>
      <path class="cls-2" d="M53.37,94.51c1.02-.33,2.03-.9,2.92-1.69,2.89-2.57,3.52-6.57,1.41-8.94s-6.16-2.2-9.05.37c-2.78,2.47-3.47,6.28-1.63,8.67"/>
      <path class="cls-2" d="M48.6,94.17s3.37-1.48,1.79,1.65c-1.59,3.13,4.94,9.22,4.94,9.22l.21-.18c-2.21-1.92-2.4-6.64-2-10.53.4-3.89-4.28-3.11-4.28-3.11,0,0,.13,1.59-2.38,1.48"/>
      <path class="cls-2" d="M68.01,107.47l-.38-.44-4.28,3.94s-.39.57-.27.82.49.83.49.83l2.13,2.79-.42.39-8.63-9.39.38-.35s2.09,1.82,2.95,2.51c.85.7,1.46.21,1.46.21l10.28-9.17-2.18-3.14.73-.67s6.27,6.66,7.68,8.36,2.35,3.94-.81,6.71c-3.17,2.77-6.22-.24-6.22-.24l-.24-.24"/>
      <path class="cls-2" d="M73.2,101.63l-4.4,4.04,1.69,1.84s2.26,2.3,4.16.76,1.43-3.36.54-4.48-1.99-2.16-1.99-2.16Z"/>
      <path class="cls-2" d="M70.73,110.44s1.69,1.63.63,7.54c0,0-1.05,3.16,2.72,7.38l-.32.29-4.95-5.38s-1.52-2.15-.14-6.91c0,0,.69-3.61-.75-5.99"/>
      <path class="cls-2" d="M29.49,56.35l3.13-2.64s-.86-.44-3.09-3.09c-2.24-2.65-3.77-2.1-5.02-1.05s-2.19,2.61-.3,5.75c1.9,3.14.83,4.8-.22,5.68-1.04.88-3.22,1.49-5.54-.82-2.32-2.3-1.19-5.11-1.19-5.11l-5.36-.97s2.48,2.1,3.24,4.96c0,0,2.25,5.53,6.83,5.29s6.13-3.94,6.13-3.94c0,0,.67-2.2-.5-3.99-1.18-1.79-1.97-2.07-2.54-3.47s1.36-2.94,2.85-1.55c1.49,1.39,1.29,2.14,1.58,4.96Z"/>
      <path class="cls-2" d="M17.21,37.22l1.55,1.81s-1.98.32-4,1.86-.72,2.45-.72,2.45c0,0,2.58,2.71,3.64,3.1l-3.25,2.78s-.45-1.91-2.53-4.32c0,0-.62-1.11-1.65-.16-1.03.94-3.39,6.14-3.39,6.14l-2.38-2.78"/>
      <path class="cls-2" d="M17.21,37.22l-1.55-1.81s-.62,1.91-2.45,3.67c-1.83,1.76-2.53.33-2.53.33,0,0-2.28-2.96-2.51-4.08l-3.25,2.78s1.81.74,3.89,3.16c0,0,1,.78-.09,1.65-1.09.87-6.59,2.4-6.59,2.4l2.38,2.78"/>
      <polyline class="cls-3" points="90.25 105.5 90.25 101.09 22.42 26.12 18.18 26.12 9.93 26.12 90.25 115.23 90.25 105.59 18.18 26.12 18.24 26.12"/>
    </g>
    <line class="cls-1" x1="47.48" y1=".53" x2="47.86" y2=".19"/>
    <g>
      <path class="cls-1" d="M47.7,21.24s-8.16-.22-16.58.31-4.94,4.57-4.94,4.57l-2.55-2.46c-.52-2.98-5.61-2.77-5.61-2.77,0,0,.03-.02.09-.07"/>
      <path class="cls-1" d="M47.7,14.57h-9.64c-14.65.51-20.03,6.31-20.03,6.31,0,0-8.63.13-7.64-7.3s12.19-8.45,12.19-8.45c0,0,3.15-.49,11.43-.78s13.68-2.94,13.68-2.94"/>
      <path class="cls-1" d="M47.7,13.37c-16.53-.79-24.48,2.32-27.74,4.24-1.39.82-1.93,1.42-1.93,1.42,0,0-9.63-1.61-5.74-9.48"/>
      <path class="cls-1" d="M47.7,16.72c-.05-.13-2.49-2.21-2.65,0,0,0-2.12.43-.47,1.71,0,0-.42,2.55,3.12,0"/>
      <path class="cls-1" d="M47.7,21.24s8.16-.22,16.58.31c8.42.53,4.94,4.57,4.94,4.57l2.55-2.46c.52-2.98,5.61-2.77,5.61-2.77,0,0-.03-.02-.09-.07"/>
      <ellipse class="cls-1" cx="75.55" cy="23.1" rx="2.21" ry="1.28" transform="translate(-3.2 16.76) rotate(-12.4)"/>
      <path class="cls-1" d="M47.7,14.57h9.64c14.65.51,20.03,6.31,20.03,6.31,0,0,8.63.13,7.64-7.3-.99-7.43-12.19-8.45-12.19-8.45,0,0-3.15-.49-11.43-.78s-13.68-2.94-13.68-2.94"/>
      <path class="cls-1" d="M47.7,13.37c16.53-.79,24.48,2.32,27.74,4.24,1.39.82,1.93,1.42,1.93,1.42,0,0,9.63-1.61,5.74-9.48"/>
      <path class="cls-1" d="M47.7,16.72c.05-.13,2.49-2.21,2.65,0,0,0,2.12.43.47,1.71,0,0,.42,2.55-3.12,0"/>
      <ellipse class="cls-1" cx="19.96" cy="23.1" rx="1.28" ry="2.21" transform="translate(-6.89 37.64) rotate(-77.6)"/>
      <line class="cls-1" x1="47.67" y1="1.08" x2="47.91" y2=".91"/>
    </g>
  </g>
</svg>