<?xml version="1.0" encoding="UTF-8"?>
<svg id="Layer_2" data-name="Layer 2" xmlns="http://www.w3.org/2000/svg" viewBox="0 0 87.21 133.39">
  <defs>
    <style>
      .cls-1, .cls-2 {
        stroke: #000;
      }

      .cls-1, .cls-2, .cls-3 {
        fill: none;
        stroke-miterlimit: 10;
      }

      .cls-1, .cls-3 {
        stroke-width: .5px;
      }

      .cls-2 {
        stroke-width: .75px;
      }

      .cls-3 {
        stroke: #070808;
      }
    </style>
  </defs>
  <g id="Layer_2-2" data-name="Layer 2">
    <g>
      <path class="cls-2" d="M43.6,133.02s-26.89-.5-35.81-1S.49,121.32.49,121.32V23.08h43.11"/>
      <path class="cls-2" d="M43.6,133.02s26.89-.5,35.81-1c8.92-.5,7.3-10.69,7.3-10.69V23.91s0-.84,0-.84h-17.74s-25.38,0-25.38,0"/>
    </g>
    <g>
      <polyline class="cls-1" points="46.83 33.52 43.81 33.52 43.81 37.28 38.49 37.28 38.49 33.52 32.78 33.52 32.78 37.28 27.2 37.28 27.14 33.52 21.75 33.52 21.75 41.23 25.79 41.23 46.83 41.23"/>
      <polyline class="cls-1" points="46.83 42.96 27.14 42.96 25.79 42.96 25.79 41.23"/>
      <polyline class="cls-1" points="46.83 44.58 27.14 44.58 27.14 42.96"/>
      <polyline class="cls-1" points="27.58 44.45 27.56 100.78 39.57 100.78 46.83 100.78"/>
      <path class="cls-1" d="M39.57,100.78l.1-13.8s0-3.85,3.15-3.85h4.01"/>
      <path class="cls-1" d="M32.61,48.13c.51,0,3.55-.11,3.55,0v6.09h-3.55v-6.09Z"/>
      <line class="cls-1" x1="26.7" y1="100.78" x2="27.56" y2="100.78"/>
      <line class="cls-1" x1="26.7" y1="100.84" x2="26.7" y2="102.7"/>
      <polyline class="cls-1" points="46.83 102.53 22.87 102.7 23.34 104.39 23.55 105.07"/>
      <line class="cls-1" x1="36.7" y1="100.84" x2="36.72" y2="102.6"/>
      <polyline class="cls-1" points="46.83 33.52 49.85 33.52 49.85 37.28 55.17 37.28 55.17 33.52 60.88 33.52 60.88 37.28 66.46 37.28 66.51 33.52 71.91 33.52 71.91 41.23 67.87 41.23 46.83 41.23"/>
      <polyline class="cls-1" points="46.83 42.96 66.51 42.96 67.87 42.96 67.87 41.23"/>
      <polyline class="cls-1" points="46.83 44.58 66.51 44.58 66.51 42.96"/>
      <polyline class="cls-1" points="66.07 44.45 66.1 100.78 54.08 100.78 46.83 100.78"/>
      <path class="cls-1" d="M54.08,100.78l-.1-13.8s0-3.85-3.15-3.85h-4.01"/>
      <line class="cls-1" x1="66.96" y1="100.78" x2="66.1" y2="100.78"/>
      <line class="cls-1" x1="66.96" y1="100.84" x2="66.96" y2="102.7"/>
      <polyline class="cls-1" points="46.83 102.53 70.79 102.7 70.32 104.39 70.11 105.07"/>
      <line class="cls-1" x1="56.95" y1="100.84" x2="56.94" y2="102.6"/>
      <path class="cls-1" d="M56.76,48.13c.51,0,3.55-.11,3.55,0v6.09h-3.55v-6.09Z"/>
      <path class="cls-1" d="M39.57,63.15c.51,0,3.55-.11,3.55,0v6.09h-3.55v-6.09Z"/>
      <path class="cls-1" d="M50.46,63.15c.51,0,3.55-.11,3.55,0v6.09h-3.55v-6.09Z"/>
      <path class="cls-1" d="M46.9,114.81h-25.99l-3.64-9.74s12.93.68,29.56.72"/>
      <path class="cls-1" d="M46.75,114.81h25.99s3.64-9.74,3.64-9.74c0,0-12.93.68-29.56.72"/>
    </g>
    <g>
      <path class="cls-3" d="M43.6,15.85h-21.36s-3.62.08-3.74,3.09c-.12,3.01,2.65,4.39,2.65,4.39"/>
      <path class="cls-3" d="M19.66,16.71c.08-3.72-3.61-5.65-3.61-5.65,0,0,4.23-2.25,15.32-2.46h12.24"/>
      <ellipse class="cls-3" cx="15.78" cy="15.04" rx="2.11" ry="2.84" transform="translate(-5.41 9.9) rotate(-30)"/>
      <path class="cls-3" d="M37.15,8.59S42.5,6.38,43.6.04"/>
      <path class="cls-3" d="M35.67,8.66c-1.21-.81-2.89-3.46-3.29-6,0,0-.57,5.11-4.1,6.09"/>
      <path class="cls-3" d="M26.96,8.71c-.5-.21-3.93-1.12-5-4.14,0,0,.84,4.6-1.43,5.13"/>
      <path class="cls-3" d="M19.82,9.89c-2.12-.65-3.92-.55-7.7-2.46"/>
      <path class="cls-3" d="M16.23,10.65s.89-.87-3.66-3"/>
      <path class="cls-3" d="M43.6,15.85h21.36s3.62.08,3.74,3.09-2.65,4.39-2.65,4.39"/>
      <path class="cls-3" d="M67.55,16.71c-.08-3.72,3.61-5.65,3.61-5.65,0,0-4.23-2.25-15.32-2.46h-12.24"/>
      <ellipse class="cls-3" cx="71.43" cy="15.11" rx="2.84" ry="2.11" transform="translate(22.63 69.41) rotate(-60)"/>
      <path class="cls-3" d="M50.05,8.59S44.71,6.38,43.6.04"/>
      <path class="cls-3" d="M51.65,8.54c1.25-.8,3.02-3.42,3.47-5.96,0,0,.52,5.12,4.14,6.14"/>
      <path class="cls-3" d="M60.16,8.75c.49-.23,3.88-1.29,4.81-4.36,0,0-.63,4.63,1.65,5.06"/>
      <path class="cls-3" d="M71.16,11.06s-.91-1.36,3.74-4.67"/>
      <path class="cls-3" d="M66.77,9.45s5.12-.69,7.93-2.92"/>
    </g>
  </g>
</svg>