<?xml version="1.0" encoding="UTF-8"?>
<svg id="Layer_2" data-name="Layer 2" xmlns="http://www.w3.org/2000/svg" viewBox="0 0 90.62 128.12">
  <defs>
    <style>
      .cls-1 {
        stroke: #020202;
      }

      .cls-1, .cls-2 {
        fill: none;
        stroke-miterlimit: 10;
        stroke-width: .5px;
      }

      .cls-2 {
        stroke: #070808;
      }
    </style>
  </defs>
  <g id="Layer_2-2" data-name="Layer 2">
    <g>
      <path class="cls-1" d="M44.79.25h-12.05s-.98,1.93-.98,1.93c0,0-2.23-.06-3.81.44s-5.77,0-5.77,0c0,0-3.06.07-5.88.78s-10.25,1.11-10.25,1.11v.12h39s11.36,0,11.36,0h.27s26.86,0,26.86,0v-.12s-7.42-.4-10.25-1.11c-2.83-.71-5.88-.78-5.88-.78,0,0-4.2.5-5.77,0-1.58-.5-3.81-.44-3.81-.44l-.98-1.93h-12.05"/>
      <path class="cls-1" d="M33.42,4.71c-.84,1.12-13.94,13.14-18.64,13.14H3.64s-6.16-4.02-1.79-7.71c0,0,4.41-4.54,13.05.56,8.64,5.1,8.57,7.42,12.56,7.15"/>
      <path class="cls-1" d="M57.23,4.63c.84,1.13,13.94,13.14,18.64,13.14,4.7,0,11.14,0,11.14,0,0,0,6.16-4.02,1.79-7.71,0,0-4.41-4.54-13.05.56-8.64,5.1-8.57,7.42-12.56,7.15"/>
    </g>
    <g>
      <path class="cls-1" d="M23.6,39.42c-9.06.54-12.4,10.46-11.7,14.54,2.08,16.19,25.59,16.14,27.5-.2.5-4.9-3.89-15.09-14.24-14.34"/>
      <path class="cls-1" d="M26.02,39.41c5.08.27,8.99,4.49,8.72,9.43s-4.6,8.71-9.68,8.44c-5.08-.27-8.99-4.49-8.72-9.43.22-4.12,3.28-7.44,7.25-8.26"/>
      <path class="cls-1" d="M61.9,39.27c-9.28.57-11.8,10.3-11.79,13.05,0,1.94.46,4.11,1.33,5.88,6.08,12.55,25.33,9.05,26.29-5.01.3-3.84-3.43-14.72-14.27-13.92"/>
      <path class="cls-1" d="M64.32,39.26c5.08.27,8.99,4.49,8.72,9.43-.26,4.94-4.6,8.71-9.68,8.44-5.08-.27-8.99-4.49-8.72-9.43.22-4.12,3.28-7.44,7.25-8.26"/>
      <path class="cls-1" d="M41.05,65.91c-9,1.13-11.69,11.25-10.72,15.28,3.14,16.02,26.6,14.43,27.43-2,.18-4.92-4.87-14.81-15.15-13.38"/>
      <path class="cls-1" d="M43.46,65.75c5.09-.06,9.26,3.89,9.32,8.84.06,4.94-4.02,9-9.11,9.06s-9.26-3.89-9.32-8.84c-.05-4.13,2.79-7.64,6.69-8.72"/>
    </g>
    <g>
      <polyline class="cls-1" points=".28 17.87 90.28 17.87 90.28 127.87 .28 127.87 .28 17.87"/>
      <polyline class="cls-1" points="5.32 22.82 15.89 17.79 25.19 22.57"/>
      <polyline class="cls-1" points="45.28 22.82 28.34 22.82 27.7 22.82 25.89 22.82 5.85 22.82 5.32 22.82"/>
      <polyline class="cls-1" points="5.32 22.93 5.32 72.27 5.32 89.22 5.32 99.99 5.32 109.39 5.32 122.14 5.48 122.14"/>
      <polyline class="cls-1" points="45.28 22.82 84.71 22.82 85.23 22.82"/>
      <polyline class="cls-1" points="85.23 22.93 85.23 72.27 85.23 89.22 85.23 99.99 85.23 109.39 85.23 122.14 85.08 122.14"/>
      <line class="cls-2" x1="5.32" y1="122.14" x2="85.23" y2="122.14"/>
      <polyline class="cls-1" points="25.19 22.82 35.76 17.79 45.07 22.57"/>
      <polyline class="cls-1" points="45.24 22.82 55.81 17.79 65.11 22.57"/>
      <polyline class="cls-1" points="65.29 22.71 75.85 17.68 85.16 22.46"/>
      <polyline class="cls-1" points="5.36 122.39 15.93 127.42 25.23 122.64"/>
      <polyline class="cls-1" points="25.23 122.39 35.8 127.42 45.1 122.64"/>
      <polyline class="cls-1" points="45.28 122.39 55.84 127.42 65.15 122.64"/>
      <polyline class="cls-1" points="65.33 122.49 75.89 127.52 85.2 122.74"/>
      <polyline class="cls-1" points="5.42 102.76 .39 92.19 5.17 82.89"/>
      <polyline class="cls-1" points="5.42 82.89 .39 72.32 5.17 63.02"/>
      <polyline class="cls-1" points="5.42 62.84 .39 52.28 5.17 42.97"/>
      <polyline class="cls-1" points="5.31 42.8 .28 32.23 5.06 22.93"/>
      <polyline class="cls-1" points="5.31 122.1 .28 111.53 5.06 102.23"/>
      <polyline class="cls-1" points="85.08 102.55 90.11 91.98 85.33 82.68"/>
      <polyline class="cls-1" points="85.08 82.68 90.11 72.11 85.33 62.8"/>
      <polyline class="cls-1" points="85.08 62.63 90.11 52.06 85.33 42.76"/>
      <polyline class="cls-1" points="85.19 42.58 90.22 32.02 85.44 22.71"/>
      <polyline class="cls-1" points="85.19 121.88 90.22 111.32 85.44 102.01"/>
    </g>
  </g>
</svg>