<?xml version="1.0" encoding="UTF-8"?>
<svg id="Layer_2" data-name="Layer 2" xmlns="http://www.w3.org/2000/svg" viewBox="0 0 90.5 130.59">
  <defs>
    <style>
      .cls-1 {
        fill: none;
        stroke: #020202;
        stroke-miterlimit: 10;
        stroke-width: .5px;
      }
    </style>
  </defs>
  <g id="Layer_2-2" data-name="Layer 2">
    <g>
      <path class="cls-1" d="M44.67,20.34v-2.09s-2.9-.56-5.51.4c0,0,.76-1.23,0-4.12,0,0,1.46,1.12,5.51.62v-3.59s-9.91-.11-11.79,1.37c0,0,.96-3.96,0-6.59h.09s3.07,2.63,11.69,2.57v-4.29s-5.25-.21-6.8.75c0,0,.38-1.98.09-4.31,0,0,2.73,1.93,6.71,1.45,0,0,.6-.88-.2-2.25h2.49"/>
      <path class="cls-1" d="M49.25,20.34v-2.09s2.9-.56,5.51.4c0,0-.76-1.23,0-4.12,0,0-1.46,1.12-5.51.62v-3.59s9.91-.11,11.79,1.37c0,0-.96-3.96,0-6.59h-.09s-3.07,2.62-11.69,2.57v-4.29s5.25-.21,6.8.75c0,0-.37-1.98-.09-4.31,0,0-2.73,1.93-6.71,1.45,0,0-.6-.88.2-2.25h-2.49"/>
      <circle class="cls-1" cx="62.68" cy="9.69" r="2.04"/>
      <circle class="cls-1" cx="31.28" cy="9.33" r="2.04"/>
    </g>
    <g>
      <path class="cls-1" d="M75.21,57.32c.83.76,1.9,1.22,3.07,1.22,2.66,0,4.82-2.4,4.82-5.36s-2.16-5.36-4.82-5.36c-1.42,0-2.69.68-3.57,1.76"/>
      <path class="cls-1" d="M75.41,78.39c.83.76,1.9,1.22,3.07,1.22,2.66,0,4.82-2.4,4.82-5.36,0-2.96-2.16-5.36-4.82-5.36-1.42,0-2.69.68-3.57,1.76"/>
      <path class="cls-1" d="M44.6,40.83c-1.77,0-3.21-1.44-3.21-3.21s1.44-3.21,3.21-3.21"/>
      <line class="cls-1" x1="36.81" y1="49.62" x2="24.22" y2="49.62"/>
      <polyline class="cls-1" points="42.28 42.03 42.29 45.08 42.28 45.87"/>
      <path class="cls-1" d="M45.25,27.14s-3.74-.26-5.26,1.19c-1.52,1.45-1.87,4.71,0,6,0,0-5.02-1.37-6.13,3.55"/>
      <circle class="cls-1" cx="19.64" cy="52.88" r="3.17"/>
      <path class="cls-1" d="M15.29,57.32c-.83.76-1.9,1.22-3.07,1.22-2.66,0-4.82-2.4-4.82-5.36s2.16-5.36,4.82-5.36c1.42,0,2.69.68,3.57,1.76"/>
      <path class="cls-1" d="M15.88,49.62c-.33-.54-.51-1.15-.51-1.79,0-2.2,2.15-3.99,4.79-3.99s4.79,1.79,4.79,3.99c0,.65-.18,1.26-.51,1.8"/>
      <path class="cls-1" d="M24.66,55.77c.2.43.3.91.3,1.4,0,2.2-2.15,3.99-4.79,3.99s-4.71-1.72-4.79-3.86"/>
      <line class="cls-1" x1="36.81" y1="55.9" x2="24.7" y2="55.9"/>
      <path class="cls-1" d="M42.37,41.96c-.88,1.14-2.27,1.88-3.82,1.88-2.66,0-4.82-2.16-4.82-4.82,0-.46.06-.91.19-1.33"/>
      <path class="cls-1" d="M36.57,55.9c0,2.27,1.84,4.11,4.11,4.11.39,0,.77-.05,1.13-.16v7.14"/>
      <path class="cls-1" d="M36.57,49.62c0-2.27,2.01-4.11,4.48-4.11.43,0,.84.05,1.23.16"/>
      <line class="cls-1" x1="36.49" y1="70.72" x2="23.89" y2="70.72"/>
      <line class="cls-1" x1="36.49" y1="76.99" x2="24.38" y2="76.99"/>
      <path class="cls-1" d="M36.25,70.72c0-2.27,2.01-4.11,4.48-4.11.43,0,.84.05,1.23.16"/>
      <circle class="cls-1" cx="19.45" cy="74.03" r="3.17"/>
      <path class="cls-1" d="M15.09,78.39c-.83.76-1.9,1.22-3.07,1.22-2.66,0-4.82-2.4-4.82-5.36s2.16-5.36,4.82-5.36c1.42,0,2.69.68,3.57,1.76"/>
      <path class="cls-1" d="M15.69,70.69c-.33-.54-.51-1.15-.51-1.79,0-2.2,2.15-3.99,4.79-3.99s4.79,1.79,4.79,3.99c0,.65-.18,1.26-.51,1.8"/>
      <path class="cls-1" d="M24.46,76.85c.2.43.3.91.3,1.4,0,2.2-2.15,3.99-4.79,3.99s-4.71-1.72-4.79-3.86"/>
      <path class="cls-1" d="M44.6,40.83c1.77,0,3.21-1.44,3.21-3.21,0-1.77-1.44-3.21-3.21-3.21"/>
      <line class="cls-1" x1="53.69" y1="49.62" x2="66.28" y2="49.62"/>
      <polyline class="cls-1" points="48.22 42.03 48.21 45.08 48.22 45.87"/>
      <path class="cls-1" d="M45.25,27.14s3.74-.26,5.26,1.19c1.52,1.45,1.87,4.71,0,6,0,0,5.02-1.37,6.13,3.55"/>
      <circle class="cls-1" cx="70.54" cy="52.88" r="3.17"/>
      <path class="cls-1" d="M74.62,49.62c.33-.54.51-1.15.51-1.79,0-2.2-2.15-3.99-4.79-3.99-2.65,0-4.79,1.79-4.79,3.99,0,.65.18,1.26.51,1.8"/>
      <path class="cls-1" d="M65.84,55.77c-.2.43-.3.91-.3,1.4,0,2.2,2.15,3.99,4.79,3.99s4.71-1.72,4.79-3.86"/>
      <line class="cls-1" x1="53.69" y1="55.9" x2="65.8" y2="55.9"/>
      <path class="cls-1" d="M48.13,41.96c.88,1.14,2.27,1.88,3.82,1.88,2.66,0,4.82-2.16,4.82-4.82,0-.46-.06-.91-.19-1.33"/>
      <path class="cls-1" d="M53.93,55.9c0,2.27-1.84,4.11-4.11,4.11-.39,0-.77-.05-1.13-.16v7.14"/>
      <path class="cls-1" d="M53.93,49.62c0-2.27-2.01-4.11-4.48-4.11-.43,0-.84.05-1.23.16"/>
      <line class="cls-1" x1="54.01" y1="70.72" x2="66.61" y2="70.72"/>
      <line class="cls-1" x1="54.01" y1="76.99" x2="66.12" y2="76.99"/>
      <path class="cls-1" d="M49.14,88.77v.24s4.86,3.22,5.41,7.77c.56,4.55,1.09,8.92,1.09,8.92"/>
      <path class="cls-1" d="M54.25,76.99c0,2.27-1.84,4.11-4.11,4.11-.39,0-.77-.05-1.13-.16v8.02"/>
      <path class="cls-1" d="M54.25,70.72c0-2.27-2.01-4.11-4.48-4.11-.43,0-.84.05-1.23.16"/>
      <circle class="cls-1" cx="70.72" cy="74.03" r="3.17"/>
      <path class="cls-1" d="M74.81,70.69c.33-.54.51-1.15.51-1.79,0-2.2-2.15-3.99-4.79-3.99s-4.79,1.79-4.79,3.99c0,.65.18,1.26.51,1.8"/>
      <path class="cls-1" d="M66.04,76.85c-.2.43-.3.91-.3,1.4,0,2.2,2.15,3.99,4.79,3.99s4.71-1.72,4.79-3.86"/>
      <path class="cls-1" d="M13.7,127.48s3.8-13.88,6.05-17.79c.14-.25.29-.48.45-.7,2.29-3.22,5.76-3.31,5.76-3.31,0,0,.44-.06,1.14-.05"/>
      <path class="cls-1" d="M40.8,127.48l-3.05-15.48s-1.34-5.14-5.95-6.11c-4.61-.96-7.74.19-7.74.19"/>
      <circle class="cls-1" cx="45.25" cy="53.22" r="3.21"/>
      <circle class="cls-1" cx="45.01" cy="74.03" r="3.21"/>
      <path class="cls-1" d="M43.67,127.48s3.8-13.88,6.05-17.79c.14-.25.29-.48.45-.7,2.29-3.22,5.76-3.31,5.76-3.31,0,0,.59-.09,1.47-.04"/>
      <path class="cls-1" d="M70.77,127.48l-3.05-15.48s-1.34-5.14-5.95-6.11c-4.61-.96-7.74.19-7.74.19"/>
      <path class="cls-1" d="M41.48,88.97v-8.02c-.36.1-.74.16-1.13.16-2.27,0-4.11-1.84-4.11-4.11"/>
      <path class="cls-1" d="M31.8,105.89s.7-4.98,2.41-10.34c1.71-5.36,7.15-6.54,7.15-6.54v-.24"/>
      <path class="cls-1" d="M41.35,88.97c1.64-.45,4.69-.87,8.56.61"/>
      <path class="cls-1" d="M40.04,89.46s.47-.25,1.31-.48"/>
    </g>
    <g>
      <rect class="cls-1" x=".25" y="20.34" width="90" height="110"/>
      <polygon class="cls-1" points="4.73 24.19 86.43 24.19 86.43 127.48 84.86 127.48 4.73 127.48 4.73 24.19"/>
    </g>
  </g>
</svg>