<?xml version="1.0" encoding="UTF-8"?>
<svg id="Layer_2" data-name="Layer 2" xmlns="http://www.w3.org/2000/svg" viewBox="0 0 88.57 116.72">
  <defs>
    <style>
      .cls-1 {
        stroke: #000;
        stroke-miterlimit: 10;
        stroke-width: .5px;
      }

      .cls-1, .cls-2 {
        fill: none;
      }
    </style>
  </defs>
  <g id="Layer_2-2" data-name="Layer 2">
    <g>
      <path class="cls-1" d="M44.41,33.46s-8.64-.24-11.15,1.61-2.97,2.02-5.89,1.69-7.99-5.02-7.99-5.02l-1.77,7.66s4.53.49,7.91,8.99c3.38,8.5,1.23,21.34,1.23,21.34,0,0-.36,2.44-1.64,5.35-1.28,2.91-.54,6.18-.54,6.18,0,0,2.64,6.48,6.78,7.79,4.15,1.31,8.55,3.27,10.09,5.05,1.54,1.78,2.95,5.35,2.95,5.35"/>
      <line class="cls-1" x1="44.41" y1="53.57" x2="26.58" y2="53.57"/>
      <line class="cls-1" x1="44.41" y1="74.08" x2="25.88" y2="74.08"/>
      <path class="cls-1" d="M44.16,33.46s8.64-.24,11.15,1.61,2.97,2.02,5.89,1.69c2.92-.33,7.99-5.02,7.99-5.02l1.77,7.66s-4.53.49-7.91,8.99c-3.38,8.5-1.23,21.34-1.23,21.34,0,0,.36,2.44,1.64,5.35,1.28,2.91.54,6.18.54,6.18,0,0-2.64,6.48-6.78,7.79s-8.55,3.27-10.09,5.05c-1.54,1.78-2.95,5.35-2.95,5.35"/>
      <line class="cls-1" x1="44.16" y1="53.57" x2="61.99" y2="53.57"/>
      <line class="cls-1" x1="44.16" y1="74.08" x2="62.69" y2="74.08"/>
    </g>
    <g>
      <path class="cls-1" d="M44.41.25h-6.92s-1.15.38-1.34,1.37l-.19.98s-.31,1.07-.69,1.24-2.03-.68-2.03-.68l-.96.38s1.11,1.54,0,1.2c0,0-.56-.07-.6-.77s-2.65-.95-2.65-.95c0,0-2.62-.11-5.58,1.47-2.96,1.58-7.64,1.62-7.64,1.62l1.8.73h26.81"/>
      <path class="cls-1" d="M34.08,19.38c1.42-3.44,3.75-9.63,3.49-12.57"/>
      <path class="cls-1" d="M44.16.25h6.92s1.15.38,1.34,1.37l.19.98s.31,1.07.69,1.24,2.03-.68,2.03-.68l.96.38s-1.11,1.54,0,1.2c0,0,.56-.07.6-.77s2.65-.95,2.65-.95c0,0,2.62-.11,5.58,1.47,2.96,1.58,7.64,1.62,7.64,1.62l-1.8.73h-26.81"/>
      <path class="cls-1" d="M54.5,19.41c-1.42-3.43-3.77-9.64-3.5-12.58"/>
    </g>
    <g>
      <path class="cls-1" d="M27.63,28.08c0-3.46,2.42-6.27,5.4-6.27s5.4,2.81,5.4,6.27-2.42,6.27-5.4,6.27"/>
      <path class="cls-1" d="M33.03,21.81s.44-.97,1.05-2.43"/>
      <path class="cls-1" d="M33.03,25.71s1.92-.24,2.28,2.16c.12.8-.08,1.33-.42,1.63"/>
      <path class="cls-1" d="M33.03,34.36c-2.21,0-3.99-1.94-3.99-4.32s1.79-4.32,3.99-4.32"/>
      <path class="cls-1" d="M14.77,22.47s5.46,9.49,15.23,4.75"/>
      <path class="cls-1" d="M11.5,15.24c.38-.68.9-1.25,1.53-1.65,0,0-13.87,2.4-7.82,25.95,0,0,7.88-7.49,14.44,4.4,6.55,11.89-.72,21.28-.72,21.28,0,0-.47.49-.68.55"/>
      <path class="cls-1" d="M11.5,15.24c-.4.72-.62,1.57-.62,2.48,0,2.63,1.92,4.76,4.28,4.76.19,0,.38,0,.57-.04,6.25-1.4,5.02-8.14,5.02-8.14-1.04-4.99-5.98-4.73-5.98-4.73-2.94,0-12.83,3.21-14.27,16.93-1.43,13.71,3.79,17.32,3.79,17.32,0,0,5.09-7.47,11.54.45,6.46,7.91.84,19.71.84,19.71,0,0-.41.81-1,1.29"/>
      <path class="cls-1" d="M15.99,77.4s-2.16.1-2.95-2.56,1.22-3.69,1.22-3.69"/>
      <path class="cls-1" d="M15.99,77.4c3.14,0,5.68-2.72,5.68-6.07s-2.54-6.07-5.68-6.07c0,0-6.58-.4-9.6,6.93,0,0-2.07,5.79,1.31,14.12,2.35,5.8,9.62,9.9,13.82,11.85,0,0,1.98.73,3.49,1.55l.89.55s-.56-5.1,4.61-5.27,10.8,6.64,5.63,13.35c0,0-2.5,1.6-5.11.52-2.62-1.09-7.38,2.23-7.48,5.84v1.78h20.87"/>
      <path class="cls-1" d="M11.66,78.66s4.31,4.58,10.08,0c0,0-1.42,9.85,8.66,13.18l-9.37,2.35s-8.88-5.96-9.37-15.52Z"/>
      <path class="cls-1" d="M60.94,28.08c0-3.46-2.42-6.27-5.4-6.27s-5.4,2.81-5.4,6.27c0,3.46,2.42,6.27,5.4,6.27"/>
      <path class="cls-1" d="M55.54,21.81s-.43-.95-1.04-2.41"/>
      <path class="cls-1" d="M55.54,25.71c2.21,0,3.99,1.94,3.99,4.32,0,2.39-1.79,4.32-3.99,4.32"/>
      <path class="cls-1" d="M73.81,22.47s-5.46,9.49-15.23,4.75"/>
      <path class="cls-1" d="M77.07,15.24c-.38-.68-.9-1.25-1.53-1.65,0,0,13.87,2.4,7.82,25.95,0,0-7.88-7.49-14.44,4.4-6.55,11.89.72,21.28.72,21.28,0,0,.09.16.61.58"/>
      <path class="cls-1" d="M77.07,15.24c.4.72.62,1.57.62,2.48,0,2.63-1.92,4.76-4.28,4.76-.19,0-.38,0-.57-.04-6.25-1.4-5.02-8.14-5.02-8.14,1.04-4.99,5.98-4.73,5.98-4.73,2.94,0,12.83,3.21,14.27,16.93,1.43,13.71-3.79,17.32-3.79,17.32,0,0-5.09-7.47-11.54.45-6.46,7.91-.84,19.71-.84,19.71-.02.06.35.8.94,1.25"/>
      <path class="cls-1" d="M76.91,78.66s-4.41,4.58-10.32,0c0,0,1.45,9.85-8.87,13.18l9.59,2.35s9.09-5.96,9.59-15.52Z"/>
      <path class="cls-1" d="M44.16,116.47h20.87s0-1.78,0-1.78c-.1-3.61-4.86-6.93-7.48-5.84s-5.11-.52-5.11-.52c-5.17-6.7.46-13.52,5.63-13.35,5.17.17,4.61,5.27,4.61,5.27l1.31-.8.39-.15c2.25-.87,13.47-5.51,16.5-13,3.38-8.33,1.31-14.12,1.31-14.12-3.02-7.33-9.6-6.93-9.6-6.93-3.14,0-5.68,2.72-5.68,6.07,0,3.35,2.54,6.07,5.68,6.07"/>
      <line class="cls-2" x1="44.15" y1="99.33" x2="44.19" y2="99.38"/>
      <line class="cls-2" x1="44.1" y1="99.24" x2="44.15" y2="99.33"/>
      <line class="cls-2" x1="44.06" y1="99.19" x2="44.1" y2="99.24"/>
      <line class="cls-2" x1="44.05" y1="99.17" x2="44.06" y2="99.19"/>
      <line class="cls-2" x1="44.01" y1="99.11" x2="44.05" y2="99.17"/>
      <line class="cls-2" x1="43.98" y1="99.07" x2="44.01" y2="99.11"/>
      <line class="cls-2" x1="44.2" y1="99.39" x2="44.28" y2="99.51"/>
      <line class="cls-2" x1="44.19" y1="99.38" x2="44.2" y2="99.39"/>
      <path class="cls-1" d="M72.59,77.4s2.21.1,3.02-2.56-1.25-3.69-1.25-3.69"/>
      <path class="cls-1" d="M55.54,25.71s-1.93.03-2.01,2.46c-.02.61.12,1.04.35,1.32"/>
      <path class="cls-1" d="M33.86,19.46s10.12,2.88,20.85,0"/>
    </g>
  </g>
</svg>