<?xml version="1.0" encoding="UTF-8"?>
<svg id="Layer_2" data-name="Layer 2" xmlns="http://www.w3.org/2000/svg" viewBox="0 0 90.27 117.18">
  <defs>
    <style>
      .cls-1 {
        stroke: #000;
      }

      .cls-1, .cls-2, .cls-3, .cls-4, .cls-5 {
        fill: none;
      }

      .cls-1, .cls-3, .cls-4, .cls-5 {
        stroke-miterlimit: 10;
      }

      .cls-1, .cls-4, .cls-5 {
        stroke-width: .5px;
      }

      .cls-3 {
        stroke-width: .25px;
      }

      .cls-3, .cls-5 {
        stroke: #080909;
      }

      .cls-4 {
        stroke: #231f20;
      }
    </style>
  </defs>
  <g id="Layer_2-2" data-name="Layer 2">
    <g>
      <path class="cls-1" d="M45.12.25s-5.61.56-8.98.25c-3.37-.31-3.7.93-3.7.93,0,0-1.79,1.62-2.68,1.55-.89-.06-2.03-1.18-3.54-1.24s-2.24,1.93-3.62,2.24-2.2-.19-3.9.93c-1.71,1.12-4.31,1.99-4.31,1.99h30.73"/>
      <path class="cls-1" d="M32.53,18.11s1.98-5.23,1.91-10.83v-.38"/>
      <path class="cls-1" d="M45.12.25s5.61.56,8.98.25,3.7.93,3.7.93c0,0,1.79,1.62,2.68,1.55.89-.06,2.03-1.18,3.54-1.24,1.5-.06,2.24,1.93,3.62,2.24,1.38.31,2.2-.19,3.9.93,1.71,1.12,4.31,1.99,4.31,1.99h-30.73"/>
      <path class="cls-1" d="M57.7,18.11s-1.98-5.23-1.91-10.83v-.38"/>
    </g>
    <g>
      <line class="cls-1" x1="74.3" y1="56.28" x2="45.12" y2="56.28"/>
      <path class="cls-4" d="M15.92,56.55c-.12,3.01-.35,6.36-1.37,12.27-1.14,6.6-5.85,14.43-7.8,15.01l2.06,3.08,1.75,2.32c3.43-3.06,10.62-1.62,16.04,3.21,3.63,3.24,5.55,7.18,5.4,10.34l.11.06.55-.2s6.99-2.53,9.05,4.07c2.06,6.6-1.35,10.23-1.35,10.23h4.77"/>
      <path class="cls-1" d="M34,27.25c-2.99-.57-3.52-1.98-5.38-2.39s-3.91.99-3.91.99c0,0-3.25,1.48-5.2,0-.41-.31-.74-.64-.99-.95,0,0-1-1.19-.92-2.66s1.49-3.27,1.49-3.27c1.61-2.82-2.22-.11-3.01.5,0,0-3.09,2.94-4.23,5.69s-4.23,6.4-4.23,6.4l.33.31s3.04,2.31,4.88,7.92,3.25,12.43,3.14,15.73c-.01.34-.02.69-.04,1.04"/>
      <line class="cls-1" x1="19.76" y1="56.28" x2="68.84" y2="88.93"/>
      <line class="cls-1" x1="45.85" y1="56.28" x2="15.93" y2="56.28"/>
      <line class="cls-1" x1="49.45" y1="56.28" x2="77.43" y2="74.51"/>
      <line class="cls-1" x1="13.11" y1="74.51" x2="53.84" y2="102.09"/>
      <ellipse class="cls-3" cx="43.79" cy="45.9" rx=".51" ry=".43"/>
      <ellipse class="cls-5" cx="71.2" cy="45.9" rx=".51" ry=".43"/>
      <polygon class="cls-3" points="30.25 46.33 35.04 36.56 39.4 45.69 38.31 46.33 41.18 46.33 40.02 45.62 35.24 35.88 34.76 35.88 29.85 45.76 24.95 35.88 24.39 35.88 19.64 45.65 18.53 46.33 21.4 46.33 20.31 45.69 24.67 36.56 29.45 46.33 30.25 46.33"/>
      <polyline class="cls-3" points="58.21 40.91 61.27 36.22 66.61 45.46 65.66 46.33 68.63 46.33 67.46 45.46 61.88 35.88 60.65 35.88 54.28 45.46 52.66 46.33 56.24 46.33 55.23 45.46 57.89 41.39"/>
      <polyline class="cls-3" points="58.23 40.88 63.02 40.88 63.26 41.43 57.87 41.43"/>
      <path class="cls-4" d="M74.3,56.28c.12,3.02.35,6.39,1.37,12.32,1.14,6.63,5.85,14.5,7.8,15.08l-2.06,3.09-1.75,2.33c-3.43-3.07-10.62-1.63-16.04,3.22-3.63,3.25-5.55,7.21-5.4,10.39l-.11.06-.55-.2s-6.99-2.54-9.05,4.09c-2.06,6.63,1.35,10.27,1.35,10.27h-4.77"/>
      <path class="cls-1" d="M56.24,26.98c2.99-.57,3.52-1.98,5.38-2.39s3.91.99,3.91.99c0,0,3.25,1.48,5.2,0,.41-.31.74-.64.99-.95,0,0,1-1.19.92-2.66s-1.49-3.27-1.49-3.27c-1.61-2.82,2.22-.11,3.01.5,0,0,3.09,2.94,4.23,5.69s4.23,6.4,4.23,6.4l-.33.31s-3.04,2.31-4.88,7.92-3.25,12.43-3.14,15.73c.01.34.02.69.04,1.04"/>
    </g>
    <g>
      <path class="cls-2" d="M15.93,56.28s.27,19.35-9.19,27.55c-9.45,8.2,0,0,0,0"/>
      <path class="cls-1" d="M.13,32.52s4.12-.44,9.76-10.67c3.95-7.17,7.8-8.66,9.74-8.92,0,0,1.52-.18,2.18-.05,2.82.59,5.2,2.61,5.2,5.84,0,1.08-.26,2.09-.72,2.96,0,0-1.57,2.11-3.13,2.1"/>
      <path class="cls-1" d="M.4,84.49s8.08,10.74,8.21,10.97c0,0,6.75-6.6,13.09-2.14,3.96,2.78,6.02,6.08,6.59,8.87.34,1.67.15,3.16-.49,4.24,0,0,2.6,2.31,2.76,4.45,0,0,3.33-4.21,6.67-1.15,3.33,3.05-.49,7.2-.49,7.2h3.6"/>
      <path class="cls-1" d="M22.64,13.1s1.64-1.68,6.08.48c4.44,2.16,4.57,1.56,4.57,1.56"/>
      <path class="cls-1" d="M89.83,84.49s-8.08,10.74-8.21,10.97c0,0-6.75-6.6-13.09-2.14-3.96,2.78-6.02,6.08-6.59,8.87-.34,1.67-.15,3.16.49,4.24,0,0-2.6,2.31-2.76,4.45,0,0-3.33-4.21-6.67-1.15-3.33,3.05.49,7.2.49,7.2h-3.6"/>
      <path class="cls-1" d="M67.59,13.1s-1.64-1.68-6.08.48c-4.44,2.16-4.57,1.56-4.57,1.56"/>
      <path class="cls-1" d="M45.12,31.54s-15.07,1.1-12.68-13.42l3.21-.44s1.1.7,1.46.58,1.18-.12,1.18-.12l.65.58s-1.95,6.06,6.18,7.18"/>
      <path class="cls-1" d="M45.12,31.54s15.07,1.1,12.68-13.42l-3.21-.44s-1.1.7-1.46.58-1.18-.12-1.18-.12l-.65.58s1.95,6.06-6.18,7.18"/>
      <path class="cls-4" d="M.08,32.52c6.98,2.22,12.27,13.02,12.27,26.01S7.08,82.26.13,84.53"/>
      <path class="cls-4" d="M90.1,32.52c-6.98,2.22-12.27,13.02-12.27,26.01s5.27,23.73,12.22,25.99"/>
      <path class="cls-1" d="M23.9,23.61c-.3.12-.64.19-1,.19-1.35,0-2.44-.97-2.44-2.17s1.09-2.17,2.44-2.17"/>
      <path class="cls-1" d="M90.25,32.52s-4.12-.44-9.76-10.67c-3.95-7.17-7.8-8.66-9.74-8.92,0,0-1.52-.18-2.18-.05-2.82.59-5.2,2.61-5.2,5.84,0,1.08.26,2.09.72,2.96,0,0,1.57,2.11,3.13,2.1"/>
      <path class="cls-1" d="M66.48,23.61c.3.12.64.19,1,.19,1.35,0,2.44-.97,2.44-2.17s-1.09-2.17-2.44-2.17"/>
    </g>
  </g>
</svg>