<?xml version="1.0" encoding="UTF-8"?>
<svg id="Layer_2" data-name="Layer 2" xmlns="http://www.w3.org/2000/svg" viewBox="0 0 91.4 116.86">
  <defs>
    <style>
      .cls-1 {
        fill: none;
        stroke: #020202;
        stroke-miterlimit: 10;
        stroke-width: .5px;
      }
    </style>
  </defs>
  <g id="Layer_2-2" data-name="Layer 2">
    <g>
      <polyline class="cls-1" points="46.01 25.87 46.01 30.95 46.01 37.87 46.28 65.3 46.28 104.03"/>
      <path class="cls-1" d="M46.15,28.01c14.63,0,26.85,12.58,29.77,29.34"/>
      <line class="cls-1" x1="45.92" y1="65.09" x2="72.97" y2="65.09"/>
      <path class="cls-1" d="M77.25,73.65c-2.55-1.66-4.29-4.86-4.29-8.54,0-3.1,1.23-5.87,3.15-7.65"/>
      <path class="cls-1" d="M45.88,26.15h-.63c-17.65,0-31.96,17.43-31.96,38.94,0,21.51,14.31,38.94,31.96,38.94h.9c17.65,0,31.96-17.43,31.96-38.94s-14.31-38.94-31.96-38.94"/>
      <path class="cls-1" d="M15.48,57.35c2.92-16.76,15.14-29.34,29.77-29.34h.63"/>
      <polyline class="cls-1" points="18.43 65.09 45.47 65.09 46.01 65.09"/>
      <path class="cls-1" d="M14.07,73.7c2.59-1.64,4.36-4.87,4.36-8.59,0-3.1-1.23-5.87-3.15-7.65"/>
    </g>
    <g>
      <path class="cls-1" d="M80.44,74.8c-1.14-.13-2.22-.53-3.18-1.15"/>
      <path class="cls-1" d="M56.2,102.47c-3.58,0-6.48,3.13-6.48,7,0,3.05,1.81,5.64,4.33,6.6,0,0,4.84,1.06,9.66.22,20.4-3.55,16.55-41.48,16.55-41.48"/>
      <path class="cls-1" d="M56.11,102.47c2.53-.26,4.77,1.75,5.01,4.48.19,2.22-1,4.23-2.81,5.04-.06.03-.13.05-.19.08-.36.14-.75.24-1.15.28h-.6c-1.53,0-2.77-1.34-2.77-2.99s1.24-2.99,2.77-2.99c0,0-2.23,4.7,2.29,5.3"/>
      <path class="cls-1" d="M56.16,102.01c.46-.16.94-.24,1.44-.24,2.71,0,4.9,2.45,4.9,5.47,0,1.33-.43,2.55-1.13,3.5h.34s3.42-2.25,3.42-2.25c14.98-10.52,12.09-34.25,12.09-34.25"/>
      <path class="cls-1" d="M10.96,74.8c1.12-.12,2.17-.51,3.11-1.11"/>
      <path class="cls-1" d="M35.2,102.47c3.58,0,6.48,3.13,6.48,7,0,3.05-1.81,5.64-4.33,6.6,0,0-4.84,1.06-9.66.22-20.4-3.55-16.55-41.48-16.55-41.48"/>
      <path class="cls-1" d="M35.29,102.47c-2.53-.26-4.77,1.75-5.01,4.48-.19,2.22,1,4.23,2.81,5.04.06.03.13.05.19.08.36.14.75.24,1.15.28h.6c1.53,0,2.77-1.34,2.77-2.99s-1.24-2.99-2.77-2.99c0,0,2.23,4.7-2.29,5.3"/>
      <path class="cls-1" d="M35.24,102.01c-.46-.16-.94-.24-1.44-.24-2.71,0-4.9,2.45-4.9,5.47,0,1.33.43,2.55,1.13,3.5h-.34s-3.42-2.25-3.42-2.25c-14.98-10.52-12.09-34.25-12.09-34.25"/>
      <path class="cls-1" d="M55.42,12.07c-7.55,2.78-4.07,11.88-4.07,11.88-2.73-.75-2.76-3.21-2.76-3.21h-5.79s-.03,2.46-2.76,3.21c0,0,3.48-9.11-4.07-11.88"/>
      <path class="cls-1" d="M61.37,8.95c-4.14,0-7.5,3.62-7.5,8.09,0,3.31,1.85,6.16,4.49,7.42,0,0,6.39,2.22,11.77-1.4"/>
      <path class="cls-1" d="M61.17,8.95c2.58,0,4.68,2.26,4.68,5.05s-2.11,4.75-4.68,5.05c-1.08.13-2.34-.24-2.34-.24-.91-.33-1.56-1.25-1.56-2.34,0-1.37,1.03-2.47,2.29-2.47.47,0,.91.16,1.28.42,0,0-4.66,2.07-.2,4.46"/>
      <path class="cls-1" d="M74.95,48.19c.08-.91,2.09-10.01,8.04-11.92,0,0-.81-8.48-8.04-11.14l-2.94-1.07"/>
      <path class="cls-1" d="M83.07,36.15c.84,1.07,2.09,1.75,3.49,1.75,2.53,0,4.58-2.21,4.58-4.94,0-.57-.09-1.13-.26-1.64,0,0-7.34-4.76-11.92-16.64"/>
      <path class="cls-1" d="M64.05,17.84s3.19-.13,6.43-3.83c.99-1.13,2.41-1.78,3.96-1.78,3.09,0,5.59,2.7,5.59,6.04,0,2.59-1.54,4.7-3.63,5.65-2.99,1.36-5.26-.32-5.26-.32-.95-.5-1.6-1.56-1.6-2.78,0-1.71,1.28-3.1,2.87-3.1,1.11,0,2.07.68,2.55,1.67l.48.07s.7-1.47-.11-2.2-2.14-.26-3,.17l-.86.43"/>
      <path class="cls-1" d="M30.03,8.95c4.14,0,7.5,3.62,7.5,8.09,0,3.31-1.85,6.16-4.49,7.42,0,0-6.39,2.22-11.77-1.4"/>
      <path class="cls-1" d="M30.22,8.95c-2.58,0-4.68,2.26-4.68,5.05,0,2.79,2.11,4.75,4.68,5.05,1.08.13,2.34-.24,2.34-.24.91-.33,1.56-1.25,1.56-2.34,0-1.37-1.03-2.47-2.29-2.47-.47,0-.91.16-1.28.42,0,0,4.66,2.07.2,4.46"/>
      <path class="cls-1" d="M16.45,48.19c-.08-.91-2.09-10.01-8.04-11.92,0,0,.81-8.48,8.04-11.14l2.94-1.07"/>
      <path class="cls-1" d="M8.33,36.15c-.84,1.07-2.09,1.75-3.49,1.75-2.53,0-4.58-2.21-4.58-4.94,0-.57.09-1.13.26-1.64,0,0,7.34-4.76,11.92-16.64"/>
      <path class="cls-1" d="M27.35,17.84s-3.19-.13-6.43-3.83c-.99-1.13-2.41-1.78-3.96-1.78-3.09,0-5.59,2.7-5.59,6.04,0,2.59,1.54,4.7,3.63,5.65,2.99,1.36,5.26-.32,5.26-.32.95-.5,1.6-1.56,1.6-2.78,0-1.71-1.28-3.1-2.87-3.1-1.11,0-2.07.68-2.55,1.67l-.48.07s-.7-1.47.11-2.2c.8-.72,2.14-.26,3,.17l.86.43"/>
    </g>
    <g>
      <path class="cls-1" d="M45.7,6.26h30.22v-.75s-8.08-.75-10.07-1.5-1.33-1.82-4.82-1.61c-3.49.21-6.28-.85-6.6-1.5s-8.73-.65-8.73-.65"/>
      <path class="cls-1" d="M53.42,12.94c-.38-.47-2.06-6.68-2.06-6.68"/>
      <path class="cls-1" d="M45.7,6.26h-5.65s-24.57,0-24.57,0v-.75s8.08-.75,10.07-1.5,1.33-1.82,4.82-1.61,6.28-.85,6.6-1.5c.32-.65,8.73-.65,8.73-.65"/>
      <path class="cls-1" d="M37.98,12.94c.38-.47,2.06-6.68,2.06-6.68"/>
    </g>
  </g>
</svg>