<?xml version="1.0" encoding="UTF-8"?>
<svg id="Layer_2" data-name="Layer 2" xmlns="http://www.w3.org/2000/svg" viewBox="0 0 90.09 117.53">
  <defs>
    <style>
      .cls-1 {
        fill: none;
        stroke: #020202;
        stroke-miterlimit: 10;
        stroke-width: .5px;
      }
    </style>
  </defs>
  <g id="Layer_2-2" data-name="Layer 2">
    <g>
      <line class="cls-1" x1="81.46" y1="55.2" x2="81.46" y2="61.31"/>
      <line class="cls-1" x1="8.63" y1="55.2" x2="8.63" y2="61.31"/>
      <path class="cls-1" d="M8.63,55.48c0-2.57,2.69-4.65,6.01-4.65.57,0,1.12.06,1.65.18,2.52.55,4.36,2.35,4.36,4.47v5.96"/>
      <path class="cls-1" d="M8.63,61.01c0-2.06,2.26-3.72,5.04-3.72s5.04,1.67,5.04,3.72v7.63"/>
      <path class="cls-1" d="M28.95,61.09v-5.6c0-2.57,2.69-4.65,6.01-4.65.57,0,1.12.06,1.65.18,2.52.55,4.36,2.35,4.36,4.47v6.21c0,1.73,1.84,3.13,4.11,3.13"/>
      <path class="cls-1" d="M20.65,61.09c0,1.74,1.86,3.16,4.15,3.16s4.15-1.41,4.15-3.16"/>
      <path class="cls-1" d="M18.7,68.63c0,2.57,2.69,4.65,6.01,4.65.57,0,1.12-.06,1.65-.18,2.52-.55,4.36-2.35,4.36-4.47v-7.9c0-1.74,1.86-3.16,4.15-3.16s4.15,1.41,4.15,3.16v7.91"/>
      <path class="cls-1" d="M45.04,73.28c-3.32,0-6.01-2.08-6.01-4.65"/>
      <path class="cls-1" d="M81.46,55.48c0-2.57-2.69-4.65-6.01-4.65-.57,0-1.12.06-1.65.18-2.52.55-4.36,2.35-4.36,4.47v5.96"/>
      <path class="cls-1" d="M81.46,61.01c0-2.06-2.26-3.72-5.04-3.72-2.78,0-5.04,1.67-5.04,3.72v3.52s0,4.11,0,4.11"/>
      <path class="cls-1" d="M61.13,61.09v-5.6c0-2.57-2.69-4.65-6.01-4.65-.57,0-1.12.06-1.65.18-2.52.55-4.36,2.35-4.36,4.47v5.96s0,.25,0,.25c0,1.73-1.84,3.13-4.11,3.13"/>
      <path class="cls-1" d="M69.44,61.09c0,1.74-1.86,3.16-4.15,3.16-2.29,0-4.15-1.41-4.15-3.16"/>
      <path class="cls-1" d="M71.38,68.63c0,2.57-2.69,4.65-6.01,4.65-.57,0-1.12-.06-1.65-.18-2.52-.55-4.36-2.35-4.36-4.47v-5.96s0-1.94,0-1.94c0-1.74-1.86-3.16-4.15-3.16-2.29,0-4.15,1.41-4.15,3.16v7.91"/>
      <path class="cls-1" d="M45.04,73.28c3.32,0,6.01-2.08,6.01-4.65"/>
    </g>
    <g>
      <path class="cls-1" d="M45.34.25h-6.9c-1.69,0-2.57.75-2.57.75,0,0-.78.68-2.15,2.02s-2.15.86-2.15.86c0,0-1.76-.76-2.83-.85s-2.83.17-5.76,1.19c-2.93,1.02-10.84,2.12-10.84,2.12l1.86,1.1h31.35"/>
      <line class="cls-1" x1="34.17" y1="20.7" x2="36.51" y2="7.45"/>
      <path class="cls-1" d="M45.34.25s5.21,0,6.9,0,2.57.75,2.57.75c0,0,.78.68,2.15,2.02s2.15.86,2.15.86c0,0,1.76-.76,2.83-.85,1.07-.08,2.83.17,5.76,1.19,2.93,1.02,10.84,2.12,10.84,2.12l-1.86,1.1h-22.82s-8.53,0-8.53,0"/>
      <line class="cls-1" x1="55.92" y1="20.7" x2="53.57" y2="7.45"/>
    </g>
    <g>
      <path class="cls-1" d="M37.8,20.91c.16-.31.31-.62.44-.94h7.1"/>
      <path class="cls-1" d="M17.67,20.22c-.55-1.13-1.94-1.92-3.56-1.91-2.09.01-3.77,1.37-3.75,3.02,0,.8.41,1.52,1.06,2.05,0,0,2.55,3.05,8.02,3.64,5.47.6,12.58-2.17,14.46-6.33h4.23"/>
      <path class="cls-1" d="M15.81,26.11c3.69-.48,6.64-2.64,7.11-5.53.59-3.62-2.96-7.02-7.92-7.57,0,0-13.77-1.24-14.74,9.7,0,0,.65,12.98,3.19,18.93,2.54,5.95-.52,20.91-.52,20.91"/>
      <path class="cls-1" d="M45.04,24.28h-4.59s-3.03,8.39-16.37,9.04c-11.87.58-18.41-7.02-19.71-8.71-.16-.21-.24-.33-.24-.33,0,0-1.6,4.48,2.83,14.91,4.43,10.43-.26,22.12-.26,22.12,0,0,6.51.69,7.94,7.86,1.43,7.17,4.3,25.3-1.82,29.54l-.68.35s2.98.37,3.47,1.38c0,0,2.69-.16,4.54-6.03,1.86-5.86,2.15-9.29,2.15-9.29h.15s1.77,3.69,3.92,4.45c0,0-1.33,23.24,18.69,23.32"/>
      <path class="cls-1" d="M13.3,87.8c-.92,5.79-3.17,10.23-6.02,11.69,0,0,5.33,1.44,7.29,3.56,0,0,6.58.43,9.05-12.92l.45.6s-.05,25.03,16.86,26.43c0,0,6.85.34,9.48-.15,15.54-2.93,15.6-26.28,15.6-26.28l.45-.6c2.47,13.36,9.05,12.92,9.05,12.92,1.95-2.12,7.29-3.56,7.29-3.56-3.85-1.98-6.62-9.44-6.46-18.3.18-10.33,4.26-18.66,9.11-18.6l1.76-.05"/>
      <path class="cls-1" d="M2.88,62.54l1.76.05c4.85-.06,8.93,8.27,9.11,18.6.04,2.32-.12,4.55-.45,6.6"/>
      <path class="cls-1" d="M52.28,20.91c-.16-.31-.31-.62-.44-.94h-7.1"/>
      <path class="cls-1" d="M72.42,20.22c.55-1.13,1.94-1.92,3.56-1.91,2.09.01,3.77,1.37,3.75,3.02,0,.8-.41,1.52-1.06,2.05,0,0-2.55,3.05-8.01,3.64-5.46.6-12.57-2.17-14.45-6.33h-4.23"/>
      <path class="cls-1" d="M74.28,26.11c-3.69-.48-6.64-2.64-7.11-5.53-.59-3.62,2.96-7.02,7.92-7.57,0,0,13.77-1.24,14.74,9.7,0,0-.65,12.98-3.19,18.93-2.54,5.95.52,20.91.52,20.91"/>
      <path class="cls-1" d="M45.04,24.28h4.59s3.03,8.39,16.37,9.04c11.87.58,18.41-7.02,19.71-8.71.16-.21.24-.33.24-.33,0,0,1.6,4.48-2.83,14.91-4.43,10.43.26,22.12.26,22.12,0,0-6.51.69-7.94,7.86-1.43,7.17-4.3,25.3,1.82,29.54l.68.35s-2.98.37-3.47,1.38c0,0-2.69-.16-4.54-6.03-1.86-5.86-2.15-9.29-2.15-9.29h-.15s-1.77,3.69-3.92,4.45c0,0,1.33,23.24-18.69,23.32"/>
    </g>
  </g>
</svg>