<?xml version="1.0" encoding="UTF-8"?>
<svg id="Livello_2" data-name="Livello 2" xmlns="http://www.w3.org/2000/svg" viewBox="0 0 24.79 65.8">
  <defs>
    <style>
      .cls-1 {
        fill: #1a1a1a;
        stroke-width: 0px;
      }
    </style>
  </defs>
  <g id="Livello_2-2" data-name="Livello 2">
    <g id="Livello_1-2" data-name="Livello 1-2">
      <path class="cls-1" d="M17.29,59.56c-2.84-.19-2.55-3.15-1.86-3.54.7-.38-5.19-7.61,1.61-10.77,0,0-.71-.52-.97-1,2.73-1.43,5.06-4.74,6.17-10.76,0,0-.24-2.71-.44-6.37.35-.36,1.02-.87,2.2,1.74,1.87,6.48-.24-7.65.08-9.93.72-5.11-.35-1.47-1.44.5-.74,1.06-1.12.12-1.13-.46-.03-6.04-2.73-3.76,1-10.17,2.07-4.23,0-10.08-5.94-8.55-6.42,2.54-5.72,7.98-12.9,6.8-.41-.07-.77.25-.75.66.02.69.38,1.29-.04,2.52-.2.6,6.16-2.15,7.69-1.73s2.53,1.87,2.85,2.91c.45,1.46-.79,2.47-1.44,3.56-.49.78-4.08,7.01-2.89,12.32-.76.3-1.57.6-2.42.91-9.84,3.57-4.94,13.3,1.97,16.14-.27.46-.9.91-.9.91,6.8,3.16.92,10.39,1.61,10.77.7.39.99,3.35-1.86,3.54-2.84.18-8.65,4.77-7.29,5.51,1.36.73,12.2.73,12.2.73,0,0,10.82,0,12.18-.73,1.36-.74-4.45-5.33-7.29-5.51ZM9.26,38.77c-3.76-1.26-4.39-5.58-2.86-7.2.82-.87,2.15-1.58,3.54-2.08.43.75,1.01,1.42,1.77,1.99,6.21,4.68,1.31,8.55-2.45,7.29Z"/>
    </g>
  </g>
</svg>