<?xml version="1.0" encoding="UTF-8"?>
<svg id="Livello_2" data-name="Livello 2" xmlns="http://www.w3.org/2000/svg" viewBox="0 0 173.5 539.44">
  <defs>
    <style>
      .cls-1 {
        fill: #010101;
        stroke-width: 0px;
      }
    </style>
  </defs>
  <g id="Livello_2-2" data-name="Livello 2">
    <path class="cls-1" d="M173.5,525.49c0,15.51-86.75,13.91-86.75,13.91,0,0-86.75,1.6-86.75-13.91s47.35-42.77,55.85-41.76c8.5,1,20.29-13.94,10.84-20.79-9.46-6.85-.7-9.79,1.72-12.2,2.42-2.42-23.87-32.43-8.26-68.76,15.61-36.33,14.38-59.15,4.44-60.12-9.83-.96,2.1-5.54-11.6-17.37-6.12-2.94-14.51-5.51-23.36-5.63-10.23-.14-9.84-9.12,0-9.48,11.54-.43,36.36-5.58,36.43-20.56.01-2.57-3.13-4.52-.46-8.74,2.86-4.54,6.09.38,7.79-4.63,1.63-4.81,4.13-97.97,4.04-100.47-.09-2.51-.46-7.8-8.81-8.16-7.94-.33-.29-6.93,1.28-7.84.72-.41,3.07-9.56-5.82-13.64-8.89-4.08-24.17-28.45-24.02-62.17.14-33.72.97-43.25-3.17-55.31-4.14-12.06,24.66-8.76,49.86,0,25.2-8.76,54-12.06,49.86,0-4.14,12.06-3.31,21.59-3.17,55.31.15,33.72-15.13,58.09-24.02,62.17s-6.54,13.23-5.82,13.64c1.57.91,9.22,7.51,1.28,7.84-8.35.36-8.72,5.65-8.81,8.16-.09,2.5,2.41,95.66,4.04,100.47,1.7,5.01,4.93.09,7.79,4.63,2.67,4.22-.47,6.17-.46,8.74.07,14.98,24.89,20.13,36.43,20.56,9.84.36,10.23,9.34,0,9.48-8.85.12-17.24,2.69-23.36,5.63-13.7,11.83-1.77,16.41-11.6,17.37-9.94.97-11.17,23.79,4.44,60.12,15.61,36.33-10.68,66.34-8.26,68.76,2.43,2.41,11.18,5.35,1.72,12.2-9.45,6.85,2.34,21.79,10.84,20.79,8.5-1.01,55.85,26.24,55.85,41.76Z"/>
  </g>
</svg>