<?xml version="1.0" encoding="UTF-8"?>
<svg id="Livello_2" data-name="Livello 2" xmlns="http://www.w3.org/2000/svg" viewBox="0 0 25.97 52.41">
  <defs>
    <style>
      .cls-1 {
        fill: #010202;
        stroke-width: 0px;
      }
    </style>
  </defs>
  <g id="Livello_1-2" data-name="Livello 1">
    <g id="Livello_2-2" data-name="Livello 2-2">
      <path class="cls-1" d="M25.08,14.62c.02.23.01.45-.04.66-.01.03-.01.06-.03.09v.06c-.23.82-.9,1.44-1.58,1.77-.3.15-.6.44-.91.75-.44.46-.91.99-1.37,1.24-.48-.25-.93-.79-1.37-1.27-.29-.32-.59-.61-.89-.77-.66-.35-1.33-.98-1.54-1.81-.01-.02-.01-.04-.01-.06-.02-.03-.02-.06-.02-.09-.04-.21-.05-.43-.03-.66-.37.25-.67.83-.82,1.54-.11.49-.15,1.04-.09,1.58.1,1.04.55,1.91,1.5,2.56l.99.68c2.62,1.71,1.29,4.93.51,6-.98,1.34-3.01.4-3.92-1.01-.88-1.36-1.13-1.91-1.25-3.76-.14-2.15-.9-4.96.84-7.75,1.54-2.47-.74-3.17-.75-4.64,0-1.47,1.12-1.31,2.13-2.77,1.01-1.46,1.35-2.2.81-2.75-.53-.54-3.75-2.26-4.73-2.99C11.52.48,10.44-.14,8.99.03c-.69.09-.97.12-1.07.14h-.01c-.19.05-1.22-.26-2.25.58C4.57,1.63-.66,4.87.07,6.95c.73,2.08,4.09,2.18,4.7,3.27.62,1.08-.03,4,.87,4.66,1.79,1.31,2.29,2.25.97,4.81-.87,1.7-1.72,4.98-1.77,5.63-.05.58-.4,3.41,1.19,5.32.98,1.17,3.04,1.46,3.61,1.54h0c.1.21-.25.38-.38.53-.1.12-.08.3.05.39,4.31,3.08.39,9.7.86,10.05.49.36.68,3.17-1.29,3.34-1.96.18-5.99,4.53-5.05,5.23.94.69,8.45.69,8.45.69,0,0,7.5,0,8.44-.69.94-.7-3.08-5.05-5.05-5.23-1.97-.17-1.76-2.98-1.28-3.34.47-.35-3.45-6.97.86-10.04.13-.1.14-.28.04-.4-.1-.12-.37-.27-.31-.53h0c.18-.01,1.27-.02,1.48-.02,2.41-.03,5.72-1.19,5.93-3.46.2-2.27-.17-4.86-.11-5.34.15-1.57-.75-1.67,2.09-3.07,2.19-1.09,1.82-4.9.71-5.67ZM6.46,7c-.35.42-2.04.18-2.37-.03-.33-.22-1.32-.32-1.34-.74-.03-.42,2.1-2.94,2.1-2.94,0,0,1-.74.85-.14-.16.59,1.28,1.71,1.2,2.13-.22,1.2-.01,1.2-.44,1.72ZM11.22,2.64c.9-.17,3.25,1.69,3.33,2.41.09.72-.49,1.13-1.21,1.13-.72-.01-1.14.46-1.5.22-.42-.28-.5-.69-.65-1.12-.09-.26.17-.35.16-.92,0-.32-.13-1.72-.13-1.72Z"/>
    </g>
  </g>
</svg>