<?xml version="1.0" encoding="UTF-8"?>
<svg id="Livello_2" data-name="Livello 2" xmlns="http://www.w3.org/2000/svg" viewBox="-14 -40 120 358">
  <defs>
    <style>
      .cls-1 {
        fill: #1b1b1b;
        stroke-width: 0px;
      }
    </style>
  </defs>
  <g id="Livello_1-2" data-name="Livello 1">
    <g id="Livello_2-2" data-name="Livello 2-2" transform="translate(44.515 138.305) scale(1.2) translate(-44.515 -138.305)">
      <path class="cls-1" d="M56.22,193.78c7.23-.03,15.58-.32,19.04-1.57,6.47-2.33,13.77-9.97,13.77-22.12s-5.43-15.14-6.99-18.5c-1.55-3.36-2.27-11.41-1.83-17.18.63-8.5.39-12.6-2.53-10.72,0,0-2.83,2.18-3.97,5.57-.03.07-.04.16-.06.23-2.36,9.91-6.01-1.02-9.29-6.01-.39-.58-1.21-.66-1.7-.17-1.2,1.22-3.19,3.51-3.48,5.73.51-4.94.63-8.67.87-12.56,0-.05,0-.1,0-.14-.27-3.85.26-4.42-.92-10.06-1.02-4.86,5.23-9.91,6.52-11.72,1.07-1.5,3.37-1.93,5.16-1.67-.06,3.72-.23,14.97-.17,16.28.11,2.38.27,5.89.19,8.54-.07,2.65,1.52,2.57,1.52,2.57,0,0,1.59.08,1.52-2.57-.07-2.65.18-6.97.19-8.54.01-2.66-.09-11.72-.16-15.83,1.7-.12,3.6-.84,4.42-1.99,1.15-1.7.26-8.94-.4-10.12-.63-1.14-3.79-12.61-2.16-13.47,1.64-.86.69-3.1,1.04-6.38.34-3.27-1.73-3.1-2.93-4.05-1.01-.79-.63-17.01-.08-22.4h.02c.05-.33-.97-1.45-.7-2.08.63-1.43,4.09-.26,7.75-5.08,3.66-4.83-1.14-24.01-1.57-24.3s-1.19-.29-2.23,0c-1.04.29.58,15.9-.08,17.03-.39,1.06-1.9,1.21-2.65,0-.75-1.21-1.08-19.77-1.29-20.2-.11-.22-.64-.32-1.22-.3-.58-.02-1.11.08-1.22.3-.22.43-.54,18.99-1.29,20.2-.75,1.21-2.26,1.06-2.66,0-.65-1.13.97-16.74-.07-17.03-1.04-.29-1.8-.29-2.23,0s-5.23,19.47-1.57,24.3c3.66,4.82,7.12,3.65,7.75,5.08.27.63-.75,1.75-.7,2.08.33,6.34-.04,20.26-.44,21.48-.52,1.56-1.9-1.38-2.68,2.99-.77,4.4,2.42,4.86,3.19,8.56.78,3.71-.51,14.05-.77,15.6-.26,1.55-.95,1.47-5.35.09-4.39-1.38-8.96,1.03-8.87-1.04.08-2.07.11-5.85-3.45-14.56s-7.58-8.77-8.65-8.48c-1.21.36-1.35,1.31-2.34.65-.92-.61-1.65-.62-3.26-.27-1.51.33-3.01,2.37-3.79,3.96-.83,1.69-.78,16.58-.78,17.87s1.32,4.45-6,4.11c-7.33-.35-12.77,6.88-12.58,10.86.22,4.82-3.2,8.77-4.37,13.63-1.1,3.76-2.36,6.72-2.7,8.1-.34,1.38-.76,7.35-1.17,10.65-.42,3.36-2.04,5.22-1.74,11.76.16,2.27.55,3.72.22,5.59-.04.24-.17.45-.34.62-3.92,3.65-5.75,9.24-1.54,20.92,6.64,18.34,20.88,23.83,30.8,25.34.73.11,1.14.9.81,1.56-.43.89-1.11,1.76-1.64,2.39-.42.48-.34,1.22.17,1.58,17.35,12.4,1.58,39.02,3.47,40.43,1.96,1.47,2.76,12.79-5.17,13.47-7.93.72-24.13,18.22-20.34,21.03,3.79,2.79,34.02,2.79,34.02,2.79,0,0,30.19,0,33.98-2.79,3.79-2.81-12.41-20.31-20.34-21.03-7.93-.68-7.09-12-5.17-13.47,1.92-1.41-13.88-28.03,3.47-40.42.52-.37.58-1.12.17-1.6-.43-.5-.95-1.17-1.37-1.87-.43-.73.11-1.64.95-1.65ZM59.46,142.14c.08-.89-.1-4.49-.1-5.75,3.6,3.91,10.7,7.13,13.52,11.18,3.62,5.17,7.87,15.14,1.55,17.58-6.35,2.44-12.29-9.65-14.28-12.24-1.98-2.59-.55-5.71-.69-10.77ZM11.84,139.85c.46-2.47.69-5.37.4-7.19-.25-4.73,6.03-14.65,6.55-20.34.51-5.69,3.1-7.93,5,2.93.34,1.99.58,4.26.73,6.6.02.33-.09.66-.34.87-.69.59-1.34,2.37-1.77,5.8-.84,6.63-4.65,9.88-8.91,12.46-.81.49-1.83-.2-1.66-1.13ZM23.1,168.85c-10.52,2.07-23.79-10.17-6.04-18.44,2.88-1.35,5.04-3.35,6.62-5.68.52-.77,1.72-.57,1.96.32.15.57.33.99.56,1.22,2.12,2.19,7.41,20.51-3.1,22.58Z"/>
    </g>
  </g>
</svg>
