<?xml version="1.0" encoding="UTF-8"?>
<svg id="Livello_2" data-name="Livello 2" xmlns="http://www.w3.org/2000/svg" viewBox="0 0 128.66 527.97">
  <defs>
    <style>
      .cls-1 {
        fill: #010101;
        stroke-width: 0px;
      }
    </style>
  </defs>
  <g id="Livello_2-2" data-name="Livello 2">
    <path class="cls-1" d="M64.33,0s.91-.02,1.71.13c.64.12,1.08.73.97,1.37-.3,1.78-.13,6.99,8.41,16.1,10.8,11.52,18.48,89.28,6.96,90.54-10.76,1.17-6.23,20.02-5.6,22.48.04.17.11.34.23.47,2.74,2.92,20.16.58,22,1.09.02,0,.04.01.06.02,1.04.31,1.15,1.81.16,2.25-8.6,3.87-23.89,40.1-10.33,53.73s5.71,19.86-1.23,28.42c-6.94,8.56-.95,6.8-6.09,11.16s-1.37,3.04-1.52,6.46-3.81,1.26-5.81,9.18c-1.83,7.25,2.94,6.41,3.76,6.22.09-.02.19-.03.28-.03,29.69.19,28.39,8.39,30.32,9.01s7.61-6.74,13.95-9.98c6.34-3.24,4.9,1.14,4.9,1.14-8.2,33.99-13.22,65.37-5,77.01,8.22,11.64-22.08,17.7-32.76,26.68-10.68,8.98-1.56,12.44-8.93,13.16-7.37.72-8.29,17.64,3.29,44.58,11.58,26.94-7.92,49.2-6.12,50.99s8.28,3.97,1.27,9.05c-7.01,5.08,1.73,16.16,8.03,15.41,6.3-.75,41.42,19.47,41.42,30.97s-64.33,10.31-64.33,10.31c0,0-64.33,1.19-64.33-10.31s35.12-31.71,41.42-30.97,15.05-10.33,8.03-15.41-.52-7.26,1.27-9.05-17.7-24.05-6.12-50.99c11.58-26.94,10.67-43.86,3.29-44.58s1.75-4.18-8.93-13.16-40.98-15.04-32.76-26.68,3.2-43.02-5-77.01c0,0-1.43-4.38,4.9-1.14,6.34,3.24,12.02,10.59,13.95,9.98s.62-8.82,30.32-9.01c.09,0,.19,0,.28.03.82.19,5.59,1.04,3.76-6.22-2-7.92-5.66-5.76-5.81-9.18s3.63-2.1-1.52-6.46.85-2.6-6.09-11.16c-6.94-8.56-15.32-14.26-1.23-28.42,13.56-13.64-1.73-49.86-10.33-53.73-.99-.45-.89-1.95.16-2.25.02,0,.04-.01.06-.02,1.84-.51,19.26,1.83,22-1.09.12-.13.19-.3.23-.47.64-2.46,5.17-21.31-5.6-22.48-11.52-1.25-3.84-79.02,6.96-90.54,8.54-9.11,8.71-14.32,8.41-16.1-.11-.64.33-1.25.97-1.37C63.42-.02,64.33,0,64.33,0Z"/>
  </g>
</svg>