<?xml version="1.0" encoding="UTF-8" standalone="no"?><!DOCTYPE svg PUBLIC "-//W3C//DTD SVG 1.1//EN" "http://www.w3.org/Graphics/SVG/1.1/DTD/svg11.dtd"><svg width="100%" height="100%" viewBox="0 0 4780 4783" version="1.1" xmlns="http://www.w3.org/2000/svg" xmlns:xlink="http://www.w3.org/1999/xlink" xml:space="preserve" xmlns:serif="http://www.serif.com/" style="fill-rule:evenodd;clip-rule:evenodd;stroke-linejoin:round;stroke-miterlimit:2;"><g transform="matrix(0,-1,1,0,-1.5613,-30.513)"><text x="-4378.74px" y="115.6px" style="font-family:'Roboto-Medium', 'Roboto';font-weight:500;font-size:152.052px;">D<tspan x="-4270.02px -4178.61px -4130.4px -4082.2px -3990.79px -3943.56px -3859.65px -3768.75px -3705.55px -3657.35px -3597.26px -3505.85px -3458.37px -3398.28px -3337.75px -3246.34px -3198.14px -3150.76px -3098.25px -3050.05px -3002.82px -2942.74px -2848.72px -2753px -2706.01px -2657.81px -2563.72px -2474.91px -2384.01px -2317.1px -2258.8px -2163.08px -2115.75px -2026.93px -1931.21px -1883.01px -1787.29px -1725.5px -1634.6px -1587.37px -1491.65px -1443.44px -1352.55px -1261.13px -1202.83px -1107.11px -1059.75px -964.62px -916.416px -869.073px -781.372px -721.289px -627.276px -532.373px -436.652px " y="115.6px 115.6px 115.6px 115.6px 115.6px 115.6px 115.6px 115.6px 115.6px 115.6px 115.6px 115.6px 115.6px 115.6px 115.6px 115.6px 115.6px 115.6px 115.6px 115.6px 115.6px 115.6px 115.6px 115.6px 115.6px 115.6px 115.6px 115.6px 115.6px 115.6px 115.6px 115.6px 115.6px 115.6px 115.6px 115.6px 115.6px 115.6px 115.6px 115.6px 115.6px 115.6px 115.6px 115.6px 115.6px 115.6px 115.6px 115.6px 115.6px 115.6px 115.6px 115.6px 115.6px 115.6px 115.6px ">alla verità trai Il tuo incerto colore oleato di stupor</tspan></text></g><g transform="matrix(0.064843,-0.997895,0.997895,0.064843,-0.551867,-29.5406)"><text x="-367.409px" y="136.49px" style="font-family:'Roboto-Medium', 'Roboto';font-weight:500;font-size:152.052px;">e</text></g><g transform="matrix(0.620679,-0.784065,0.784065,0.620679,5.26677,-18.0651)"><text x="-111.694px" y="250.434px" style="font-family:'Roboto-Medium', 'Roboto';font-weight:500;font-size:152.052px;">a</text></g><g transform="matrix(0.878489,-0.477762,0.477762,0.878489,4.96732,-9.42091)"><text x="75.424px" y="234.244px" style="font-family:'Roboto-Medium', 'Roboto';font-weight:500;font-size:152.053px;">n</text></g><g transform="matrix(0.987311,-0.158801,0.158801,0.987311,2.09527,-2.73039)"><text x="234.418px" y="164.246px" style="font-family:'Roboto-Medium', 'Roboto';font-weight:500;font-size:152.051px;">t</text></g><text x="314.875px" y="115.598px" style="font-family:'Roboto-Medium', 'Roboto';font-weight:500;font-size:152.052px;">i<tspan x="363.088px 451.914px 547.644px 594.954px 689.868px 780.772px 842.572px 931.398px 1025.35px 1116.25px 1163.32px 1257.42px 1353.15px 1447.25px 1494.64px 1588.59px 1680.02px 1728.23px 1775.64px 1864.46px 1955.89px 2050.8px 2099.01px 2157.32px 2253.05px 2300.06px 2388.89px 2482.84px 2573.74px 2621.05px 2716.18px 2764.4px 2811.41px 2874.55px 2922.77px 3018.5px 3081.71px 3129.92px 3177.25px 3271.2px 3366.93px 3414.15px 3502.97px 3598.7px 3686.42px 3781.33px 3872.75px 3935.97px 4023.68px 4119.41px 4166.65px 4214.87px 4263.08px 4310.34px 4406px " y="115.598px 115.598px 115.598px 115.598px 115.598px 115.598px 115.598px 115.598px 115.598px 115.598px 115.598px 115.598px 115.598px 115.598px 115.598px 115.598px 115.598px 115.598px 115.598px 115.598px 115.598px 115.598px 115.598px 115.598px 115.598px 115.598px 115.598px 115.598px 115.598px 115.598px 115.598px 115.598px 115.598px 115.598px 115.598px 115.598px 115.598px 115.598px 115.598px 115.598px 115.598px 115.598px 115.598px 115.598px 115.598px 115.598px 115.598px 115.598px 115.598px 115.598px 115.598px 115.598px 115.598px 115.598px 115.598px ">co perché non hai capito che di fiori ho cosparso il gr</tspan></text><g transform="matrix(0.9797,0.200471,-0.200471,0.9797,-3.22755,2.92112)"><text x="4397.46px" y="-788.944px" style="font-family:'Roboto-Medium', 'Roboto';font-weight:500;font-size:152.052px;">e</text></g><g transform="matrix(0.756851,0.653587,-0.653587,0.756851,-13.3606,6.96188)"><text x="3524.68px" y="-2892.26px" style="font-family:'Roboto-Medium', 'Roboto';font-weight:500;font-size:152.052px;">m</text></g><g transform="matrix(0.336187,0.941795,-0.941795,0.336187,-24.2789,5.49444)"><text x="1760.4px" y="-4323.09px" style="font-family:'Roboto-Medium', 'Roboto';font-weight:500;font-size:152.052px;">b</text></g><g transform="matrix(0,1,-1,0,-30.513,1.5613)"><text x="290.674px" y="-4695.68px" style="font-family:'Roboto-Medium', 'Roboto';font-weight:500;font-size:152.052px;">o<tspan x="386.407px 429.872px 476.938px 572.077px 620.293px 667.915px 756.743px 847.65px 914.575px 974.671px 1065.58px 1151.51px 1236.25px 1327.16px 1374.2px 1468.15px 1563.88px 1611.25px 1706.38px 1754.6px 1842.31px 1937.23px 2028.14px 2091.35px 2179.06px 2274.8px 2321.78px 2370px 2461.43px 2508.96px 2569.05px 2659.96px 2723.18px 2783.72px 2875.14px 2922.39px 3017.53px 3065.74px 3112.76px 3207.67px 3298.58px 3346.8px 3395.01px 3485.92px 3571.85px 3657.78px 3749.21px 3796.53px 3890.49px 3986.22px 4033.43px 4122.26px 4217.99px 4312.91px 4403.82px " y="-4695.68px -4695.68px -4695.68px -4695.68px -4695.68px -4695.68px -4695.68px -4695.68px -4695.68px -4695.68px -4695.68px -4695.68px -4695.68px -4695.68px -4695.68px -4695.68px -4695.68px -4695.68px -4695.68px -4695.68px -4695.68px -4695.68px -4695.68px -4695.68px -4695.68px -4695.68px -4695.68px -4695.68px -4695.68px -4695.68px -4695.68px -4695.68px -4695.68px -4695.68px -4695.68px -4695.68px -4695.68px -4695.68px -4695.68px -4695.68px -4695.68px -4695.68px -4695.68px -4695.68px -4695.68px -4695.68px -4695.68px -4695.68px -4695.68px -4695.68px -4695.68px -4695.68px -4695.68px -4695.68px -4695.68px ">, di certezze ho disperso la terra di bellezza ho coper</tspan></text></g><g transform="matrix(-0.144786,0.989463,-0.989463,-0.144786,-32.6824,-0.703575)"><text x="3741.48px" y="-5296.88px" style="font-family:'Roboto-Medium', 'Roboto';font-weight:500;font-size:152.052px;">t</text></g><g transform="matrix(-0.461272,0.887259,-0.887259,-0.461272,-36.2784,-6.92405)"><text x="1848.28px" y="-6256.5px" style="font-family:'Roboto-Medium', 'Roboto';font-weight:500;font-size:152.052px;">o</text></g><g transform="matrix(-0.840474,0.541852,-0.541852,-0.840474,-37.3597,-17.9527)"><text x="-1372.59px" y="-6407.82px" style="font-family:'Roboto-Medium', 'Roboto';font-weight:500;font-size:152.051px;">i</text></g><g transform="matrix(-0.992604,0.1214,-0.1214,-0.992604,-33.713,-26.8977)"><text x="-3944.54px" y="-5206.22px" style="font-family:'Roboto-Medium', 'Roboto';font-weight:500;font-size:152.052px;">r</text></g><g transform="matrix(-1,0,0,-1,-32.0743,-28.9517)"><text x="-4488.6px" y="-4695.68px" style="font-family:'Roboto-Medium', 'Roboto';font-weight:500;font-size:152.052px;">a<tspan x="-4397.2px -4255.32px -4207.13px -4123.75px -4076.39px -3967.69px -3919.5px -3872.48px -3809.37px -3761.18px -3665.48px -3602.3px -3554.11px -3459px -3368.12px -3282.22px -3196.32px -3104.92px -3057.18px -2963.26px -2867.55px -2820.44px -2772.25px -2678.18px -2594.43px -2503.03px -2415.35px -2319.64px -2272.14px -2223.95px -2133.07px -2085.72px -2022.61px -1926.91px -1831.28px -1783.09px -1734.9px -1644.03px -1596.72px -1507.92px -1414px -1323.12px -1275.74px -1181.82px -1090.42px -1042.23px -994.901px -946.713px -855.316px -767.631px -678.832px -630.644px -539.247px -480.962px -385.259px " y="-4695.68px -4695.68px -4695.68px -4695.68px -4695.68px -4695.68px -4695.68px -4695.68px -4695.68px -4695.68px -4695.68px -4695.68px -4695.68px -4695.68px -4695.68px -4695.68px -4695.68px -4695.68px -4695.68px -4695.68px -4695.68px -4695.68px -4695.68px -4695.68px -4695.68px -4695.68px -4695.68px -4695.68px -4695.68px -4695.68px -4695.68px -4695.68px -4695.68px -4695.68px -4695.68px -4695.68px -4695.68px -4695.68px -4695.68px -4695.68px -4695.68px -4695.68px -4695.68px -4695.68px -4695.68px -4695.68px -4695.68px -4695.68px -4695.68px -4695.68px -4695.68px -4695.68px -4695.68px -4695.68px -4695.68px ">mi? Di floridezza ho invaso le foglie che hai lasciato.</tspan></text></g><g transform="matrix(-1,0,0,-1,-32.0743,-28.9517)"><text x="-3914.17px" y="-4203.92px" style="font-family:'Roboto-Medium', 'Roboto';font-weight:500;font-size:152.052px;">C<tspan x="-3809.54px -3722.21px -3584.39px -3446.57px -3402.45px -3312.45px -3225.12px -3135.11px -3043.48px -3000.49px -2956.37px -2869.56px -2826.39px -2769.2px -2677.57px -2593.95px -2507.13px -2464.05px -2373.01px -2328.89px -2285.85px -2202.23px -2115.42px -2058.97px -1971.64px -1932.27px -1889.14px -1798.32px -1711.51px -1652.39px -1609.37px -1565.25px -1477.91px -1434.81px -1377.55px -1290.74px -1207.12px -1151.12px -1063.79px -1020.77px -937.155px " y="-4203.92px -4203.92px -4203.92px -4203.92px -4203.92px -4203.92px -4203.92px -4203.92px -4203.92px -4203.92px -4203.92px -4203.92px -4203.92px -4203.92px -4203.92px -4203.92px -4203.92px -4203.92px -4203.92px -4203.92px -4203.92px -4203.92px -4203.92px -4203.92px -4203.92px -4203.92px -4203.92px -4203.92px -4203.92px -4203.92px -4203.92px -4203.92px -4203.92px -4203.92px -4203.92px -4203.92px -4203.92px -4203.92px -4203.92px -4203.92px -4203.92px ">amminano le rose di sera, per la festa su</tspan></text></g><g transform="matrix(-0.998465,-0.0553786,0.0553786,-0.998465,-31.248,-29.8176)"><text x="-1079.64px" y="-4152.13px" style="font-family:'Roboto-Medium', 'Roboto';font-weight:500;font-size:152.052px;">l</text></g><g transform="matrix(-0.969228,-0.246164,0.246164,-0.969228,-28.0173,-32.454)"><text x="-1816.1px" y="-3878.24px" style="font-family:'Roboto-Medium', 'Roboto';font-weight:500;font-size:152.052px;">l</text></g><g transform="matrix(-0.859777,-0.51067,0.51067,-0.859777,-22.4331,-35.1115)"><text x="-2802.28px" y="-3223.72px" style="font-family:'Roboto-Medium', 'Roboto';font-weight:500;font-size:152.052px;">a</text></g><g transform="matrix(-0.457779,-0.889066,0.889066,-0.457779,-10.5086,-35.3606)"><text x="-3976.65px" y="-1309.07px" style="font-family:'Roboto-Medium', 'Roboto';font-weight:500;font-size:152.052px;">s</text></g><g transform="matrix(-0.168129,-0.985765,0.985765,-0.168129,-4.46366,-32.7185)"><text x="-4109.9px" y="-74.649px" style="font-family:'Roboto-Medium', 'Roboto';font-weight:500;font-size:152.052px;">t</text></g><g transform="matrix(0,-1,1,0,-1.5613,-30.513)"><text x="-4010.71px" y="607.356px" style="font-family:'Roboto-Medium', 'Roboto';font-weight:500;font-size:152.052px;">r<tspan x="-3954.3px -3867.01px -3776px -3688.7px -3645.79px -3561.09px -3471.27px -3384.49px -3341.38px -3257.8px -3167.01px -3080.42px -3000.37px -2914.3px -2824.3px -2768.31px -2680.98px -2637.68px -2593.57px -2549.45px -2506.46px -2421.74px -2331.81px -2240.18px -2182.4px -2095.64px -2048.09px -2005px -1891.81px -1800.23px -1710.28px -1666.98px -1582.31px -1538.24px -1495.01px -1411.45px -1319.87px -1229.92px -1138.34px -1094.96px -1004.2px -913.729px " y="607.356px 607.356px 607.356px 607.356px 607.356px 607.356px 607.356px 607.356px 607.356px 607.356px 607.356px 607.356px 607.356px 607.356px 607.356px 607.356px 607.356px 607.356px 607.356px 607.356px 607.356px 607.356px 607.356px 607.356px 607.356px 607.356px 607.356px 607.356px 607.356px 607.356px 607.356px 607.356px 607.356px 607.356px 607.356px 607.356px 607.356px 607.356px 607.356px 607.356px 607.356px 607.356px ">ada che spaventa il cuore. Non ci sono poz</tspan></text></g><g transform="matrix(0.205064,-0.978749,0.978749,0.205064,1.41971,-27.2037)"><text x="-692.277px" y="758.949px" style="font-family:'Roboto-Medium', 'Roboto';font-weight:500;font-size:152.052px;">z</text></g><g transform="matrix(0.463606,-0.886041,0.886041,0.463606,4.22397,-21.9743)"><text x="-383.962px" y="895.734px" style="font-family:'Roboto-Medium', 'Roboto';font-weight:500;font-size:152.052px;">i</text></g><g transform="matrix(0.616014,-0.787735,0.787735,0.616014,5.24509,-18.1915)"><text x="-174.653px" y="940.403px" style="font-family:'Roboto-Medium', 'Roboto';font-weight:500;font-size:152.052px;">,</text></g><g transform="matrix(0.906516,-0.422172,0.422172,0.906516,4.61207,-8.12369)"><text x="340.707px" y="878.446px" style="font-family:'Roboto-Medium', 'Roboto';font-weight:500;font-size:152.052px;">p</text></g><g transform="matrix(0.990137,-0.1401,0.1401,0.990137,1.8699,-2.38958)"><text x="665.526px" y="714.758px" style="font-family:'Roboto-Medium', 'Roboto';font-weight:500;font-size:152.052px;">i</text></g><text x="801.253px" y="607.348px" style="font-family:'Roboto-Medium', 'Roboto';font-weight:500;font-size:152.052px;">e<tspan x="888.05px 978.039px 1022.15px 1065.37px 1156.4px 1200.5px 1243.72px 1381.53px 1468.32px 1524.76px 1610.96px 1691.74px 1735.85px 1827.4px 1871.5px 1915.61px 2002.93px 2045.8px 2136.6px 2180.71px 2267.51px 2357.5px 2401.6px 2444.48px 2535.51px 2579.61px 2622.99px 2714.53px 2806.16px 2890.88px 2975.6px 3062.39px 3105.45px 3190.17px 3280.01px 3366.8px 3410.16px 3493.76px 3549.75px 3636.55px 3726.54px 3817.57px 3909.19px " y="607.348px 607.348px 607.348px 607.348px 607.348px 607.348px 607.348px 607.348px 607.348px 607.348px 607.348px 607.348px 607.348px 607.348px 607.348px 607.348px 607.348px 607.348px 607.348px 607.348px 607.348px 607.348px 607.348px 607.348px 607.348px 607.348px 607.348px 607.348px 607.348px 607.348px 607.348px 607.348px 607.348px 607.348px 607.348px 607.348px 607.348px 607.348px 607.348px 607.348px 607.348px 607.348px 607.348px ">ni di meraviglia pieni di gocce che stendon</tspan></text><g transform="matrix(0.95167,0.307121,-0.307121,0.95167,-5.2209,4.22573)"><text x="3987.98px" y="-656.886px" style="font-family:'Roboto-Medium', 'Roboto';font-weight:500;font-size:152.052px;">o</text></g><g transform="matrix(0.699007,0.715114,-0.715114,0.699007,-15.1789,7.11127)"><text x="3341.11px" y="-2491.65px" style="font-family:'Roboto-Medium', 'Roboto';font-weight:500;font-size:152.052px;">i</text></g><g transform="matrix(0.549802,0.835295,-0.835295,0.549802,-19.3115,6.87874)"><text x="2845.51px" y="-3093.84px" style="font-family:'Roboto-Medium', 'Roboto';font-weight:500;font-size:152.051px;">l</text></g><g transform="matrix(0.172771,0.984962,-0.984962,0.172771,-27.5245,3.82114)"><text x="1459.63px" y="-4001.49px" style="font-family:'Roboto-Medium', 'Roboto';font-weight:500;font-size:152.052px;">t</text></g><g transform="matrix(0,1,-1,0,-30.513,1.5613)"><text x="797.527px" y="-4203.92px" style="font-family:'Roboto-Medium', 'Roboto';font-weight:500;font-size:152.052px;">o<tspan x="889.148px 948.249px 1039.05px 1130.67px 1188.36px 1275.16px 1318.61px 1409.63px 1444.09px 1531.4px 1622.95px 1714.57px 1798.17px 1852.37px 1943.99px 1991.58px 2034.62px 2139.24px 2229.07px 2315.87px 2358.95px 2403.05px 2493.04px 2577.75px 2664.55px 2754.53px 2845.56px 2889.66px 2981.28px 3020.64px 3063.86px 3147.46px 3237.38px 3281.48px 3325.58px 3412.9px 3456px 3540.72px 3632.34px 3676.44px 3720.55px 3764.65px 3854.64px 3941.95px " y="-4203.92px -4203.92px -4203.92px -4203.92px -4203.92px -4203.92px -4203.92px -4203.92px -4203.92px -4203.92px -4203.92px -4203.92px -4203.92px -4203.92px -4203.92px -4203.92px -4203.92px -4203.92px -4203.92px -4203.92px -4203.92px -4203.92px -4203.92px -4203.92px -4203.92px -4203.92px -4203.92px -4203.92px -4203.92px -4203.92px -4203.92px -4203.92px -4203.92px -4203.92px -4203.92px -4203.92px -4203.92px -4203.92px -4203.92px -4203.92px -4203.92px -4203.92px -4203.92px -4203.92px ">rpore d’agosto. Che incendio, sulla collina!</tspan></text></g><g transform="matrix(-0.0161834,0.999869,-0.999869,-0.0161834,-30.7706,1.32493)"><text x="3007.1px" y="-3381.93px" style="font-family:'Roboto-Medium', 'Roboto';font-weight:500;font-size:130.33px;">A</text></g><g transform="matrix(-0.364017,0.931392,-0.931392,-0.364017,-35.3576,-4.80842)"><text x="1717.56px" y="-4253.09px" style="font-family:'Roboto-Medium', 'Roboto';font-weight:500;font-size:130.33px;">n</text></g><g transform="matrix(-0.638726,0.769434,-0.769434,-0.638726,-37.4187,-11.3824)"><text x="359.347px" y="-4605.05px" style="font-family:'Roboto-Medium', 'Roboto';font-weight:500;font-size:130.33px;">c</text></g><g transform="matrix(-0.849872,0.52699,-0.52699,-0.849872,-37.2953,-18.327)"><text x="-1056.73px" y="-4508.26px" style="font-family:'Roboto-Medium', 'Roboto';font-weight:500;font-size:130.331px;">o</text></g><g transform="matrix(-0.961535,0.274684,-0.274684,-0.961535,-35.4337,-23.9897)"><text x="-2177.39px" y="-4070.62px" style="font-family:'Roboto-Medium', 'Roboto';font-weight:500;font-size:130.33px;">r</text></g><g transform="matrix(-0.999755,0.0221416,-0.0221416,-0.999755,-32.3909,-28.593)"><text x="-3095.8px" y="-3403.22px" style="font-family:'Roboto-Medium', 'Roboto';font-weight:500;font-size:130.331px;">a</text></g><g transform="matrix(-1,0,0,-1,-32.0743,-28.9517)"><text x="-3064.1px" y="-3335.03px" style="font-family:'Roboto-Medium', 'Roboto';font-weight:500;font-size:130.33px;">d<tspan x="-2988.81px -2953.73px -2907.01px -2835.35px -2800.27px -2764.03px -2672.39px -2598.05px -2525.94px -2490.86px -2420.98px -2345.18px -2276.25px -2204.14px -2167.9px -2092.6px -2057.53px -2027.32px -1992.25px -1917.85px -1872.59px -1800.92px -1753px " y="-3335.03px -3335.03px -3335.03px -3335.03px -3335.03px -3335.03px -3335.03px -3335.03px -3335.03px -3335.03px -3335.03px -3335.03px -3335.03px -3335.03px -3335.03px -3335.03px -3335.03px -3335.03px -3335.03px -3335.03px -3335.03px -3335.03px -3335.03px ">irei Qualcosa di interi</tspan></text></g><g transform="matrix(-0.993706,-0.112016,0.112016,-0.993706,-30.3518,-30.657)"><text x="-2081.97px" y="-3126.05px" style="font-family:'Roboto-Medium', 'Roboto';font-weight:500;font-size:130.33px;">o</text></g><g transform="matrix(-0.925737,-0.378168,0.378168,-0.925737,-25.409,-33.9414)"><text x="-2783.16px" y="-2464.23px" style="font-family:'Roboto-Medium', 'Roboto';font-weight:500;font-size:130.33px;">r</text></g><g transform="matrix(-0.797217,-0.603692,0.603692,-0.797217,-20.0833,-35.6977)"><text x="-3280.9px" y="-1682.24px" style="font-family:'Roboto-Medium', 'Roboto';font-weight:500;font-size:130.33px;">e</text></g><g transform="matrix(-0.436767,-0.899575,0.899575,-0.436767,-10.0195,-35.225)"><text x="-3593.86px" y="-58.341px" style="font-family:'Roboto-Medium', 'Roboto';font-weight:500;font-size:130.33px;">a</text></g><g transform="matrix(-0.123,-0.992407,0.992407,-0.123,-3.64378,-32.1717)"><text x="-3354.32px" y="1076.78px" style="font-family:'Roboto-Medium', 'Roboto';font-weight:500;font-size:130.33px;">n</text></g><g transform="matrix(0,-1,1,0,-1.5613,-30.513)"><text x="-3123.36px" y="1473.09px" style="font-family:'Roboto-Medium', 'Roboto';font-weight:500;font-size:130.33px;">c<tspan x="-3053.52px -2977.76px -2932.16px -2860.09px -2823.69px -2758.05px -2686.42px -2611.17px -2564.49px -2492.86px -2457.83px -2421.43px -2349.23px -2277.16px -2247.02px -2201.81px -2127.51px -2055.44px -2019.04px -1971.15px -1936.12px -1867.23px -1792.16px " y="1473.09px 1473.09px 1473.09px 1473.09px 1473.09px 1473.09px 1473.09px 1473.09px 1473.09px 1473.09px 1473.09px 1473.09px 1473.09px 1473.09px 1473.09px 1473.09px 1473.09px 1473.09px 1473.09px 1473.09px 1473.09px 1473.09px 1473.09px ">ora vedrei La tua rispo</tspan></text></g><g transform="matrix(0.110425,-0.993884,0.993884,0.110425,0.121076,-28.8164)"><text x="-1546.07px" y="1649.77px" style="font-family:'Roboto-Medium', 'Roboto';font-weight:500;font-size:130.33px;">s</text></g><g transform="matrix(0.356799,-0.934181,0.934181,0.356799,3.20795,-24.2925)"><text x="-1016.88px" y="1966.1px" style="font-family:'Roboto-Medium', 'Roboto';font-weight:500;font-size:130.331px;">t</text></g><g transform="matrix(0.58679,-0.809739,0.809739,0.58679,5.09495,-18.9675)"><text x="-430.809px" y="2145.32px" style="font-family:'Roboto-Medium', 'Roboto';font-weight:500;font-size:130.331px;">a</text></g><g transform="matrix(0.754864,-0.655881,0.655881,0.754864,5.56315,-14.067)"><text x="134.753px" y="2169.89px" style="font-family:'Roboto-Medium', 'Roboto';font-weight:500;font-size:130.331px;">,</text></g><g transform="matrix(0.914327,-0.404976,0.404976,0.914327,4.48842,-7.73484)"><text x="827.309px" y="2015.75px" style="font-family:'Roboto-Medium', 'Roboto';font-weight:500;font-size:130.33px;">i</text></g><g transform="matrix(0.966471,-0.256774,0.256774,0.966471,3.17932,-4.60327)"><text x="1166.28px" y="1853.52px" style="font-family:'Roboto-Medium', 'Roboto';font-weight:500;font-size:130.331px;">l</text></g><text x="1668.71px" y="1476.25px" style="font-family:'Roboto-Medium', 'Roboto';font-weight:500;font-size:130.33px;">c<tspan x="1738.57px 1814.34px 1849.39px 1964.75px 2040.53px 2077.06px 2145.97px 2218.05px 2293.12px 2364.76px 2411.46px 2483.1px 2519.64px 2589.49px 2663.74px 2735.38px 2765.44px 2840.51px 2886.76px 2962.54px " y="1476.25px 1476.25px 1476.25px 1476.25px 1476.25px 1476.25px 1476.25px 1476.25px 1476.25px 1476.25px 1476.25px 1476.25px 1476.25px 1476.25px 1476.25px 1476.25px 1476.25px 1476.25px 1476.25px 1476.25px ">olmo sapere che prom</tspan></text><g transform="matrix(0.997996,0.0632831,-0.0632831,0.997996,-0.94822,0.985864)"><text x="3164.52px" y="1275.77px" style="font-family:'Roboto-Medium', 'Roboto';font-weight:500;font-size:130.331px;">e</text></g><g transform="matrix(0.948225,0.3176,-0.3176,0.948225,-5.42785,4.3439)"><text x="3453.32px" y="399.386px" style="font-family:'Roboto-Medium', 'Roboto';font-weight:500;font-size:130.33px;">t</text></g><g transform="matrix(0.864625,0.502417,-0.502417,0.864625,-9.44392,6.09767)"><text x="3505.79px" y="-317.778px" style="font-family:'Roboto-Medium', 'Roboto';font-weight:500;font-size:130.33px;">t</text></g><g transform="matrix(0.761695,0.647936,-0.647936,0.761695,-13.2011,6.94137)"><text x="3436.9px" y="-945.291px" style="font-family:'Roboto-Medium', 'Roboto';font-weight:500;font-size:130.33px;">i</text></g><g transform="matrix(0.530799,0.847498,-0.847498,0.530799,-19.7929,6.79936)"><text x="3056.12px" y="-1957.9px" style="font-family:'Roboto-Medium', 'Roboto';font-weight:500;font-size:130.331px;">l</text></g><g transform="matrix(0.314657,0.949205,-0.949205,0.314657,-24.7315,5.30162)"><text x="2536.51px" y="-2640.78px" style="font-family:'Roboto-Medium', 'Roboto';font-weight:500;font-size:130.331px;">a</text></g><g transform="matrix(0,1,-1,0,-30.513,1.5613)"><text x="1676.97px" y="-3331.88px" style="font-family:'Roboto-Medium', 'Roboto';font-weight:500;font-size:130.33px;">s<tspan x="1745.91px 1821.02px 1892.69px 1938.34px 2010.46px 2084.87px 2152.28px 2224.39px 2260.6px 2330.49px 2404.77px 2476.44px 2512.64px 2584.32px 2699.71px 2771.83px 2846.24px " y="-3331.88px -3331.88px -3331.88px -3331.88px -3331.88px -3331.88px -3331.88px -3331.88px -3331.88px -3331.88px -3331.88px -3331.88px -3331.88px -3331.88px -3331.88px -3331.88px -3331.88px ">peranza che emani</tspan></text></g></svg>