<?xml version="1.0" encoding="UTF-8"?>
<svg id="Livello_2" data-name="Livello 2" xmlns="http://www.w3.org/2000/svg" viewBox="0 0 341.57 369.32">
  <defs>
    <style>
      .cls-1 {
        font-family: Roboto-Medium, Roboto;
        font-size: 14px;
        font-weight: 500;
      }
    </style>
  </defs>
  <g id="Livello_1-2" data-name="Livello 1">
    <g id="Livello_3" data-name="Livello 3">
      <text class="cls-1" transform="translate(22.54 11.98)"><tspan x="0" y="0">T</tspan><tspan x="14.65" y="0">u</tspan><tspan x="29.13" y="0"> </tspan><tspan x="39.29" y="0">m</tspan><tspan x="58.2" y="0">i</tspan><tspan x="68.46" y="0"> </tspan><tspan x="78.66" y="0">r</tspan><tspan x="90.28" y="0">i</tspan><tspan x="100.56" y="0">c</tspan><tspan x="114.57" y="0">o</tspan><tspan x="129.2" y="0">r</tspan><tspan x="140.7" y="0">d</tspan><tspan x="155.3" y="0">i</tspan><tspan x="165.57" y="0">,</tspan><tspan x="175.39" y="0"> </tspan><tspan x="185.56" y="0">n</tspan><tspan x="200.04" y="0">o</tspan><tspan x="214.69" y="0">n</tspan><tspan x="229.18" y="0"> </tspan><tspan x="239.34" y="0">è</tspan><tspan x="253.55" y="0"> </tspan><tspan x="263.73" y="0">v</tspan><tspan x="277.28" y="0">e</tspan></text>
      <text class="cls-1" transform="translate(313.42 11.96) rotate(14.88)"><tspan x="0" y="0">r</tspan></text>
      <text class="cls-1" transform="translate(322.79 15.64) rotate(50.31)"><tspan x="0" y="0">o</tspan></text>
      <text class="cls-1" transform="translate(329.52 26.75) rotate(88.82)"><tspan x="0" y="0">?</tspan></text>
      <text class="cls-1" transform="translate(329.6 40.19) rotate(90)"><tspan x="0" y="0"> </tspan><tspan x="10.17" y="0">C</tspan><tspan x="26.01" y="0">o</tspan><tspan x="40.67" y="0">s</tspan><tspan x="54.56" y="0">ì</tspan><tspan x="64.91" y="0"> </tspan><tspan x="75.08" y="0">h</tspan><tspan x="89.56" y="0">o</tspan><tspan x="104.21" y="0"> </tspan><tspan x="114.37" y="0">v</tspan><tspan x="128.01" y="0">i</tspan><tspan x="138.27" y="0">s</tspan><tspan x="152.17" y="0">i</tspan><tspan x="162.44" y="0">t</tspan><tspan x="173.79" y="0">a</tspan><tspan x="188.05" y="0">t</tspan><tspan x="199.25" y="0">o</tspan><tspan x="213.87" y="0"> </tspan><tspan x="224.05" y="0">l</tspan><tspan x="234.31" y="0">a</tspan><tspan x="248.56" y="0"> </tspan><tspan x="258.73" y="0">t</tspan><tspan x="270.09" y="0">u</tspan><tspan x="284.56" y="0">a</tspan></text>
      <text class="cls-1" transform="translate(329.68 338.8) rotate(95.35)"><tspan x="0" y="0"> </tspan></text>
      <text class="cls-1" transform="translate(327.85 347.45) rotate(128.44)"><tspan x="0" y="0">c</tspan></text>
      <text class="cls-1" transform="translate(318.9 356.02) rotate(167)"><tspan x="0" y="0">a</tspan></text>
      <text class="cls-1" transform="translate(305.34 357.35) rotate(-180)"><tspan x="0" y="0">s</tspan><tspan x="13.91" y="0">a</tspan><tspan x="28.16" y="0"> </tspan><tspan x="38.33" y="0">E</tspan><tspan x="52.93" y="0"> </tspan><tspan x="63.1" y="0">t</tspan><tspan x="74.47" y="0">u</tspan><tspan x="88.95" y="0">t</tspan><tspan x="100.29" y="0">t</tspan><tspan x="111.67" y="0">a</tspan><tspan x="125.9" y="0"> </tspan><tspan x="136.08" y="0">q</tspan><tspan x="150.7" y="0">u</tspan><tspan x="165.18" y="0">e</tspan><tspan x="179.37" y="0">l</tspan><tspan x="189.64" y="0">l</tspan><tspan x="199.9" y="0">a</tspan><tspan x="214.15" y="0"> </tspan><tspan x="224.33" y="0">v</tspan><tspan x="237.87" y="0">e</tspan><tspan x="252.06" y="0">r</tspan><tspan x="263.71" y="0">i</tspan></text>
      <text class="cls-1" transform="translate(31.53 357.47) rotate(-175.92)"><tspan x="0" y="0">t</tspan></text>
      <text class="cls-1" transform="translate(21.77 355.57) rotate(-140.88)"><tspan x="0" y="0">à</tspan></text>
      <text class="cls-1" transform="translate(13.36 346.04) rotate(-107.55)"><tspan x="0" y="0"> </tspan></text>
      <text class="cls-1" transform="translate(11.98 336.76) rotate(-90)"><tspan x="0" y="0">c</tspan><tspan x="14" y="0">h</tspan><tspan x="28.47" y="0">e</tspan><tspan x="42.66" y="0"> </tspan><tspan x="52.83" y="0">v</tspan><tspan x="66.47" y="0">i</tspan><tspan x="76.75" y="0">e</tspan><tspan x="90.95" y="0">n</tspan><tspan x="105.44" y="0">e</tspan><tspan x="119.63" y="0"> </tspan><tspan x="129.8" y="0">d</tspan><tspan x="144.39" y="0">a</tspan><tspan x="158.63" y="0">l</tspan><tspan x="168.89" y="0"> </tspan><tspan x="179.07" y="0">c</tspan><tspan x="193.05" y="0">u</tspan><tspan x="207.55" y="0">o</tspan><tspan x="222.2" y="0">r</tspan><tspan x="233.7" y="0">e</tspan><tspan x="247.88" y="0">,</tspan><tspan x="257.74" y="0"> </tspan><tspan x="267.89" y="0">s</tspan></text>
      <text class="cls-1" transform="translate(12.28 56.04) rotate(-61.88)"><tspan x="0" y="0">o</tspan></text>
      <text class="cls-1" transform="translate(20.18 45.68) rotate(-26.46)"><tspan x="0" y="0">t</tspan></text>
      <text class="cls-1" transform="translate(29.89 42.7)"><tspan x="0" y="0">t</tspan><tspan x="11.36" y="0">i</tspan><tspan x="21.61" y="0">l</tspan><tspan x="31.88" y="0">e</tspan><tspan x="46.08" y="0"> </tspan><tspan x="56.24" y="0">d</tspan><tspan x="70.83" y="0">i</tspan><tspan x="81.11" y="0"> </tspan><tspan x="91.27" y="0">r</tspan><tspan x="102.91" y="0">i</tspan><tspan x="113.19" y="0">m</tspan><tspan x="132.06" y="0">e</tspan><tspan x="146.28" y="0">m</tspan><tspan x="165.17" y="0">b</tspan><tspan x="179.72" y="0">r</tspan><tspan x="191.12" y="0">a</tspan><tspan x="205.37" y="0">n</tspan><tspan x="219.87" y="0">z</tspan><tspan x="233.61" y="0">a</tspan><tspan x="247.85" y="0"> </tspan></text>
      <text class="cls-1" transform="translate(287.05 43.04) rotate(20.42)"><tspan x="0" y="0">t</tspan></text>
      <text class="cls-1" transform="translate(295.9 47.62) rotate(55.27)"><tspan x="0" y="0">e</tspan></text>
      <text class="cls-1" transform="translate(301.34 59.01) rotate(90)"><tspan x="0" y="0">n</tspan><tspan x="14.48" y="0">u</tspan><tspan x="28.98" y="0">e</tspan><tspan x="43.18" y="0">,</tspan><tspan x="53" y="0"> </tspan><tspan x="63.15" y="0">c</tspan><tspan x="77.16" y="0">o</tspan><tspan x="91.81" y="0">r</tspan><tspan x="103.46" y="0">p</tspan><tspan x="118.03" y="0">u</tspan><tspan x="132.51" y="0">l</tspan><tspan x="142.75" y="0">e</tspan><tspan x="156.96" y="0">n</tspan><tspan x="171.47" y="0">t</tspan><tspan x="182.81" y="0">a</tspan><tspan x="197.07" y="0"> </tspan><tspan x="207.25" y="0">d</tspan><tspan x="221.83" y="0">i</tspan><tspan x="232.09" y="0"> </tspan><tspan x="242.27" y="0">g</tspan></text>
      <text class="cls-1" transform="translate(300.2 314.67) rotate(116.43)"><tspan x="0" y="0">i</tspan></text>
      <text class="cls-1" transform="translate(295.39 322.2) rotate(150.35)"><tspan x="0" y="0">o</tspan></text>
      <text class="cls-1" transform="translate(282.94 326.59) rotate(-180)"><tspan x="0" y="0">i</tspan><tspan x="10.26" y="0">a</tspan><tspan x="24.5" y="0"> </tspan><tspan x="34.68" y="0">d</tspan><tspan x="49.26" y="0">i</tspan><tspan x="59.54" y="0"> </tspan><tspan x="69.7" y="0">v</tspan><tspan x="83.35" y="0">i</tspan><tspan x="93.59" y="0">g</tspan><tspan x="108.23" y="0">o</tspan><tspan x="122.9" y="0">r</tspan><tspan x="134.39" y="0">e</tspan><tspan x="148.59" y="0">.</tspan><tspan x="159.17" y="0"> </tspan><tspan x="169.33" y="0">S</tspan><tspan x="184.53" y="0">e</tspan><tspan x="198.72" y="0">i</tspan><tspan x="208.99" y="0"> </tspan><tspan x="219.17" y="0">s</tspan></text>
      <text class="cls-1" transform="translate(51.32 325.14) rotate(-149.04)"><tspan x="0" y="0">t</tspan></text>
      <text class="cls-1" transform="translate(43.46 319.05) rotate(-114.12)"><tspan x="0" y="0">a</tspan></text>
      <text class="cls-1" transform="translate(40.31 306.37) rotate(-90)"><tspan x="0" y="0">t</tspan><tspan x="11.35" y="0">a</tspan><tspan x="25.61" y="0"> </tspan><tspan x="35.78" y="0">a</tspan><tspan x="50.01" y="0"> </tspan><tspan x="60.21" y="0">c</tspan><tspan x="74.21" y="0">a</tspan><tspan x="88.44" y="0">s</tspan><tspan x="102.35" y="0">a</tspan><tspan x="116.59" y="0"> </tspan><tspan x="126.77" y="0">m</tspan><tspan x="145.67" y="0">i</tspan><tspan x="155.92" y="0">a</tspan><tspan x="170.18" y="0">?</tspan><tspan x="183.67" y="0"> </tspan><tspan x="193.85" y="0">M</tspan></text>
      <text class="cls-1" transform="translate(40.28 93.62) rotate(-89.07)"><tspan x="0" y="0">i</tspan></text>
      <text class="cls-1" transform="translate(41.72 84.66) rotate(-61.5)"><tspan x="0" y="0"> </tspan></text>
      <text class="cls-1" transform="translate(46.76 77.39) rotate(-27.93)"><tspan x="0" y="0">h</tspan></text>
      <text class="cls-1" transform="translate(59.26 73.42)"><tspan x="0" y="0">a</tspan><tspan x="14.24" y="0">i</tspan><tspan x="24.52" y="0"> </tspan><tspan x="34.67" y="0">a</tspan><tspan x="48.93" y="0">s</tspan><tspan x="62.84" y="0">p</tspan><tspan x="77.38" y="0">e</tspan><tspan x="91.59" y="0">t</tspan><tspan x="102.94" y="0">t</tspan><tspan x="114.3" y="0">a</tspan><tspan x="128.56" y="0">t</tspan><tspan x="139.75" y="0">o</tspan><tspan x="154.39" y="0">?</tspan><tspan x="167.88" y="0"> </tspan><tspan x="178.06" y="0">H</tspan></text>
      <text class="cls-1" transform="translate(253.59 73.02) rotate(9.23)"><tspan x="0" y="0">o</tspan></text>
      <text class="cls-1" transform="translate(265.95 77.26) rotate(43.22)"><tspan x="0" y="0"> </tspan></text>
      <text class="cls-1" transform="translate(271.7 84.01) rotate(76.57)"><tspan x="0" y="0">a</tspan></text>
      <text class="cls-1" transform="translate(273.08 97.55) rotate(90)"><tspan x="0" y="0">m</tspan><tspan x="18.89" y="0">m</tspan><tspan x="37.78" y="0">i</tspan><tspan x="48.03" y="0">r</tspan><tspan x="59.44" y="0">a</tspan><tspan x="73.69" y="0">t</tspan><tspan x="84.89" y="0">o</tspan><tspan x="99.52" y="0"> </tspan><tspan x="109.69" y="0">Q</tspan><tspan x="126.05" y="0">u</tspan><tspan x="140.52" y="0">e</tspan><tspan x="154.71" y="0">l</tspan><tspan x="164.98" y="0">l</tspan><tspan x="175.24" y="0">’</tspan></text>
      <text class="cls-1" transform="translate(273.04 281.29) rotate(113.62)"><tspan x="0" y="0">a</tspan></text>
      <text class="cls-1" transform="translate(266.19 291.93) rotate(148.53)"><tspan x="0" y="0">t</tspan></text>
      <text class="cls-1" transform="translate(256.96 295.84) rotate(179.07)"><tspan x="0" y="0">t</tspan></text>
      <text class="cls-1" transform="translate(245.64 295.88) rotate(-180)"><tspan x="0" y="0">e</tspan><tspan x="14.19" y="0">s</tspan><tspan x="28.09" y="0">a</tspan><tspan x="42.35" y="0"> </tspan><tspan x="52.51" y="0">f</tspan><tspan x="64.16" y="0">a</tspan><tspan x="78.4" y="0">t</tspan><tspan x="89.76" y="0">t</tspan><tspan x="101.11" y="0">a</tspan><tspan x="115.37" y="0"> </tspan><tspan x="125.55" y="0">d</tspan><tspan x="140.14" y="0">i</tspan><tspan x="150.41" y="0"> </tspan></text>
      <text class="cls-1" transform="translate(85.49 295.89) rotate(-169.51)"><tspan x="0" y="0">l</tspan></text>
      <text class="cls-1" transform="translate(76.95 293.31) rotate(-135.67)"><tspan x="0" y="0">u</tspan></text>
      <text class="cls-1" transform="translate(69.12 283.12) rotate(-96.7)"><tspan x="0" y="0">c</tspan></text>
      <text class="cls-1" transform="translate(68.57 269.44) rotate(-90)"><tspan x="0" y="0">e</tspan><tspan x="14.17" y="0">,</tspan><tspan x="24.01" y="0"> </tspan><tspan x="34.19" y="0">q</tspan><tspan x="48.81" y="0">u</tspan><tspan x="63.28" y="0">e</tspan><tspan x="77.48" y="0">l</tspan><tspan x="87.74" y="0">l</tspan><tspan x="98.01" y="0">a</tspan><tspan x="112.26" y="0"> </tspan><tspan x="122.42" y="0">s</tspan><tspan x="136.33" y="0">p</tspan></text>
      <text class="cls-1" transform="translate(68.49 119.35) rotate(-68.41)"><tspan x="0" y="0">e</tspan></text>
      <text class="cls-1" transform="translate(74.92 108.5) rotate(-33.17)"><tspan x="0" y="0">r</tspan></text>
      <text class="cls-1" transform="translate(83.95 104.13)"><tspan x="0" y="0">a</tspan><tspan x="14.21" y="0">n</tspan><tspan x="28.7" y="0">z</tspan><tspan x="42.45" y="0">a</tspan><tspan x="56.7" y="0"> </tspan><tspan x="66.87" y="0">q</tspan><tspan x="81.5" y="0">u</tspan><tspan x="95.96" y="0">e</tspan><tspan x="110.16" y="0">l</tspan><tspan x="120.44" y="0">l</tspan><tspan x="130.7" y="0">a</tspan></text>
      <text class="cls-1" transform="translate(228.41 104.17) rotate(11.9)"><tspan x="0" y="0"> </tspan></text>
      <text class="cls-1" transform="translate(236.81 106.98) rotate(45.01)"><tspan x="0" y="0">c</tspan></text>
      <text class="cls-1" transform="translate(244.32 116.82) rotate(84.11)"><tspan x="0" y="0">o</tspan></text>
      <text class="cls-1" transform="translate(244.83 131.19) rotate(90)"><tspan x="0" y="0">n</tspan><tspan x="14.49" y="0">o</tspan><tspan x="29.13" y="0">s</tspan><tspan x="43.05" y="0">c</tspan><tspan x="57.03" y="0">e</tspan><tspan x="71.23" y="0">n</tspan><tspan x="85.75" y="0">z</tspan><tspan x="99.45" y="0">a</tspan></text>
      <text class="cls-1" transform="translate(244.85 244.87) rotate(90.93)"><tspan x="0" y="0"> </tspan></text>
      <text class="cls-1" transform="translate(243.87 253.68) rotate(124.08)"><tspan x="0" y="0">q</tspan></text>
      <text class="cls-1" transform="translate(235.19 263.32) rotate(163.78)"><tspan x="0" y="0">u</tspan></text>
      <text class="cls-1" transform="translate(221.63 265.15) rotate(-180)"><tspan x="0" y="0">e</tspan><tspan x="14.21" y="0">l</tspan><tspan x="24.48" y="0"> </tspan><tspan x="34.64" y="0">v</tspan><tspan x="48.29" y="0">i</tspan><tspan x="58.57" y="0">g</tspan><tspan x="73.18" y="0">o</tspan><tspan x="87.82" y="0">r</tspan><tspan x="99.35" y="0">e</tspan></text>
      <text class="cls-1" transform="translate(109.22 264.19) rotate(-155.27)"><tspan x="0" y="0"> </tspan></text>
      <text class="cls-1" transform="translate(101.64 259.58) rotate(-122.34)"><tspan x="0" y="0">c</tspan></text>
      <text class="cls-1" transform="translate(96.82 248.05) rotate(-90)"><tspan x="0" y="0">h</tspan><tspan x="14.46" y="0">e</tspan><tspan x="28.67" y="0"> </tspan><tspan x="38.83" y="0">a</tspan><tspan x="52.97" y="0">v</tspan><tspan x="66.53" y="0">e</tspan><tspan x="80.64" y="0">v</tspan></text>
      <text class="cls-1" transform="translate(96.74 153.94) rotate(-86.19)"><tspan x="0" y="0">i</tspan></text>
      <text class="cls-1" transform="translate(98.69 145.09) rotate(-58.13)"><tspan x="0" y="0"> </tspan></text>
      <text class="cls-1" transform="translate(104.14 138.11) rotate(-24.36)"><tspan x="0" y="0">q</tspan></text>
      <text class="cls-1" transform="translate(117.14 134.84)"><tspan x="0" y="0">u</tspan><tspan x="14.5" y="0">e</tspan><tspan x="28.67" y="0">i</tspan><tspan x="38.93" y="0"> </tspan><tspan x="49.11" y="0">r</tspan><tspan x="60.64" y="0">e</tspan><tspan x="74.83" y="0">g</tspan></text>
      <text class="cls-1" transform="translate(205.2 135.88) rotate(33.83)"><tspan x="0" y="0">a</tspan></text>
      <text class="cls-1" transform="translate(214.44 144.59) rotate(67.26)"><tspan x="0" y="0">l</tspan></text>
      <text class="cls-1" transform="translate(216.57 153.56) rotate(90)"><tspan x="0" y="0">i</tspan><tspan x="10.26" y="0"> </tspan><tspan x="20.43" y="0">c</tspan><tspan x="34.44" y="0">h</tspan><tspan x="48.93" y="0">e</tspan></text>
      <text class="cls-1" transform="translate(216.64 216.38) rotate(96.97)"><tspan x="0" y="0"> </tspan></text>
      <text class="cls-1" transform="translate(215.16 225.19) rotate(136.68)"><tspan x="0" y="0">m</tspan></text>
      <text class="cls-1" transform="translate(201.07 234.43) rotate(-180)"><tspan x="0" y="0">o</tspan><tspan x="14.65" y="0">s</tspan><tspan x="28.55" y="0">t</tspan><tspan x="39.92" y="0">r</tspan><tspan x="51.31" y="0">a</tspan></text>
      <text class="cls-1" transform="translate(136.93 233.52) rotate(-148.52)"><tspan x="0" y="0">v</tspan></text>
      <text class="cls-1" transform="translate(127.73 225.59) rotate(-115.98)"><tspan x="0" y="0">i</tspan></text>
      <text class="cls-1" transform="translate(125.09 216.84) rotate(-90.58)"><tspan x="0" y="0"> </tspan></text>
      <text class="cls-1" transform="translate(125.08 206.71) rotate(-90)"><tspan x="0" y="0">d</tspan><tspan x="14.59" y="0">i</tspan></text>
      <text class="cls-1" transform="translate(125.08 182.32) rotate(-79.13)"><tspan x="0" y="0"> </tspan></text>
      <text class="cls-1" transform="translate(127.99 173.88) rotate(-49.66)"><tspan x="0" y="0">t</tspan></text>
      <text class="cls-1" transform="translate(135.48 167.26) rotate(-18.27)"><tspan x="0" y="0">r</tspan></text>
      <text class="cls-1" transform="translate(145.88 165.56)"><tspan x="0" y="0">a</tspan><tspan x="14.24" y="0">t</tspan></text>
      <text class="cls-1" transform="translate(170.93 165.53) rotate(13.64)"><tspan x="0" y="0">t</tspan></text>
      <text class="cls-1" transform="translate(180.24 169.02) rotate(48.56)"><tspan x="0" y="0">e</tspan></text>
      <text class="cls-1" transform="translate(187.09 179.5) rotate(87.76)"><tspan x="0" y="0">n</tspan></text>
      <text class="cls-1" transform="translate(185.91 192.29) rotate(126.93)"><tspan x="0" y="0">e</tspan></text>
      <text class="cls-1" transform="translate(176.84 201.06) rotate(162.22)"><tspan x="0" y="0">r</tspan></text>
      <text class="cls-1" transform="translate(166.3 202.7) rotate(-180)"><tspan x="0" y="0">e</tspan></text>
    </g>
  </g>
</svg>