<?xml version="1.0" encoding="UTF-8" standalone="no"?><!DOCTYPE svg PUBLIC "-//W3C//DTD SVG 1.1//EN" "http://www.w3.org/Graphics/SVG/1.1/DTD/svg11.dtd"><svg width="100%" height="100%" viewBox="0 0 4166 5392" version="1.1" xmlns="http://www.w3.org/2000/svg" xmlns:xlink="http://www.w3.org/1999/xlink" xml:space="preserve" xmlns:serif="http://www.serif.com/" style="fill-rule:evenodd;clip-rule:evenodd;stroke-linejoin:round;stroke-miterlimit:2;"><text x="427.096px" y="485.187px" style="font-family:'Roboto-Regular', 'Roboto';font-size:154.438px;fill:#1a1a1a;">T<tspan x="512.082px " y="485.187px ">u</tspan> mi ricor<tspan x="1156.58px " y="485.187px ">d</tspan>i, non è v<tspan x="1841px 1922.89px 1973.72px " y="485.187px 485.187px 485.187px ">ero</tspan>?</text><text x="285.476px" y="670.513px" style="font-family:'Roboto-Regular', 'Roboto';font-size:154.438px;fill:#1a1a1a;">Così ho visitat<tspan x="1254.87px " y="670.513px ">o</tspan> la tua casa</text><text x="177.215px" y="855.839px" style="font-family:'Roboto-Regular', 'Roboto';font-size:154.438px;fill:#1a1a1a;">E tutta quel<tspan x="954.578px " y="855.839px ">l</tspan>a v<tspan x="1188.24px " y="855.839px ">e</tspan>rità che vi<tspan x="1931.22px " y="855.839px ">e</tspan>ne</text><text x="96.289px" y="1041.16px" style="font-family:'Roboto-Regular', 'Roboto';font-size:154.438px;fill:#1a1a1a;">dal cuor<tspan x="648.232px " y="1041.16px ">e</tspan>, sottile di rimembr<tspan x="2004.69px " y="1041.16px ">a</tspan>nza</text><text x="38.993px" y="1226.49px" style="font-family:'Roboto-Regular', 'Roboto';font-size:154.438px;fill:#1a1a1a;">tenue,<tspan x="454.017px " y="1226.49px "> </tspan>corpule<tspan x="1004.77px " y="1226.49px ">n</tspan>ta di gio<tspan x="1638.1px " y="1226.49px ">i</tspan>a</text><text x="3.163px" y="1411.82px" style="font-family:'Roboto-Regular', 'Roboto';font-size:154.438px;fill:#1a1a1a;">di vigor<tspan x="504.156px " y="1411.82px ">e</tspan>. Sei stata a casa mia?</text><text x="-12.744px" y="1597.14px" style="font-family:'Roboto-Regular', 'Roboto';font-size:154.438px;fill:#1a1a1a;">Mi hai asp<tspan x="693.414px " y="1597.14px ">e</tspan>ttat<tspan x="1009.38px " y="1597.14px ">o</tspan>? Ho ammi<tspan x="1837.86px 1887.18px 1971.18px 2020.2px " y="1597.14px 1597.14px 1597.14px 1597.14px ">rato</tspan></text><text x="1.001px" y="1782.47px" style="font-family:'Roboto-Regular', 'Roboto';font-size:154.438px;fill:#1a1a1a;">Quell’<tspan x="376.469px " y="1782.47px ">a</tspan>ttesa fat<tspan x="1033.56px " y="1782.47px ">t</tspan>a di luce,</text><text x="35.132px" y="1967.79px" style="font-family:'Roboto-Regular', 'Roboto';font-size:154.438px;fill:#1a1a1a;">quella sper<tspan x="784.978px " y="1967.79px ">a</tspan>nza</text><text x="90.421px" y="2153.12px" style="font-family:'Roboto-Regular', 'Roboto';font-size:154.438px;fill:#1a1a1a;">que<tspan x="345.116px " y="2153.12px ">l</tspan>la<tspan x="504.117px " y="2153.12px "> </tspan>con<tspan x="796.518px " y="2153.12px ">o</tspan>sc<tspan x="1045.03px " y="2153.12px ">e</tspan>nz<tspan x="1288.71px " y="2153.12px ">a</tspan></text><text x="169.184px" y="2338.45px" style="font-family:'Roboto-Regular', 'Roboto';font-size:154.438px;fill:#1a1a1a;">quel vigor<tspan x="837.892px " y="2338.45px ">e</tspan> che a<tspan x="1327.06px 1400.88px 1481.79px " y="2338.45px 2338.45px 2338.45px ">vev</tspan>i</text><text x="274.82px" y="2523.77px" style="font-family:'Roboto-Regular', 'Roboto';font-size:154.438px;fill:#1a1a1a;">quei r<tspan x="656.378px " y="2523.77px ">e</tspan>gali che mostr<tspan x="1711.55px 1794.42px " y="2523.77px 2523.77px ">av</tspan>i</text><text x="413.197px" y="2709.1px" style="font-family:'Roboto-Regular', 'Roboto';font-size:154.438px;fill:#1a1a1a;">di tr<tspan x="676.002px " y="2709.1px ">a</tspan>ttener<tspan x="1161.04px " y="2709.1px ">e</tspan></text><text x="1599.23px" y="2939.12px" style="font-family:'Roboto-Medium', 'Roboto';font-weight:500;font-size:188.758px;fill:#1a1a1a;">Il tuo</text><text x="1775.15px" y="3165.62px" style="font-family:'Roboto-Medium', 'Roboto';font-weight:500;font-size:188.758px;fill:#1a1a1a;">incer<tspan x="2199.27px 2259.91px " y="3165.62px 3165.62px ">to</tspan> color<tspan x="2839.7px " y="3165.62px ">e</tspan></text><text x="2562.88px" y="3536.28px" style="font-family:'Roboto-Regular', 'Roboto';font-size:154.438px;fill:#1a1a1a;">Dalla v<tspan x="3019.5px " y="3536.28px ">e</tspan>rità tr<tspan x="3463.97px " y="3536.28px ">a</tspan>i</text><text x="2450.3px" y="3721.6px" style="font-family:'Roboto-Regular', 'Roboto';font-size:154.438px;fill:#1a1a1a;">Il tuo incer<tspan x="3171.9px 3220.92px " y="3721.6px 3721.6px ">to</tspan> color<tspan x="3692.76px " y="3721.6px ">e</tspan></text><text x="2301.72px" y="3906.93px" style="font-family:'Roboto-Regular', 'Roboto';font-size:154.438px;fill:#1a1a1a;">oleat<tspan x="2642.23px " y="3906.93px ">o</tspan> di stupor<tspan x="3372.55px " y="3906.93px ">e</tspan> antico</text><text x="2553.61px" y="4092.26px" style="font-family:'Roboto-Regular', 'Roboto';font-size:154.438px;fill:#1a1a1a;">per<tspan x="2773.14px " y="4092.26px ">c</tspan>hé non hai capit<tspan x="3939.29px " y="4092.26px ">o</tspan></text><g transform="matrix(154.438,0,0,154.438,2945.62,4277.58)"></g><g transform="matrix(154.438,0,0,154.438,2995.98,4277.58)"></g><text x="2496.63px" y="4277.58px" style="font-family:'Roboto-Regular', 'Roboto';font-size:154.438px;fill:#1a1a1a;">che di ﬁori<tspan x="3209.14px " y="4277.58px "> </tspan>ho cospars<tspan x="4010.18px " y="4277.58px ">o</tspan></text><text x="2692.45px" y="4462.91px" style="font-family:'Roboto-Regular', 'Roboto';font-size:154.438px;fill:#1a1a1a;">il gr<tspan x="2943.52px " y="4462.91px ">e</tspan>mbo, di cer<tspan x="3786.21px " y="4462.91px ">t</tspan>ezz<tspan x="4070.66px " y="4462.91px ">e</tspan></text><text x="2853.22px" y="4648.23px" style="font-family:'Roboto-Regular', 'Roboto';font-size:154.438px;fill:#1a1a1a;">ho disperso la terr<tspan x="4090.04px " y="4648.23px ">a</tspan></text><text x="2650.29px" y="4833.56px" style="font-family:'Roboto-Regular', 'Roboto';font-size:154.438px;fill:#1a1a1a;">di bellezza ho coper<tspan x="4019.52px 4068.54px " y="4833.56px 4833.56px ">to</tspan></text><g transform="matrix(154.438,0,0,154.438,3436.44,5018.88)"></g><g transform="matrix(154.438,0,0,154.438,3488.04,5018.88)"></g><text x="2765.66px" y="5018.88px" style="font-family:'Roboto-Regular', 'Roboto';font-size:154.438px;fill:#1a1a1a;">i r<tspan x="2890.87px " y="5018.88px ">a</tspan>mi? Di ﬂoridezza</text><text x="2797.47px" y="5204.21px" style="font-family:'Roboto-Regular', 'Roboto';font-size:154.438px;fill:#1a1a1a;">ho inv<tspan x="3205.4px " y="5204.21px ">a</tspan>so le foglie</text><text x="2822.34px" y="5389.54px" style="font-family:'Roboto-Regular', 'Roboto';font-size:154.438px;fill:#1a1a1a;">che hai lasciat<tspan x="3806.01px " y="5389.54px ">o</tspan>.</text><text x="950.027px" y="115.747px" style="font-family:'Roboto-Medium', 'Roboto';font-weight:500;font-size:162.809px;fill:#1a1a1a;">La casa</text></svg>