<?xml version="1.0" encoding="UTF-8" standalone="no"?><!DOCTYPE svg PUBLIC "-//W3C//DTD SVG 1.1//EN" "http://www.w3.org/Graphics/SVG/1.1/DTD/svg11.dtd"><svg width="100%" height="100%" viewBox="0 0 3063 5153" version="1.1" xmlns="http://www.w3.org/2000/svg" xmlns:xlink="http://www.w3.org/1999/xlink" xml:space="preserve" xmlns:serif="http://www.serif.com/" style="fill-rule:evenodd;clip-rule:evenodd;stroke-linejoin:round;stroke-miterlimit:2;"><text x="1780.54px" y="99.747px" style="font-family:'Roboto-Medium', 'Roboto';font-weight:500;font-size:140.304px;fill:#1a1a1a;">T<tspan x="1861.17px 1909.47px " y="99.747px 99.747px ">re</tspan>mor<tspan x="2234.74px " y="99.747px ">e</tspan></text><text x="1128.12px" y="436.476px" style="font-family:'Roboto-Regular', 'Roboto';font-size:140.304px;fill:#1a1a1a;">Di nascost<tspan x="1785.69px " y="436.476px ">o</tspan>, hai rubat<tspan x="2475.13px " y="436.476px ">o</tspan> alla vita</text><text x="948.256px" y="604.841px" style="font-family:'Roboto-Regular', 'Roboto';font-size:140.304px;fill:#1a1a1a;">l&apos;<tspan x="1003.46px " y="604.841px ">a</tspan>ttesa del tempo</text><text x="736.677px" y="773.205px" style="font-family:'Roboto-Regular', 'Roboto';font-size:140.304px;fill:#1a1a1a;">e sei arriv<tspan x="1334.08px 1410.39px 1454.93px " y="773.205px 773.205px 773.205px ">ato</tspan> di nascost<tspan x="2214.41px " y="773.205px ">o</tspan></text><text x="588.236px" y="941.57px" style="font-family:'Roboto-Regular', 'Roboto';font-size:140.304px;fill:#1a1a1a;">e hai sorris<tspan x="1273.9px " y="941.57px ">o</tspan></text><text x="462.384px" y="1109.93px" style="font-family:'Roboto-Regular', 'Roboto';font-size:140.304px;fill:#1a1a1a;">al tuo rit<tspan x="971.827px " y="1109.93px ">o</tspan>rno</text><g transform="matrix(140.304,0,0,140.304,462.552,1278.3)"></g><g transform="matrix(140.304,0,0,140.304,508.307,1278.3)"></g><text x="355.472px" y="1278.3px" style="font-family:'Roboto-Regular', 'Roboto';font-size:140.304px;fill:#1a1a1a;">Il ﬁenile è abbandonat<tspan x="1724px " y="1278.3px ">o</tspan></text><text x="265.117px" y="1446.66px" style="font-family:'Roboto-Regular', 'Roboto';font-size:140.304px;fill:#1a1a1a;">come il tempo che non rientr<tspan x="2044.78px " y="1446.66px ">a</tspan></text><text x="189.493px" y="1615.03px" style="font-family:'Roboto-Regular', 'Roboto';font-size:140.304px;fill:#1a1a1a;">quando le spighe imb<tspan x="1524.06px " y="1615.03px ">r</tspan>uniscono</text><text x="127.338px" y="1783.39px" style="font-family:'Roboto-Regular', 'Roboto';font-size:140.304px;fill:#1a1a1a;">quando smett<tspan x="992.461px " y="1783.39px ">o</tspan>no di parlar<tspan x="1772.15px " y="1783.39px ">e</tspan></text><text x="77.671px" y="1951.76px" style="font-family:'Roboto-Regular', 'Roboto';font-size:140.304px;fill:#1a1a1a;">e il gr<tspan x="413.491px " y="1951.76px ">a</tspan>no passa</text><text x="39.789px" y="2120.12px" style="font-family:'Roboto-Regular', 'Roboto';font-size:140.304px;fill:#1a1a1a;">quando non c<tspan x="887.08px 911.125px " y="2120.12px 2120.12px ">’è</tspan> aria</text><text x="13.131px" y="2288.49px" style="font-family:'Roboto-Regular', 'Roboto';font-size:140.304px;fill:#1a1a1a;">non c<tspan x="355.6px 379.646px " y="2288.49px 2288.49px ">’è</tspan> v<tspan x="555.916px " y="2288.49px ">e</tspan>nt<tspan x="752.327px " y="2288.49px ">o</tspan> e non v<tspan x="1313.2px " y="2288.49px ">e</tspan>di</text><text x="-2.723px" y="2456.85px" style="font-family:'Roboto-Regular', 'Roboto';font-size:140.304px;fill:#1a1a1a;">che il<tspan x="325.327px " y="2456.85px "> </tspan>silen<tspan x="652.556px " y="2456.85px ">z</tspan>io pa<tspan x="1026.1px " y="2456.85px ">s</tspan>sa</text><text x="-6.371px" y="2625.22px" style="font-family:'Roboto-Regular', 'Roboto';font-size:140.304px;fill:#1a1a1a;">come il gr<tspan x="605.943px " y="2625.22px ">a</tspan>no</text><text x="4.713px" y="2793.58px" style="font-family:'Roboto-Regular', 'Roboto';font-size:140.304px;fill:#1a1a1a;">e non v<tspan x="450.703px " y="2793.58px ">e</tspan>di che da<tspan x="1088.41px " y="2793.58px "> </tspan>lontano</text><text x="26.46px" y="2961.94px" style="font-family:'Roboto-Regular', 'Roboto';font-size:140.304px;fill:#1a1a1a;">il tempo pr<tspan x="691.318px " y="2961.94px ">o</tspan>mette</text><text x="59.291px" y="3130.31px" style="font-family:'Roboto-Regular', 'Roboto';font-size:140.304px;fill:#1a1a1a;">e non r<tspan x="484.401px " y="3130.31px ">e</tspan>ca e n<tspan x="929.926px " y="3130.31px ">o</tspan>n vuo<tspan x="1347.43px " y="3130.31px ">l</tspan>e</text><text x="103.627px" y="3298.67px" style="font-family:'Roboto-Regular', 'Roboto';font-size:140.304px;fill:#1a1a1a;">por<tspan x="313.397px " y="3298.67px ">t</tspan>ar<tspan x="481.858px " y="3298.67px ">e</tspan></text><text x="160.029px" y="3467.04px" style="font-family:'Roboto-Regular', 'Roboto';font-size:140.304px;fill:#1a1a1a;">quello <tspan x="574.455px " y="3467.04px ">d</tspan>i cui <tspan x="942.091px " y="3467.04px ">h</tspan>ai bis<tspan x="1349.8px " y="3467.04px ">o</tspan>gno</text><text x="229.479px" y="3635.4px" style="font-family:'Roboto-Regular', 'Roboto';font-size:140.304px;fill:#1a1a1a;">che da lo<tspan x="793.67px " y="3635.4px ">n</tspan>tano il<tspan x="1253.8px " y="3635.4px "> </tspan>tempo</text><text x="313.1px" y="3803.77px" style="font-family:'Roboto-Regular', 'Roboto';font-size:140.304px;fill:#1a1a1a;">illud<tspan x="571.821px " y="3803.77px ">e</tspan></text><text x="412.295px" y="3972.13px" style="font-family:'Roboto-Regular', 'Roboto';font-size:140.304px;fill:#1a1a1a;">la tua pr<tspan x="916.853px " y="3972.13px ">e</tspan>senza</text><text x="529.309px" y="4140.5px" style="font-family:'Roboto-Regular', 'Roboto';font-size:140.304px;fill:#1a1a1a;">che pr<tspan x="914.121px " y="4140.5px ">o</tspan>mette</text><text x="667.087px" y="4308.86px" style="font-family:'Roboto-Regular', 'Roboto';font-size:140.304px;fill:#1a1a1a;">quello che r<tspan x="1387.73px " y="4308.86px ">e</tspan>sta</text><text x="830.26px" y="4477.23px" style="font-family:'Roboto-Regular', 'Roboto';font-size:140.304px;fill:#1a1a1a;">che r<tspan x="1136.37px " y="4477.23px ">e</tspan>sta</text><text x="1026.4px" y="4645.59px" style="font-family:'Roboto-Regular', 'Roboto';font-size:140.304px;fill:#1a1a1a;">qualcosa, di cui ti <tspan x="2141.22px " y="4645.59px ">r</tspan>icor<tspan x="2422.58px " y="4645.59px ">d</tspan>i</text><text x="1269.13px" y="4813.95px" style="font-family:'Roboto-Regular', 'Roboto';font-size:140.304px;fill:#1a1a1a;">o tr<tspan x="1476.09px " y="4813.95px ">o</tspan>ppo</text><text x="1589.87px" y="4982.32px" style="font-family:'Roboto-Regular', 'Roboto';font-size:140.304px;fill:#1a1a1a;">a cui c<tspan x="1994.01px " y="4982.32px ">o</tspan>nsen<tspan x="2375.68px " y="4982.32px ">t</tspan>i</text><text x="2111.8px" y="5150.68px" style="font-family:'Roboto-Regular', 'Roboto';font-size:140.304px;fill:#1a1a1a;">di r<tspan x="2306.07px " y="5150.68px ">e</tspan>star<tspan x="2621.32px " y="5150.68px ">e</tspan>.</text></svg>