<?xml version="1.0" encoding="UTF-8"?>
<svg id="Layer_1" data-name="Layer 1" xmlns="http://www.w3.org/2000/svg" viewBox="0 0 595.28 841.89">
  <defs>
    <style>
      .cls-1 {
        fill-rule: evenodd;
      }

      .cls-1, .cls-2 {
        fill: #010101;
      }
    </style>
  </defs>
  <rect class="cls-2" x="155.08" y="232.8" width="185.57" height="126.43"/>
  <rect class="cls-2" x="347.29" y="232.8" width="124.34" height="226.97"/>
  <rect class="cls-2" x="347.29" y="465.57" width="124.35" height="227.3"/>
  <polygon class="cls-1" points="116.99 472.69 148.97 472.69 148.97 692.87 90.47 692.87 90.47 472.69 90.47 467.23 90.47 363.73 90.47 359.23 90.47 232.8 149.61 232.8 149.61 359.23 116.99 359.23 116.99 363.73 116.99 467.23 116.99 472.69"/>
  <rect class="cls-2" x="122.29" y="363.73" width="154.61" height="103.5"/>
  <rect class="cls-2" x="154.44" y="472.69" width="154.61" height="103.82"/>
  <polygon class="cls-1" points="341.51 582.78 341.51 692.87 282.79 692.87 282.79 582.78 315.15 582.78 315.15 576.52 315.15 472.69 315.15 467.23 283.01 467.23 283.01 363.73 341.51 363.73 341.51 467.23 341.51 472.69 341.51 576.52 341.51 582.78"/>
  <rect class="cls-2" x="154.44" y="582.78" width="59.14" height="110.09"/>
  <rect class="cls-2" x="218.29" y="582.78" width="58.71" height="110.09"/>
  <rect class="cls-2" x="90.47" y="192.09" width="381.17" height="35.36"/>
</svg>