<?xml version="1.0" encoding="UTF-8"?>
<svg id="Layer_1" data-name="Layer 1" xmlns="http://www.w3.org/2000/svg" xmlns:xlink="http://www.w3.org/1999/xlink" viewBox="0 0 595.28 841.89">
  <defs>
    <style>
      .cls-1 {
        letter-spacing: 0em;
      }

      .cls-2 {
        fill: none;
      }

      .cls-3 {
        letter-spacing: 0em;
      }

      .cls-4 {
        fill: #231f20;
        font-family: Miso-Bold, 'Miso Bold';
        font-size: 22.57px;
        font-weight: 700;
      }

      .cls-5 {
        fill: #010101;
      }

      .cls-6 {
        letter-spacing: 0em;
      }

      .cls-7 {
        clip-path: url(#clippath);
      }
    </style>
    <clipPath id="clippath">
      <rect class="cls-2" x="49.66" y="868.29" width="537.44" height="760.1"/>
    </clipPath>
  </defs>
  <g class="cls-7">
    <text class="cls-4" transform="translate(88.4 1178.78) rotate(-90)"><tspan x="0" y="0">COME RICOSTRUIRE LA S</tspan><tspan class="cls-1" x="231.76" y="0">T</tspan><tspan class="cls-3" x="242.75" y="0">ORIA E LE S</tspan><tspan class="cls-6" x="348" y="0">T</tspan><tspan x="359.01" y="0">ORIE</tspan></text>
  </g>
  <rect class="cls-5" x="96.33" y="204.09" width="63.43" height="506.14"/>
  <rect class="cls-5" x="166.62" y="204.09" width="162.86" height="138.43"/>
  <rect class="cls-5" x="166.62" y="348.94" width="135" height="119.57"/>
  <rect class="cls-5" x="167.05" y="564.09" width="204.86" height="144"/>
  <rect class="cls-5" x="166.62" y="476.55" width="64.61" height="78.75"/>
  <rect class="cls-5" x="236.69" y="476.55" width="65.79" height="78.75"/>
  <rect class="cls-5" x="307.57" y="348.94" width="65.2" height="206.36"/>
  <rect class="cls-5" x="336.98" y="204.09" width="34.07" height="138.43"/>
  <rect class="cls-5" x="378.7" y="204.84" width="137.18" height="249.53"/>
  <rect class="cls-5" x="378.7" y="460.77" width="137.18" height="248.25"/>
  <rect class="cls-5" x="96.33" y="161.23" width="419.54" height="35.68"/>
</svg>