<?xml version="1.0" encoding="UTF-8"?>
<svg id="Layer_2" data-name="Layer 2" xmlns="http://www.w3.org/2000/svg" viewBox="0 0 433.16 301.48">
  <defs>
    <style>
      .cls-1 {
        stroke-width: .5px;
      }

      .cls-1, .cls-2 {
        fill: none;
        stroke: #010101;
        stroke-miterlimit: 10;
      }

      .cls-2 {
        stroke-width: .75px;
      }

      .cls-3 {
        fill: #010101;
      }
    </style>
  </defs>
  <g id="Layer_1-2" data-name="Layer 1">
    <g>
      <path class="cls-2" d="M303.18,2.67s-3.05,11.84-3.19,21.81c-.14,9.97,3.88,26.94,3.88,26.94"/>
      <path class="cls-2" d="M299.99,2.67s-3.46,16-2.42,27.01c1.04,11.01,2.45,24.69,9.35,37.12l-4.99,6.3"/>
      <path class="cls-2" d="M29.49,195.62s-4.43,11.76,17.17,15.01c21.61,3.25,35.25,16.27,35.25,16.27,0,0,32.3,22.1,41.76,21.75,9.46-.35,0-14.23,0-14.23"/>
      <path class="cls-2" d="M22.57,194.42s-.28,6.72,4.57,11.98,27.84,7.41,35.04,11.18c7.2,3.77,27.63,17.56,27.63,17.56,0,0,22.58,15.17,31.23,16.07s9.28-6.51,9.28-6.51"/>
      <polyline class="cls-2" points="314.4 155.57 326.52 172.89 333.65 167"/>
      <path class="cls-2" d="M313.01,157.79c.41.69,11.77,16.48,11.77,16.48l-3.19,3.12"/>
      <path class="cls-2" d="M411.05,78.88s-8.98,1.49-10.64,10.77c-1.66,9.28-8.86,28.67-12.47,32.83-3.6,4.16-21.05,23.44-24.1,26.26-3.05,2.82-35.6,25.82-39.06,30.11-3.46,4.29-4.99,7.06-4.99,7.06"/>
    </g>
    <g>
      <polygon class="cls-1" points="10.1 152.39 18.97 162.36 32.26 153.77 10.1 152.39"/>
      <path class="cls-1" d="M35.31,157.37l-12.74,6.65,17.45,21.61,30.75-10.53v-5.82s-21.61,5.26-35.46-11.91Z"/>
      <polygon class="cls-1" points="70.77 165.96 53.04 165.96 50.68 164.02 51.52 155.99 57.06 154.19 63.7 155.16 70.08 162.36 70.77 165.96"/>
      <path class="cls-1" d="M37.25,142s-.42,6.51,0,6.79,8.03,4.29,8.03,4.29l15.44-.69-3.25-10.39-10.8-3.6-9.42,3.6Z"/>
      <polygon class="cls-1" points="37.06 151.7 42.51 154.19 48.9 155.85 47.91 162.36 36.42 155.57 37.06 151.7"/>
      <polygon class="cls-1" points="13.29 142.97 17.86 140.48 18.97 145.74 25.89 145.74 25.89 140.48 29.49 140.48 30.05 149.34 16.34 150.31 13.29 142.97"/>
      <polygon class="cls-1" points="27.14 131.68 31.5 130.92 31.85 135.7 28.25 136.94 27.14 131.68"/>
      <polygon class="cls-1" points="33.51 135.35 34.2 139.09 46.67 136.94 56.78 136.94 69.11 133.93 69.94 128.98 64.53 128.98 55.39 132.31 50.68 132.31 44.45 126.49 39.74 127.87 39.47 133.93 33.51 135.35"/>
      <polygon class="cls-1" points="59.27 140.48 70.77 138.4 75.68 165.96 71.88 165.96 69.24 155.16 63.01 153.08 59.27 140.48"/>
      <polygon class="cls-1" points="73.26 133.93 78.52 164.99 94.59 164.99 89.74 146.43 82.82 147.12 82.26 144.77 87.67 143.11 86.42 136.94 80.6 139.09 79.49 136.94 85.86 134.8 84.76 130.09 73.26 133.93"/>
      <polygon class="cls-1" points="88.77 132.79 90.44 138.4 108.51 133.93 105.19 127.73 88.77 132.79"/>
      <polygon class="cls-1" points="91.47 140.48 106.02 138.4 107.32 143.66 93.34 147.54 91.47 140.48"/>
      <polygon class="cls-1" points="93.55 149.13 99.4 149.13 99.4 161.18 96.47 161.18 93.55 149.13"/>
      <polygon class="cls-1" points="101.86 147.54 101.86 160.08 112.67 160.08 112.67 162.36 117.86 162.36 117.86 151.7 105.6 151.7 105.19 147.54 101.86 147.54"/>
      <polygon class="cls-1" points="109.86 131.89 117.86 131.89 117.86 138.4 119.11 138.4 119.11 147.54 116.4 147.54 116.4 150.31 107.32 150.31 107.32 145.74 110.8 145.39 109.86 131.89"/>
      <polygon class="cls-1" points="109.86 128.57 116.61 128.57 117.86 124.83 121.18 124.83 121.18 119.01 114.12 119.01 114.12 120.88 109.86 120.88 109.86 128.57"/>
      <polygon class="cls-1" points="120.35 127.73 120.35 136.94 121.6 136.94 121.6 140.13 139.26 140.13 139.26 142.97 140.85 142.97 140.85 146.57 142.24 146.57 142.24 147.54 150.82 147.54 150.82 135.77 141.68 135.91 141.54 130.78 135.59 130.78 135.59 132.79 127.69 133.07 127.69 128.57 126.03 128.57 125.96 125.31 122.43 125.31 120.35 127.73"/>
      <polygon class="cls-1" points="121.18 142.97 122.01 142.97 122.01 141.55 135.59 141.55 135.59 142.97 136.76 142.97 136.76 149.13 133.34 149.13 133.34 150.31 126.79 150.31 126.9 157.03 125.96 157.03 126.07 159.42 121.18 159.42 121.18 142.97"/>
      <path class="cls-1" d="M37.06,191.31l18.05-9.35,5.61-1.66,6.75,4.16-2.39,2.91-5.82-3.12-5.82,5.4s-4.55-1.66-4.56-1.66-8.53,6.86-8.53,6.86l-3.3-3.53Z"/>
      <polygon class="cls-1" points="66.54 179.26 77.55 174.69 85.86 174.69 85.86 171.5 90.64 169.49 94.59 179.26 86.9 182.58 86.9 189.44 79.22 192.55 66.54 179.26"/>
      <polygon class="cls-1" points="73.61 168.39 74.02 173.86 83.65 173.09 81.99 167.62 73.61 168.39"/>
      <polyline class="cls-1" points="68.83 189.23 59.27 203.15 68.83 209.59 72.36 206.06 75.68 207.31 85.45 201.07 69.94 189.23"/>
      <polygon class="cls-1" points="81.92 194.84 87.53 190.48 95.42 199.41 91.47 202.94 81.92 194.84"/>
      <polygon class="cls-1" points="89.81 185.63 97.71 180.3 104.98 185.63 96.47 194.84 89.81 185.63"/>
      <polygon class="cls-1" points="73.61 213.95 76.93 213.95 76.93 208.34 88.67 204.19 105.81 215.62 105.81 219.56 99.4 230.99 75.68 220.39 72.36 218.52 73.61 213.95"/>
      <polygon class="cls-1" points="96.47 201.7 108.51 186.74 120.35 196.71 113.21 209.59 108.41 210.63 96.47 201.7"/>
      <polygon class="cls-1" points="94.59 167.62 100.41 163.68 110.8 162.36 113.21 165.96 120.35 167.62 120.35 169.49 94.59 170.74 94.59 167.62"/>
      <polygon class="cls-1" points="94.59 173.86 120.35 172.4 120.35 176.14 109.86 182.79 104.98 182.79 96.47 177.6 94.59 173.86"/>
      <polygon class="cls-1" points="112.04 184.04 120.35 179.05 130.32 179.05 130.32 181.54 122.01 194.84 112.04 184.04"/>
      <polygon class="cls-1" points="107.47 214.16 112.04 213.12 123.68 223.93 119.31 235.98 113.7 242.62 101.86 232.65 107.47 223.3 107.47 214.16"/>
      <polygon class="cls-1" points="43.48 195.46 48.9 190.48 52.27 192.97 47.36 199.41 43.48 195.46"/>
      <path class="cls-1" d="M53.32,195.74c0-.42,3.19-3.19,3.19-3.19l5.68,2.39-2.91,3.74-5.96-2.94Z"/>
      <path class="cls-1" d="M117.03,209.59h13.3v3.05h1.94v6.09s-1.94-.69-1.94,0v3.46l-7.34-.69-5.96-11.91Z"/>
      <polygon class="cls-1" points="119.11 206.96 130.32 206.96 134.62 200.03 129.22 190.48 125.48 193.25 125.62 199.41 121.18 199.41 119.11 206.96"/>
      <polygon class="cls-1" points="121.18 162.36 124.65 162.36 124.65 167.62 121.18 166.55 121.18 162.36"/>
      <polygon class="cls-1" points="122.01 169.49 122.01 177.6 132.92 177.6 132.92 169.49 127.47 169.49 126.86 168.56 122.01 169.49"/>
      <polygon class="cls-1" points="127.47 158.9 127.47 166.55 135.59 165.96 135.59 161.18 136.76 161.18 136.76 156.68 128.97 156.68 127.47 158.9"/>
      <polygon class="cls-1" points="124.65 226.9 123.68 232.58 128.39 236.18 131.57 232.72 124.65 226.9"/>
      <polygon class="cls-1" points="132.92 233.27 130.32 242.62 134.62 244.49 130.32 255.5 135.73 266.93 139.26 263.61 152.97 274.41 159.62 267.35 151.72 253.84 142.37 258.83 140.3 255.92 149.85 248.65 132.92 233.27"/>
      <polygon class="cls-1" points="134.62 217.59 130.32 226 151.72 247.4 159.62 237.64 156.09 233.27 162.53 217.59 156.09 213.12 158.16 209.59 154.22 206.96 144.97 225.59 139.67 222.19 134.62 217.59"/>
      <polygon class="cls-1" points="134.62 206.96 134.62 214.78 143.83 222.19 150.29 212.1 150.29 206.96 134.62 206.96"/>
      <path class="cls-1" d="M152.97,249.9s10.39-11.01,9.56-10.39,2.29,3.12,2.29,3.12l-10.18,11.22-1.66-3.95Z"/>
      <polygon class="cls-1" points="156.29 255.09 165.54 244.7 173.43 251.97 161.59 265.06 156.29 255.09"/>
      <path class="cls-1" d="M152.97,279.81c.35,0,9.56-10.53,9.56-10.53h12.95v3.6l-4.99-.28-2.22,8.59h3.05l-.55,5.82-17.8-7.2Z"/>
      <polygon class="cls-1" points="167.1 262.98 176.65 252.39 181.64 257.69 176.45 262.98 167.1 262.98"/>
      <polygon class="cls-1" points="177.9 265.06 184.34 260.7 190.16 262.98 190.16 265.06 185.38 269.29 177.9 269.29 177.9 265.06"/>
      <polygon class="cls-1" points="177.9 227.87 177.9 250.1 183.09 254.88 185.59 253.84 185.59 233.27 177.9 227.87"/>
      <polygon class="cls-1" points="167.1 220.19 175.48 225.8 175.48 248.65 167.1 241.38 167.1 220.19"/>
      <path class="cls-1" d="M164.22,221.02s-5.02,9.83-4.61,10.53c.42.69,4.61,4.64,4.61,4.64v-15.17Z"/>
      <path class="cls-1" d="M187.04,247.4v10.28h11.43v4.47h7.27v-4.47h2.7v-5.3h2.91l-3.95-9.76s-9.76,1.25-9.76,2.08-.21,3.95-.21,3.95l-10.39-1.25Z"/>
      <polygon class="cls-1" points="192.86 244.7 192.86 236.18 198.26 236.18 198.26 234.42 207.4 234.42 207.4 239.56 196.81 241.38 196.39 244.7 192.86 244.7"/>
      <polygon class="cls-1" points="187.04 228.6 187.04 233.27 199.88 233.27 200.13 231.54 206.57 231.54 206.57 233.27 210.31 233.27 215.5 225.59 205.53 212.08 201.27 212.08 187.04 228.6"/>
      <path class="cls-1" d="M181.64,213.12c-.42,1.04.1,13.78.1,13.78h2.29l14.02-13.78h-16.41Z"/>
      <polygon class="cls-1" points="159.62 204.19 159.62 213.12 178.94 222.19 177.9 202.94 173.43 199.41 167.1 199.41 159.62 204.19"/>
      <polygon class="cls-1" points="132.12 184.66 138.22 204.19 155.46 204.19 162.53 196.71 161.91 187.57 132.12 184.66"/>
      <path class="cls-1" d="M181.74,187.57c.1,1.45,0,11.11,0,11.11h8.41v2.39h-8.41v9.73h17.45l16.31-11.39-14.23-15.79-19.53,3.95Z"/>
      <polygon class="cls-1" points="167.1 189.23 175.48 189.23 174.37 197.21 164.86 196.71 167.1 189.23"/>
      <polygon class="cls-1" points="164.86 169.49 175.48 169.49 175.48 186.74 164.22 186.74 164.86 169.49"/>
      <polygon class="cls-1" points="144.45 180.3 144.45 183.62 162.53 185.91 162.53 170.74 147.32 170.74 147.32 175.52 152.19 175.47 152.14 180.35 144.45 180.3"/>
      <polygon class="cls-1" points="134.62 170.74 134.62 174.48 135.59 174.48 135.59 177.6 134.06 177.6 134.06 182.79 142.48 183.62 142.48 174.38 144.45 174.27 144.45 170.74 134.62 170.74"/>
      <polygon class="cls-1" points="137.8 162.36 137.8 169.49 145.98 169.49 145.98 156.13 139.26 156.13 139.26 158.48 137.8 158.48 137.8 162.36"/>
      <polygon class="cls-1" points="149.44 156.13 149.44 169.49 159.62 169.49 159.62 164.99 157.06 164.99 157.19 156.13 149.44 156.13"/>
      <polygon class="cls-1" points="139.26 149.13 139.26 153.36 143.07 153.36 143.07 154.95 147.32 154.95 147.32 150.48 143.29 150.48 143.29 149.13 139.26 149.13"/>
      <polygon class="cls-1" points="149.44 150.48 149.44 154.95 157.19 154.95 157.19 152.72 159.62 152.72 159.62 150.48 149.44 150.48"/>
      <polygon class="cls-1" points="159.62 156.13 162.53 166.55 173.43 166.55 174.37 152.18 164.86 147.54 159.62 156.13"/>
      <polygon class="cls-1" points="176.58 152.04 176.58 166.55 184.03 166.55 184.03 159.3 182.4 159.42 182.4 150.48 176.58 152.04"/>
      <polygon class="cls-1" points="177.83 169.49 177.83 173.58 179.63 173.58 179.63 178.12 177.83 178.12 177.83 185.91 183.37 185.91 198.05 181.2 188.77 169.49 177.83 169.49"/>
      <polygon class="cls-1" points="185.45 148.37 185.45 158.52 187.04 166.1 198.05 163.61 196.81 152.72 185.45 148.37"/>
      <polygon class="cls-1" points="201.27 180.64 219.52 198.51 234.34 189.58 221.4 178.84 201.27 180.64"/>
      <path class="cls-1" d="M191.75,167.76l8.13,9.94s14.38.31,14.38-.52v-4.42l1.25-.43v4.43l4.85.42,2.77-1.94,11.22,8.38,8.31-2.56v-6.65l2.35.14v-4.57l-2.91.14v-2.35h-5.82l-.55-8.17s-5.68-.69-5.68,0,.14,8.03.14,8.03h-2.63l-.69-5.68-15.24.28-.14,2.08-11.61.28-8.13,3.19Z"/>
      <polygon class="cls-1" points="207.4 209.59 216.96 201.49 219.87 200.76 221.4 202.73 214.4 207.82 215.09 209.59 209.79 214.26 207.4 209.59"/>
      <path class="cls-1" d="M211.25,215.51l10.15-8v-3.22s1.28-1.35,1.59-1.25,4.67,5.19,4.67,5.19l-1.45,2.56,3.74,5.85-11.57,6.65-7.13-7.79Z"/>
      <path class="cls-1" d="M214.4,231.2l1.11-2.6h4.29l10.15,20.05s-4.33,1.52-4.33.97-7.81-17.04-7.81-17.04l-3.41-1.39Z"/>
      <path class="cls-1" d="M219.8,225.1l12.05-5.09s3.32,3.98,3.19,4.4-7.62,10.01-7.62,10.01l-7.62-9.31Z"/>
      <polygon class="cls-1" points="227.42 236.88 235.86 227.22 239.6 231.2 233.51 237.71 235.04 244.7 231.85 246.66 227.42 236.88"/>
      <polygon class="cls-1" points="236.14 237.71 247.22 227.87 249.58 233.27 269.66 222.19 272.43 225.52 257.61 234.42 259.55 240.34 244.45 249.74 241.54 249.74 237.11 243.66 240.16 241.38 236.14 237.71"/>
      <path class="cls-1" d="M122.91,113.61v8.31h4.55v3.39h1.51v3.25h17s-4.5-12.88-23.06-14.96Z"/>
      <polygon class="cls-1" points="145.98 112.15 145.98 123.79 157.96 123.79 157.96 117.97 164.22 117.97 164.22 110.28 168.14 110.28 166.99 105.71 145.98 112.15"/>
      <polygon class="cls-1" points="151.93 104.47 159.62 93.25 172.71 95.53 172.71 101.76 166.99 101.14 164.22 104.47 152.76 105.71 151.93 104.47"/>
      <polygon class="cls-1" points="150.82 127.18 164.22 126.49 162.32 132.86 157.52 132.86 156.36 137.43 158.99 139.09 156.09 148.37 152.9 148.37 150.82 127.18"/>
      <polygon class="cls-1" points="166.06 127.04 158.44 147.54 162.53 148.37 172.01 130.23 171.46 127.04 166.06 127.04"/>
      <polygon class="cls-1" points="159.62 119.56 159.62 123.79 173.4 123.16 173.4 121.09 174.37 121.09 174.37 108.76 169.85 108.76 169.85 111.81 165.23 111.67 165.23 119.01 159.62 119.56"/>
      <polygon class="cls-1" points="224.65 198.51 241.47 227.87 254.29 225.8 268.27 213.19 262.46 205.64 243.97 218.94 237.53 207.51 254.29 198.51 247.29 188.68 224.65 198.51"/>
      <polygon class="cls-1" points="255.81 194.42 273.68 216.24 276.17 214.26 272.43 207.51 276.17 204.19 259.76 185.91 250.82 188.68 255.81 194.42"/>
      <polygon class="cls-1" points="245.01 176.49 245.01 182.86 241.13 185.91 241.82 188.68 257.33 184.52 245.01 176.49"/>
      <polygon class="cls-1" points="249.23 173.16 264.81 185.91 277 177.7 269.66 164.44 249.23 173.16"/>
      <polygon class="cls-1" points="238.22 159.28 247.78 170.39 261.9 166.1 259.13 156.54 238.22 159.28"/>
      <polygon class="cls-1" points="261.9 155.57 263.12 163.47 268.27 163.47 268.27 155.57 261.9 155.57"/>
      <polygon class="cls-1" points="277.31 217.28 300.37 202.73 304.74 207.82 299.96 211.25 297.26 209.59 294.45 211.15 296.95 215.1 286.66 224.03 282.82 218.32 279.18 221.43 277.31 217.28"/>
      <path class="cls-1" d="M269.31,189.65l9.35-9.14,1.04-21.22h4.36v-5.58h3.74v5.82h4.57v-4.78l4.78-1.04v5.82h4.16v-2.08l9.14-.9s8.1,12.12,8.1,12.74,1.25,9.56,1.25,9.56l-3.74,4.78-4.16-3.12-1.87,2.08s-2.49-3.74-3.12-2.7c-.62,1.04-2.18,4.78-2.18,4.78l4.47,6.23-10.18,7.62-5.82-4.92-9.76,7.48-14.13-11.43Z"/>
      <polygon class="cls-1" points="278.45 188.68 282.61 192.76 297.57 178.84 294.56 175.17 278.45 188.68"/>
      <path class="cls-1" d="M270.98,132.1c.62,0,14.54-7.06,14.54-7.06l12.05,15.58s-11.84,8.52-21.4,8.1l-5.19-16.62Z"/>
      <polygon class="cls-1" points="274.92 152.04 282.19 152.04 282.19 157.24 277.31 157.24 277.31 167 273.05 167 273.05 152.04 274.92 152.04"/>
      <polygon class="cls-1" points="243.76 133.03 243.76 138.85 251.76 138.85 251.76 153.7 269.83 153.7 266.92 132.51 243.76 133.03"/>
      <polygon class="cls-1" points="243.76 140.51 249.23 140.82 249.23 155.05 245.73 155.05 245.73 147.78 243.76 147.78 243.76 140.51"/>
      <path class="cls-1" d="M218.38,159.28c1-.25,24.83-3.71,24.83-3.71l-2.08-22.16h-14.13l-6.51,4.57,1.94,5.68-4.05,15.62Z"/>
      <polygon class="cls-1" points="197.08 144.08 216.06 136.88 219.66 144.08 217.03 155.05 214.4 155.57 214.26 160.28 209.69 160.28 204.56 160.28 204.29 162.36 199.88 162.36 197.08 144.08"/>
      <polygon class="cls-1" points="176.58 127.04 169.85 137.71 175.21 140.51 181.64 136.04 189.74 134.59 190.68 130.02 176.58 127.04"/>
      <polygon class="cls-1" points="182.37 138.23 183.2 142.49 193.69 142.49 194.11 140.51 196.49 140.36 196.49 135.94 182.37 138.23"/>
      <path class="cls-1" d="M178.8,111.53c-.28.42-3.19,13.5-3.19,13.5l19.67,1.45v-4.57l-12.92-10.39h-3.57Z"/>
      <path class="cls-1" d="M174.37,95.19c.14.42,2.22,11.77,2.22,11.77h7.44l3.5,4.57h7.76l-6.65-18.28-14.27,1.94Z"/>
      <polygon class="cls-1" points="193.76 116.27 198.05 125.03 215.5 114.75 215.5 98.51 193.76 116.27"/>
      <polygon class="cls-1" points="194.31 130.23 199.88 139.21 204.01 137.43 198.05 127.6 194.31 130.23"/>
      <polygon class="cls-1" points="204.63 132.51 207.61 137.43 215.09 133.78 211.14 128.01 204.63 132.51"/>
      <polygon class="cls-1" points="200.48 126.49 207.19 122.47 209.34 127.04 202.9 130.99 200.48 126.49"/>
      <polygon class="cls-1" points="209.86 121.92 218.83 116.83 234.83 114.75 234.83 122.47 224.47 125.03 217.37 127.6 211.66 125.55 209.86 121.92"/>
      <path class="cls-1" d="M216.54,130.99s2.91,3.6,3.12,3.5,6.65-3.5,6.65-3.5h12.36v-4.5l-3.22-1.45-10.98,2.01-7.93,3.95Z"/>
      <polygon class="cls-1" points="217.44 98.03 217.44 114.51 233.99 111.77 233.3 98.03 217.44 98.03"/>
      <polygon class="cls-1" points="234.83 98.03 242.24 129.76 259.13 129.76 259.13 128.7 266.34 128.7 266.34 123.16 248.61 123.16 241.27 94.49 234.83 98.03"/>
      <polygon class="cls-1" points="248.61 106.27 250.58 121.17 263.98 121.17 272.01 106.27 262.73 102.39 248.61 106.27"/>
      <polygon class="cls-1" points="244.31 94.49 247.64 103.91 260.31 100.67 269.31 100.45 269.31 91.31 256.81 91.31 244.31 94.49"/>
      <polygon class="cls-1" points="299.02 108.76 288.01 122.47 302.35 140.51 310.38 126.49 310.38 119.01 299.02 108.76"/>
      <path class="cls-1" d="M268.27,119.01c.55-1.25,7.89-5.68,7.89-5.68l8.1,7.84s-3.12,6.15-13.3,6.84l-2.7-9Z"/>
      <path class="cls-1" d="M276.27,109.87l9.73,8.86,13.19-15.65-2.94-4.43s-6.37,6.09-15.65.69l-3.74,3.05,2.63,3.19-3.22,4.29Z"/>
      <polygon class="cls-1" points="303.18 141.86 308.99 134.49 313.7 138.18 318.14 132.51 312.6 128.01 319.8 120.67 331.43 132.72 309.27 147.78 303.18 141.86"/>
      <path class="cls-1" d="M311.49,149.62l23.55-15.13,14.4,22.05-12.47,9.56-4.16-3.74s-5.26,5.54-5.82,3.74c-.55-1.8-7.2-8.86-7.2-8.86l2.77-3.53-1.94-1.66-5.54,1.66-3.6-4.08Z"/>
      <polygon class="cls-1" points="330.46 176.49 340.02 169.49 347.22 177.39 342.51 182.58 340.3 178.84 335.31 182.58 330.46 176.49"/>
      <polygon class="cls-1" points="343.34 167 361.9 153.7 370.21 163.47 367.03 165.55 363.15 161.25 359.83 164.02 363.84 169.49 358.86 172.89 354.7 169.49 350.55 171.09 345.42 170.26 343.34 167"/>
      <polygon class="cls-1" points="341.68 140.51 352.21 153.7 360.8 147.11 347.22 129.76 343.34 132.51 341.68 140.51"/>
      <path class="cls-1" d="M333.65,126.49c.83.55,4.43,6.09,4.43,6.09l12.05-7.55v-11.84l-9.56-5.26-5.54,2.49,5.68,11.5-7.06,4.57Z"/>
      <polygon class="cls-1" points="354.7 130.37 364.4 141.73 378.8 126.07 360.8 103.08 353.04 109.59 353.04 123.3 356.22 123.44 358.72 127.87 354.7 130.37"/>
      <path class="cls-1" d="M365.92,102.11c-.14.83,12.26,16.76,12.26,16.76l5.19-3.88,3.32,3.05s10.39-18.7,6.65-27.42c-3.74-8.73-22.58,6.09-22.58,6.09l.83,2.91-5.68,2.49Z"/>
      <polygon class="cls-1" points="191.75 93.25 196.49 108.76 199.16 108.69 199.16 103.91 194.31 91.86 191.75 93.25"/>
      <polygon class="cls-1" points="196.49 91.31 201.52 88.12 206.64 102.39 201.57 105.71 196.49 91.31"/>
      <path class="cls-1" d="M172.71,85.14c.62,0,11.32-1.87,11.32-1.87v-4.36l6.65-1.66v-8.93l7.38-2.91,5.96,11.22,5.33-1.35,5.75,10.91-2.7,3.74,3.12,5.71-7.38,4.67-6.56-15.48-6.11,3.84-12.22,1.8-10.53,2.77v-8.1Z"/>
      <polygon class="cls-1" points="213.43 77.87 216.54 83.55 227.61 82.86 227.61 80.71 237.8 79.95 238.67 88.12 248.61 88.12 248.61 76.63 243.21 76.63 236.7 76.63 236.59 59.69 230.36 59.69 230.15 61.56 222.26 61.56 222.15 67.9 230.26 67.69 230.26 71.02 225.17 71.12 225.17 74.65 218.62 74.65 218.62 77.98 213.43 77.87"/>
      <polygon class="cls-1" points="250.58 77.04 250.58 89.65 261.9 89.65 261.9 84.11 257.89 83.97 257.75 79.26 254.7 79.12 254.29 77.04 250.58 77.04"/>
      <polygon class="cls-1" points="263.84 83.34 263.84 88.12 281.57 88.12 290.44 83.34 299.99 75.52 299.99 67.49 294.31 61.56 292.65 61.56 292.65 66.38 269.83 77.04 269.83 81.75 263.84 83.34"/>
      <polygon class="cls-1" points="283.44 89.65 283.44 98.65 293 98.65 293 93.45 288.22 93.35 288.22 89.65 283.44 89.65"/>
      <polygon class="cls-1" points="300.89 105.71 312.42 117.55 315.95 118.73 325.41 112.22 321.36 106.23 316.37 108.76 305.46 97.61 301.72 98.65 299.99 100.73 300.89 105.71"/>
      <polygon class="cls-1" points="295.7 86.74 307.89 73.99 321.32 103.91 316.34 106.13 305.67 95.19 299.99 97.61 295.7 86.74"/>
      <polygon class="cls-1" points="310.38 70.81 329.77 60.14 342.65 83.97 321.32 97.61 310.38 70.81"/>
      <polygon class="cls-1" points="322.01 99.62 328.25 110.98 341.89 103.91 337.39 96.43 329.63 100.59 326.52 96.43 322.01 99.62"/>
      <polygon class="cls-1" points="342.65 78.88 354.29 77.04 356.78 81.4 365.92 77.04 367.79 81.4 360.8 84.52 363.01 91.31 367.79 89.65 366.96 96.43 350.13 98.65 350.13 88.12 344.52 88.12 342.65 78.88"/>
      <polygon class="cls-1" points="337.46 91.31 345.14 90.06 347.85 96.43 341.89 97.61 337.46 91.31"/>
      <path class="cls-1" d="M343.79,103.08c.21.55.73,3.05.73,3.05l5.61,2.63,7.69-5.68s-1.66-3.81-1.97-3.81-12.05,3.81-12.05,3.81Z"/>
      <path class="cls-1" d="M340.44,75.8l-7.76-16.9,28.95-17.17,19.81,9.97s9.97,17.04,8.73,22.3c-1.25,5.26-2.08,7.48-18.7,17.87l-3.67-7.06,3.25-1.94-5.13-8.86-8.86,3.88-1.45-3.03-14.31,2.72-.87-1.77Z"/>
      <path class="cls-1" d="M338.36,17.9l6.79-3.19-9-9.83-30.61,19.11,4.85,8.31-3.05,2.08,3.05,6.65,3.05-.83,2.22,3.05s7.2,13.99,7.89,13.99,26.32-15.51,26.32-15.51l.83,1.94,6.09-3.6-4.43-7.2,2.87-1.8-5.78-9.7-6.09,3.19,4.43,9.42-21.26,12.47-11.29-20.22,21.05-12.6,2.08,4.29Z"/>
      <polygon class="cls-1" points="303.87 51.42 310.38 65.41 314.4 62.5 307.06 46.57 303.87 51.42"/>
      <path class="cls-1" d="M357.71,35.91c.21.52,1.87,3.01,1.87,3.01l3.32-2.18-2.6-3.43-2.6,2.6Z"/>
      <path class="cls-1" d="M357.71,28.01c.21-.1,14.54-8.93,15.17-8.52s3.32,4.25,3.32,4.25l-1.25,4.27-9.76,6.02-7.48-6.02Z"/>
      <path class="cls-1" d="M399.58,60.14h-4.36v-6.16h6.23l20.57-15.06s5.61,8,4.78,14.23c-.83,6.23-17.66,22.65-17.66,22.65l-9.56-15.65Z"/>
      <ellipse class="cls-1" cx="419.11" cy="51.25" rx="4.99" ry="5.99"/>
      <polygon class="cls-1" points="363.84 40.06 376.2 29.67 381.71 47.96 363.84 40.06"/>
      <polygon class="cls-1" points="385.66 6.4 378.18 12.22 378.8 21.16 382.96 18.04 385.66 23.03 380.04 27.6 385.66 46.57 398.95 34.04 387.11 6.4 385.66 6.4"/>
      <polygon class="cls-1" points="407.47 26.49 387.94 49.72 389.19 52.84 401.65 51.7 422.12 35.18 407.47 26.49"/>
      <polygon class="cls-1" points="302.55 201.07 306.61 197.54 309.9 201.95 305.67 205.12 302.55 201.07"/>
      <polygon class="cls-1" points="306.23 184.8 315.37 193.66 319.8 189.23 312.73 182.58 310.45 184.73 308.23 182.58 306.23 184.8"/>
      <polygon class="cls-1" points="20.08 171.45 23.68 169.49 37.06 185.91 37.06 188.68 33.93 190.48 20.08 171.45"/>
      <polygon class="cls-1" points="32.68 195.62 36.42 193.22 38.91 195.62 35.17 198.72 32.68 195.62"/>
      <path class="cls-1" d="M34.2,201.7c.28-.42,6.37-4.48,6.37-4.48l4.16,2.82-3.19,6.37-7.34-4.71Z"/>
      <path class="cls-1" d="M288.84,148.3s10.54-1.63,12.78-4.47l7.38,9.87s-8.86,2.08-9,1.35-1.07-3.84-1.07-3.84l-10.08,1.25v-4.16Z"/>
      <polygon class="cls-1" points="399.44 72.47 403.59 70.12 408.03 77.04 403.73 78.88 399.44 72.47"/>
      <polygon class="cls-1" points="73.61 123.79 73.61 130.75 77.76 130.75 77.76 129.08 90.95 128.57 90.95 130.09 105.5 125.31 104.25 120.46 87.11 122.85 73.61 123.79"/>
    </g>
    <g>
      <g>
        <path class="cls-3" d="M378.08,9.77c.18.04.09,0-.41-.14l-.37-.06.78.2Z"/>
        <path class="cls-3" d="M374.74,8.77c-.59-.14-1.29-.27-.92-.1.6.1.73.16,1.38.26.5.13.87.26.78.25.18.04.77.22,1.05.27-.64-.21-1.46-.45-2.33-.65-.18-.06,0-.03.05-.03Z"/>
        <path class="cls-3" d="M325.14.8l.33.04c-.09-.02-.2-.03-.33-.04Z"/>
        <path class="cls-3" d="M293.94,2.74c.21-.11.29-.18.29-.21-.19.11-.35.21-.29.21Z"/>
        <path class="cls-3" d="M288.89,4.58c.11-.04.2-.07.3-.11-.12.02-.24.05-.3.11Z"/>
        <path class="cls-3" d="M325.14.8l-.84-.1c-.06.1.43.07.84.1Z"/>
        <path class="cls-3" d="M367.95,7.12c.17.04.31.07.45.09-.14-.03-.28-.07-.42-.1,0,0-.02,0-.03,0Z"/>
        <path class="cls-3" d="M338.97.66h.25c.08-.03.15-.06.21-.1l-.47.1Z"/>
        <path class="cls-3" d="M349.66,1.16c-.23-.08-.36.07-.47.12.15-.03.33-.02.54.03.01-.03,0-.08-.07-.15Z"/>
        <path class="cls-3" d="M365.76,6.11l.29.07c-.08-.02-.2-.05-.29-.07Z"/>
        <path class="cls-3" d="M331.37.56s-.06-.07-.1-.08c0,.03.04.06.1.08Z"/>
        <path class="cls-3" d="M83.22,121.95s0-.01,0-.02c-.06.03-.07.04,0,.02Z"/>
        <path class="cls-3" d="M70.82,121.91h.17s.04-.01.04-.02l-.21.02Z"/>
        <path class="cls-3" d="M279.99,8.74s.02,0,.04-.01c.21-.14.09-.07-.04.01Z"/>
        <path class="cls-3" d="M206.52,54.05c.92-.45-1.34.99.02.28-.14.04,1.09-.9-.02-.28Z"/>
        <path class="cls-3" d="M367.68,7.04l-.42-.11c.19.05.32.08.42.11Z"/>
        <path class="cls-3" d="M206.55,54.33h0s.14-.07.14-.07c-.06.03-.09.05-.14.07Z"/>
        <path class="cls-3" d="M258.88,13.32c.05.05.15.09.25.12,0-.03-.06-.06-.25-.12Z"/>
        <path class="cls-3" d="M275.03,11.58l-.4.12c.16-.04.29-.08.4-.12Z"/>
        <path class="cls-3" d="M250.18,16.11c-.21.11-.3.12-.56.32.03,0,.06-.01.1-.02.08-.09.21-.19.46-.29Z"/>
        <path class="cls-3" d="M243.79,22.99s.08-.09.12-.13c.04-.09.08-.19.12-.28l-.24.41Z"/>
        <path class="cls-3" d="M109.82,115.39c-.2.01-.34,0-.45-.03.18.09-.99.63.45.03Z"/>
        <path class="cls-3" d="M367.96,7.07c-.06,0-.14,0-.27-.03.1.03.2.05.29.07.03,0,.04-.02-.02-.04Z"/>
        <path class="cls-3" d="M250.95,18.12c-.39.21-.77.43-1.12.69.15-.1.33-.22.52-.34.19-.11.4-.23.6-.35Z"/>
        <path class="cls-3" d="M159.68,92.11l-.25.24c.1-.08.19-.17.25-.24Z"/>
        <path class="cls-3" d="M247.06,21.57c-.22.13-.42.3-.6.49-.01.06-.03.12-.03.17.19-.24.42-.44.63-.66Z"/>
        <path class="cls-3" d="M109.36,115.36h0s0,0,0,0Z"/>
        <path class="cls-3" d="M100.64,119.47c1.37-.37.58-.4.83-.61,1.59-.53.8-.06,1.39-.11,1-.38,1.66-.93,2.39-1.23.07.02.22-.04.08.09.44-.34,1.25-.76,1.92-1.13.69-.4,1.44-.74,1.94-1.12.09-.02.14-.01.17,0-.23-.04-.32-.16-.32-.27.56-.24.99-.57,1.27-.49-.35.13-.35.21-.5.32l.57-.3c.62.04-.78.39-.71.57,1.11-.54,2.43-1.18,3.38-1.34.25.18-2.11.7-.83.56l-1.42.35c1.19.04-.85.25.27.34.92-.26,1.41-.44,1.92-.6.5-.18,1.02-.33,1.96-.5.39-.23-.19-.19.21-.42,2.66-.77,2.23.29,4.17-.32.49-.24.66-.62,2.12-.54l-.46.35c.93-.05,1.19-.17,1.46-.27.14-.05.28-.1.5-.12.11-.01.26-.01.41-.01.05,0,.06,0,.15.03.1.03.21.06.33.1-.09.02-.23.01-.39,0-.04,0-.06,0-.09.01-.07,0-.14.01-.2.02-.28.02-.49.03-.35.05.16.02.29.04.4.06.05,0,.1,0,.14.01.02,0,.03,0,.04,0,.01,0,.04,0,.12,0,.06,0,.11-.01.16-.02.2-.04.37-.12.86-.03l.15.32c2,.33,4.24.53,6.46.89-.14.06-.53.09-.03.27,1.41.19,2.89.47,4.36.79.37.08.73.17,1.09.25l.27.06s.05.02.06.03l.45.23c.65.34,1.28.67,1.89.99l1.06.18c.22.1.36.29.1.23.42.24.63.29.53.17-.07-.1-.21-.27.19-.15.87.37,1.22.71.6.52.53.19,1.13.42,1.81.66.15-.88.32-1.77.52-2.62.07-.28.14-.57.2-.85l.22-.78c.3-1.04.7-2.01,1.09-2.7l-.06.38c.65-1.35.15-1.79.97-2.96l-.08.26c.75-1.45,1.58-2.96,2.54-4.25.95-1.23,2.1-2.45,2.95-3.45,0-.3.51-1,.92-1.7.42-.7.77-1.39.62-1.59.54-.79.75-1.05,1.02-1.37.27-.32.55-.74,1.4-1.55.48-.41.54-.85,1.23-1.34l.13.17.91-.85c.24-.05.46-.13.69-.2.22-.19.45-.38.65-.59-.26.23-.63.39-.62.32,1.04-.87,2.49-2.14,2.58-2.12.67-.83,1.27-1.71,1.82-2.6.02.1-.26.55-.48.91.83-1.48.34-.13,1.07-1.51-.15.15-.02-.15-.03-.2.16-.19.36-.46.57-.8.1-.17.21-.35.33-.54l.13-.23s.02-.05.04-.06l.47-.1c.25-.06.5-.12.73-.19l-.22.17c1.15-.27,2.34-.67,3.51-1.22,1.16-.55,2.33-1.31,3.26-2.27-.71.62-.65.35-.11-.18l.31-.12c.29-.4-.6.52.04-.26.69-.67.56-.35.2.07l.79-.87c.08-.02-.1.19-.12.27.28-.4,1.49-1.37,1.87-1.96l.07-.02c1.76-1.87,2.53-2.75,3.95-4.28-.04-.09.53-.68.9-1.18.54-.55,1.1-1.13,1.7-1.74.29-.31.6-.62.9-.94.05-.05.01-.02.07-.06l.14-.1.28-.19c.19-.13.37-.26.56-.39,1.04-.78.27-.28.72-.65.12,0,1.63-1.05.88-.46,1.81-1.28,2.31-1.64,4.6-3.26-.27.15-.56.33-.43.21.41-.3.98-.63.94-.55l-.11.08c2.53-1.88,6.17-3.85,8.18-5.35l-.11.08,2.13-1.49c1.02-.63-.57.44.21.01,2.28-1.63,3.76-2.34,5.67-3.63,1.69-.66,5.44-3.26,7.69-4.11l-.16-.02c.51-.35.69-.29,1.11-.47-.09-.04-.63.23-.31,0,4.75-2.44,9.64-5.36,14.08-8.58,1.62-1.19.49-1.2,2.64-2.55l-.4.64c2.93-2.78,6.3-5.38,8.77-8.54-.11.22-.05.28-.32.56.73-.48,2.07-2.35,1.93-2.48.4-.49.21-.02.52-.28.31-.31.59-.77.83-1.2.23-.45.43-.84.64-.98.07-.05-.08.24-.15.39.11-.27.5-.8.74-1.28.24-.48.4-.84.16-.65.2-.33.41-.7.55-.99.14-.3.27-.59.41-.87.25-.57.59-1.06.93-1.49.1-.36.48-.82.82-1.21.37-.37.69-.71.62-.93.11.17.61-.17,1.15-.64.56-.44,1.18-1,1.51-1.29-.18.26.71-.27.52.06.83-.5,1.63-.91,1.38-1.06.48-.05.91-.17,1.33-.33.42-.13.82-.29,1.21-.45.78-.26,1.49-.48,2.05-.18,1.44-.3,2.88-.43,4.29-.36.72,0,1.35.12,2.13.16.4.02.79.04,1.19.05.39.02.76-.06,1.14-.08-.04.22-.87.35-1.73.24-.41-.03-.87-.06-1.11-.06-.26,0-.42.04-.41.16.57.06,1.38.05,1.99.04.64,0,1.19-.17,1.76-.23.57-.06,1.09-.25,1.67-.35.58-.1,1.17-.25,1.85-.39.71-.11-.34.29-.56.43,2.67-.81,5.16-1.45,7.31-2.62.01.04-.21.19-.43.31.44-.19,1.06-.35.93-.53l-.41.23c-.82,0,1.49-1.34,1.49-1.54-.48.91,2.23-.83,1.39.42.27-.17.58-.43.45-.53.44-.16.61-.14.25.21,1.5-.82.84-.79,2.23-1.46.04.1-.22.27-.31.45.61-.53,1.21-1.07,2.41-1.59-.04.09.13.1-.21.28.98-.54,1.76-1.11,2.56-1.68.4-.29.81-.57,1.26-.85.13-.08.19-.13.3-.17.12-.06.25-.11.38-.17.26-.11.53-.22.82-.32-.47.72.82-.2,1.1.11l1.14-.65-.56.04c1.05-.47,1.85-1.15,2.8-1.43l-.71.5,1.93-.95-1.17.36c.97-.66-.32-.41,1.12-.93-.27.16,1.05-.47,1.69-.5h0c.47-.34.94-.7,1.76-.96.25.02.02.47.18.48.14-.13.18-.27.37-.29.07-.01.21-.02.39-.03.16,0,.34-.01.51-.02.69-.03,1.4-.06,1.75-.23-.24.08-.25.28-.17.32l.47-.26c.53.08.61.12.52.28,1.6.04-.51-.48,1.39-.28-.15.02-.08.06-.39.1,1.9.1,3.68-.17,5.43-.05.52.37-1.53.1-.94.41,2.52-.08,5.22-.46,7.67-.39l-.45-.04c.34-.5,1.82.24,3.05,0-.3.04-.4.28-.31.22,1.67.07,3.42-.14,5.95-.3l-.31.12c.99.1,2.59.05,3.66.1.32-.12.92-.1.55-.27,3.28.63,6.26-.36,9.17.14-.35,0-.83.1-.55.1l2.48-.11c-.2-.17-.33-.1-.85-.24.31-.1,1.01-.18,1.63-.18-1.12.11,0,.28.49.36-.08-.05.08-.11.04-.16,1.3.29.22-.34,1.99-.14l-.09.09c.66-.05,1.27-.16,1.99-.13.3.18-.7.09-.75.24,1-.02,1.98-.35,2.89-.17-.43.05-1.04.05-1.46.1.99.21,1.1.15,1.84.18h-.07s.85.04.85.04c.12,0,.33.01.38.02l.33.11c-.15-.05-.27-.12-.33-.14.08-.04.26-.03.42-.02.16.01.32.03.48.06.32.06.64.14.98.23.67.19,1.38.4,2.23.5-1.65-.2-.3.07-.47.21.4.16,1.02.39.83.38.81.08,1.26.45,2.4.55.03.06.82.23.61.31,1.01.23-.21-.15-.11-.19,1.59.26,3.58,1.17,5.86,1.57,1.94.44,2.33.41,4.12.86.58.22-.53,0-.53,0,.95.32,1.68.51,2.61.72-.19-.02,0,.05.26.16.73.19.52.03,1.47.33-.17-.01-.4-.02-.76-.08.87.2,1.74.4,2.64.61.23.11-.56-.08-.88-.14,1.01.25,2.62.66,2.94.69l-.64-.2c.37.1.17.1-.1.04-.87-.18-1.24-.36-1.28-.4l.64.16c-.61-.32-2.56-.69-3.84-1.04l.57.02-1.34-.26c-.27-.11-.44-.24.2-.08-.9-.33-.82-.18-1.59-.48-.08-.04-.04-.03.04-.02l-.91-.21c.18.02-.12-.15.42.03-1.58-.56-2.62-.63-3.19-.93l.14.03c-2.24-.58-.25.06-1.97-.25l-1.03-.66-.26.08c-.23-.07-.68-.21-.58-.24-.88-.15.13.1-.39.06-1.07-.45-3.07-.8-3.25-1.12-.43,0,1.03.4-.17.14-.26-.37-1.38-.34-2.35-.76.35-.06,1.29.3.31-.13-.68.08-1.95-.63-2.81-.83-.05.1-.52,0-1.16-.19-.16-.04-.32-.11-.55-.14-.19,0-.39,0-.58,0-.39,0-.78,0-1.15.02.09-.08-2.8-.15-4.18-.25l.04-.04c-.27.26-1.69.2-2.73.26.04-.16.23-.23.79-.29h-.98c-.23.08-.54.12-1.17.15l.25-.21c-1.3,0-2.62.23-4.29.08-.09.21,1.33.57-.44.71-.07-.11-.13-.3.33-.35-.15.01-.54.09-.85.04l.71-.19c-.76-.09-.4.16-1.01.14.01-.16-.45-.12-.36-.24.16-.01.53.07.76,0-.69-.03-1.52-.13-1.79-.26.06.09,0,.22-.5.24-1.3,0-.44-.2-1.2-.29-.31.11-1.14-.01-1.17.24-.38,0-.45-.12-.6-.19-.67.11-3.14.01-2.38.29l.17.02s-.07,0-.11.01h0s0,0,0,0c-2.2.26-4.58-.16-6.77-.06v-.09c-1.3.1-2.9.05-3.83.25-.39,0-.91-.17-.75-.29-1,.07-1.11.18-2.55.01,1-.16-.35-.15,1.03-.12-1.3-.09-1.59-.25-2.98.01.47-.25-.98-.32-1.59-.25l.91.18c-.69.03-1.3,0-1.91-.01l.33-.33c-2.65-.43-4.79.68-6.81-.02-.7.24,1.44.18.81.45-.61-.02-1.23-.16-1.75-.29-.14-.03-.23-.07-.39-.1-.19-.03-.36-.05-.52-.08-.28.05-.59.17-.64.19-1.61.5-1.22,1.1-2.87,1.69.26.02.59.24-.56.88-1.13.46-1.59.13-.92-.27.26-.13.41-.15.41-.11.34-.2.79-.46.3-.39l-.09.18c-.61.13-2.14.83-1.86.48-.79.49-.28.35.38.13-1.51.47-2.24.99-3.76,1.54.26-.04.54,0,.31.1-1.11.41-1.32.57-1.44.72-.07.08-.07.13-.22.25-.18.14-.29.26-.65.47-.88.28.05-.56-1.26.36-.92.35-.34-.2-.06-.47-1.16.92-2.47,1.15-3.22,1.48l.63-.44c-.38.27-.71.43-1.05.61l.5.03c-.42.17-.76.34-.8.24-.34.36.51.22-.21.84-.6.15-1.58.94-1.92.71,1.75-.72-.33-.21,1.08-.96-.26.17-.59.34-1.02.49-.08,0,.03-.09.13-.16-1.76.48-.58.71-2.29,1.47.14-.27-.54-.16-.8,0,.69-.3.46.15-.12.56-1.15.34-1.16.6-1.75.82l.69-.2c-.15.26-.72.47-1.48.83-.12-.1.67-.38.37-.32-.75.63-2.07.43-3.22,1.01-.6.06-.16-.32-.68-.25-.64.34-1.03.35-1.43.39-.39.01-.79.09-1.49.3.46.17.53.1-.45.51.79-.17,1.57-.44,2.34-.69l-1.45.73c.73-.17,1.49-.53,1.93-.6-.68.38-.62.3-.22.41-.55-.06-1.02.12-1.52.31-.5.17-1.03.33-1.63.31l-.05-.61c-.44.03-.82-.01-1.21.04-.39.05-.78.12-1.16.11-.41,0-.75.07-1.29,0-.51-.03-1.06-.14-1.67-.2.26.05.52.1.77.18-.35.19-1.51-.12-2.3-.02.08-.2-.42-.27-.76-.4.05.12-1.82.08-2,.52l-1.12-.1c-.99.16-1.53.4-2.01.71-.25.15-.49.3-.78.44-.29.16-.62.33-1.06.48.45-.4-.41-.21.74-.82-.6.24-1.16.42-1.11.54-.4.05-1.49,1-2.05,1.18-.18.23-.18.39-.74.81-.08.02-.05-.08-.05-.08.05.08-.81.76-.19.56-.96.33-1.95,1.31-2.78,2.34-.81,1.06-1.46,2.16-2.04,2.82-.14.32-.29.65-.44.99-.14.31-.29.63-.44.94-.26.64-.66,1.21-.97,1.72,0-.09-.07-.05.06-.23-1.01,1.28-.17,1.12-1.42,2.53-.81.58.49-.88.04-.48-.58-.14-1.35,1.82-2.46,2.54l.18-.25c-.78.59-1.43,1.89-2.59,2.98,0,0,.02-.09-.05-.06-.57.96-2.01,2.45-3.12,3.51.23-.47.45-.54.1-.5-.49.48.37.11-.62,1.06-.4.22-1.22.78-1.45.71l.97-.85c-.67.23-1.26,1.09-1.81,1.5v-.15c-1.5,1.3-1.35,1.53-3.04,2.83l.22-.07c-.77.92-.87.47-1.67,1.33h-.44c-.58.5-2.03,1.79-3.16,2.58.56-.58,1.82-1.58,2.55-2.27-.61.45-2.08,1.53-2.35,1.84.24-.19.52-.46.8-.6-.66.68-1.62,1.48-2.91,2.27,0-.5-3.43,1.98-4.57,2.16-2.34,1.38-4.74,2.56-7.39,4.24,1.08-.37-.77.5-.48.61-.61.4-.85.54-.92.56l-1.95,1.07c-.48.23.56-.42.47-.43-1.36.85-.62.28-1.54.8.23-.05-.4.4-1.18.88l1.13-.62c-1.81,1.33-1.72.9-3.54,2.25l.56-.45c-.94.68-3.55,2.38-4.4,3.15-.18.09-.44.2-.02-.1-2.31,1.53-5.01,3.59-6.83,4.73l.15-.16c-.42.3-.69.58-1.25.91.02-.03.15-.15-.05-.02-.22.17-1.08.84-1.66,1.21l.45-.37c-1.13.74-1.96,1.36-2.74,1.95-.39.3-.77.59-1.16.89l-.15.11s-.16.13-.18.16l-.25.29c-.17.19-.35.4-.54.61-.09-.1-1.59,1.41-2.34,2.16v-.04c-2.18,2.25-3.6,3.92-5.6,6.03-.35.29-.8.69-1.32,1.17-.52.47-1.09,1.03-1.72,1.47-1.28.91-2.95,1.52-4.32,1.81.42-.08-.02.19-.51.32-.31.05-.71.17-1.05.25-.09.02-.17.04-.25.05-.11.02-.21.03-.3.04-.18.02-.32.02-.36-.01-.02.01-.03,0-.03-.02h0s.39-.06.39-.06c-.1-.01-.26-.02-.43-.01-.41.6-1.11,1.63-1.7,2.48l.14.31c-1,1.02-2.14,2.43-3.34,3.55-1.19,1.17-2.42,1.84-3.3,2.13-.57.48-1.3,1.09-1.72,1.72l-.13-.17c-1.44,1.6-1.74,2.6-2.89,4.55l.1-.47c-.67,1.08-.31,1.7-1,2.7l-.5.08c-.34.45-.73.86-1.11,1.27-.39.44-.84.89-1.21,1.38-.77.95-1.41,2-1.84,3.11-.03-.06-.09-.17.1-.52-.62.96-2.18,3.82-1.52,3.65-.34-.11-.97,2.27-1.2,3.53l-.17-.27c-.02.56,0,.86-.03,1.2-.01.17-.04.36-.07.57-.01.13-.04.31-.08.56-.08.19-.2-.03-.09-.2-.11.2-.11.33-.11.51-.08.07-.24.08-.72-.21.11,0,.2-.03.27-.05-.29-.14-.36-.15-.62-.22-.21-.05-.37-.04-.71-.09-.73-.21-2.06-.98-2.13-1.26-.1.03-.32.02-.59-.04-.15-.04-.25-.06-.48-.15-.23-.06-.42-.07-.58-.12-.08-.1.18-.11.32-.11-1.95-.52-2.99-.25-4.31-.73-.01-.09-.1-.14-.2-.19,1.57.29,2.83.53,2.71.52.04-.23-1.22-.49-.16-.62-1.05-.01-2.86.04-4.08-.28-.06-.03-.11-.06-.15-.11h.13c-.28-.07-.54-.1-.79-.11-.39-.11-.63-.18-1.01-.25-.11-.21-1.44-.36-2.07-.48,0,.25-.81.06-.07.4-.1-.03.12,0,.55.06.1,0,.21.03.27.02-.01,0-.03,0-.05.01.42.07.96.16,1.58.26-.52.03-1.06.04-1.74-.22-.35.1-.74.19-.95.23-.81-.49-2.44-.96-2.64-1.2-.12-.01-.25-.03-.37-.04-.18-.05-.48-.02-.57-.01-.27.02-.55.04-.83.07-.56.05-1.12.11-1.66.19-1.07.16-2.05.38-2.63.68-.55.13-.66-.03-.88-.06.31-.1.7-.14.87-.23-1.11.25-3.3.63-3.5.98-1.41.21.72-.45-1.17.06l.24-.15c-1.93.26-3.4.96-4.83,1.74-1.45.76-2.78,1.87-4.76,2.45.27-.09.41-.13.48-.12-4.37,1.76-9.41,2.9-14.14,2.98-1.34.04-1.48.16-2.3.28l-.29-.13-.7.1c-.1.03-.26,0-.4.08l-.33.16c-.92.4-1.76.62-2.65.89-.45.13-.91.28-1.4.46-.12.05-.25.09-.38.14-.18.07-.12.06-.31.06-.28.02-.58.03-.9.05l.33.06c-.91,0-2.87.06-2.72,0-.09.01-.3.06-.65.04l-.03-.04-2.23.09c-1.73,0,.27-.14-2.25-.09-.94.04-2.67.12-2.32.12.38,0,.97,0,.99.02h-.86c-.16.07-.81.08,1.29.19h1.47s.47.04.47.04l-1.23-.03c.7.06,1.14.04,1.64.02.12.03.32.05.61.07l1.44-.07c.17.05-.65.07.32.12.67-.04-.65-.12.47-.13.7.07.5.11,1.32.08.12.04-.06.06-.39.06.73-.02,1.94.03,2.32-.04.18.02.43.04.69.05.15,0,.31,0,.46,0,.25-.06.3-.09.45-.14.49-.16.89-.29.88-.2.21-.11,1.18-.54,1.81-.77-.55.3.05.1.76-.13.35-.12.73-.24,1.01-.32.03,0,.07-.02.1-.02,0,0,.01,0,.02,0,.01,0,.02.01.03.02.03.02.08.04.03.07.93-.18,3.33-.11,4.94-.37-.09.03-.26.08-.41.08.91-.04,1.19.02,1.78,0,.1-.21,1.51-.41,2.25-.66,1.14.06-.64.35-.26.51-.08-.15,1.91-.45,1.51-.55.88.01.74-.06,1.22.06.09-.33.79-.18,1.44-.53,1.25-.14.39.24,1.7-.21.66-.08-.5.35-.5.35ZM131.15,114.01h0c-.27-.04-.51-.08-.66-.1.14.02.33.05.66.1ZM133.8,114.49c-.32-.06-.73-.14-1.15-.22-.08-.1.04-.17.31-.12-.16.03.46.19.85.34ZM128.48,111.8c.43.04.56.11.61.17-.2-.03-.43-.06-.74-.1-.01,0-.04.01-.06.02.05-.04.1-.07.19-.09Z"/>
        <path class="cls-3" d="M127.67,111.98c-.06,0-.1,0-.18-.01.08.03.16.07.24.1.06-.02.11-.03.16-.05-.08-.01-.16-.03-.23-.04Z"/>
        <path class="cls-3" d="M325.52.84h-.06s.09.01.12.03c-.04-.01-.04-.02-.06-.03Z"/>
        <polygon class="cls-3" points="157.2 94.02 157.17 93.98 157.01 94.14 157.2 94.02"/>
        <path class="cls-3" d="M340.41,1.61s.08.04.2.05c0-.01-.09-.03-.2-.05Z"/>
        <path class="cls-3" d="M346.84,1.61l.91.06c-.39-.03-.68-.05-.91-.06Z"/>
        <path class="cls-3" d="M351.52,2.65c.07-.01.09-.03.11-.04h0s-.1.04-.1.04Z"/>
        <path class="cls-3" d="M276.09,13.32c-.06.03-.12.05-.18.08-.4.22-.12.09.18-.08Z"/>
        <path class="cls-3" d="M296.96,2.62c-.2.15-.41.3-.63.44.39-.15.69-.28.63-.44Z"/>
        <path class="cls-3" d="M251.07,18.05h0s-.08.04-.13.07l.13-.07Z"/>
        <path class="cls-3" d="M295.34,3.5c.4-.12.72-.27.99-.44-.32.12-.7.26-.99.44Z"/>
        <path class="cls-3" d="M372.21,8.25l.23.06s.01,0,.03,0l-.26-.06Z"/>
        <path class="cls-3" d="M372.47,8.31l.26.06c-.12-.03-.22-.06-.26-.06Z"/>
        <path class="cls-3" d="M373.27,8.5l-.54-.13c.19.05.42.11.54.13Z"/>
        <path class="cls-3" d="M365.89,6.53l-.08.02s.07,0,.08-.02Z"/>
        <path class="cls-3" d="M363.97,6.03c.46.13,1.13.39,1.77.53h.07c-.32-.04-1.39-.48-1.84-.53Z"/>
        <path class="cls-3" d="M356.13,3.23l1.59.5c-.27-.13-.61-.31.12-.11-1.97-.75.38.24-1.71-.39Z"/>
        <path class="cls-3" d="M351.19,1.7c.87.22.02-.09.07-.12-.56-.1-.7-.13-.07.12Z"/>
        <path class="cls-3" d="M313.86.59l.09-.25c-.69.03,0,.1-.09.25Z"/>
        <polygon class="cls-3" points="306.72 1.89 307.39 2.05 307.71 1.81 306.72 1.89"/>
        <polygon class="cls-3" points="302.5 .04 302.81 0 301.65 .09 302.5 .04"/>
        <path class="cls-3" d="M244.42,21.39l.36-.03c.21-.44,0-.72-.36.03Z"/>
        <path class="cls-3" d="M226.98,41.42c-.3.09-.94.5-1.25.87.49-.36,1.02-.66,1.25-.87Z"/>
        <path class="cls-3" d="M161.47,88.07l.28-.45c-.2.27-.38.54-.59.81.11-.12.21-.23.31-.35Z"/>
      </g>
      <g>
        <path class="cls-3" d="M433.16,52.95c0-.24-.03-.1-.04.55l.03.47v-1.01Z"/>
        <path class="cls-3" d="M432.78,57.32c-.09.76-.17,1.65-.03,1.17.04-.76.12-.94.14-1.76.06-.65.12-1.13.13-1.02.01-.23.1-1.01.07-1.37-.05.85-.18,1.92-.28,3.04-.05.24-.03,0-.03-.05Z"/>
        <path class="cls-3" d="M403.83,113.72l.2-.36c-.06.1-.13.22-.2.36Z"/>
        <path class="cls-3" d="M394.46,151.61c.15-.25.19-.37.17-.4-.13.24-.23.44-.17.4Z"/>
        <path class="cls-3" d="M389.99,156.44c.11-.1.19-.18.29-.27-.13.09-.25.18-.29.27Z"/>
        <path class="cls-3" d="M403.83,113.72c-.18.31-.33.63-.49.95.07.11.25-.49.49-.95Z"/>
        <path class="cls-3" d="M430.94,65.93c.06-.21.1-.39.14-.56-.05.18-.1.34-.15.52,0,.01,0,.02,0,.04Z"/>
        <path class="cls-3" d="M412.19,98.37l.18-.27c.03-.09.05-.19.07-.28l-.24.54Z"/>
        <path class="cls-3" d="M419.5,87.2c-.17.25-.07.43-.07.57.03-.18.12-.39.25-.62-.03-.02-.08,0-.18.05Z"/>
        <path class="cls-3" d="M429.55,68.62l.12-.36c-.03.09-.08.25-.12.36Z"/>
        <path class="cls-3" d="M407.09,106.51s-.09.03-.13.07c.03.01.07-.01.13-.07Z"/>
        <path class="cls-3" d="M134.3,279.24s0-.01.01-.01c-.05-.06-.07-.08-.01.01Z"/>
        <path class="cls-3" d="M127.9,265.12l.06.21s.02.04.03.04l-.09-.25Z"/>
        <path class="cls-3" d="M381.54,165.85s.02-.03.03-.05c.13-.32.04-.15-.03.05Z"/>
        <path class="cls-3" d="M305.71,246.3c.74-1.05-.95,1.86.13.26-.12.13.72-1.61-.13-.26Z"/>
        <path class="cls-3" d="M430.82,66.26c-.06.17-.12.34-.18.52.08-.24.14-.39.18-.52Z"/>
        <path class="cls-3" d="M305.84,246.56h0s.11-.16.11-.16c-.05.07-.07.11-.11.16Z"/>
        <path class="cls-3" d="M367.12,189.24c.08,0,.18-.05.3-.1-.03-.02-.1,0-.3.1Z"/>
        <path class="cls-3" d="M379.36,173.12l-.18.51c.08-.2.14-.37.18-.51Z"/>
        <path class="cls-3" d="M358.8,196.32c-.24.15-.34.18-.63.44.04-.01.07-.02.11-.04.09-.11.23-.24.52-.39Z"/>
        <path class="cls-3" d="M349.46,202.9c.06-.02.14-.05.2-.08.09-.07.2-.15.29-.22l-.5.29Z"/>
        <path class="cls-3" d="M161.55,300.67c-.23-.14-.37-.25-.47-.35.14.2-1.53-.28.47.35Z"/>
        <path class="cls-3" d="M430.89,65.92c0,.07-.02.17-.06.34.04-.13.07-.25.11-.37,0-.04-.01-.05-.04.03Z"/>
        <path class="cls-3" d="M359.67,198.31l-1.51,1.03c.43-.27.98-.65,1.51-1.03Z"/>
        <path class="cls-3" d="M239.18,276.44l-.35.23c.14-.08.26-.16.35-.23Z"/>
        <path class="cls-3" d="M353.72,202.45c-.32.11-.64.26-.95.43-.05.06-.11.12-.14.17l1.09-.6Z"/>
        <path class="cls-3" d="M161.08,300.32h0s0,0,0,0Z"/>
        <path class="cls-3" d="M149.96,295.31c1.44,1.01.81.28,1.19.37,1.81,1.06.73.66,1.28,1.14,1.18.6,2.14.94,3.02,1.38.05.07.22.16-.01.12.68.2,1.62.62,2.6,1.05.98.42,2.06.67,2.87.81.11.06.16.1.19.13-.22-.21-.22-.36-.14-.44.74.27,1.45.19,1.7.42-.47-.09-.53-.03-.77-.02l.83.08c.69.39-1.14-.11-1.18.05.81.14,1.69.21,2.51.31.41.07.81.08,1.19.08.38.01.73.03,1.04.07.25.28-2.92-.09-1.27.25-.65-.04-1.27-.27-1.9-.4,1.39.67-1.16-.25.11.43.64.13,1.13.27,1.56.28.43.01.8.02,1.16.03.73.01,1.45.06,2.74-.02.57-.19-.2-.21.36-.39.9-.1,1.51-.21,1.99-.26.48-.04.81-.01,1.12.01.63.08,1.11.05,2.35-.46.62-.35.75-.78,2.57-1.2l-.5.51c2.32-.77,1.14-.91,3.59-1.6-.36.29-1.73.78-1.38.69,1.63-.35,1.02-.59,2.18-1.05l.35.17c2.36-.98,4.85-2.23,7.52-3.01-.12.13-.55.35.09.26.82-.3,1.7-.49,2.59-.68.89-.22,1.8-.32,2.71-.39.46-.04.91-.08,1.36-.12.48-.03.95-.06,1.42-.1.47-.03.94-.06,1.4-.09.46-.06.91-.11,1.35-.16l1.28-.5c.31-.07.6-.03.27.11,1.38-.25.03-.18.65-.45.76-.22,1.05-.12.58.09,1.17-.4,2.78-1.12,4.35-1.93,1.55-.85,3.02-1.83,4.13-2.45l-.36.35c1.67-1.05,1.47-1.75,3.08-2.52l-.26.22c1.73-1.11,3.63-2.02,5.6-2.46.49-.1.97-.23,1.46-.28.49-.05.96-.09,1.42-.14.92-.08,1.9-.18,2.74-.21.28-.24,1.33-.48,2.33-.74.97-.34,1.9-.69,1.94-.94,2.31-.81,1.75-.4,4.83-1.92.8-.45,1.05-.91,2-1.51l.13.17,1.19-.97.82-.21.87-.58c-.36.21-.81.38-.78.3,1.36-.93,3.5-1.9,3.58-1.84,1.09-.69,2.19-1.33,3.31-1.94-.05.09-.61.39-1.04.68,1.74-1.1.41-.01,2.02-.97-.24.07.08-.15.11-.2.22-.08.51-.19.83-.33.33-.12.71-.26,1.1-.41.39-.16.8-.32,1.2-.48.4-.15.81-.27,1.18-.4l-.25.19c.68-.19,1.36-.44,2.07-.61.72-.16,1.45-.32,2.2-.48,1.51-.2,3.07-.43,4.66-.37-1.13-.04-.88-.2.06-.21l.37.13c.61-.08-.97-.05.27-.15,1.2.02.79.15.11.19l1.47-.03c.09.04-.26.05-.36.1.61-.07,2.57.19,3.46-.07l.09.03c.41-.03.79-.07,1.16-.1.36-.07.7-.14,1.02-.2.32-.06.62-.13.92-.18.29-.08.56-.19.83-.28.27-.09.53-.18.8-.28.26-.1.51-.25.77-.37.26-.13.53-.26.8-.41.26-.17.52-.35.81-.54,0-.09.85-.72,1.41-1.29,1.48-1.27,3.02-2.74,5.08-3.68.7-.39.83-.37.82-.41,0-.02-.11,0,.23-.14.07.02.64-.16,1.06-.28.43-.08.7-.12.13.02.67-.14,1.22-.25,1.72-.35.5-.1.97-.11,1.45-.17.48-.04.99-.13,1.59-.13.61,0,1.31-.02,2.19-.04-.38-.03-.81-.05-.59-.07.63-.01,1.45.03,1.36.07h-.17c2.01.04,4.37-.27,6.45-1.14,2.09-.84,3.84-2.15,4.94-3.32l-.13.13c.4-.38.79-.79,1.15-1.21.38-.41.72-.84,1.06-1.27,1-1.15-.54.74.23-.08,2.12-2.88,3.33-4.55,4.78-7.08,1.47-1.76,4.02-6.92,5.83-9.37l-.17.1c.33-.71.54-.78.87-1.25-.1.03-.53.67-.31.24,1.72-2.82,3.66-5.65,5.91-8.22,2.24-2.57,4.72-4.92,7.41-6.9,1.98-1.47.69-1.39,3.4-3l-.57.72c3.86-3.2,8.42-5.84,12.37-8.78-.21.22-.17.29-.57.56.98-.4,3.22-2.11,3.14-2.26.65-.41.23.03.68-.16.94-.47,2.04-1.67,2.62-1.8.1-.02-.21.22-.36.34.51-.46,2.66-1.73,1.98-1.58,1.61-.93,2.89-2.06,4.19-2.77.64-.77,2.7-1.68,2.72-2.19.13.42,2.87-1.58,3.7-2.44-.24.34.91-.49.64-.07,1.09-.78,2.03-1.59,1.71-1.63,2.32-1.05,3.7-3.35,5.21-3.7,2.95-2.73,5.62-5.34,7.95-8.12.29.44-2.73,2.94-2.3,3.15,2.33-2.58,3.38-4.3,5.45-7.06.57-.7-.12.53-.23.83.97-1.46,1.8-2.97,2.51-4.49.32-.78.64-1.56.82-2.37.22-.85.36-1.48.5-2.22.04.02,0,.33-.04.63.14-.55.42-1.25.2-1.26l-.09.55c-.27.4-.28-.19-.23-.92.05-.72.29-1.53.21-1.62.11.57.42-.09.71-.67.27-.6.66-1.04.66-.2.13-.35.26-.81.08-.8.3-.48.45-.59.34-.02.82-1.85.3-1.33,1.31-2.89.08.07-.09.4-.09.63.31-.91.73-1.79,1.8-2.97,0,.12.16.02-.13.39,1.72-2.1,2.78-3.81,5.06-5.89-.3.98.84-.65,1.24-.5l1.03-1.34-.59.38c.5-.54.89-1.12,1.25-1.69.36-.57.74-1.08,1.13-1.59-.15.34-.31.68-.5,1,.54-.75.99-1.58,1.48-2.36l-.98,1.24c.63-1.37-.49-.13.63-1.72-.14.37.67-1.29,1.23-1.87h0c.16-.72.29-1.46.77-2.43.22-.22.33.35.47.2-.1-.79.87-3.37.59-4.34.03.31.23.36.28.27l-.16-.64c.19-.66.24-.75.38-.62.35-2.02-.54.57-.04-1.78,0,.19.05.1.05.5.37-2.37.33-4.62.7-6.8.44-.6-.12,1.92.27,1.22.27-3.16.3-6.57.94-9.56l-.14.55c-.43-.51.65-2.19.77-3.73-.05.38.16.55.13.43.55-2,.9-4.16,1.92-7.16l-.03.41c.51-1.12,1.28-2.97,1.89-4.15.07-.4.42-1.08.06-.74,2.37-3.39,3.42-7.09,5.82-9.92-.23.37-.47.93-.29.64.51-.9,1.05-1.79,1.59-2.68-.28.11-.31.29-.78.76.13-.39.55-1.17.97-1.81-.68,1.23.24.14.64-.31-.1.06-.03-.15-.1-.14,1.14-1.2-.13-.42,1.26-2.16v.15c.43-.72.76-1.42,1.28-2.16.36-.21-.42.79-.32.92.69-1.06,1.07-2.28,1.83-3.14-.25.48-.66,1.13-.91,1.61.85-.94.88-1.09,1.4-1.85l-.05.07c.41-.59.82-1.17,1.21-1.77l-.33.44c.44-1.59,1.63-2.78,2.46-4.77-.83,1.91-.05.37.03.6.32-.45.78-1.13.7-.91.39-.94.93-1.41,1.44-2.76.08-.03.52-.94.53-.68.59-1.17-.23.23-.23.1.83-1.84,2.39-4.11,3.44-6.84.95-2.32,1.03-2.79,1.85-4.97.35-.7-.12.64-.12.64.55-1.14.83-2.06,1.21-3.19-.06.24.05.01.21-.32.28-.92.09-.65.51-1.84-.03.22-.07.5-.17.95.15-.54.3-1.09.45-1.63.13-.55.26-1.11.39-1.68.12-.29-.11.7-.19,1.11.35-1.27.74-3.33.76-3.73l-.2.82c.1-.47.1-.23.04.12-.17,1.12-.38,1.58-.42,1.63.06-.27.14-.54.19-.81-.33.8-.83,3.23-1.37,4.82l.09-.71c-.14.56-.28,1.11-.45,1.66-.16.33-.32.54-.05-.24-.48,1.1-.32,1.01-.76,1.95-.06.1-.04.05,0-.05l-.41,1.1c.06-.22-.18.14.12-.52-.88,1.9-1.23,3.15-1.68,3.82l.06-.16c-1.18,2.66,0,.31-.8,2.35l-.97,1.16v.32c-.14.27-.43.78-.43.66-.43,1.03.15-.14-.07.48-.78,1.22-1.84,3.54-2.23,3.7-.14.51.76-1.16.08.23-.46.25-.83,1.58-1.63,2.65.07-.43.78-1.46-.01-.4-.18.82-1.36,2.18-1.92,3.14.16.16-1.19,2.11-2.15,3.72,0-.14-2.02,2.88-3.09,4.26v-.07c.02.42-1.02,1.89-1.69,3.01-.11-.13-.03-.36.3-.99l-.68,1.03c-.09.29-.26.64-.68,1.32v-.37c-.89,1.38-1.59,2.91-2.8,4.64.12.21,1.33-1.15.33.84-.14.01-.34-.01-.09-.54-.08.17-.27.63-.5.94l.29-.86c-.56.79-.12.51-.52,1.16-.13-.09-.39.43-.44.27.09-.18.4-.54.49-.83-.47.73-1.08,1.59-1.35,1.84.12-.02.19.11-.09.67-.78,1.45-.44.4-.98,1.2-.1.4-.66,1.29-.45,1.43-.22.43-.36.46-.51.6-.32.79-1.62,3.65-.99,2.87l.1-.19s-.03.08-.05.13h0s0,0,0,0c-.87,2.65-2.24,5.36-2.81,8.09l-.09-.03c-.13.82-.33,1.72-.49,2.57-.13.85-.24,1.65-.25,2.24-.08.48-.35,1.11-.43.89-.12,1.26-.05,1.41-.44,3.2,0-1.28-.21.41.05-1.3-.29,1.61-.52,1.96-.46,3.74-.18-.62-.46,1.19-.48,1.97l.31-1.12c-.07.87-.17,1.63-.28,2.4l-.28-.45c-.39,1.64-.39,3.15-.41,4.56,0,.71-.08,1.35-.17,1.99-.12.63-.22,1.26-.57,1.81,0,.44.17.03.32-.4.12-.44.24-.89.32-.48-.11.75-.51,1.44-.78,2.02-.29.57-.53,1.02-.61,1.24-.93,1.78-.13,1.97-1.26,3.8.22-.19.68-.25-.02,1.23-.88,1.26-1.45,1.26-1.02.42.19-.3.31-.43.34-.39.23-.42.51-.99.08-.56v.23c-.25.27-.66.84-.98,1.27-.32.43-.63.69-.56.45-.59.95-.13.5.44-.12-1.3,1.4-1.86,2.33-3.33,3.7.27-.18.59-.29.36-.06-2.16,2.01-.73,1.1-2.1,2.58-.94.68-.04-.63-1.35.96-.97.81-.43-.04-.16-.47-.57.75-1.2,1.37-1.77,1.92-.59.52-1.11,1-1.47,1.43l.55-.87c-.33.52-.64.92-.96,1.32l.56-.3c-.4.44-.71.84-.79.77-.22.6.59-.14.11,1-.27.29-.57.81-.85,1.27-.29.45-.49.88-.71.91.62-1.08.57-1.03.4-1-.15.04-.36.12.2-.79-.18.37-.49.77-.79,1.3-.08.06-.02-.11.04-.27-.7,1.01-.74,1.31-.76,1.62,0,.16,0,.32-.08.58-.05.27-.15.65-.38,1.22-.06-.37-.55.41-.66.81.37-.94.47-.33.28.56-.58,1.47-.36,1.68-.59,2.47l.32-.89c.1.34-.14,1.14-.35,2.12-.17.04.15-.91,0-.58.02,1.19-1.01,2.33-1.57,3.8-.44.59-.32-.09-.72.42-.69,1.64-1.19,1.49-2.12,3.1.53-.27.54-.39-.08.81.61-.84,1.14-1.73,1.67-2.61-.27.61-.54,1.23-.84,1.84.54-.77,1.02-1.7,1.32-2.17-.31.92-.33.8.09.53-.5.44-.83.99-1.15,1.58-.35.57-.71,1.18-1.28,1.68l-.44-.43c-1.63,1.52-2.4,3.19-4.64,5.11l.76-.57c-.13.44-1.3,1.27-1.95,1.97-.07-.21-.56.13-.95.31.14.09-1.64,1.4-1.6,1.86l-1.18.64c-1.91,1.41-1.79,2.13-3.66,3.47.43-.58-.48-.06.65-1.11-.6.47-1.18.85-1.11.96-.43.18-1.55,1.48-2.23,1.75-.21.26-.18.48-.89.97-.1.02-.05-.08-.05-.08.05.08-1.03.89-.29.62-2.25.92-5.4,3.83-7.39,4.59-1.35,1-3,2.17-4.26,3.04.05-.1-.04-.08.21-.22-1.84,1.04-.8,1.14-2.89,2.32-1.17.45.97-.83.28-.5-.59-.28-2.36,1.68-3.87,2.31l.3-.25c-1.12.54-2.37,1.87-4.05,2.98,0,0,.05-.09-.04-.07-.98,1.01-3.07,2.57-4.6,3.77.37-.51.65-.6.24-.55-.69.53.39.11-.98,1.17-.52.25-1.58.92-1.83.85l1.31-.99c-.83.28-1.7,1.28-2.41,1.77l.02-.16c-.99.78-1.43,1.25-1.9,1.72-.48.46-.96.96-1.99,1.84l.27-.12c-.94,1.17-1.01.73-1.96,1.88l-.5.14c-.64.75-2.18,2.66-3.22,4.07.48-.89,1.73-2.52,2.54-3.51-.69.69-2.19,2.48-2.4,2.96.23-.32.49-.75.78-1.01-.63,1.03-1.54,2.3-2.68,3.84-.07-.27-.85.72-1.68,1.94-.84,1.21-1.74,2.64-2.23,3.16-1.66,2.98-3.44,5.81-5.36,9.26.91-1.09-.56,1-.22.92-.45.8-.63,1.1-.69,1.17-.52.77-1.04,1.54-1.57,2.3-.4.52.41-.77.32-.73-1.07,1.7-.52.66-1.29,1.74.21-.18-.27.66-.95,1.57.33-.42.67-.83.99-1.27-.73,1.2-1.11,1.67-1.51,2.12-.4.46-.79.92-1.65,2.02l.51-.73c-.44.57-1.28,1.59-2.24,2.48-.45.48-.98.87-1.4,1.26-.46.35-.85.66-1.12.89-.23.1-.54.23-.01-.1-1.43.91-3.17,1.68-4.95,2.01-1.77.35-3.49.25-4.87.24l.27-.05c-.66.03-1.14.06-1.96.07.04-.02.26-.07-.04-.04-.35.07-1.74.19-2.6.33.24-.07.48-.13.73-.16-3.43.42-5.23,1.38-7.46,3.17-.12-.16-2.15,1.65-3.17,2.43l.02-.04c-3.02,2.36-5.84,2.84-9.43,2.91-.56-.06-1.31-.12-2.19-.17-.9-.03-1.92-.06-2.99-.09-1.06.09-2.18.14-3.25.28-1.06.21-2.11.32-3.01.54.56-.11-.05.19-.68.39-.42.1-.99.29-1.44.45-.44.18-.77.3-.74.18l.29-.1c-.68.03-2.37.67-3.64,1.26l-.09.36c-1.76.54-3.85,1.69-5.71,2.79-1.86,1.11-3.51,2.14-4.48,2.4-.71.48-1.64,1.02-2.36,1.48l-.05-.2c-.53.25-1,.48-1.44.69-.45.19-.87.37-1.3.55-.86.4-1.81.72-3.16,1.18.17-.09.34-.21.5-.32-.76.25-1.21.47-1.65.76-.22.14-.44.29-.69.41-.26.1-.56.18-.93.23l-.49-.28c-.66.09-1.45.15-2.21.21-.76.03-1.53.2-2.29.32-.76.14-1.51.4-2.24.66-.71.32-1.42.64-2.04,1.1.02-.07.05-.21.48-.46-.33.17-.8.41-1.33.68-.49.3-1.07.62-1.52.94-.93.64-1.58,1.2-1.23,1.26-.24-.24-2.42,1.72-3.71,2.53l.09-.33c-.97.89-.98.99-2.62,1.77-.42.11-.43-.06.13-.19-1.4.32-.95.66-2.69.96l.59-.32c-1.44.34-1.29.44-2.06.77-.45.13-1.15.24-1.77.3-.62.06-1.16-.02-1.28-.11-.18.16-.98.43-1.86.46-.12-.07.19-.16.35-.2-1.26.06-2.23.27-3.06.43-.84.18-1.55.44-2.45.49-.05-.07-.18-.09-.33-.08,1-.21,1.91-.42,2.55-.52.65-.08,1.02-.12.95-.1-.03-.23-1.7-.05-.42-.53-.67.14-1.53.49-2.43.79-.91.27-1.82.61-2.61.8-.08,0-.16,0-.23-.01l.15-.07c-.36.08-.68.2-.97.33-.51.11-.81.21-1.28.37-.24-.11-1.83.53-2.58.85.15.2-.86.56.15.38-.13.03.13-.08.63-.29.11-.05.24-.11.31-.15-.01.01-.03.03-.04.04.51-.19,1.16-.43,1.91-.7-.57.34-1.17.65-2.06.84-.33.3-.7.62-.92.78-1.16.09-3.2.74-3.56.66-2.23,1.07-5.33,2.14-6.71,2.89-.65.25-.8.06-1.07.05.38-.1.84-.21,1.03-.34-.64.27-1.65.4-2.51.62-.87.19-1.62.24-1.78.41-1.74-.02.95-.3-1.41-.15.11-.03.21-.04.32-.08-.58-.08-1.13-.14-1.66-.17-.53-.04-1.04-.03-1.54-.13-.5-.07-.99-.12-1.48-.17l-.73-.07c-.24-.04-.48-.1-.72-.15-.48-.11-.97-.23-1.47-.34-.5-.12-1.01-.24-1.51-.47-.5-.21-1.02-.44-1.56-.7-.53-.27-1.1-.52-1.63-.92.3.21.45.31.5.38-5.22-2.91-10.6-6.54-14.57-10.98-1.17-1.21-1.33-1.32-2.09-2.02l-.14-.37c-.42-.41-.88-.8-1.27-1.24-.8-.96-1.46-1.83-2.06-2.83-.63-.99-1.33-2.02-2.22-3.32l.16.38c-.64-.95-1.86-3.1-1.72-2.96-.07-.1-.24-.29-.42-.71l.02-.05c-.45-.82-.91-1.63-1.3-2.48-.88-1.99.23.27-1.01-2.64-.48-1.08-1.17-3.14-1.04-2.72.13.46.35,1.16.35,1.2-.12-.34-.23-.68-.33-1.03-.08-.18-.39-.96.33,1.6.22.58.41,1.16.66,1.73l.18.57c-.18-.49-.39-.97-.55-1.46.26.85.5,1.36.75,1.94.04.15.12.39.26.74.27.54.53,1.09.83,1.62.05.22-.43-.7.07.42.42.75-.26-.78.38.47.34.82.18.62.72,1.51.04.15-.09-.04-.29-.4.47.8,1.17,2.16,1.51,2.52.2.42.61,1.09.95,1.65.36.55.65.99.56,1,.21.21.99,1.3,1.54,1.96-1.11-1.12,1.91,2.57,1.49,2.38.45.38,1.15,1.16,1.91,2.03.77.86,1.68,1.75,2.43,2.45-.09-.07-.28-.2-.39-.34.78.86.98,1.13,1.5,1.67.26-.06,1.6,1.13,2.43,1.65.96,1.05-.84-.34-.62.09.04-.16,2.03,1.41,1.75.99.76.78.69.63,1.01,1.14.32-.11.82.6,1.68.94,1.2,1.01.17.47,1.64,1.37.62.55-.7-.23-.7-.23ZM188.82,294.75h0c-.33.11-.61.19-.79.25.16-.05.39-.12.78-.25ZM192.07,293.98c-.4.08-.89.18-1.42.29-.13-.06-.03-.17.3-.24-.17.09.62-.02,1.12-.06ZM184.68,294.32c.5-.22.69-.23.78-.21-.24.09-.52.2-.89.35-.01.01-.04.04-.05.05.03-.06.07-.12.16-.19Z"/>
        <path class="cls-3" d="M183.87,294.96c-.07.03-.11.06-.2.1.11-.02.21-.05.32-.07.05-.05.1-.1.15-.14-.09.04-.19.08-.27.11Z"/>
        <path class="cls-3" d="M404.06,113.29l-.03.06c.03-.05.06-.1.09-.12-.03.04-.04.04-.06.06Z"/>
        <polygon class="cls-3" points="235.98 278.48 235.95 278.44 235.72 278.63 235.98 278.48"/>
        <path class="cls-3" d="M413.97,97.38s.09-.07.18-.18c-.02,0-.09.08-.18.18Z"/>
        <path class="cls-3" d="M418.41,90.6l.67-.93c-.29.41-.5.7-.67.93Z"/>
        <path class="cls-3" d="M421.72,85.31c.01-.08,0-.11,0-.14,0,0,0,.01,0,.01v.13Z"/>
        <path class="cls-3" d="M381.41,173.19c-.02.08-.04.15-.05.23-.09.53-.01.18.05-.23Z"/>
        <path class="cls-3" d="M397.16,149.08c-.1.31-.19.61-.32.92.27-.47.46-.84.32-.92Z"/>
        <path class="cls-3" d="M359.84,198.19h0c-.06.04-.11.07-.17.11l.17-.11Z"/>
        <path class="cls-3" d="M396.19,151.25c.3-.45.49-.86.65-1.25-.22.38-.48.83-.65,1.25Z"/>
        <path class="cls-3" d="M432.39,60.55l.06-.29s0-.01,0-.04l-.06.33Z"/>
        <path class="cls-3" d="M432.45,60.22l.06-.33c-.03.15-.06.28-.06.33Z"/>
        <path class="cls-3" d="M432.63,59.2l-.13.69c.05-.24.11-.53.13-.69Z"/>
        <path class="cls-3" d="M430.01,68.47v.1c.01-.05.01-.09,0-.1Z"/>
        <path class="cls-3" d="M429.09,70.81c.23-.55.64-1.36.92-2.15v-.08c-.08.39-.77,1.68-.92,2.24Z"/>
        <path class="cls-3" d="M423.99,79.95l1.03-1.82c-.22.3-.51.69-.07-.16-1.4,2.24.37-.42-.96,1.98Z"/>
        <path class="cls-3" d="M420.64,85.51c.55-.98-.09-.04-.09-.11-.32.64-.4.8.09.11Z"/>
        <path class="cls-3" d="M399.89,127.44l-.23-.15c-.1.87.09.02.23.15Z"/>
        <polygon class="cls-3" points="400.07 136.53 400.32 135.71 400.13 135.28 400.07 136.53"/>
        <polygon class="cls-3" points="397.59 141.55 397.62 141.18 397.48 142.58 397.59 141.55"/>
        <path class="cls-3" d="M351.01,201.56l.38.09c.45-.38.37-.71-.38-.09Z"/>
        <path class="cls-3" d="M323.35,221.57c-.37.15-1.12.77-1.48,1.27.57-.53,1.19-1,1.48-1.27Z"/>
        <polygon class="cls-3" points="243.08 272.63 243.68 272.26 242.53 272.89 243.08 272.63"/>
      </g>
      <g>
        <path class="cls-3" d="M85.43,114.82c.07-.03.03-.04-.18.02l-.14.07.32-.09Z"/>
        <path class="cls-3" d="M84.01,115.07c-.24.08-.51.21-.34.23.23-.12.29-.12.54-.24.21-.05.37-.07.34-.04.07-.03.32-.07.43-.12-.28.03-.62.1-.97.22-.08,0,0-.03,0-.04Z"/>
        <path class="cls-3" d="M63.9,120.74l.14-.02s-.09,0-.14.02Z"/>
        <path class="cls-3" d="M51.89,122.08c.09.03.14.01.15-.02-.09-.01-.16-.02-.15.02Z"/>
        <path class="cls-3" d="M50.23,120.78s.06.06.09.08c-.02-.05-.05-.09-.09-.08Z"/>
        <path class="cls-3" d="M63.9,120.74l-.36.05c.01.1.19,0,.36-.05Z"/>
        <path class="cls-3" d="M81.27,115.98c.07-.02.12-.05.17-.08l-.17.06v.02Z"/>
        <path class="cls-3" d="M69.22,118.61l.1-.03s.04-.08.05-.12l-.15.15Z"/>
        <path class="cls-3" d="M73.42,117.33c-.1.02-.08.2-.09.28.03-.08.09-.14.17-.17,0-.03-.03-.07-.08-.11Z"/>
        <path class="cls-3" d="M80.23,115.85l.12-.04s-.08.03-.12.04Z"/>
        <path class="cls-3" d="M66.22,119.57s-.04-.05-.07-.06c.01.03.03.05.07.06Z"/>
        <path class="cls-3" d="M16.43,179.22s0,.01-.01.01c.03,0,.04,0,.01-.01Z"/>
        <path class="cls-3" d="M20.05,182.78l-.06-.04s-.02,0-.02,0l.08.04Z"/>
        <path class="cls-3" d="M47.05,118.2s0,0,.01.02c.12.03.06,0-.01-.02Z"/>
        <path class="cls-3" d="M10.55,125.71c.43-.05-.61.38.03.25-.07-.03.5-.35-.03-.25Z"/>
        <path class="cls-3" d="M81.16,116l-.17.05c.08-.02.13-.03.17-.05Z"/>
        <path class="cls-3" d="M10.58,125.96h0s.07,0,.07,0c-.03,0-.04,0-.07,0Z"/>
        <path class="cls-3" d="M37.02,119.57s.09.05.14.07c-.02-.02-.05-.05-.14-.07Z"/>
        <path class="cls-3" d="M44.19,117.78l-.21-.07c.08.03.15.06.21.07Z"/>
        <path class="cls-3" d="M33.98,121.55c-.09.02-.14,0-.23.09.02,0,.03.01.05.01.02-.05.07-.1.19-.11Z"/>
        <path class="cls-3" d="M30.62,123.06s.05.02.08.02c.03-.02.07-.04.1-.06l-.18.03Z"/>
        <path class="cls-3" d="M8.64,171.06c0,.1-.01.18-.03.25.08-.14.46.25.03-.25Z"/>
        <path class="cls-3" d="M81.26,115.93s-.04.05-.1.07l.12-.04s0-.03-.02-.03Z"/>
        <path class="cls-3" d="M34.76,123.52l-.57.21c.17-.05.38-.12.57-.21Z"/>
        <path class="cls-3" d="M2.55,146.44l.07.12c-.01-.05-.03-.1-.07-.12Z"/>
        <path class="cls-3" d="M32.53,124.49c-.14-.04-.27-.05-.39-.03-.02.03-.04.05-.04.09l.43-.06Z"/>
        <path class="cls-3" d="M8.61,171.31h0s0,0,0,0Z"/>
        <path class="cls-3" d="M11.48,173.92c-.37-.42-.34-.03-.52-.03-.5-.45-.08-.35-.14-.61-.32-.27-.7-.35-.9-.59.02-.05-.01-.1.07-.08-.45-.19-.86-.99-1.39-1.21,0-.05,0-.08,0-.1-.05.15-.15.25-.23.31-.16-.19-.43-.25-.36-.44.1.12.16.09.25.1l-.23-.15c.05-.35.3.22.44.1-.39-.34-.94-.66-1.12-1.03.15-.23.63.67.49.11l.31.54c.02-.62.21.3.27-.3-.44-.67-.64-.62-1.07-1.29-.22-.05-.14.18-.36.13-.88-.75.02-1.12-.73-1.59-.26-.07-.62.06-.78-.54h.37c-.37-.67-.62-.13-.85-.92.18.06.41.45.38.34-.05-.57-.35-.21-.54-.56l.21-.22c-.43-.67-1.03-1.36-1.4-2.16.1.01.24.11.25-.11-.55-.96-.7-2.23-.58-3.2l-.27-.36c0-.09.12-.16.17-.07.09-.37-.17-.02-.28-.21-.02-.22.18-.28.23-.14-.07-.32-.17-.82-.08-1.3.02-.22.09-.52.17-.78.08-.26.18-.5.31-.69l.03.18c.27-.64-.31-.84,0-1.41l.03.13c.08-.36.13-.73.18-1.1.05-.37.01-.75.03-1.11.04-.73-.03-1.39.09-1.97-.32-.17-.13-1.43-.58-1.44.04-.84.16-.62-.02-1.77-.08-.29-.39-.36-.54-.7l.2-.07-.37-.42.15-.32-.16-.31c.03.13,0,.3-.05.3-.26-.48-.29-1.28-.21-1.32l-.55-1.15c.08,0,.17.2.26.35-.38-.59.13-.16-.2-.7-.01.09-.11-.02-.15-.02.03-.32-.2-.97-.33-1.46l.13.07c-.19-.88-.43-1.87-.45-2.88-.04.36-.2.28-.21-.02l.13-.12c-.08-.2-.05.31-.15-.09.02-.39.15-.25.19-.03l-.05-.47s.06.09.11.12c-.1-.2.15-.78.06-1.07l.04-.02c.09-1.01.21-1.46.41-2.28-.08-.04,0-.36.04-.62.27-.56.54-1.2.88-1.86.22-.47.01-.17.08-.39.09,0,.45-.65.3-.28.22-.39.34-.65.51-.91.18-.25.39-.53.72-.99-.1.07-.2.17-.17.1.12-.17.32-.34.33-.3l-.03.05c.34-.55.99-.95,1.52-1.39.58-.39,1.18-.68,1.54-1.04l-.04.04c.27-.22.59-.38.88-.57.44-.2-.23.19.12.08.92-.68,1.65-.66,2.48-1.1.4.05,1.01-.1,1.66-.29.65-.17,1.34-.31,1.84-.28l-.07-.08c.23-.13.31,0,.5,0-.04-.07-.29-.05-.14-.12,2.11-.42,4.42-.21,6.62-.03.8.05.45-.66,1.47-.32l-.29.24c1.64-.27,3.33.18,5.04-.15-.1.07-.11.17-.27.17.38.18,1.45-.1,1.39-.29.27-.04.09.14.27.19.4.04.87-.45,1.1-.31.04.02-.08.1-.14.13.2-.17,1.08-.29.78-.46.66-.08,1.1-.51,1.63-.54.19-.39,1.04-.28.97-.7.14.41,1.13-.13,1.4-.47-.06.17.36-.02.3.21.4-.19.73-.44.56-.61.97.13,1.28-1.09,1.98-.67,1.06-.77,2.06-1.41,3.06-1.93.14.43-1.14.53-.9.95.9-.57,1.33-1.2,2.35-1.38.27-.01-.09.24-.14.34.93-.51,1.84-.39,2.5-.51-.01.04-.09.08-.16.1.13,0,.27.11.32-.1l-.14.04c-.07-.17.08-.32.32-.42.24-.06.53-.09.58-.16-.26.24-.06.35.09.48.16.15.27.3-.11.55.11.01.29-.01.33-.15.13.12.13.22-.1.28.59.19.53-.1,1.03.21-.06.09-.18.06-.3.13.36-.03.74,0,1.12.36-.06.04-.06.14-.19.05.77.49,1.59.45,2.36,1.15-.5.24.22.31.07.69.18.07.38.11.57.17l-.11-.28c.45.24.95.19,1.3.46h-.41s.9.3.9.3l-.44-.34c.54,0,.14-.48.7-.14-.14,0,.45.15.63.44h0c.27-.05.53-.09.86.05.07.14-.16.41-.12.5.3-.27,1.19.12,1.52-.24-.11.08-.13.28-.1.32l.22-.25c.22.09.26.14.21.3.7.07-.21-.48.6-.26-.06.02-.03.07-.17.11.83.06,1.57-.24,2.3-.29.28.33-.63.21-.33.48,1.1-.24,2.09-.94,3.09-1.19l-.19.03c-.04-.53.79-.05,1.19-.47-.1.08-.05.32-.04.25.7-.19,1.26-.67,2.16-1.22l-.07.16c.41-.07,1-.36,1.42-.48.08-.16.31-.23.11-.33,1.47.08,2.28-1.25,3.58-1.18-.13.05-.29.2-.18.16l.93-.44c-.13-.14-.16-.05-.41-.11.09-.14.34-.31.57-.39-.4.26.09.26.31.28-.05-.04,0-.11-.03-.16.6.11-.02-.35.73-.39v.09c.23-.13.44-.31.73-.38.17.14-.25.17-.22.32.39-.14.67-.59,1.08-.53-.15.1-.39.18-.54.28.45.07.48,0,.77-.06h-.03s.69-.13.69-.13h-.18c.36-.57.97-.4,1.57-.86-.58.44-.07.17-.07.36.18,0,.46-.04.4.03.27-.23.55-.07.94-.4.03.04.34-.1.3.05.4-.17-.12-.06-.1-.13.59-.35,1.53-.27,2.38-.74.76-.31.88-.48,1.6-.72.26,0-.17.18-.17.18.41-.05.71-.15,1.08-.28-.07.05.01.05.14.05.3-.09.18-.16.58-.22-.06.05-.14.12-.27.2.35-.13.69-.27,1.05-.39.11.02-.21.12-.33.19.41-.13,1.06-.33,1.18-.41l-.27.04c.15-.04.09.03-.02.07-.34.14-.52.11-.54.09l.26-.08c-.3-.08-1.06.28-1.58.42l.19-.18-.52.24c-.12,0-.22-.06.04-.15-.4.02-.32.13-.67.13-.04,0-.02-.01,0-.03l-.36.13c.06-.05-.09-.09.15-.12-.69.06-1.05.38-1.33.32l.05-.02c-.91.29-.06.15-.71.49l-.56-.22-.05.16c-.1.02-.29.06-.27,0-.33.19.08.05-.1.2-.5-.01-1.24.41-1.42.19-.13.17.46-.03,0,.19-.22-.24-.55.21-1,.2.08-.19.5-.21.05-.23-.18.32-.83.16-1.17.31.05.22-.74.31-1.3.56.01-.09-1.14.21-1.72.29v-.05c-.02.28-.6.41-.99.6-.04-.16.02-.24.22-.38l-.38.12c-.06.11-.17.19-.41.31l.03-.23c-.51.17-.95.57-1.65.66.04.21.71.34.07.73-.06-.09-.15-.26.01-.37-.05.03-.18.16-.31.16l.21-.27c-.32.03-.1.2-.34.27-.05-.15-.22-.04-.23-.18.06-.04.23-.01.3-.1-.28.07-.64.09-.79.01.06.08.08.2-.11.29-.5.2-.24-.12-.57-.09-.08.15-.45.16-.36.4-.15.05-.22-.04-.3-.09-.22.2-1.21.49-.81.63h.07s-.04.02-.04.02h0s0,0,0,0c-.74.58-1.82.61-2.6,1.02l-.03-.09c-.46.28-1.07.49-1.36.8-.15.04-.41-.06-.38-.19-.36.18-.38.29-.98.3.34-.27-.17-.11.36-.23-.52.06-.66-.05-1.14.29.13-.28-.43-.25-.65-.13l.38.12c-.26.08-.5.11-.74.11l.09-.35c-.52-.16-.94.02-1.37.19-.42.11-.84.19-1.18-.18-.29.21.52.21.26.47-.48-.06-.86-.69-.99-.7-.55-.3-.68.34-1.29.04.04.13.01.51-.52.42-.44-.24-.34-.72-.03-.7.11.03.14.09.12.13.16.02.36.04.24-.16l-.1.09c-.17-.21-.75-.44-.53-.57-.36-.05-.23.13-.01.29-.46-.43-.84-.41-1.31-.85.05.11.05.29-.03.24-.71-.62-.48,0-1.05-.31-.2-.37.37-.31-.26-.54-.26-.34.12-.32.31-.32-.63-.13-.82-.77-1.1-1.01l.33.1c-.2-.06-.33-.15-.47-.25v.32c-.12-.15-.26-.24-.2-.33-.26.03-.11.44-.57.41-.16-.25-.74-.31-.66-.64.66.54.1-.34.74,0-.14-.04-.28-.13-.43-.28,0-.05.06-.04.12-.03-.62-.68-.52.13-1.32-.26.19-.13-.07-.41-.24-.43.37.14.05.36-.31.38-.54-.32-.7-.03-1-.11l.36.13c-.15.19-.46.04-.84.15-.03-.15.36-.11.22-.17-.42.34-1.04-.32-1.6.05-.3-.07-.1-.34-.36-.37-.59.4-.77-.04-1.38.36.27.17.27.1-.09.49.31-.19.66-.34,1.01-.52l-.58.56c.32-.09.63-.36.83-.37-.27.3-.25.22-.05.38-.54-.23-.79.46-1.33.41l-.2-.58c-.85.03-1.17.82-2.12,1.1l.33-.04c-.02.27-.54.29-.78.52-.06-.19-.27-.17-.45-.22.08.12-.65.31-.55.7l-.5-.03c-.75.26-.55.9-1.26,1.18.11-.29-.25-.25.13-.61-.23.11-.44.18-.39.3-.18-.04-.51.54-.79.48-.06.12,0,.31-.27.42-.04-.02-.04-.08-.04-.08.04.08-.34.3-.03.38-.93-.19-1.95.94-2.75.71-.47.27-1.07.5-1.53.66.02-.06-.02-.08.07-.1-.67.01-.27.58-1.06.58-.42-.2.36-.23.11-.29-.2-.51-.85.21-1.39-.08l.12-.04c-.4-.17-.95.25-1.61.21,0,0,.03-.05,0-.08-.45.28-1.3.37-1.94.44.2-.2.29-.11.17-.31-.28.03.08.32-.49.38-.18-.11-.6-.19-.65-.4l.54-.02c-.28-.26-.7.03-.98-.01l.04-.12c-.83.06-.83.36-1.72.37l.09.08c-.47.29-.41-.14-.89.09l-.16-.25c-.32.1-1.11.32-1.67.42.31-.22.97-.35,1.38-.51-.32.03-1.08.11-1.23.25.13-.04.28-.11.41-.08-.38.22-.88.38-1.5.44.06-.48-1.65.11-2.15-.11-1.08.37-2.21.41-3.46.87.52.1-.36.12-.21.35-.29.11-.4.13-.43.13l-.91.21c-.23.02.25-.16.21-.2-.63.25-.3.02-.74.13.12.05-.17.19-.53.33.17-.06.36-.08.54-.12-.82.47-.81.2-1.61.75l.23-.21c-.2.15-.62.33-.98.61-.36.28-.71.56-.86.77-.08.03-.21.05-.04-.08-.51.3-.93.82-1.36,1.26-.46.42-.78.91-1.1,1.24l.02-.1c-.13.18-.17.35-.38.54,0-.02.02-.1-.05-.02-.07.1-.3.5-.44.75l.08-.24c-.6.98-.83,1.56-1.11,2.45-.12-.06-.52.75-.7,1.16v-.02c-.21.64-.35,1.19-.47,1.73-.05.55-.11,1.1-.17,1.71-.11.37-.19,1.02-.22,1.74.03.71.04,1.49.08,2.11.01-.19.17,0,.22.22-.01.3.27.76.07.75l-.02-.1c-.16.26,0,.83.09,1.29h.3c-.16,1.29.98,2.95.68,3.69.16.25.24.58.38.83l-.2.04c.11.76.15,1.13.31,2.03l-.18-.16c.06.51.72.56.77,1.05l-.33.17c.01.22.01.45,0,.68l-.11.67c-.05.44-.08.88,0,1.33-.05-.02-.15-.06-.14-.2-.04.2-.17.59-.22.91-.04.32-.09.58.2.57-.33-.06-.28.86-.27,1.41l-.21-.16c.18.58.25.61.2,1.27-.05.15-.21.11-.13-.09-.19.51.19.44,0,1.05-.06-.08-.09-.16-.14-.24-.05.54.07.5.25.79.08.33.03.99-.18,1.11.16.05.35.31.37.61-.07.06-.15-.04-.19-.09.04.91.61,1.17.58,1.8-.07.04-.1.09-.1.15-.23-.66-.39-1.19-.34-1.15-.23.06-.1.63-.53.27.32.4.9,1.02,1.04,1.54,0,.03-.02.06-.04.1l-.05-.04c.03.12.09.22.17.3.04.17.05.29.13.44-.14.14.21.61.33.87.2-.13.33.21.36-.19,0,.05-.05-.03-.14-.19-.03-.03-.05-.07-.08-.09h.03c-.09-.15-.2-.36-.33-.59.21.14.41.29.42.62.2.05.41.11.52.16-.12.48.1,1.19-.03,1.38.56.64,1.17,1.59,1.83,1.76.18.16.06.29.06.4-.12-.08-.21-.21-.3-.24.36.32.88,1.07,1.18.99.27.53-.42-.09.13.5l-.14-.03c.69,1.51,2.2,1.51,2.99,3.14-.06-.11-.09-.16-.08-.21,1.24,1.58,3.03,2.77,4.31,4.27.39.4.51.36.82.52v.18s.55.26.55.26c.69.47.91,1.13,1.85,1.64l-.06-.14c.29.24.95.71.86.72.04.02.13.03.23.14l-.02.04.77.51c.56.45-.18.04.68.64.33.21.95.58.83.49-.13-.09-.32-.24-.31-.26l.29.2c.09,0,.31.15-.32-.46l-.48-.36-.12-.16.38.34c-.19-.22-.35-.32-.52-.43-.02-.05-.07-.12-.16-.21l-.51-.32c-.02-.08.25.11-.03-.18-.24-.15.13.26-.23-.02-.18-.23-.09-.22-.37-.4-.01-.06.05-.03.16.05-.25-.17-.59-.53-.76-.57-.16-.27-.77-.67-.64-.77-.09-.04-.47-.27-.68-.45.51.19-.74-.72-.48-.82-.41-.1-1.02-.88-1.58-1.25.04.01.12.03.15.08-.25-.28-.27-.41-.4-.62-.18.12-.62-.26-.94-.38-.17-.48.38,0,.42-.24-.11.15-.67-.44-.68-.21-.14-.35-.16-.27-.14-.54-.25.17-.25-.2-.59-.28-.24-.47.12-.3-.32-.64-.11-.26.3.02.3.02ZM3.58,163.75h0c.05.1.09.18.11.23-.02-.05-.06-.12-.12-.23ZM3.21,162.75c.03.13.08.28.14.44-.07.06-.16.06-.19-.05.07.04.04-.22.06-.39ZM2.55,165.6c-.12-.15-.1-.23-.07-.27.04.08.1.16.17.27h.04s-.1.01-.14,0Z"/>
        <path class="cls-3" d="M2.99,165.75s.03.03.05.06c0-.04,0-.08,0-.12l-.1-.02s.03.06.05.09Z"/>
        <path class="cls-3" d="M64.06,120.72h-.02s.04,0,.06.02c-.02,0-.02-.01-.04-.02Z"/>
        <polygon class="cls-3" points="3.05 147.6 3 147.62 3.07 147.7 3.05 147.6"/>
        <path class="cls-3" d="M70.08,119.31s.04.02.09.02c0-.01-.05-.02-.09-.02Z"/>
        <path class="cls-3" d="M72.6,118.5l.37-.05c-.16.02-.28.04-.37.05Z"/>
        <path class="cls-3" d="M74.55,117.96s.02-.06.02-.08h0v.08Z"/>
        <path class="cls-3" d="M44.07,119.79s-.04,0-.05,0c-.12.03-.04.03.05,0Z"/>
        <path class="cls-3" d="M52.59,123.52c-.12.02-.23.04-.35.04.17.07.3.12.35-.04Z"/>
        <polygon class="cls-3" points="34.82 123.49 34.82 123.49 34.76 123.52 34.82 123.49"/>
        <path class="cls-3" d="M51.79,123.41c.15.13.3.14.45.15-.14-.07-.3-.13-.45-.15Z"/>
        <path class="cls-3" d="M83.02,115.49l.1-.02s0,0,0-.01l-.1.04Z"/>
        <path class="cls-3" d="M83.12,115.46l.1-.04s-.09.03-.1.04Z"/>
        <path class="cls-3" d="M83.45,115.35l-.22.07c.08-.02.17-.04.22-.07Z"/>
        <path class="cls-3" d="M80.42,116.18l-.02.04s.02-.03.02-.04Z"/>
        <path class="cls-3" d="M79.63,116.42c.19-.04.49-.06.75-.16l.02-.04c-.11.09-.6.08-.76.19Z"/>
        <path class="cls-3" d="M76.18,116.77l.68-.13c-.13-.02-.3-.06,0-.14-.89.05.21.07-.67.28Z"/>
        <path class="cls-3" d="M74.09,117.23c.35-.12-.03-.09-.02-.13-.21.12-.26.15.02.13Z"/>
        <path class="cls-3" d="M59.55,122.23l-.04-.25c-.25.11.03.09.04.25Z"/>
        <path class="cls-3" d="M56.93,124.12c.1.04.21.1.31.13l.11-.26c-.14.06-.27.09-.42.13Z"/>
        <polygon class="cls-3" points="55.18 122.31 55.29 122.28 54.87 122.35 55.18 122.31"/>
        <path class="cls-3" d="M31.14,122.61l.19.24c.15-.12.06-.43-.19-.24Z"/>
        <path class="cls-3" d="M20.49,124.17c-.13-.1-.44-.16-.64-.04.25,0,.51.07.64.04Z"/>
        <polygon class="cls-3" points=".66 145.21 .55 145 .7 145.4 .66 145.21"/>
      </g>
    </g>
  </g>
</svg>