<?xml version="1.0" encoding="UTF-8" standalone="no"?><!DOCTYPE svg PUBLIC "-//W3C//DTD SVG 1.1//EN" "http://www.w3.org/Graphics/SVG/1.1/DTD/svg11.dtd"><svg width="100%" height="100%" viewBox="0 0 684 596" version="1.1" xmlns="http://www.w3.org/2000/svg" xmlns:xlink="http://www.w3.org/1999/xlink" xml:space="preserve" xmlns:serif="http://www.serif.com/" style="fill-rule:evenodd;clip-rule:evenodd;stroke-linejoin:round;stroke-miterlimit:2;"><path d="M627.741,342.508l-36.08,-0l0,-15.93l92.311,0l0,15.93l-36.398,-0l-0,100.036l-19.833,0l0,-100.036Zm-610.252,-309.07l1.916,51.651l0,38.549l-19.405,-0l0,-115.966l25.304,-0l32.679,89.443l32.601,-89.443l25.382,-0l-0,115.966l-19.483,-0l0,-38.549l1.918,-51.702l-33.587,90.251l-13.817,-0l-33.508,-90.2Z" style="fill:#1a1a1a;"/><path d="M347.902,131.31c-0.949,0 -1.914,-0.176 -2.849,-0.55l-207.289,-82.916c-3.931,-1.572 -5.846,-6.04 -4.273,-9.971c1.572,-3.93 6.04,-5.845 9.971,-4.273l204.44,81.776l287.066,-114.826c3.931,-1.572 8.399,0.342 9.971,4.273c0.391,0.979 0.567,1.99 0.548,2.982l0,289.782l-15.341,-0l0,-278.585l-279.395,111.758c-0.935,0.374 -1.9,0.55 -2.849,0.55Zm-0,463.864c-0.949,0 -1.914,-0.176 -2.849,-0.55l-289.915,-115.966c-3.043,-1.218 -4.878,-4.171 -4.822,-7.266l0,-318.763l15.342,0l-0,313.714l282.244,112.897l287.066,-114.826c3.931,-1.573 8.399,0.342 9.971,4.273c1.572,3.931 -0.343,8.399 -4.273,9.971l-289.915,115.966c-0.935,0.374 -1.9,0.55 -2.849,0.55Zm-7.671,-442.545l15.342,0l-0,405.881l-15.342,0l0,-405.881Z" style="fill:#1a1a1a;"/></svg>