<?xml version="1.0" encoding="UTF-8"?>
<svg id="Livello_2" data-name="Livello 2" xmlns="http://www.w3.org/2000/svg" viewBox="0 0 230.35 500.6">
  <defs>
    <style>
      .cls-1 {
        stroke-width: 0px;
      }
    </style>
  </defs>
  <g id="Livello_1-2" data-name="Livello 1">
    <path class="cls-1" d="M230.32,80.6c-.14,3.07-1.13,5.76-2.99,8.15-1.15,1.47-2.66,2.03-4.5,1.48-.32-.09-.63-.19-.94-.29q-3.08-.89-5.04,1.62c-1.35,1.76-3.07,2.34-5.21,1.75-3.6-.99-6.19-3.36-8.48-6.14-1.81-2.21-3.14-4.72-4.45-7.24-1.65-3.17-4.17-4.99-7.68-5.76-5-1.1-10.04-2-14.78-4.14-3.57-1.6-7.19.75-8.13,4.98-.66,2.93-.99,5.91-1.05,8.91-.26,13.38,3.01,26.04,7.81,38.38,1.82,4.68,3.81,9.29,5.62,13.97.53,1.4,1.33,1.88,2.72,1.64.43-.08.87-.09,1.3-.13,2.91-.32,4.59,1.1,4.45,3.98-.28,5.62-1.2,11.17-2.62,16.61-2.13,8.19-5.13,16.03-10.34,22.8-5.38,7-12.08,11.76-20.48,13.5-.35.18-.7.45-.77.73-.2.8-.7,1.7.1,2.7,1.1,1.5,2,3.2,2.7,4.9.4.9.4,2.1.6,3.4,1.6-1.2,3.1-2.3,4.4-3.5,5.8-5.4,13.1-4.4,18.1-1.5,2.3,1.3,3.6,3.5,3.3,6.5-.2,1.8-.2,3.5,1.2,4.9-.7.8-1.4,1.5-1.9,2.3-1.4,2.5-2.9,5.1-4.2,7.7-.8,1.5-.6,3,.4,4.6,1.6,2.8.9,6.1-1.5,7.8-3.6,2.6-4.5,4.9-3.4,9.4.6,2.5.4,4.8-.5,7.2-4.6,12.3-12.6,20.9-24,26-1.1.5-2.1,1.3-3.1,2-2.1,1.5-11.3,4.5-15.4,4.6-1.6,0-2.9,1.2-2.9,2.8,0,2.1,1,2.6,2.4,3.1,1.1,0,3.6.3,4.8.4,5.1.6,10,1.7,14.3,4.6,3,2.1,3.1,5.4.3,7.8-2.6,2.2-5.6,3-8.8,3.3-3.3.3-6.7.5-10.1.7-1.6,0-2.9,1.2-2.9,2.8,0,2.1,1,2.6,2.4,3.1,3.6,1.1,8.3,2.5,11.1,5.3.8.8,1.9,1.3,2.9,1.8,3.5,1.6,7.2,2.8,10.6,4.7,6.3,3.5,10.7,8.8,13.1,16.1,1.2,3.7,1.1,7.3-.4,10.8-1.4,3.1-3.5,5.6-6,7.7-4.3,3.5-9.2,5.4-14.3,6.9-2.3.7-4.8,1.2-6.9,2.4-4,2.2-7.9,4.5-12.3,5.5-1,.2-1.2.9-1.3,1.9,0,1.1.6,1.2,1.3,1.4.6.1,1.3.3,1.9.4,5.9.8,11.5,3,17,5.6,1.1.5,1.8,1.4,2,2.8.6,3.9.7,3.9,4.4,3.8.4-.1.9,0,1.3-.2.7-.2,1.4-.6,1.8-1.1,1.6-2,3.1-4.1,4.7-6.2,3.2-4.3,7.3-6.3,12.5-5.8,3,.2,4.2,1,4.4,4.2.4,4.2.3,8.4.4,12.6,0,.7,0,1.9.3,2,.7.2,1.6-.1,2.3-.3.5-.1,1-.7,1.5-1,1.1-.8,2.2-.5,3.2.3,1,.7.3,1.5.1,2.3-.5,1.9-1,3.8-1.7,5.6-.7,1.9-.7,3.6,0,5.5,1.4,4.1,1,7.9-1.6,11.4-.2.1-.3.3-.4.5-.5.8-.4,1.4.4,1.7,2.3.9,3.6,2.8,4.9,4.9,3.3,5.6,6.8,11.2,10.1,16.9.8,1.6,1.5,3.3,1.9,5.1.6,2.1,1.4,3.8,3.1,5.1,1.9,1.4,3.8,3.1,5.6,4.7,2.3,2.1,4.2,4.6,4.8,7.8,1.4,7.7.6,15.1-6.9,20.1-4.2,2.9-8.8,4.7-13.5,6.1-14.3,4.1-29,6.3-43.8,7.2-10.9.6-21.7.8-32.6,1.1h-3.6c-10.9-.4-21.8-.5-32.6-1.1-14.8-.8-29.4-3-43.8-7.2-4.7-1.4-9.3-3.3-13.5-6.1-7.4-5-8.3-12.4-6.9-20.1.6-3.2,2.5-5.7,4.8-7.8,1.8-1.6,3.6-3.3,5.6-4.7,1.8-1.3,2.6-3,3.1-5.1.4-1.8,1-3.6,1.9-5.1,3.3-5.7,6.7-11.3,10.1-16.9,1.2-2.1,2.6-4,4.9-4.9.8-.3.9-1,.4-1.7-.2-.2-.3-.3-.4-.5-2.6-3.5-3-7.3-1.6-11.4.7-1.8.8-3.6,0-5.5-.8-1.8-1.2-3.7-1.7-5.6-.2-.7-.9-1.5.1-2.3,1-.8,2-1.1,3.2-.3.5.3.9.8,1.5,1,.8.3,1.6.5,2.3.3.2-.1.3-1.3.3-2,.2-4.2.1-8.4.4-12.6.3-3.2,1.4-3.9,4.4-4.2,5.1-.4,9.2,1.5,12.5,5.8,1.6,2,3.1,4.2,4.7,6.2.5.5,1.2.8,1.8,1.1.4.2.8.2,1.3.2q3.8.2,4.4-3.8c.2-1.4.9-2.3,2-2.8,5.4-2.6,11-4.7,17-5.6.6-.1,1.3-.3,1.9-.4.7-.2,1.4-.3,1.3-1.4-.1-1-.3-1.7-1.3-1.9-4.4-1.1-8.3-3.3-12.3-5.5-2.1-1.2-4.6-1.7-6.9-2.4-5.1-1.5-10-3.4-14.3-6.9-2.5-2.1-4.6-4.6-6-7.7-1.6-3.5-1.6-7.1-.4-10.8,2.4-7.3,6.8-12.6,13.1-16.1,3.4-1.9,7.1-3.1,10.6-4.7,1-.4,2.1-1,2.9-1.8,2.9-2.8,7.5-4.2,11.1-5.3,1.4-.5,2.4-1,2.4-3.1,0-1.6-1.3-2.8-2.9-2.8-3.3-.2-6.7-.4-10.1-.7-3.2-.3-6.2-1.2-8.8-3.3-2.9-2.4-2.8-5.7.3-7.8,4.4-3,9.3-4,14.3-4.6,1.1-.1,3.6-.3,4.8-.4,1.4-.5,2.4-1,2.4-3.1,0-1.6-1.3-2.8-2.9-2.8-4,0-13.2-3-15.4-4.6-1-.7-2-1.5-3.1-2-11.4-5.1-19.4-13.6-24-26-.9-2.4-1.1-4.7-.5-7.2,1.1-4.4.2-6.8-3.4-9.4-2.5-1.8-3.2-5.1-1.5-7.8,1-1.6,1.2-3.1.4-4.6-1.3-2.6-2.7-5.2-4.2-7.7-.5-.8-1.2-1.5-1.9-2.3,1.4-1.4,1.4-3.1,1.2-4.9-.3-3,1-5.2,3.3-6.5,5-2.9,12.3-3.8,18.1,1.5,1.3,1.2,2.8,2.2,4.4,3.5.2-1.3.2-2.5.6-3.4.8-1.7,1.6-3.5,2.7-4.9.8-1,.3-1.8.1-2.7-.05-.21-.27-.44-.52-.62-9.01-1.79-16.02-7-21.48-14.67-5.91-8.29-8.96-17.76-10.83-27.66-.68-3.58-1.27-7.19-1.33-10.85-.04-2.68,1.58-4.15,4.25-3.95.43.03.87.11,1.29.19,1.51.3,2.4-.18,2.99-1.72,3.62-9.41,7.92-18.57,10.26-28.44,1.85-7.82,3.47-15.66,3.14-23.76-.12-2.94-.4-5.87-1.07-8.74-1.17-5.01-4.91-6.73-9.54-4.53-4.09,1.95-8.57,2.54-12.93,3.47-3.82.81-6.53,2.73-8.27,6.22-2.14,4.26-4.68,8.26-8.67,11.11-.85.6-1.75,1.09-2.73,1.47-3.51,1.37-5.32.81-7.28-2.4-.65-1.07-1.37-1.47-2.56-1-.56.22-1.16.3-1.73.48-3.05.95-4.62.39-6.33-2.36-2.8-4.52-2.64-9.33-1.25-14.2,2.14-7.45,5-14.65,7.7-21.9,2.82-7.62,5.57-15.26,8.18-22.96.54-1.61.53-3.2.01-4.81-.72-2.18-1.41-4.36-2.07-6.55-.43-1.42-.56-2.86-.27-4.35.25-1.33.81-2.15,2.26-1.96,1.58.22,2.01-.46,2.11-1.99.15-2.17.57-4.32,1.21-6.42.85-2.76,2.2-3.18,4.62-1.54,1.4.95,2.37,2.27,3.22,3.66,2.62,4.28,6.71,6.27,11.34,7.4,1.61.39,3.25-.15,4.87-.27,5.08-.37,10.13-.5,15.15.63.99.22,2.06.14,3.1.12,12.98-.27,22.47,5.63,28.95,16.6,1.67,2.82,3.61,4.76,7.01,5.18,3.07.39,5.39,2.24,7.27,4.65,1.97,2.51,3.53,5.24,4.44,8.32.38,1.27.85,2.47,1.88,3.39.83.74.86,1.76.73,2.73-.23,1.74.59,3.06,1.56,4.33.42.55.93.96,1.68.72.75-.24,1.19-.77,1.21-1.57.02-.82.01-1.64.01-2.45.02-1.35.28-2.65,1.26-3.62,1.05-1.05,1.61-2.31,2.02-3.68,1-3.29,2.75-6.17,4.94-8.79,1.85-2.22,4.2-3.73,7.07-4.09,3.02-.38,4.94-2.02,6.32-4.58,2.7-4.99,6.34-9.14,11.16-12.18,5.1-3.21,10.61-5.13,16.71-4.92,2.53.09,4.98-.25,7.47-.63,4.67-.72,9.36-.42,14.04.03,5.41.51,9.62-1.78,13.11-5.64,1.13-1.25,1.93-2.8,3.06-4.04,1.08-1.2,2.34-2.58,4.16-2.1,1.68.44,1.79,2.2,2.09,3.62.41,1.91.73,3.85.99,5.8.12.82.34,1.27,1.26,1.36,2.81.28,3.5,1.18,3.17,4.1-.31,2.79-1.3,5.41-2.24,8.02-.77,2.11-.71,4.05-.01,6.19,4.49,13.57,9.93,26.8,14.5,40.34,1.21,3.56,2.29,7.15,2.1,11.01Z"/>
  </g>
</svg>