<?xml version="1.0" encoding="UTF-8" standalone="no"?><!DOCTYPE svg PUBLIC "-//W3C//DTD SVG 1.1//EN" "http://www.w3.org/Graphics/SVG/1.1/DTD/svg11.dtd"><svg width="100%" height="100%" viewBox="0 0 5519 5519" version="1.1" xmlns="http://www.w3.org/2000/svg" xmlns:xlink="http://www.w3.org/1999/xlink" xml:space="preserve" xmlns:serif="http://www.serif.com/" style="fill-rule:evenodd;clip-rule:evenodd;stroke-linejoin:round;stroke-miterlimit:2;"><path d="M2759.1,0l108.238,1383.8l240.95,-829.379l-27.138,863.246l530.558,-1282.63l-324.675,1349.52l485.446,-714.33l-292.566,812.609l900.95,-1055.9l-725.817,1183.14l682.433,-529.354l-529.358,682.429l1183.14,-725.816l-1055.9,900.95l812.608,-292.567l-714.329,485.446l1349.52,-324.675l-1282.63,530.558l863.245,-27.137l-829.379,240.95l1383.8,108.237l-1383.8,108.238l829.379,240.95l-863.245,-27.138l1282.63,530.559l-1349.52,-324.675l714.329,485.445l-812.608,-292.566l1055.9,900.95l-1183.14,-725.817l529.358,682.433l-682.433,-529.358l725.817,1183.14l-900.95,-1055.9l292.566,812.608l-485.445,-714.329l324.675,1349.52l-530.559,-1282.63l27.138,863.245l-240.95,-829.379l-108.238,1383.8l-108.237,-1383.8l-240.95,829.379l27.137,-863.245l-530.558,1282.63l324.675,-1349.52l-485.446,714.329l292.567,-812.608l-900.95,1055.9l725.816,-1183.14l-682.429,529.358l529.354,-682.433l-1183.14,725.817l1055.9,-900.95l-812.609,292.566l714.33,-485.445l-1349.52,324.675l1282.63,-530.559l-863.246,27.138l829.379,-240.95l-1383.8,-108.238l1383.8,-108.237l-829.379,-240.95l863.246,27.137l-1282.63,-530.558l1349.52,324.675l-714.33,-485.446l812.609,292.567l-1055.9,-900.95l1183.14,725.816l-529.354,-682.429l682.429,529.354l-725.816,-1183.14l900.95,1055.9l-292.567,-812.609l485.446,714.33l-324.675,-1349.52l530.558,1282.63l-27.137,-863.246l240.95,829.379l108.237,-1383.8Z"/></svg>