<?xml version="1.0" encoding="UTF-8"?>
<svg id="Livello_2" data-name="Livello 2" xmlns="http://www.w3.org/2000/svg" viewBox="0 0 325.62 353.38">
  <defs>
    <style>
      .cls-1 {
        fill: none;
        stroke: #000;
        stroke-miterlimit: 10;
        stroke-width: 8px;
      }
    </style>
  </defs>
  <g id="Livello_3" data-name="Livello 3">
    <path class="cls-1" d="M4.72,4h298.33c10.26,0,18.57,8.32,18.57,18.57v308.23c0,10.26-8.32,18.57-18.57,18.57H22.57c-10.26,0-18.57-8.32-18.57-18.57V53.29c0-10.26,8.32-18.57,18.57-18.57h252.22c10.26,0,18.57,8.32,18.57,18.57v246.75c0,10.26-8.32,18.57-18.57,18.57H50.9c-10.26,0-18.57-8.32-18.57-18.57V84.01c0-10.26,8.32-18.57,18.57-18.57h195.63c10.26,0,18.57,8.32,18.57,18.57v185.32c0,10.26-8.32,18.57-18.57,18.57H79.16c-10.26,0-18.57-8.32-18.57-18.57V114.72c0-10.26,8.32-18.57,18.57-18.57h139.12c10.26,0,18.57,8.32,18.57,18.57v123.88c0,10.26-8.32,18.57-18.57,18.57h-110.87c-10.26,0-18.57-8.32-18.57-18.57v-93.17c0-10.26,8.32-18.57,18.57-18.57h82.61c10.26,0,18.57,8.32,18.57,18.57v62.45c0,10.26-8.32,18.57-18.57,18.57h-54.35c-10.26,0-18.57-8.32-18.57-18.57v-31.73c0-10.26,8.32-18.57,18.57-18.57h25.16c10.26,0,18.57,8.32,18.57,18.57h0c0,10.26-8.32,18.57-18.57,18.57h-15.48"/>
  </g>
</svg>