<?xml version="1.0" encoding="UTF-8" standalone="no"?><!DOCTYPE svg PUBLIC "-//W3C//DTD SVG 1.1//EN" "http://www.w3.org/Graphics/SVG/1.1/DTD/svg11.dtd"><svg width="100%" height="100%" viewBox="0 0 3203 4156" version="1.1" xmlns="http://www.w3.org/2000/svg" xmlns:xlink="http://www.w3.org/1999/xlink" xml:space="preserve" xmlns:serif="http://www.serif.com/" style="fill-rule:evenodd;clip-rule:evenodd;stroke-linejoin:round;stroke-miterlimit:2;"><path d="M1954.68,-0c17.118,0 33.535,6.8 45.639,18.904c12.104,12.104 18.904,28.521 18.904,45.639c0,134.895 0,445.325 0,580.22c0,17.118 -6.8,33.535 -18.904,45.639c-12.104,12.104 -28.521,18.904 -45.639,18.904c-0.612,0 -1.225,0 -1.837,0c-17.118,0 -33.535,6.8 -45.639,18.904c-12.104,12.105 -18.904,28.521 -18.904,45.639l-0,56.563c-0,17.118 6.8,33.535 18.904,45.639c12.104,12.104 28.521,18.904 45.639,18.904c105.59,0 314.047,0 419.637,0c17.118,0 33.535,-6.8 45.639,-18.904c12.104,-12.104 18.904,-28.521 18.904,-45.639l0,-698.515c0,-17.118 6.8,-33.535 18.904,-45.639c12.105,-12.104 28.521,-18.904 45.639,-18.904l585.637,-0c17.118,-0 33.535,6.8 45.639,18.904c12.104,12.104 18.904,28.521 18.904,45.639l0,503.121c0,17.118 -6.8,33.534 -18.904,45.638c-12.104,12.105 -28.521,18.905 -45.639,18.905l-302.458,-0c-35.646,-0 -64.543,28.896 -64.543,64.543l-0,33.617c-0,35.646 28.897,64.543 64.543,64.543c30.394,-0 66.56,-0 96.955,-0c35.646,-0 64.543,28.896 64.543,64.542c-0,117.51 -0,365.058 -0,482.567c-0,17.118 -6.8,33.534 -18.905,45.638c-12.104,12.105 -28.52,18.905 -45.638,18.905l-520.881,-0c-9.191,-0 -18.007,-3.652 -24.506,-10.151c-6.5,-6.5 -10.152,-15.315 -10.152,-24.507c0,-0.002 0,-0.003 0,-0.004c0,-9.192 -3.651,-18.007 -10.151,-24.507c-6.499,-6.5 -15.315,-10.151 -24.507,-10.151c-20.651,-0 -47.519,-0 -71.949,-0c-17.118,-0 -33.535,6.8 -45.639,18.904c-12.104,12.104 -18.904,28.521 -18.904,45.639l-0,544.185c-0,35.646 28.897,64.543 64.543,64.543l260.82,-0c35.646,-0 64.543,-28.897 64.543,-64.543l-0,-56.631c-0,-35.646 28.897,-64.543 64.543,-64.543l528.484,0c17.118,0 33.535,6.8 45.639,18.905c12.104,12.104 18.904,28.52 18.904,45.638c0,124.476 0,396.384 0,520.86c0,17.118 -6.8,33.534 -18.904,45.639c-12.104,12.104 -28.521,18.904 -45.639,18.904c-120.578,-0 -378.719,-0 -499.297,-0c-17.118,-0 -33.534,-6.8 -45.639,-18.904c-12.104,-12.104 -18.904,-28.521 -18.904,-45.639c0,-10.237 0,-20.825 0,-31.062c0,-35.646 -28.897,-64.543 -64.543,-64.543c-78.317,0 -209.576,0 -287.893,0c-17.118,0 -33.535,6.801 -45.639,18.905c-12.104,12.104 -18.904,28.521 -18.904,45.638c0,110.987 0,336.741 0,447.729c0,17.117 6.8,33.534 18.904,45.638c12.104,12.104 28.521,18.905 45.639,18.905c77.692,-0 207.381,-0 285.074,-0c35.646,-0 64.543,-28.897 64.543,-64.543c-0,-23.141 -0,-49.219 -0,-72.36c-0,-35.646 28.897,-64.543 64.543,-64.543l499.144,0c17.118,0 33.535,6.8 45.639,18.904c12.104,12.105 18.904,28.521 18.904,45.639c-0,122.866 -0,389.048 -0,511.914c-0,17.118 -6.8,33.535 -18.904,45.639c-12.104,12.104 -28.521,18.904 -45.639,18.904c-119.915,0 -375.75,0 -495.665,0c-17.118,0 -33.535,-6.8 -45.639,-18.904c-12.104,-12.104 -18.904,-28.521 -18.904,-45.639c-0,-34.288 -0,-76.311 -0,-110.599c-0,-35.647 -28.897,-64.543 -64.543,-64.543c-153.314,-0 -537.969,-0 -691.282,-0c-35.646,-0 -64.543,28.896 -64.543,64.543c-0,76.726 -0,204.005 -0,280.731c-0,17.118 6.8,33.535 18.904,45.639c12.104,12.104 28.521,18.904 45.639,18.904c21.366,0 45.135,0 66.5,0c17.118,0 33.535,6.8 45.639,18.904c12.104,12.104 18.904,28.521 18.904,45.639c0,49.777 0,117.288 0,160.972c0,11.65 -4.627,22.822 -12.865,31.059c-8.237,8.238 -19.409,12.865 -31.059,12.865c-0.001,0 -0.001,0 -0.002,0c-11.65,0 -22.822,4.628 -31.059,12.865c-8.238,8.238 -12.865,19.41 -12.865,31.059c-0,54.259 -0,147.016 -0,209.374c-0,35.646 -28.897,64.543 -64.543,64.543c-100.287,0 -292.402,0 -392.69,0c-35.646,0 -64.542,-28.897 -64.542,-64.543l-0,-209.374c-0,-11.649 -4.628,-22.821 -12.866,-31.059c-8.237,-8.237 -19.409,-12.865 -31.058,-12.865l-0.003,0c-11.649,0 -22.822,-4.627 -31.059,-12.865c-8.237,-8.237 -12.865,-19.409 -12.865,-31.059l-0,-160.972c-0,-17.118 6.8,-33.535 18.904,-45.639c12.104,-12.104 28.521,-18.904 45.639,-18.904c21.365,0 45.135,0 66.5,0c17.118,0 33.535,-6.8 45.639,-18.904c12.104,-12.104 18.904,-28.521 18.904,-45.639c0,-76.726 0,-204.005 0,-280.731c0,-35.647 -28.897,-64.543 -64.543,-64.543l-691.282,-0c-35.646,-0 -64.543,28.896 -64.543,64.543c0,34.288 0,76.311 0,110.599c0,17.118 -6.8,33.535 -18.904,45.639c-12.104,12.104 -28.521,18.904 -45.639,18.904c-119.915,0 -375.75,0 -495.665,0c-17.118,0 -33.534,-6.8 -45.639,-18.904c-12.104,-12.104 -18.904,-28.521 -18.904,-45.639c0,-122.866 0,-389.048 0,-511.914c0,-17.118 6.8,-33.534 18.904,-45.639c12.105,-12.104 28.521,-18.904 45.639,-18.904c120.55,0 378.595,0 499.145,0c35.646,0 64.543,28.897 64.543,64.543c-0,23.141 -0,49.219 -0,72.36c-0,35.646 28.896,64.543 64.542,64.543l285.074,-0c17.118,-0 33.535,-6.801 45.639,-18.905c12.104,-12.104 18.904,-28.521 18.904,-45.638c0,-110.988 0,-336.742 0,-447.729c0,-17.117 -6.8,-33.534 -18.904,-45.638c-12.104,-12.104 -28.521,-18.905 -45.639,-18.905c-78.317,0 -209.576,0 -287.893,0c-35.646,0 -64.543,28.897 -64.543,64.543c0,10.237 0,20.825 0,31.062c0,17.118 -6.8,33.535 -18.904,45.639c-12.104,12.104 -28.521,18.904 -45.639,18.904c-120.578,-0 -378.719,-0 -499.297,-0c-17.118,-0 -33.535,-6.8 -45.639,-18.904c-12.104,-12.105 -18.904,-28.521 -18.904,-45.639c0,-124.476 0,-396.384 -0,-520.86c-0,-17.118 6.8,-33.534 18.904,-45.638c12.104,-12.105 28.521,-18.905 45.639,-18.905l528.484,0c35.646,0 64.543,28.897 64.543,64.543c0,18.334 0,38.297 0,56.631c0,35.646 28.897,64.543 64.543,64.543c72.235,-0 188.586,-0 260.821,-0c35.646,-0 64.542,-28.897 64.542,-64.543l0,-544.185c0,-17.118 -6.8,-33.535 -18.904,-45.639c-12.104,-12.104 -28.521,-18.904 -45.639,-18.904c-24.43,-0 -51.298,-0 -71.949,-0c-9.192,-0 -18.007,3.651 -24.507,10.151c-6.5,6.5 -10.151,15.315 -10.151,24.507l-0,0.004c-0,9.192 -3.652,18.007 -10.151,24.507c-6.5,6.499 -15.315,10.151 -24.507,10.151c-100.069,-0 -390.594,-0 -520.881,-0c-17.117,-0 -33.534,-6.8 -45.638,-18.905c-12.104,-12.104 -18.904,-28.52 -18.904,-45.638c-0,-117.509 -0,-365.057 -0,-482.567c-0,-35.646 28.896,-64.542 64.542,-64.542c30.395,-0 66.561,-0 96.956,-0c35.646,-0 64.542,-28.897 64.543,-64.543l-0,-33.617c-0.001,-35.647 -28.897,-64.543 -64.543,-64.543l-302.459,-0c-17.118,-0 -33.535,-6.8 -45.639,-18.905c-12.104,-12.104 -18.904,-28.52 -18.904,-45.638l0,-503.121c0,-17.118 6.8,-33.535 18.904,-45.639c12.104,-12.104 28.521,-18.904 45.639,-18.904l585.637,-0c17.118,-0 33.535,6.8 45.639,18.904c12.104,12.104 18.904,28.521 18.904,45.639l0,698.515c0,17.118 6.8,33.535 18.904,45.639c12.104,12.104 28.521,18.904 45.639,18.904c105.59,0 314.048,0 419.638,0c17.117,0 33.534,-6.8 45.638,-18.904c12.104,-12.104 18.904,-28.521 18.904,-45.639l0,-56.563c0,-17.118 -6.8,-33.534 -18.904,-45.639c-12.104,-12.104 -28.521,-18.904 -45.638,-18.904c-0.613,0 -1.226,0 -1.838,0c-17.118,0 -33.535,-6.8 -45.639,-18.904c-12.104,-12.104 -18.904,-28.521 -18.904,-45.639c-0,-134.895 -0,-445.325 -0,-580.22c-0,-17.118 6.8,-33.535 18.904,-45.639c12.104,-12.104 28.521,-18.904 45.639,-18.904l706.872,-0Z" style="fill:#1a1a1a;"/></svg>